<?xml version="1.0" encoding="UTF-8"?>
<svg width="176px" height="133px" viewBox="0 0 176 133" version="1.1" xmlns="http://www.w3.org/2000/svg" xmlns:xlink="http://www.w3.org/1999/xlink">
    <!-- Generator: Sketch 53.2 (72643) - https://sketchapp.com -->
    <title>sfflogograaEng</title>
    <desc>Created with Sketch.</desc>
    <defs>
        <polygon id="path-1" points="0.06 0.884 6.809 0.884 6.809 9.474 0.06 9.474"></polygon>
        <polygon id="path-3" points="0.06 0.044 175.748 0.044 175.748 17.94 0.06 17.94"></polygon>
    </defs>
    <g id="sfflogograaEng" stroke="none" stroke-width="1" fill="none" fill-rule="evenodd">
        <g id="Group-3" transform="translate(0.000000, 121.000000)">
            <mask id="mask-2" fill="white">
                <use xlink:href="#path-1"></use>
            </mask>
            <g id="Clip-2"></g>
            <polyline id="Fill-1" fill="#6D6E6D" mask="url(#mask-2)" points="2.83 9.474 2.83 1.898 0 1.898 0 0.884 6.809 0.884 6.809 1.898 3.967 1.898 3.967 9.474 2.83 9.474"></polyline>
        </g>
        <path d="M7.84,130.474 L7.84,121.884 L8.895,121.884 L8.895,124.966 C9.387,124.396 10.008,124.111 10.758,124.111 C11.219,124.111 11.619,124.202 11.959,124.383 C12.299,124.565 12.542,124.816 12.688,125.136 C12.835,125.457 12.908,125.921 12.908,126.531 L12.908,130.474 L11.854,130.474 L11.854,126.531 C11.854,126.003 11.739,125.62 11.511,125.379 C11.282,125.139 10.959,125.019 10.541,125.019 C10.229,125.019 9.935,125.1 9.659,125.262 C9.384,125.424 9.188,125.644 9.07,125.921 C8.953,126.199 8.895,126.582 8.895,127.07 L8.895,130.474 L7.84,130.474" id="Fill-4" fill="#6D6E6D"></path>
        <path d="M15.311,126.765 L18.785,126.765 C18.738,126.242 18.605,125.849 18.387,125.587 C18.051,125.181 17.615,124.978 17.08,124.978 C16.596,124.978 16.188,125.14 15.858,125.464 C15.528,125.789 15.346,126.222 15.311,126.765 Z M18.773,128.47 L19.863,128.605 C19.691,129.242 19.373,129.736 18.908,130.087 C18.443,130.439 17.85,130.615 17.127,130.615 C16.217,130.615 15.495,130.335 14.962,129.774 C14.429,129.213 14.162,128.427 14.162,127.416 C14.162,126.369 14.432,125.556 14.971,124.978 C15.51,124.4 16.209,124.111 17.068,124.111 C17.9,124.111 18.58,124.394 19.107,124.96 C19.635,125.527 19.898,126.324 19.898,127.351 C19.898,127.414 19.896,127.507 19.893,127.632 L15.252,127.632 C15.291,128.316 15.484,128.839 15.832,129.203 C16.18,129.566 16.613,129.748 17.133,129.748 C17.52,129.748 17.85,129.646 18.123,129.443 C18.396,129.24 18.613,128.916 18.773,128.47 L18.773,128.47 Z" id="Fill-5" fill="#6D6E6D"></path>
        <path d="M25.81,125.675 L28.254,125.675 C28.773,125.675 29.18,125.622 29.473,125.514 C29.766,125.407 29.988,125.235 30.141,124.999 C30.293,124.762 30.369,124.505 30.369,124.228 C30.369,123.822 30.222,123.488 29.927,123.226 C29.632,122.964 29.166,122.834 28.529,122.834 L25.81,122.834 L25.81,125.675 Z M24.674,130.474 L24.674,121.884 L28.482,121.884 C29.248,121.884 29.83,121.961 30.229,122.116 C30.627,122.27 30.945,122.543 31.184,122.933 C31.422,123.324 31.541,123.755 31.541,124.228 C31.541,124.837 31.344,125.351 30.949,125.769 C30.555,126.187 29.945,126.453 29.121,126.566 C29.422,126.71 29.65,126.853 29.807,126.994 C30.139,127.298 30.453,127.679 30.75,128.136 L32.244,130.474 L30.815,130.474 L29.678,128.687 C29.346,128.171 29.072,127.777 28.857,127.503 C28.643,127.23 28.45,127.039 28.28,126.929 C28.11,126.82 27.938,126.744 27.762,126.701 C27.633,126.673 27.422,126.66 27.129,126.66 L25.81,126.66 L25.81,130.474 L24.674,130.474 L24.674,130.474 Z" id="Fill-6" fill="#6D6E6D"></path>
        <path d="M33.984,126.765 L37.459,126.765 C37.412,126.242 37.279,125.849 37.061,125.587 C36.725,125.181 36.289,124.978 35.754,124.978 C35.27,124.978 34.862,125.14 34.532,125.464 C34.202,125.789 34.02,126.222 33.984,126.765 Z M37.447,128.47 L38.537,128.605 C38.365,129.242 38.047,129.736 37.582,130.087 C37.117,130.439 36.523,130.615 35.801,130.615 C34.891,130.615 34.169,130.335 33.636,129.774 C33.103,129.213 32.836,128.427 32.836,127.416 C32.836,126.369 33.105,125.556 33.645,124.978 C34.184,124.4 34.883,124.111 35.742,124.111 C36.574,124.111 37.254,124.394 37.781,124.96 C38.309,125.527 38.572,126.324 38.572,127.351 C38.572,127.414 38.57,127.507 38.566,127.632 L33.926,127.632 C33.965,128.316 34.158,128.839 34.506,129.203 C34.854,129.566 35.287,129.748 35.807,129.748 C36.193,129.748 36.523,129.646 36.797,129.443 C37.07,129.24 37.287,128.916 37.447,128.47 L37.447,128.47 Z" id="Fill-7" fill="#6D6E6D"></path>
        <path d="M39.439,128.617 L40.482,128.453 C40.541,128.871 40.704,129.191 40.972,129.414 C41.239,129.636 41.613,129.748 42.094,129.748 C42.578,129.748 42.938,129.649 43.172,129.452 C43.406,129.254 43.523,129.023 43.523,128.757 C43.523,128.519 43.42,128.332 43.213,128.195 C43.068,128.101 42.709,127.982 42.135,127.837 C41.361,127.642 40.825,127.473 40.526,127.331 C40.228,127.188 40.001,126.991 39.847,126.739 C39.692,126.487 39.615,126.209 39.615,125.904 C39.615,125.626 39.679,125.37 39.806,125.133 C39.933,124.897 40.106,124.701 40.324,124.544 C40.488,124.423 40.712,124.321 40.995,124.237 C41.278,124.153 41.582,124.111 41.906,124.111 C42.395,124.111 42.823,124.181 43.192,124.322 C43.562,124.462 43.834,124.653 44.01,124.893 C44.186,125.133 44.307,125.455 44.373,125.857 L43.342,125.998 C43.295,125.677 43.159,125.427 42.935,125.248 C42.71,125.068 42.393,124.978 41.982,124.978 C41.498,124.978 41.152,125.058 40.945,125.218 C40.738,125.378 40.635,125.566 40.635,125.781 C40.635,125.918 40.678,126.041 40.764,126.15 C40.85,126.263 40.984,126.357 41.168,126.431 C41.273,126.47 41.584,126.56 42.1,126.701 C42.846,126.9 43.366,127.063 43.661,127.19 C43.956,127.317 44.188,127.501 44.355,127.744 C44.523,127.986 44.607,128.287 44.607,128.646 C44.607,128.998 44.505,129.329 44.3,129.639 C44.095,129.95 43.799,130.19 43.412,130.36 C43.025,130.53 42.588,130.615 42.1,130.615 C41.291,130.615 40.675,130.447 40.251,130.111 C39.827,129.775 39.557,129.277 39.439,128.617" id="Fill-8" fill="#6D6E6D"></path>
        <path d="M46.659,126.765 L50.133,126.765 C50.086,126.242 49.954,125.849 49.735,125.587 C49.399,125.181 48.963,124.978 48.428,124.978 C47.944,124.978 47.536,125.14 47.206,125.464 C46.875,125.789 46.694,126.222 46.659,126.765 Z M50.122,128.47 L51.211,128.605 C51.04,129.242 50.721,129.736 50.256,130.087 C49.792,130.439 49.198,130.615 48.475,130.615 C47.565,130.615 46.842,130.335 46.309,129.774 C45.776,129.213 45.51,128.427 45.51,127.416 C45.51,126.369 45.779,125.556 46.319,124.978 C46.858,124.4 47.557,124.111 48.417,124.111 C49.249,124.111 49.928,124.394 50.456,124.96 C50.983,125.527 51.247,126.324 51.247,127.351 C51.247,127.414 51.245,127.507 51.241,127.632 L46.6,127.632 C46.639,128.316 46.833,128.839 47.18,129.203 C47.528,129.566 47.961,129.748 48.481,129.748 C48.868,129.748 49.198,129.646 49.471,129.443 C49.745,129.24 49.961,128.916 50.122,128.47 L50.122,128.47 Z" id="Fill-9" fill="#6D6E6D"></path>
        <path d="M56.508,127.351 C56.126,127.507 55.551,127.64 54.786,127.75 C54.352,127.812 54.045,127.882 53.866,127.96 C53.686,128.039 53.547,128.153 53.45,128.303 C53.352,128.454 53.303,128.621 53.303,128.804 C53.303,129.085 53.41,129.32 53.623,129.507 C53.835,129.695 54.147,129.789 54.557,129.789 C54.963,129.789 55.325,129.7 55.641,129.522 C55.958,129.344 56.19,129.101 56.338,128.793 C56.452,128.554 56.508,128.203 56.508,127.738 L56.508,127.351 Z M56.596,129.707 C56.206,130.039 55.83,130.273 55.468,130.41 C55.107,130.546 54.719,130.615 54.305,130.615 C53.622,130.615 53.096,130.448 52.729,130.114 C52.362,129.78 52.178,129.353 52.178,128.834 C52.178,128.529 52.248,128.251 52.386,127.999 C52.525,127.747 52.707,127.544 52.931,127.392 C53.156,127.24 53.409,127.125 53.69,127.046 C53.897,126.992 54.209,126.939 54.627,126.888 C55.479,126.787 56.106,126.666 56.508,126.525 C56.512,126.38 56.514,126.289 56.514,126.25 C56.514,125.82 56.415,125.517 56.215,125.341 C55.946,125.103 55.545,124.984 55.014,124.984 C54.518,124.984 54.152,125.071 53.916,125.245 C53.679,125.418 53.504,125.726 53.391,126.168 L52.36,126.027 C52.454,125.585 52.608,125.229 52.823,124.958 C53.038,124.686 53.348,124.477 53.754,124.331 C54.161,124.184 54.631,124.111 55.167,124.111 C55.698,124.111 56.129,124.173 56.461,124.298 C56.794,124.423 57.038,124.581 57.194,124.77 C57.35,124.96 57.459,125.199 57.522,125.488 C57.557,125.668 57.575,125.992 57.575,126.46 L57.575,127.867 C57.575,128.847 57.597,129.467 57.642,129.727 C57.687,129.987 57.776,130.236 57.909,130.474 L56.807,130.474 C56.698,130.255 56.627,130 56.596,129.707 L56.596,129.707 Z" id="Fill-10" fill="#6D6E6D"></path>
        <path d="M59.198,130.474 L59.198,124.251 L60.147,124.251 L60.147,125.195 C60.389,124.753 60.613,124.462 60.818,124.322 C61.023,124.181 61.249,124.111 61.495,124.111 C61.85,124.111 62.211,124.224 62.579,124.451 L62.215,125.429 C61.958,125.277 61.7,125.201 61.442,125.201 C61.211,125.201 61.004,125.27 60.821,125.409 C60.637,125.547 60.506,125.74 60.428,125.986 C60.311,126.361 60.252,126.771 60.252,127.216 L60.252,130.474 L59.198,130.474" id="Fill-11" fill="#6D6E6D"></path>
        <path d="M67.266,128.195 L68.303,128.33 C68.19,129.044 67.9,129.604 67.433,130.008 C66.966,130.413 66.393,130.615 65.713,130.615 C64.862,130.615 64.177,130.336 63.66,129.78 C63.142,129.223 62.883,128.425 62.883,127.386 C62.883,126.714 62.995,126.126 63.217,125.623 C63.44,125.119 63.779,124.741 64.234,124.489 C64.689,124.237 65.184,124.111 65.719,124.111 C66.395,124.111 66.948,124.282 67.377,124.624 C67.807,124.965 68.082,125.451 68.204,126.08 L67.178,126.238 C67.081,125.82 66.908,125.505 66.66,125.294 C66.412,125.084 66.112,124.978 65.76,124.978 C65.229,124.978 64.797,125.168 64.465,125.549 C64.133,125.93 63.967,126.533 63.967,127.357 C63.967,128.193 64.127,128.8 64.448,129.179 C64.768,129.558 65.186,129.748 65.702,129.748 C66.116,129.748 66.461,129.621 66.739,129.367 C67.016,129.113 67.192,128.722 67.266,128.195" id="Fill-12" fill="#6D6E6D"></path>
        <path d="M69.206,130.474 L69.206,121.884 L70.26,121.884 L70.26,124.966 C70.752,124.396 71.373,124.111 72.123,124.111 C72.585,124.111 72.985,124.202 73.325,124.383 C73.665,124.565 73.908,124.816 74.054,125.136 C74.201,125.457 74.274,125.921 74.274,126.531 L74.274,130.474 L73.219,130.474 L73.219,126.531 C73.219,126.003 73.105,125.62 72.877,125.379 C72.648,125.139 72.325,125.019 71.907,125.019 C71.594,125.019 71.3,125.1 71.025,125.262 C70.749,125.424 70.553,125.644 70.436,125.921 C70.319,126.199 70.26,126.582 70.26,127.07 L70.26,130.474 L69.206,130.474" id="Fill-13" fill="#6D6E6D"></path>
        <path d="M85.477,127.462 L86.614,127.75 C86.376,128.683 85.947,129.395 85.328,129.885 C84.709,130.376 83.952,130.621 83.057,130.621 C82.131,130.621 81.378,130.432 80.798,130.055 C80.218,129.678 79.777,129.132 79.474,128.418 C79.171,127.703 79.02,126.935 79.02,126.115 C79.02,125.22 79.191,124.44 79.533,123.774 C79.874,123.108 80.361,122.602 80.992,122.256 C81.623,121.911 82.317,121.738 83.075,121.738 C83.934,121.738 84.657,121.957 85.243,122.394 C85.829,122.832 86.237,123.447 86.467,124.24 L85.348,124.503 C85.149,123.878 84.86,123.423 84.481,123.138 C84.102,122.853 83.626,122.71 83.051,122.71 C82.391,122.71 81.839,122.869 81.396,123.185 C80.953,123.501 80.641,123.926 80.461,124.46 C80.282,124.993 80.192,125.543 80.192,126.109 C80.192,126.839 80.298,127.477 80.511,128.022 C80.724,128.567 81.055,128.974 81.504,129.244 C81.954,129.513 82.44,129.648 82.963,129.648 C83.6,129.648 84.139,129.464 84.581,129.097 C85.022,128.73 85.321,128.185 85.477,127.462" id="Fill-14" fill="#6D6E6D"></path>
        <path d="M88.571,127.363 C88.571,128.16 88.745,128.756 89.092,129.153 C89.44,129.549 89.877,129.748 90.405,129.748 C90.928,129.748 91.364,129.548 91.711,129.15 C92.059,128.751 92.233,128.144 92.233,127.328 C92.233,126.558 92.058,125.975 91.709,125.579 C91.359,125.182 90.924,124.984 90.405,124.984 C89.877,124.984 89.44,125.181 89.092,125.576 C88.745,125.97 88.571,126.566 88.571,127.363 Z M87.487,127.363 C87.487,126.21 87.807,125.357 88.448,124.802 C88.983,124.341 89.635,124.111 90.405,124.111 C91.26,124.111 91.96,124.391 92.502,124.952 C93.045,125.512 93.317,126.287 93.317,127.275 C93.317,128.076 93.197,128.706 92.956,129.165 C92.716,129.624 92.367,129.98 91.908,130.234 C91.449,130.488 90.948,130.615 90.405,130.615 C89.534,130.615 88.83,130.335 88.293,129.777 C87.755,129.218 87.487,128.414 87.487,127.363 L87.487,127.363 Z" id="Fill-15" fill="#6D6E6D"></path>
        <path d="M98.631,130.474 L98.631,129.56 C98.147,130.263 97.489,130.615 96.657,130.615 C96.29,130.615 95.947,130.544 95.628,130.404 C95.31,130.263 95.074,130.086 94.919,129.874 C94.765,129.661 94.657,129.4 94.594,129.091 C94.551,128.884 94.53,128.556 94.53,128.107 L94.53,124.251 L95.585,124.251 L95.585,127.703 C95.585,128.253 95.606,128.625 95.649,128.816 C95.715,129.093 95.856,129.311 96.071,129.469 C96.286,129.627 96.551,129.707 96.868,129.707 C97.184,129.707 97.481,129.626 97.758,129.463 C98.036,129.301 98.232,129.081 98.347,128.801 C98.462,128.522 98.52,128.117 98.52,127.585 L98.52,124.251 L99.575,124.251 L99.575,130.474 L98.631,130.474" id="Fill-16" fill="#6D6E6D"></path>
        <path d="M101.227,130.474 L101.227,124.251 L102.176,124.251 L102.176,125.136 C102.633,124.453 103.293,124.111 104.157,124.111 C104.532,124.111 104.876,124.178 105.191,124.313 C105.505,124.448 105.741,124.625 105.897,124.843 C106.053,125.062 106.163,125.322 106.225,125.623 C106.264,125.818 106.284,126.16 106.284,126.648 L106.284,130.474 L105.229,130.474 L105.229,126.689 C105.229,126.259 105.188,125.938 105.106,125.725 C105.024,125.512 104.878,125.342 104.669,125.215 C104.46,125.088 104.215,125.025 103.934,125.025 C103.485,125.025 103.097,125.168 102.771,125.453 C102.445,125.738 102.282,126.279 102.282,127.076 L102.282,130.474 L101.227,130.474" id="Fill-17" fill="#6D6E6D"></path>
        <path d="M111.961,128.195 L112.999,128.33 C112.885,129.044 112.595,129.604 112.128,130.008 C111.662,130.413 111.088,130.615 110.409,130.615 C109.557,130.615 108.873,130.336 108.355,129.78 C107.837,129.223 107.579,128.425 107.579,127.386 C107.579,126.714 107.69,126.126 107.913,125.623 C108.135,125.119 108.474,124.741 108.929,124.489 C109.384,124.237 109.879,124.111 110.415,124.111 C111.09,124.111 111.643,124.282 112.073,124.624 C112.502,124.965 112.778,125.451 112.899,126.08 L111.874,126.238 C111.776,125.82 111.603,125.505 111.355,125.294 C111.107,125.084 110.807,124.978 110.456,124.978 C109.924,124.978 109.493,125.168 109.161,125.549 C108.829,125.93 108.663,126.533 108.663,127.357 C108.663,128.193 108.823,128.8 109.143,129.179 C109.463,129.558 109.881,129.748 110.397,129.748 C110.811,129.748 111.157,129.621 111.434,129.367 C111.711,129.113 111.887,128.722 111.961,128.195" id="Fill-18" fill="#6D6E6D"></path>
        <path d="M113.907,130.474 L114.961,130.474 L114.961,124.251 L113.907,124.251 L113.907,130.474 Z M113.907,123.097 L114.961,123.097 L114.961,121.884 L113.907,121.884 L113.907,123.097 Z" id="Fill-19" fill="#6D6E6D"></path>
        <polygon id="Fill-20" fill="#6D6E6D" points="116.543 130.474 117.598 130.474 117.598 121.884 116.543 121.884"></polygon>
        <path d="M123.258,127.363 C123.258,128.16 123.432,128.756 123.78,129.153 C124.127,129.549 124.565,129.748 125.092,129.748 C125.616,129.748 126.051,129.548 126.399,129.15 C126.747,128.751 126.92,128.144 126.92,127.328 C126.92,126.558 126.746,125.975 126.396,125.579 C126.046,125.182 125.612,124.984 125.092,124.984 C124.565,124.984 124.127,125.181 123.78,125.576 C123.432,125.97 123.258,126.566 123.258,127.363 Z M122.174,127.363 C122.174,126.21 122.495,125.357 123.135,124.802 C123.67,124.341 124.323,124.111 125.092,124.111 C125.948,124.111 126.647,124.391 127.19,124.952 C127.733,125.512 128.004,126.287 128.004,127.275 C128.004,128.076 127.884,128.706 127.644,129.165 C127.404,129.624 127.054,129.98 126.595,130.234 C126.136,130.488 125.635,130.615 125.092,130.615 C124.221,130.615 123.517,130.335 122.98,129.777 C122.443,129.218 122.174,128.414 122.174,127.363 L122.174,127.363 Z" id="Fill-21" fill="#6D6E6D"></path>
        <path d="M129.493,130.474 L129.493,125.072 L128.561,125.072 L128.561,124.251 L129.493,124.251 L129.493,123.589 C129.493,123.171 129.53,122.861 129.604,122.658 C129.706,122.384 129.884,122.163 130.14,121.993 C130.396,121.823 130.754,121.738 131.215,121.738 C131.512,121.738 131.84,121.773 132.2,121.843 L132.042,122.763 C131.823,122.724 131.616,122.705 131.42,122.705 C131.1,122.705 130.874,122.773 130.741,122.91 C130.608,123.046 130.542,123.302 130.542,123.677 L130.542,124.251 L131.754,124.251 L131.754,125.072 L130.542,125.072 L130.542,130.474 L129.493,130.474" id="Fill-22" fill="#6D6E6D"></path>
        <polyline id="Fill-23" fill="#6D6E6D" points="136.032 130.474 136.032 121.884 137.198 121.884 141.709 128.628 141.709 121.884 142.799 121.884 142.799 130.474 141.633 130.474 137.122 123.724 137.122 130.474 136.032 130.474"></polyline>
        <path d="M145.266,127.363 C145.266,128.16 145.44,128.756 145.788,129.153 C146.135,129.549 146.573,129.748 147.1,129.748 C147.624,129.748 148.059,129.548 148.407,129.15 C148.754,128.751 148.928,128.144 148.928,127.328 C148.928,126.558 148.753,125.975 148.404,125.579 C148.054,125.182 147.62,124.984 147.1,124.984 C146.573,124.984 146.135,125.181 145.788,125.576 C145.44,125.97 145.266,126.566 145.266,127.363 Z M144.182,127.363 C144.182,126.21 144.502,125.357 145.143,124.802 C145.678,124.341 146.331,124.111 147.1,124.111 C147.956,124.111 148.655,124.391 149.198,124.952 C149.741,125.512 150.012,126.287 150.012,127.275 C150.012,128.076 149.892,128.706 149.652,129.165 C149.412,129.624 149.062,129.98 148.603,130.234 C148.144,130.488 147.643,130.615 147.1,130.615 C146.229,130.615 145.525,130.335 144.988,129.777 C144.451,129.218 144.182,128.414 144.182,127.363 L144.182,127.363 Z" id="Fill-24" fill="#6D6E6D"></path>
        <path d="M151.237,130.474 L151.237,124.251 L152.186,124.251 L152.186,125.195 C152.428,124.753 152.652,124.462 152.857,124.322 C153.062,124.181 153.288,124.111 153.534,124.111 C153.889,124.111 154.25,124.224 154.618,124.451 L154.254,125.429 C153.997,125.277 153.739,125.201 153.481,125.201 C153.25,125.201 153.043,125.27 152.86,125.409 C152.676,125.547 152.545,125.74 152.467,125.986 C152.35,126.361 152.292,126.771 152.292,127.216 L152.292,130.474 L151.237,130.474" id="Fill-25" fill="#6D6E6D"></path>
        <path d="M156.393,130.474 L154.489,124.251 L155.579,124.251 L156.569,127.843 L156.938,129.179 C156.954,129.113 157.061,128.685 157.26,127.896 L158.25,124.251 L159.334,124.251 L160.266,127.861 L160.577,129.05 L160.934,127.849 L162,124.251 L163.026,124.251 L161.081,130.474 L159.985,130.474 L158.995,126.748 L158.754,125.687 L157.495,130.474 L156.393,130.474" id="Fill-26" fill="#6D6E6D"></path>
        <g id="Group-31" transform="translate(0.000000, 115.000000)">
            <mask id="mask-4" fill="white">
                <use xlink:href="#path-3"></use>
            </mask>
            <g id="Clip-28"></g>
            <path d="M167.883,12.351 C167.5,12.507 166.926,12.64 166.161,12.75 C165.727,12.812 165.42,12.882 165.241,12.96 C165.061,13.039 164.922,13.153 164.825,13.303 C164.727,13.454 164.678,13.621 164.678,13.804 C164.678,14.085 164.785,14.32 164.998,14.507 C165.21,14.695 165.522,14.789 165.932,14.789 C166.338,14.789 166.7,14.7 167.016,14.522 C167.333,14.344 167.565,14.101 167.713,13.793 C167.827,13.554 167.883,13.203 167.883,12.738 L167.883,12.351 Z M167.971,14.707 C167.581,15.039 167.205,15.273 166.843,15.41 C166.482,15.546 166.094,15.615 165.68,15.615 C164.997,15.615 164.471,15.448 164.104,15.114 C163.737,14.78 163.553,14.353 163.553,13.834 C163.553,13.529 163.623,13.251 163.761,12.999 C163.9,12.747 164.082,12.544 164.306,12.392 C164.531,12.24 164.784,12.125 165.065,12.046 C165.272,11.992 165.584,11.939 166.002,11.888 C166.854,11.787 167.481,11.666 167.883,11.525 C167.887,11.38 167.889,11.289 167.889,11.25 C167.889,10.82 167.79,10.517 167.59,10.341 C167.321,10.103 166.92,9.984 166.389,9.984 C165.893,9.984 165.527,10.071 165.291,10.245 C165.054,10.418 164.879,10.726 164.766,11.168 L163.735,11.027 C163.829,10.585 163.983,10.229 164.198,9.958 C164.413,9.686 164.723,9.477 165.129,9.331 C165.536,9.184 166.006,9.111 166.542,9.111 C167.073,9.111 167.504,9.173 167.836,9.298 C168.168,9.423 168.413,9.581 168.569,9.77 C168.725,9.96 168.834,10.199 168.897,10.488 C168.932,10.668 168.95,10.992 168.95,11.46 L168.95,12.867 C168.95,13.847 168.972,14.467 169.017,14.727 C169.062,14.987 169.151,15.236 169.284,15.474 L168.182,15.474 C168.073,15.255 168.002,15 167.971,14.707 L167.971,14.707 Z" id="Fill-27" fill="#6D6E6D" mask="url(#mask-4)"></path>
            <path d="M170.538,17.871 L170.42,16.88 C170.651,16.943 170.852,16.974 171.024,16.974 C171.258,16.974 171.446,16.935 171.586,16.857 C171.727,16.779 171.842,16.669 171.932,16.529 C171.999,16.423 172.106,16.162 172.254,15.744 C172.274,15.685 172.305,15.599 172.348,15.486 L169.987,9.251 L171.124,9.251 L172.418,12.855 C172.586,13.312 172.737,13.793 172.87,14.296 C172.991,13.812 173.135,13.339 173.303,12.878 L174.633,9.251 L175.688,9.251 L173.321,15.58 C173.067,16.263 172.87,16.734 172.729,16.992 C172.542,17.339 172.327,17.594 172.084,17.756 C171.842,17.918 171.553,18 171.217,18 C171.014,18 170.788,17.957 170.538,17.871" id="Fill-29" fill="#6D6E6D" mask="url(#mask-4)"></path>
            <path d="M175.748,0.544 L0,0.544" id="Stroke-30" stroke="#6D6E6D" stroke-width="0.3" mask="url(#mask-4)"></path>
        </g>
        <polyline id="Fill-32" fill="#6D6E6D" points="84.353 52.303 81.909 52.304 75.442 44.806 75.443 52.303 72.539 52.303 72.539 40.601 75.201 40.6 81.449 47.758 81.448 40.6 84.353 40.6 84.353 52.303"></polyline>
        <path d="M95.232,48.358 C95.232,45.315 92.73,44.234 90.794,44.234 C88.462,44.234 86.32,45.642 86.32,48.341 C86.32,50.836 88.205,52.468 90.793,52.469 C92.541,52.468 95.231,51.508 95.232,48.358 Z M92.577,48.291 C92.577,50.028 91.959,50.993 90.794,50.993 C89.849,50.993 88.974,50.39 88.974,48.341 C88.974,46.553 89.713,45.709 90.793,45.709 C92.046,45.71 92.577,46.743 92.577,48.291 L92.577,48.291 Z" id="Fill-33" fill="#6D6E6D"></path>
        <path d="M99.448,46.662 L99.481,46.662 C100.219,45.01 101.044,44.235 102.002,44.235 C102.501,44.235 102.932,44.426 103.652,44.958 L102.965,47.159 C102.313,46.747 101.884,46.576 101.489,46.576 C100.58,46.576 99.996,47.431 99.448,48.891 L99.448,52.303 L96.962,52.304 L96.962,44.4 L99.448,44.4 L99.448,46.662" id="Fill-34" fill="#6D6E6D"></path>
        <polyline id="Fill-35" fill="#6D6E6D" points="108.265 52.473 107.1 52.472 103.531 44.4 106.069 44.4 107.736 48.761 109.501 44.4 111.014 44.4 112.762 48.761 114.425 44.4 116.965 44.4 113.416 52.472 112.23 52.473 110.257 48.16 108.265 52.473"></polyline>
        <path d="M123.294,47.445 C123.193,46.363 122.543,45.709 121.586,45.71 C120.616,45.709 119.984,46.346 119.881,47.445 L123.294,47.445 Z M125.358,51.421 C123.931,52.469 122.442,52.468 121.826,52.468 C119.06,52.468 117.261,50.854 117.261,48.374 C117.261,45.951 118.99,44.234 121.417,44.234 C123.708,44.234 125.616,45.865 125.497,48.754 L119.83,48.754 C119.916,50.167 120.871,50.993 122.424,50.993 C123.417,50.994 124.188,50.699 125.358,49.857 L125.358,51.421 L125.358,51.421 Z" id="Fill-36" fill="#6D6E6D"></path>
        <path d="M132.682,53.78 C132.681,54.32 131.998,54.792 130.899,54.791 C129.574,54.791 128.856,54.46 128.856,53.849 C128.856,53.259 129.574,52.892 130.743,52.891 C131.982,52.892 132.681,53.206 132.682,53.78 Z M135.177,44.402 L130.484,44.402 C127.643,44.402 126.957,46.311 126.957,47.28 C126.966,48.729 128.164,49.545 129.173,49.696 L129.173,49.731 C128.714,49.836 127.739,50.056 127.739,50.901 C127.739,51.465 128.164,51.774 128.697,51.93 L128.697,51.963 C126.921,52.409 126.565,53.276 126.565,53.954 C126.565,55.013 127.453,56.266 130.778,56.265 C133.334,56.265 134.968,55.441 134.968,53.588 C134.968,53.188 134.847,52.564 134.335,52.049 C133.029,50.727 130.027,51.518 130.027,50.606 C130.027,49.68 132.31,50.503 133.713,49.104 C134.148,48.678 134.439,48.081 134.437,47.383 C134.437,46.925 134.322,46.549 134.042,46.074 L135.177,46.073 L135.177,44.402 Z M129.272,47.312 C129.273,46.509 129.887,45.877 130.708,45.877 C131.562,45.877 132.123,46.509 132.123,47.227 C132.123,48.044 131.494,48.729 130.708,48.729 C129.922,48.729 129.273,48.079 129.272,47.312 L129.272,47.312 Z" id="Fill-37" fill="#6D6E6D"></path>
        <path d="M138.964,44.4 L136.478,44.4 L136.48,52.303 L138.964,52.303 L138.964,44.4 Z M137.708,40.434 C136.957,40.433 136.337,41.049 136.339,41.801 C136.337,42.553 136.957,43.169 137.708,43.169 C138.46,43.17 139.076,42.553 139.075,41.801 C139.076,41.05 138.46,40.434 137.708,40.434 L137.708,40.434 Z" id="Fill-38" fill="#6D6E6D"></path>
        <path d="M149.159,50.357 C148.578,50.77 148.389,50.802 148.217,50.802 C147.958,50.803 147.806,50.649 147.806,50.254 L147.805,46.645 C147.806,44.906 146.452,44.235 144.452,44.235 C143.183,44.235 142.037,44.561 141.008,45.201 L141.009,47.228 C141.794,46.422 142.924,45.905 143.931,45.905 C145.023,45.905 145.37,46.49 145.318,47.228 C141.983,48.26 140.598,48.639 140.598,50.529 C140.598,51.527 141.54,52.472 142.806,52.473 C143.669,52.472 144.467,52.229 145.439,51.577 C145.612,52.213 146.004,52.472 146.828,52.473 C147.499,52.473 148.475,52.161 149.159,51.749 L149.159,50.357 Z M145.319,50.39 C144.9,50.769 144.399,50.993 143.931,50.993 C143.477,50.993 143.115,50.614 143.113,50.15 C143.113,49.36 143.826,49.016 145.319,48.483 L145.319,50.39 L145.319,50.39 Z" id="Fill-39" fill="#6D6E6D"></path>
        <path d="M152.671,45.526 C153.458,44.614 154.229,44.235 155.238,44.235 C156.472,44.235 158.117,44.941 158.117,47.276 L158.117,52.303 L155.634,52.303 L155.634,47.483 C155.634,46.37 155.101,45.905 154.401,45.905 C153.783,45.906 153.323,46.231 152.671,47.209 L152.67,52.303 L150.188,52.303 L150.188,44.4 L152.671,44.4 L152.671,45.526" id="Fill-40" fill="#6D6E6D"></path>
        <path d="M83.429,71.862 C81.797,72.703 80.562,73.025 78.83,73.025 C74.281,73.025 72.008,70.079 72.008,67.043 C72.008,63.902 74.574,60.99 79.052,60.99 C80.683,60.99 82.142,61.332 83.29,62.015 L83.29,64.626 C82.005,63.902 80.7,63.417 79.259,63.417 C76.768,63.417 75.02,64.902 75.02,66.991 C75.02,69.094 76.752,70.595 79.189,70.595 C80.718,70.595 81.747,70.113 83.428,69.3 L83.429,71.862" id="Fill-41" fill="#6D6E6D"></path>
        <path d="M93.168,70.413 C91.998,71.255 91.223,71.548 90.234,71.548 C88.68,71.548 87.725,70.72 87.637,69.308 L93.303,69.308 C93.424,66.417 91.516,64.789 89.226,64.789 C86.799,64.789 85.068,66.505 85.068,68.932 C85.068,71.41 86.867,73.021 89.635,73.021 C90.248,73.021 91.741,73.021 93.168,71.977 L93.168,70.413 Z M87.69,68 C87.791,66.902 88.423,66.263 89.397,66.263 C90.352,66.263 91.002,66.918 91.103,68 L87.69,68 L87.69,68 Z" id="Fill-42" fill="#6D6E6D"></path>
        <path d="M97.419,66.081 C98.206,65.166 98.974,64.789 99.986,64.789 C101.217,64.789 102.867,65.496 102.867,67.832 L102.867,72.86 L100.377,72.86 L100.377,68.038 C100.377,66.924 99.847,66.458 99.145,66.458 C98.529,66.458 98.067,66.785 97.419,67.763 L97.419,72.86 L94.931,72.86 L94.931,64.955 L97.419,64.955 L97.419,66.081" id="Fill-43" fill="#6D6E6D"></path>
        <path d="M110.613,66.657 L107.728,66.656 L107.728,69.915 C107.728,70.687 108.174,71.183 108.946,71.183 C109.465,71.183 109.94,71.062 110.613,70.722 L110.613,72.527 C109.736,72.887 109.084,73.025 108.312,73.025 C106.667,73.025 105.243,72.271 105.243,70.055 L105.243,66.656 L104.113,66.656 L104.112,66.174 L107.422,62.468 L107.728,62.47 L107.728,64.957 L110.613,64.957 L110.613,66.657" id="Fill-44" fill="#6D6E6D"></path>
        <path d="M126.655,70.562 C125.485,71.408 124.711,71.701 123.721,71.701 C122.167,71.701 121.209,70.874 121.125,69.46 L126.792,69.46 C126.912,66.572 125.003,64.941 122.712,64.941 C120.286,64.941 118.555,66.66 118.555,69.083 C118.555,71.562 120.356,73.175 123.123,73.177 C123.738,73.177 125.226,73.175 126.655,72.126 L126.655,70.562 Z M121.177,68.154 C121.28,67.054 121.91,66.417 122.882,66.417 C123.839,66.417 124.489,67.069 124.59,68.152 L121.177,68.154 L121.177,68.154 Z" id="Fill-45" fill="#6D6E6D"></path>
        <path d="M114.273,67.343 L114.308,67.343 C115.045,65.691 115.869,64.917 116.83,64.917 C117.328,64.917 117.756,65.106 118.476,65.639 L117.789,67.839 C117.14,67.429 116.709,67.255 116.315,67.257 C115.404,67.255 114.823,68.114 114.273,69.574 L114.273,72.983 L111.789,72.983 L111.789,65.081 L114.273,65.081 L114.273,67.343" id="Fill-46" fill="#6D6E6D"></path>
        <path d="M142.349,68.916 C142.351,65.871 139.851,64.789 137.912,64.789 C135.578,64.789 133.439,66.195 133.441,68.897 C133.439,71.393 135.326,73.021 137.912,73.021 C139.662,73.021 142.351,72.062 142.349,68.916 Z M139.697,68.845 C139.697,70.583 139.08,71.548 137.912,71.548 C136.97,71.548 136.093,70.944 136.093,68.898 C136.093,67.108 136.833,66.263 137.912,66.263 C139.165,66.263 139.697,67.296 139.697,68.845 L139.697,68.845 Z" id="Fill-47" fill="#6D6E6D"></path>
        <path d="M148.004,64.957 L148.005,66.656 L146.873,66.656 L146.873,72.86 L144.388,72.86 L144.389,66.656 L143.259,66.656 L143.259,64.957 L144.389,64.957 L144.389,64.558 C144.389,62.211 145.845,60.99 147.85,60.99 C148.333,60.99 148.985,61.095 149.363,61.157 L149.363,63.157 C148.71,63.069 148.521,63.051 148.248,63.051 C147.475,63.051 146.872,63.398 146.873,64.453 L146.873,64.957 L148.004,64.957" id="Fill-48" fill="#6D6E6D"></path>
        <polyline id="Fill-49" fill="#6D6E6D" points="81.156 93.408 72.538 93.41 72.538 81.712 81.035 81.714 81.035 83.857 75.443 83.857 75.442 86.324 80.78 86.324 80.78 88.466 75.443 88.466 75.442 91.267 81.156 91.267 81.156 93.408"></polyline>
        <polyline id="Fill-50" fill="#6D6E6D" points="88.14 89.369 91.502 93.412 88.622 93.414 86.751 90.962 84.949 93.412 82.15 93.412 85.376 89.369 82.15 85.511 85.05 85.511 86.751 87.789 88.362 85.511 91.262 85.511 88.14 89.369"></polyline>
        <path d="M99.514,93.052 C98.519,93.408 97.677,93.58 96.837,93.58 C94.062,93.58 92.263,91.974 92.262,89.494 C92.262,87.064 94.128,85.345 96.737,85.345 C97.544,85.345 98.573,85.55 99.395,85.861 L99.395,87.714 C98.742,87.373 97.988,87.183 97.37,87.183 C95.877,87.183 94.915,88.08 94.915,89.476 C94.915,90.89 95.859,91.822 97.283,91.822 C97.884,91.822 98.416,91.683 99.514,91.271 L99.514,93.052" id="Fill-51" fill="#6D6E6D"></path>
        <path d="M108.888,90.966 C107.718,91.812 106.942,92.103 105.953,92.103 C104.398,92.103 103.441,91.277 103.358,89.863 L109.024,89.865 C109.145,86.976 107.235,85.343 104.944,85.343 C102.518,85.343 100.787,87.06 100.787,89.486 C100.787,91.964 102.587,93.578 105.353,93.578 C105.97,93.578 107.458,93.578 108.887,92.531 L108.888,90.966 Z M103.407,88.556 C103.512,87.457 104.143,86.824 105.116,86.822 C106.072,86.822 106.72,87.474 106.823,88.556 L103.407,88.556 L103.407,88.556 Z" id="Fill-52" fill="#6D6E6D"></path>
        <polyline id="Fill-53" fill="#6D6E6D" points="113.192 93.414 110.706 93.412 110.706 81.71 113.192 81.71 113.192 93.414"></polyline>
        <polygon id="Fill-54" fill="#6D6E6D" points="115.356 93.411 117.841 93.411 117.841 81.71 115.356 81.71"></polygon>
        <path d="M125.594,88.556 C125.489,87.474 124.841,86.822 123.888,86.822 C122.914,86.822 122.282,87.457 122.181,88.556 L125.594,88.556 Z M127.659,92.531 C126.23,93.578 124.738,93.578 124.125,93.578 C121.356,93.578 119.559,91.964 119.559,89.486 C119.559,87.06 121.288,85.343 123.716,85.343 C126.007,85.343 127.917,86.976 127.793,89.865 L122.128,89.863 C122.213,91.277 123.167,92.103 124.721,92.103 C125.715,92.103 126.489,91.812 127.659,90.966 L127.659,92.531 L127.659,92.531 Z" id="Fill-55" fill="#6D6E6D"></path>
        <path d="M131.908,86.636 C132.696,85.722 133.466,85.345 134.472,85.345 C135.708,85.345 137.353,86.052 137.353,88.388 L137.355,93.412 L134.867,93.412 L134.867,88.591 C134.867,87.48 134.339,87.015 133.635,87.015 C133.021,87.015 132.558,87.341 131.908,88.322 L131.908,93.412 L129.421,93.412 L129.42,85.511 L131.908,85.511 L131.908,86.636" id="Fill-56" fill="#6D6E6D"></path>
        <path d="M146.344,93.052 C145.347,93.408 144.505,93.58 143.667,93.58 C140.888,93.582 139.089,91.974 139.088,89.494 C139.089,87.064 140.956,85.345 143.565,85.345 C144.372,85.345 145.401,85.552 146.224,85.861 L146.225,87.714 C145.572,87.373 144.818,87.183 144.201,87.183 C142.705,87.183 141.742,88.08 141.742,89.476 C141.742,90.89 142.687,91.822 144.113,91.824 C144.712,91.822 145.244,91.683 146.343,91.271 L146.344,93.052" id="Fill-57" fill="#6D6E6D"></path>
        <path d="M155.711,90.966 C154.542,91.812 153.77,92.103 152.781,92.103 C151.227,92.103 150.272,91.277 150.186,89.865 L155.853,89.863 C155.971,86.978 154.062,85.343 151.773,85.343 C149.346,85.343 147.615,87.06 147.615,89.488 C147.615,91.964 149.417,93.578 152.184,93.578 C152.798,93.578 154.288,93.578 155.711,92.531 L155.711,90.966 Z M150.236,88.556 C150.338,87.457 150.971,86.822 151.942,86.824 C152.9,86.824 153.547,87.474 153.65,88.556 L150.236,88.556 L150.236,88.556 Z" id="Fill-58" fill="#6D6E6D"></path>
        <path d="M19.142,38.467 C19.142,36.719 14.89,36.425 12.437,34.413 L12.438,38.832 C13.731,39.33 15.067,39.713 16.568,39.713 C18.147,39.713 19.142,39.237 19.142,38.467" id="Fill-59" fill="#6D6E6D"></path>
        <path d="M70.876,22.245 C69.49,21.043 67.658,20.434 65.375,20.435 C63.21,20.434 60.904,21.131 58.452,22.52 C56.007,23.915 53.665,26.001 51.448,28.785 C49.817,30.851 48.12,33.759 46.352,37.507 C45.028,40.293 43.886,42.196 42.923,43.208 C41.963,44.226 40.912,44.918 39.758,45.274 C38.729,45.596 36.988,45.77 34.558,45.806 L39.016,29.072 L45.995,29.072 L46.844,25.919 L39.915,25.919 C42.207,18.926 43.736,14.475 44.511,12.569 C46.02,8.914 47.726,6.233 49.636,4.521 C51.064,3.23 52.667,2.579 54.46,2.579 C55.173,2.58 55.713,2.738 56.085,3.049 C56.34,3.268 56.468,3.591 56.468,4.024 C56.468,4.274 56.248,4.765 55.818,5.492 C55.388,6.22 55.172,6.834 55.173,7.335 C55.173,8.107 55.48,8.777 56.098,9.336 C56.712,9.896 57.516,10.177 58.502,10.177 C59.636,10.177 60.575,9.804 61.305,9.051 C62.03,8.297 62.397,7.376 62.396,6.277 C62.397,4.867 61.708,3.56 60.319,2.353 C58.941,1.15 57.099,0.543 54.823,0.543 C52.664,0.543 50.352,1.241 47.904,2.628 C45.454,4.024 43.122,6.108 40.892,8.897 C39.271,10.961 37.573,13.866 35.801,17.621 C34.479,20.401 33.34,22.302 32.376,23.322 C31.416,24.337 30.366,25.025 29.209,25.385 C28.152,25.714 26.335,25.89 23.794,25.918 L23.216,25.917 L23.216,30.723 C20.903,29.295 18.625,28.85 17.564,28.85 C16.864,28.85 15.651,28.998 15.651,30.175 C15.651,32.044 24.057,32.119 24.057,37.771 C24.057,41.292 21.564,43.274 17.161,43.274 C15.361,43.274 13.633,42.906 12.437,42.541 L12.438,49.116 L25.939,49.115 L22.566,61.165 C20.54,68.511 19.307,72.843 18.835,74.152 C17.808,77.322 16.715,79.748 15.556,81.431 C14.403,83.111 13.082,84.376 11.593,85.228 C10.116,86.07 8.7,86.498 7.356,86.498 C6.763,86.498 6.319,86.388 6.04,86.171 C5.82,86.015 5.719,85.792 5.719,85.519 C5.719,85.3 5.959,84.972 6.43,84.535 C7.063,83.947 7.384,83.308 7.384,82.624 C7.384,81.941 7.089,81.335 6.5,80.804 C5.915,80.277 5.189,80.013 4.336,80.013 C3.165,80.013 2.178,80.373 1.369,81.101 C0.56,81.822 0.157,82.681 0.158,83.669 C0.158,84.902 0.653,85.91 1.636,86.677 C2.968,87.792 4.594,88.347 6.494,88.347 C9.416,88.347 12.341,87.332 15.267,85.304 C19.11,82.654 22.699,77.849 26.04,70.889 C28.385,65.959 30.857,58.996 33.439,50.002 L33.715,48.962 L42.092,48.962 L33.113,81.056 C31.099,88.402 29.849,92.728 29.388,94.046 C28.361,97.216 27.269,99.636 26.107,101.32 C24.955,103.005 23.631,104.261 22.145,105.117 C20.662,105.96 19.247,106.39 17.906,106.39 C17.31,106.392 16.871,106.273 16.586,106.058 C16.376,105.904 16.265,105.685 16.265,105.408 C16.265,105.187 16.502,104.865 16.979,104.427 C17.613,103.839 17.93,103.195 17.93,102.515 C17.93,101.835 17.637,101.224 17.053,100.701 C16.464,100.169 15.741,99.908 14.888,99.908 C13.714,99.908 12.722,100.265 11.914,100.994 C11.112,101.714 10.707,102.574 10.707,103.558 C10.707,104.794 11.2,105.798 12.185,106.574 C13.514,107.683 15.137,108.24 17.044,108.242 C19.97,108.24 22.884,107.224 25.813,105.195 C29.657,102.543 33.251,97.738 36.587,90.781 C38.937,85.853 41.407,78.886 43.984,69.891 L48.731,52.103 L57.463,52.102 L57.463,45.813 L50.463,45.813 C52.761,38.817 54.286,34.366 55.054,32.459 C56.565,28.808 58.275,26.124 60.184,24.409 C61.61,23.12 63.21,22.47 65.012,22.47 C65.726,22.47 66.264,22.627 66.632,22.938 C66.889,23.159 67.019,23.482 67.018,23.916 C67.018,24.166 66.806,24.654 66.371,25.385 C65.938,26.113 65.726,26.728 65.726,27.224 C65.726,28.003 66.028,28.668 66.65,29.229 C67.268,29.792 68.066,30.067 69.053,30.067 C70.192,30.067 71.127,29.693 71.854,28.943 C72.583,28.187 72.949,27.269 72.95,26.168 C72.949,24.758 72.259,23.453 70.876,22.245" id="Fill-60" fill="#6D6E6D"></path>
    </g>
</svg>