<svg xmlns="http://www.w3.org/2000/svg" viewBox="0 0 419 594"><defs><style>.cls-1{fill:#d0edf8;}.cls-2{fill:#5bd1d7;}.cls-3{fill:#ff502f;}.cls-4{fill:#024152;}.cls-5,.cls-7{fill:#fff;}.cls-5{opacity:0.8;}.cls-6{fill:#2e3d38;}</style></defs><title>Matrise</title><g id="Layer_2" data-name="Layer 2"><g id="Layer_1-2" data-name="Layer 1"><rect class="cls-1" width="419" height="594"/><path class="cls-2" d="M61,460.52,96,489l35-28.48A36.73,36.73,0,0,0,144.5,432V125.5a35,35,0,0,0-35-35h-27a35,35,0,0,0-35,35V432A36.73,36.73,0,0,0,61,460.52Z"/><path class="cls-3" d="M177.78,461l35,28.48,35-28.48a36.73,36.73,0,0,0,13.53-28.48V126a35,35,0,0,0-35-35h-27a35,35,0,0,0-35,35V432.54A36.73,36.73,0,0,0,177.78,461Z"/><path class="cls-4" d="M294.53,461l35,28.48,35-28.48A36.73,36.73,0,0,0,378,432.54V126a35,35,0,0,0-35-35H316a35,35,0,0,0-35,35V432.54A36.73,36.73,0,0,0,294.53,461Z"/><rect class="cls-5" x="28.5" y="148.5" width="366" height="61" rx="30.5"/><rect class="cls-5" x="28.5" y="224.17" width="366" height="61" rx="30.5"/><rect class="cls-5" x="28.5" y="299.83" width="366" height="61" rx="30.5"/><rect class="cls-5" x="28.5" y="375.5" width="366" height="61" rx="30.5"/><rect class="cls-6" x="28.5" y="499.5" width="366" height="61" rx="30.5"/><path d="M55.77,65.12V51.6H41.56V65.12H35.21V32.5h6.35V45.62H55.77V32.5h6.4V65.12Z"/><path d="M69.29,53.57V32.5h6.35V53.11c0,4.28,2.4,6.54,6.17,6.54S88,57.39,88,53.11V32.5h6.35V53.57c0,8-5.57,12.29-12.56,12.29S69.29,61.58,69.29,53.57Z"/><path d="M131.63,65.12V42.26l-9.39,22.86H117l-9.38-22.68V65.12h-6.08V32.5h8.38l9.8,23.56,9.57-23.56h8.64V65.12Z"/><path d="M164.75,57.67H151.5l-2.72,7.45h-6.71L154.58,32.5h7.36l12.42,32.62h-6.9Zm-11.14-5.8h9l-4.51-12.33Z"/><path d="M199.71,65.12,184.89,42V65.12h-6.35V32.5h7.92L200,54.08V32.5h6.35V65.12Z"/><path d="M234.89,52.56h-3.31V65.12h-6.39V32.5h12.74c6.35,0,10.4,4.37,10.4,10a9.25,9.25,0,0,1-7,9.25l7,13.34h-7.08Zm1.84-5.47c3.22,0,5.11-1.84,5.11-4.51S240,38,236.73,38h-5.15v9.07Z"/><path d="M250.21,32.5h7.45L265,45.43l7.31-12.93h7.13l-11.5,18.91V65.12h-6.35V51.41Z"/><path d="M298.24,38.53V65.12h-6.4V38.53h-10.3v-6h27v6Z"/><path d="M333.56,65.12V51.6H319.35V65.12H313V32.5h6.35V45.62h14.21V32.5H340V65.12Z"/><path d="M377.54,65.12V42.26l-9.38,22.86h-5.29l-9.39-22.68V65.12h-6.07V32.5h8.37l9.8,23.56,9.57-23.56h8.65V65.12Z"/><path class="cls-7" d="M101.63,531.51A13.24,13.24,0,0,1,115,517.82c7.25,0,11,4.44,12,8.69L122.2,528c-.63-2.52-2.66-5.29-7.21-5.29-3.93,0-8.07,2.81-8.07,8.77,0,5.58,3.92,8.66,8.14,8.66a7.29,7.29,0,0,0,7.36-5.37l4.78,1.44c-1,4-4.78,8.92-12.14,8.92S101.63,539.87,101.63,531.51Z"/><path class="cls-7" d="M143.11,517.82a13.67,13.67,0,1,1-13.47,13.69A13.22,13.22,0,0,1,143.11,517.82Zm0,22.38c4.07,0,8.21-2.81,8.21-8.73s-4.14-8.73-8.21-8.73-8.18,2.81-8.18,8.73S139.07,540.2,143.11,540.2Z"/><path class="cls-7" d="M180.66,544.61l-.33-3c-1.19,1.78-3.78,3.55-7.74,3.55-7.06,0-13.09-5.18-13.09-13.65s6.32-13.69,13.43-13.69c6.88,0,10.69,4,12,8.06L180,527.62a7,7,0,0,0-7.1-5c-4,0-8.26,2.7-8.26,8.92,0,5.92,3.89,9,8.29,9,4.85,0,6.74-3.26,7-5.11h-8.28V531H184.8v13.66Z"/><path class="cls-7" d="M207,544.61,195.05,526v18.62H190V518.37h6.36l10.92,17.36V518.37h5.1v26.24Z"/><path class="cls-7" d="M218.32,544.61V518.37h5.18v26.24Z"/><path class="cls-7" d="M240.53,523.22v21.39h-5.15V523.22h-8.29v-4.85h21.72v4.85Z"/><path class="cls-7" d="M252.4,544.61V518.37h5.18v26.24Z"/><path class="cls-7" d="M275.49,517.82A13.67,13.67,0,1,1,262,531.51,13.23,13.23,0,0,1,275.49,517.82Zm0,22.38c4.07,0,8.21-2.81,8.21-8.73s-4.14-8.73-8.21-8.73-8.18,2.81-8.18,8.73S271.46,540.2,275.49,540.2Z"/><path class="cls-7" d="M310.45,544.61,298.54,526v18.62h-5.11V518.37h6.37l10.91,17.36V518.37h5.11v26.24Z"/><path d="M118,399a4.49,4.49,0,0,0-4.78-3.7c-2.48,0-4.1,1.59-4.1,3.33,0,1.44.92,2.59,2.84,3l3.67.7c4.77.93,7.32,4,7.32,7.74,0,4-3.36,8.1-9.47,8.1-7,0-10-4.48-10.43-8.21l4.73-1.26c.23,2.59,2,4.92,5.74,4.92,2.74,0,4.25-1.37,4.25-3.22,0-1.52-1.14-2.7-3.18-3.11l-3.66-.74C106.7,405.69,104,403,104,399c0-4.66,4.18-8.21,9.14-8.21,6.36,0,8.8,3.85,9.39,6.8Z"/><path d="M138.18,396.22v21.39H133V396.22h-8.29v-4.85h21.72v4.85Z"/><path d="M157.87,407.5H155.2v10.11h-5.14V391.37h10.25c5.11,0,8.36,3.52,8.36,8.07a7.44,7.44,0,0,1-5.59,7.44l5.63,10.73H163Zm1.48-4.4c2.59,0,4.11-1.48,4.11-3.62s-1.52-3.67-4.11-3.67H155.2v7.29Z"/><path d="M172.93,408.32V391.37H178V408c0,3.44,1.93,5.25,5,5.25s5-1.81,5-5.25V391.37h5.1v16.95c0,6.44-4.47,9.88-10.1,9.88S172.93,414.76,172.93,408.32Z"/><path d="M197.27,404.51a13.24,13.24,0,0,1,13.36-13.69c7.25,0,11,4.44,12,8.69L217.84,401c-.62-2.52-2.66-5.29-7.21-5.29-3.92,0-8.07,2.81-8.07,8.77,0,5.58,3.92,8.66,8.14,8.66a7.31,7.31,0,0,0,7.37-5.37l4.77,1.44c-1,4-4.77,8.92-12.14,8.92S197.27,412.87,197.27,404.51Z"/><path d="M237.82,396.22v21.39h-5.14V396.22h-8.29v-4.85h21.72v4.85Z"/><path d="M249.55,408.32V391.37h5.11V408c0,3.44,1.92,5.25,5,5.25s5-1.81,5-5.25V391.37h5.11v16.95c0,6.44-4.48,9.88-10.1,9.88S249.55,414.76,249.55,408.32Z"/><path d="M283.26,407.5h-2.67v10.11h-5.14V391.37H285.7c5.11,0,8.36,3.52,8.36,8.07a7.45,7.45,0,0,1-5.58,7.44l5.62,10.73h-5.7Zm1.48-4.4c2.59,0,4.11-1.48,4.11-3.62s-1.52-3.67-4.11-3.67h-4.15v7.29Z"/><path d="M298.58,417.61V391.37H315v4.81H303.68v6h10.25v4.55H303.68v6.07H315v4.81Z"/><path d="M86.11,341.61V315.37h5.18v26.24Z"/><path d="M114.3,341.61,102.39,323v18.62H97.28V315.37h6.36l10.92,17.36V315.37h5.11v26.24Z"/><path d="M136.69,320.22v21.39h-5.15V320.22h-8.29v-4.85H145v4.85Z"/><path d="M148.56,341.61V315.37H165v4.81H153.67v6h10.25v4.55H153.67v6.07H165v4.81Z"/><path d="M177.9,331.5h-2.66v10.11h-5.15V315.37h10.25c5.11,0,8.37,3.52,8.37,8.07a7.45,7.45,0,0,1-5.59,7.44l5.62,10.73h-5.69Zm1.48-4.4c2.59,0,4.11-1.48,4.11-3.62s-1.52-3.67-4.11-3.67h-4.14v7.29Z"/><path d="M208.76,335.61H198.1l-2.18,6h-5.4l10.06-26.24h5.92l10,26.24h-5.55ZM199.81,331h7.25L203.43,321Z"/><path d="M217.05,328.51a13.24,13.24,0,0,1,13.36-13.69c7.25,0,11,4.44,12,8.69L237.62,325c-.63-2.52-2.66-5.29-7.21-5.29-3.93,0-8.07,2.81-8.07,8.77,0,5.58,3.92,8.66,8.14,8.66a7.29,7.29,0,0,0,7.36-5.37l4.78,1.44c-1,4-4.78,8.92-12.14,8.92S217.05,336.87,217.05,328.51Z"/><path d="M257.6,320.22v21.39h-5.14V320.22h-8.29v-4.85h21.72v4.85Z"/><path d="M269.48,341.61V315.37h5.18v26.24Z"/><path d="M292.56,314.82a13.67,13.67,0,1,1-13.46,13.69A13.22,13.22,0,0,1,292.56,314.82Zm0,22.38c4.07,0,8.22-2.81,8.22-8.73s-4.15-8.73-8.22-8.73-8.17,2.81-8.17,8.73S288.53,337.2,292.56,337.2Z"/><path d="M327.53,341.61,315.61,323v18.62h-5.1V315.37h6.36l10.92,17.36V315.37h5.1v26.24Z"/><path d="M125.75,255.73v9.88h-5.1V239.37h9.8c5.18,0,8.62,3.44,8.62,8.18s-3.44,8.18-8.62,8.18Zm4.07-4.41c2.56,0,4.11-1.48,4.11-3.73s-1.55-3.78-4.11-3.78h-4v7.51Z"/><path d="M143,265.61V239.37h5.1v21.35h11.7v4.89Z"/><path d="M163.68,265.61V239.37h16.43v4.81H168.78v6H179v4.55H168.78v6.07h11.33v4.81Z"/><path d="M200.83,259.61H190.17l-2.18,6h-5.41l10.07-26.24h5.92l10,26.24H203Zm-9-4.66h7.25L195.5,245Z"/><path d="M224.84,247a4.49,4.49,0,0,0-4.78-3.7c-2.48,0-4.1,1.59-4.1,3.33,0,1.44.92,2.59,2.85,3l3.66.7c4.77.93,7.33,4,7.33,7.74,0,4-3.37,8.1-9.48,8.1-6.95,0-10-4.48-10.43-8.21l4.73-1.26c.23,2.59,2,4.92,5.74,4.92,2.74,0,4.26-1.37,4.26-3.22,0-1.52-1.15-2.7-3.19-3.11l-3.66-.74c-4.18-.85-6.88-3.55-6.88-7.51,0-4.66,4.18-8.21,9.14-8.21,6.36,0,8.8,3.85,9.4,6.8Z"/><path d="M233.79,256.32V239.37h5.11V256c0,3.44,1.92,5.25,4.95,5.25s5-1.81,5-5.25V239.37H254v16.95c0,6.44-4.48,9.88-10.11,9.88S233.79,262.76,233.79,256.32Z"/><path d="M267.5,255.5h-2.67v10.11h-5.14V239.37h10.25c5.11,0,8.36,3.52,8.36,8.07a7.44,7.44,0,0,1-5.59,7.44l5.63,10.73h-5.7Zm1.48-4.4c2.59,0,4.1-1.48,4.1-3.62s-1.51-3.67-4.1-3.67h-4.15v7.29Z"/><path d="M282.81,265.61V239.37h16.43v4.81H287.92v6h10.25v4.55H287.92v6.07h11.32v4.81Z"/><path d="M178.09,169.22v21.39H173V169.22h-8.29v-4.85h21.72v4.85Z"/><path d="M190,190.61V164.37h5.19v26.24Z"/><path d="M225.38,190.61V172.22l-7.55,18.39h-4.26L206,172.36v18.25h-4.88V164.37h6.73l7.88,18.95,7.7-18.95h7v26.24Z"/><path d="M236.4,190.61V164.37h16.43v4.81H241.51v6h10.25v4.55H241.51v6.07h11.32v4.81Z"/><path class="cls-7" d="M83.83,132.85V123.9l-3.68,8.95H78.08L74.41,124v8.88H72V120.08h3.28l3.84,9.22,3.74-9.22h3.39v12.77Z"/><path class="cls-7" d="M94.73,131.9a2.8,2.8,0,0,1-2.45,1.18,3.26,3.26,0,0,1-3.36-3.49V124h2.39v5.12a1.58,1.58,0,0,0,1.62,1.78,1.6,1.6,0,0,0,1.68-1.75V124H97v7.26c0,.68.06,1.29.09,1.6H94.8A6.88,6.88,0,0,1,94.73,131.9Z"/><path class="cls-7" d="M100.85,129.93a1.47,1.47,0,0,0,1.62,1.35c.79,0,1.17-.41,1.17-.88s-.27-.72-1-.86l-1.17-.27c-1.71-.38-2.49-1.41-2.49-2.65a3.1,3.1,0,0,1,3.32-2.9c2.52,0,3.36,1.6,3.47,2.56l-2,.45a1.35,1.35,0,0,0-1.46-1.19,1,1,0,0,0-1.13.88c0,.43.32.7.81.79l1.26.27c1.75.37,2.63,1.43,2.63,2.72,0,1.44-1.12,2.92-3.44,2.92-2.66,0-3.58-1.73-3.69-2.74Z"/><path class="cls-7" d="M109,119.6a1.48,1.48,0,1,1-1.48,1.49A1.47,1.47,0,0,1,109,119.6Zm-1.19,13.25V124h2.4v8.86Z"/><path class="cls-7" d="M114.53,128.42a2.28,2.28,0,0,0,2.27,2.5,2,2,0,0,0,2-1.49l2.11.7a4.11,4.11,0,0,1-4.14,3,4.58,4.58,0,0,1-4.66-4.7,4.53,4.53,0,0,1,4.59-4.7,4.07,4.07,0,0,1,4.16,3l-2.15.72a1.92,1.92,0,0,0-2-1.49A2.25,2.25,0,0,0,114.53,128.42Z"/><path class="cls-7" d="M196.09,132.85V123.9l-3.67,8.95h-2.07L186.68,124v8.88H184.3V120.08h3.28l3.83,9.22,3.75-9.22h3.38v12.77Z"/><path class="cls-7" d="M209.84,128.42a4.65,4.65,0,1,1-4.64-4.7A4.55,4.55,0,0,1,209.84,128.42Zm-2.39,0a2.26,2.26,0,1,0-2.25,2.52A2.27,2.27,0,0,0,207.45,128.42Z"/><path class="cls-7" d="M214.65,124h1.78v2.13h-1.78v3.71c0,.77.36,1,1,1a3.28,3.28,0,0,0,.74-.07v2a3.55,3.55,0,0,1-1.35.22,2.57,2.57,0,0,1-2.81-2.74v-4.12h-1.6V124h.45a1.28,1.28,0,0,0,1.37-1.4v-1.24h2.16Z"/><path class="cls-7" d="M219.65,119.6a1.48,1.48,0,1,1-1.48,1.49A1.47,1.47,0,0,1,219.65,119.6Zm-1.19,13.25V124h2.4v8.86Z"/><path class="cls-7" d="M232,128.42a4.65,4.65,0,1,1-4.65-4.7A4.55,4.55,0,0,1,232,128.42Zm-2.4,0a2.26,2.26,0,1,0-2.25,2.52A2.27,2.27,0,0,0,229.64,128.42Z"/><path class="cls-7" d="M236.32,132.85h-2.4V124h2.33v1.1a2.93,2.93,0,0,1,2.55-1.33c2.2,0,3.21,1.56,3.21,3.51v5.58h-2.4v-5.17a1.55,1.55,0,0,0-1.64-1.76,1.66,1.66,0,0,0-1.65,1.83Z"/><path class="cls-7" d="M297.33,129.93h-5.18l-1.07,2.92h-2.62l4.89-12.77h2.88l4.87,12.77h-2.71ZM293,127.67h3.53l-1.76-4.83Z"/><path class="cls-7" d="M309.73,120.08h2.63l-4.73,12.77h-2.56l-4.72-12.77h2.72l3.33,9.49Z"/><path class="cls-7" d="M330.24,132.85V123.9l-3.67,8.95h-2.08L320.82,124v8.88h-2.38V120.08h3.28l3.84,9.22,3.74-9.22h3.39v12.77Z"/><path class="cls-7" d="M343.3,130.31a4,4,0,0,1-4,2.81,4.71,4.71,0,0,1-.21-9.4c2.73,0,4.37,1.75,4.37,4.59,0,.35,0,.71,0,.74h-6.33a2.15,2.15,0,0,0,2.23,2,2,2,0,0,0,2-1.35Zm-2.23-2.9a1.77,1.77,0,0,0-2-1.74,1.92,1.92,0,0,0-2,1.74Z"/><path class="cls-7" d="M353.76,131.25c0,.59,0,1.24.07,1.6h-2.28a5.71,5.71,0,0,1-.09-1,2.78,2.78,0,0,1-2.49,1.25,4.66,4.66,0,0,1-.07-9.29,2.66,2.66,0,0,1,2.5,1.09v-5.06h2.36Zm-4.5-.33a2.24,2.24,0,0,0,2.18-2.53,2.19,2.19,0,0,0-2.18-2.47,2.52,2.52,0,0,0,0,5Z"/><path class="cls-7" d="M357.54,119.6a1.48,1.48,0,1,1-1.48,1.49A1.47,1.47,0,0,1,357.54,119.6Zm-1.19,13.25V124h2.4v8.86Z"/><path class="cls-7" d="M363.41,127.75l2.18-.32c.5-.07.66-.32.66-.63,0-.63-.48-1.15-1.49-1.15a1.57,1.57,0,0,0-1.69,1.44l-2.13-.45a3.53,3.53,0,0,1,3.8-2.92c2.81,0,3.85,1.59,3.85,3.37v4.36a10.62,10.62,0,0,0,.11,1.4h-2.19a5.44,5.44,0,0,1-.09-1.06,3,3,0,0,1-2.61,1.31,2.8,2.8,0,0,1-3.05-2.66A2.74,2.74,0,0,1,363.41,127.75Zm2.84,1.52v-.4l-2,.31a1.11,1.11,0,0,0-1.1,1.11,1,1,0,0,0,1.15,1A1.8,1.8,0,0,0,366.25,129.27Z"/></g></g></svg>