<svg xmlns="http://www.w3.org/2000/svg" viewBox="0 0 1404.73 1020.31"><defs><style>.cls-1{fill:#5bd1d7;}.cls-2{fill:#fff;}.cls-3{fill:#004d61;}</style></defs><title>Results</title><g id="Layer_2" data-name="Layer 2"><g id="Layer_1-2" data-name="Layer 1"><circle class="cls-1" cx="313.87" cy="685.14" r="185.64"/><path class="cls-2" d="M266.15,640.14a22.8,22.8,0,0,1-.46-4.12c0-10.44,7.88-19.88,21.71-19.88,13.28,0,21.43,8.79,21.43,19.14,0,7.7-4.21,13.93-11.54,18.42l-11.45,7c-2.29,1.46-4.21,3.11-5.13,5.4H309.2V677h-44c.1-10.44,3.39-19,14-25.37l9.8-5.86c5-3,7.05-6.14,7.05-10.26,0-4.31-3-8.15-9-8.15-6.32,0-9.44,4.3-9.44,9.89a12.82,12.82,0,0,0,.46,3.3Z"/><path class="cls-2" d="M320,664.87a24,24,0,0,0,10.53,2.57c10.81,0,18-6,18.87-16.86-2.47,3.76-7.51,6.41-13.74,6.41-11.08,0-20.52-7.69-20.52-20s9.62-20.89,22.81-20.89c12.92,0,23.73,9.16,23.73,28.12,0,21.44-10.72,34.08-31.06,34.08-5,0-10.62-1.38-13.74-3.3Zm17.49-38c-5.49,0-10.16,3.94-10.16,9.8s4.58,9.8,10.16,9.8,10.26-3.94,10.26-9.8S343.09,626.86,337.5,626.86Z"/><circle class="cls-1" cx="209.45" cy="255.86" r="209.45"/><path class="cls-2" d="M175,214.34,190.54,201h-26v-10.9h42v10.17l-15.39,12.82a17.71,17.71,0,0,1,17.22,18.14c0,10.26-8.43,19.69-22.81,19.69-13.83,0-22.26-9-23-19l12.18-2.38c.28,6.05,4.58,10.44,10.81,10.44s10.08-4,10.08-9c0-5.59-4-8.8-9.71-8.8a14.76,14.76,0,0,0-5.41.92Z"/><path class="cls-2" d="M257.49,200.6c-4.49,3.84-21.16,19-23.81,48.91h-13.1c2.47-32,22.35-48.55,22.35-48.55h-30.6v-10.9h45.16Z"/><circle class="cls-1" cx="788.58" cy="328.53" r="328.53"/><path class="cls-2" d="M752.82,259.4A24,24,0,0,0,763.36,262c10.81,0,18-6,18.87-16.86-2.48,3.76-7.52,6.41-13.74,6.41-11.09,0-20.52-7.69-20.52-20s9.62-20.89,22.81-20.89c12.91,0,23.72,9.16,23.72,28.12,0,21.44-10.72,34.08-31,34.08-5,0-10.63-1.38-13.74-3.3Zm17.5-38c-5.5,0-10.17,3.94-10.17,9.8s4.58,9.8,10.17,9.8,10.26-3.94,10.26-9.8S775.91,221.39,770.32,221.39Z"/><path class="cls-2" d="M814.38,271.49V231.74H800.09v-8.52c8.7-.09,14.74-4.95,15.94-11.17h10.9v59.44Z"/><path class="cls-3" d="M1128.46,549.93l-11.8-18.43v18.43h-5.05V524h6.3l10.81,17.18V524h5v26Z"/><path class="cls-3" d="M1155.39,544.77c-.92,3.11-3.77,5.71-8.21,5.71-4.94,0-9.3-3.55-9.3-9.63,0-5.76,4.25-9.49,8.86-9.49,5.57,0,8.91,3.55,8.91,9.34,0,.7-.08,1.43-.08,1.5h-12.89a4.38,4.38,0,0,0,4.54,4.1,4,4,0,0,0,4.1-2.74Zm-4.54-5.9c-.08-1.8-1.25-3.56-4-3.56a3.9,3.9,0,0,0-4,3.56Z"/><path class="cls-3" d="M1174.55,531.91l3.88,11.61,3.34-11.61h4.83l-5.64,18h-4.87l-4.21-12.31-4.14,12.31h-5l-5.75-18h5.13l3.33,11.57,3.92-11.57Z"/><path class="cls-3" d="M1190.49,550.26h-4.4l13-26.63h4.44Z"/><path class="cls-3" d="M1208.52,523a3,3,0,1,1-3,3A3,3,0,0,1,1208.52,523Zm-2.42,27v-18H1211v18Z"/><path class="cls-3" d="M1216.17,549.93v-18h4.66v2.19a6.2,6.2,0,0,1,5.27-2.71,5.57,5.57,0,0,1,5.35,3,6.27,6.27,0,0,1,5.72-3c3.33,0,6.52,2,6.52,6.86v11.68H1239v-10.7c0-1.94-1-3.4-3.19-3.4a3.31,3.31,0,0,0-3.33,3.55v10.55h-4.84v-10.7c0-1.94-1-3.4-3.18-3.4a3.29,3.29,0,0,0-3.37,3.55v10.55Z"/><path class="cls-3" d="M1248.63,556.89v-25h4.73v2.19a6.31,6.31,0,0,1,5.53-2.6c5.28,0,8.32,4,8.32,9.38s-3.41,9.49-8.5,9.49a6.33,6.33,0,0,1-5.2-2.2v8.72Zm9.31-21c-2.49,0-4.51,1.87-4.51,5.06s2,5.09,4.51,5.09,4.47-1.87,4.47-5.09S1260.43,535.86,1257.94,535.86Z"/><path class="cls-3" d="M1282.05,536.74a7.33,7.33,0,0,0-1.47-.14c-2.49,0-4.65,1.2-4.65,5.09v8.24h-4.87v-18h4.72v2.67c1.1-2.38,3.59-2.82,5.13-2.82.41,0,.77,0,1.14.07Z"/><path class="cls-3" d="M1302.86,540.92a9.46,9.46,0,1,1-9.45-9.56A9.25,9.25,0,0,1,1302.86,540.92Zm-4.87,0c0-3.41-2.2-5.13-4.58-5.13s-4.58,1.72-4.58,5.13,2.19,5.13,4.58,5.13S1298,544.33,1298,540.92Z"/><path class="cls-3" d="M1316.16,549.93h-4.87l-7.37-18h5.35l4.47,12.09,4.29-12.09h5.13Z"/><path class="cls-3" d="M1341.73,544.77c-.91,3.11-3.77,5.71-8.2,5.71-5,0-9.31-3.55-9.31-9.63,0-5.76,4.25-9.49,8.86-9.49,5.57,0,8.91,3.55,8.91,9.34,0,.7-.07,1.43-.07,1.5H1329a4.38,4.38,0,0,0,4.54,4.1,4,4,0,0,0,4.11-2.74Zm-4.54-5.9c-.07-1.8-1.25-3.56-4-3.56a3.9,3.9,0,0,0-4,3.56Z"/><path class="cls-3" d="M1363,546.67c0,1.21.07,2.53.14,3.26h-4.65a12.75,12.75,0,0,1-.18-2.09,5.66,5.66,0,0,1-5.06,2.53c-5.13,0-8.79-4-8.79-9.49,0-5.27,3.55-9.41,8.65-9.41,3.11,0,4.58,1.28,5.09,2.23V523.41h4.8Zm-9.16-.66c2.49,0,4.43-1.9,4.43-5.16s-1.94-5-4.43-5-4.47,1.83-4.47,5S1351.29,546,1353.86,546Z"/><path class="cls-3" d="M1087.45,593.9v-18h4.65v2.2a6.18,6.18,0,0,1,5.27-2.71,5.57,5.57,0,0,1,5.35,3,6.29,6.29,0,0,1,5.72-3c3.33,0,6.52,2,6.52,6.85V593.9h-4.73V583.2c0-1.94-1-3.41-3.19-3.41a3.32,3.32,0,0,0-3.33,3.56V593.9h-4.83V583.2c0-1.94-1-3.41-3.19-3.41a3.3,3.3,0,0,0-3.37,3.56V593.9Z"/><path class="cls-3" d="M1136.06,588.73c-.91,3.12-3.77,5.72-8.2,5.72-4.95,0-9.31-3.56-9.31-9.64,0-5.75,4.25-9.49,8.87-9.49,5.57,0,8.9,3.56,8.9,9.35,0,.69-.07,1.42-.07,1.5h-12.9a4.38,4.38,0,0,0,4.54,4.1,4,4,0,0,0,4.11-2.75Zm-4.54-5.9c-.07-1.79-1.25-3.55-4-3.55a3.9,3.9,0,0,0-4,3.55Z"/><path class="cls-3" d="M1146.17,575.87h3.63v4.33h-3.63v7.54c0,1.58.74,2.09,2.13,2.09a7.28,7.28,0,0,0,1.5-.14v4a7,7,0,0,1-2.75.45c-3.51,0-5.71-2.09-5.71-5.57V580.2h-3.26v-4.33h.91a2.59,2.59,0,0,0,2.79-2.85v-2.53h4.39Z"/><path class="cls-3" d="M1157.94,593.9h-4.88V567.37h4.88v10a6.41,6.41,0,0,1,4.87-2c4.58,0,6.7,3.18,6.7,7.14V593.9h-4.87V583.38c0-2-1-3.59-3.33-3.59-2.06,0-3.26,1.54-3.37,3.52Z"/><path class="cls-3" d="M1192,584.89a9.45,9.45,0,1,1-9.45-9.57A9.25,9.25,0,0,1,1192,584.89Zm-4.87,0c0-3.41-2.2-5.13-4.58-5.13s-4.58,1.72-4.58,5.13,2.2,5.12,4.58,5.12S1187.14,588.29,1187.14,584.89Z"/><path class="cls-3" d="M1213,590.64c0,1.21.07,2.53.15,3.26h-4.66a13,13,0,0,1-.18-2.09,5.66,5.66,0,0,1-5.06,2.53c-5.12,0-8.79-4-8.79-9.49,0-5.28,3.56-9.42,8.65-9.42,3.11,0,4.58,1.29,5.09,2.24v-10.3h4.8Zm-9.16-.66c2.49,0,4.43-1.91,4.43-5.17s-1.94-5-4.43-5-4.47,1.84-4.47,5.06S1201.32,590,1203.88,590Z"/><path class="cls-3" d="M1221,588a3,3,0,0,0,3.29,2.75c1.61,0,2.38-.84,2.38-1.79s-.55-1.47-1.94-1.76l-2.38-.55c-3.48-.77-5.06-2.86-5.06-5.39,0-3.22,2.86-5.9,6.75-5.9,5.12,0,6.85,3.26,7.07,5.21l-4.07.91a2.76,2.76,0,0,0-3-2.42,2.08,2.08,0,0,0-2.31,1.8c0,.88.66,1.43,1.65,1.61l2.57.55c3.55.73,5.35,2.9,5.35,5.53,0,2.93-2.28,5.94-7,5.94-5.42,0-7.29-3.52-7.51-5.57Z"/><path class="cls-3" d="M1237.15,594.23h-4.4l13-26.64h4.44Z"/><path class="cls-3" d="M1251,593.9v-18h4.65v2.2a6.2,6.2,0,0,1,5.28-2.71,5.59,5.59,0,0,1,5.35,3,6.27,6.27,0,0,1,5.71-3c3.34,0,6.52,2,6.52,6.85V593.9h-4.72V583.2c0-1.94-1-3.41-3.19-3.41a3.31,3.31,0,0,0-3.33,3.56V593.9h-4.84V583.2c0-1.94-1-3.41-3.19-3.41a3.31,3.31,0,0,0-3.37,3.56V593.9Z"/><path class="cls-3" d="M1301,584.89a9.45,9.45,0,1,1-9.45-9.57A9.25,9.25,0,0,1,1301,584.89Zm-4.87,0c0-3.41-2.2-5.13-4.58-5.13s-4.58,1.72-4.58,5.13,2.2,5.12,4.58,5.12S1296.14,588.29,1296.14,584.89Z"/><path class="cls-3" d="M1322,590.64c0,1.21.07,2.53.15,3.26h-4.66a13,13,0,0,1-.18-2.09,5.66,5.66,0,0,1-5.06,2.53c-5.12,0-8.79-4-8.79-9.49,0-5.28,3.56-9.42,8.65-9.42,3.11,0,4.58,1.29,5.09,2.24v-10.3h4.8Zm-9.16-.66c2.49,0,4.43-1.91,4.43-5.17s-1.94-5-4.43-5-4.47,1.84-4.47,5.06S1310.32,590,1312.88,590Z"/><path class="cls-3" d="M1343.47,588.73c-.91,3.12-3.77,5.72-8.2,5.72-5,0-9.31-3.56-9.31-9.64,0-5.75,4.25-9.49,8.87-9.49,5.57,0,8.9,3.56,8.9,9.35,0,.69-.07,1.42-.07,1.5h-12.9a4.39,4.39,0,0,0,4.54,4.1,4,4,0,0,0,4.11-2.75Zm-4.54-5.9c-.07-1.79-1.24-3.55-4-3.55a3.9,3.9,0,0,0-4,3.55Z"/><path class="cls-3" d="M1347.58,593.9V567.37h4.87V593.9Z"/><path class="cls-3" d="M1360.29,588a3,3,0,0,0,3.3,2.75c1.61,0,2.38-.84,2.38-1.79s-.55-1.47-1.94-1.76l-2.38-.55c-3.48-.77-5.06-2.86-5.06-5.39,0-3.22,2.86-5.9,6.74-5.9,5.13,0,6.85,3.26,7.07,5.21l-4.06.91a2.76,2.76,0,0,0-3-2.42,2.08,2.08,0,0,0-2.31,1.8c0,.88.66,1.43,1.65,1.61l2.56.55c3.56.73,5.35,2.9,5.35,5.53,0,2.93-2.27,5.94-7,5.94-5.42,0-7.29-3.52-7.51-5.57Z"/><path class="cls-3" d="M1376.49,594.23h-4.4l13-26.64h4.43Z"/><path class="cls-3" d="M1069.68,644.83v-25h4.72V622a6.31,6.31,0,0,1,5.53-2.6c5.28,0,8.32,4,8.32,9.38s-3.41,9.48-8.5,9.48a6.35,6.35,0,0,1-5.2-2.19v8.72Zm9.3-21c-2.49,0-4.51,1.86-4.51,5.05s2,5.09,4.51,5.09,4.47-1.86,4.47-5.09S1081.47,623.8,1079,623.8Z"/><path class="cls-3" d="M1103.09,624.67a8.14,8.14,0,0,0-1.47-.14c-2.49,0-4.65,1.21-4.65,5.09v8.24h-4.87v-18h4.72v2.67c1.1-2.38,3.6-2.82,5.13-2.82a10.2,10.2,0,0,1,1.14.08Z"/><path class="cls-3" d="M1123.9,628.85a9.45,9.45,0,1,1-9.45-9.56A9.25,9.25,0,0,1,1123.9,628.85Zm-4.87,0c0-3.41-2.2-5.13-4.58-5.13s-4.58,1.72-4.58,5.13,2.2,5.13,4.58,5.13S1119,632.26,1119,628.85Z"/><path class="cls-3" d="M1133.68,619.84h3.63v4.32h-3.63v7.55c0,1.58.74,2.09,2.13,2.09a7.3,7.3,0,0,0,1.5-.15v4a7.3,7.3,0,0,1-2.75.44c-3.52,0-5.71-2.09-5.71-5.57v-8.39h-3.26v-4.32h.91a2.6,2.6,0,0,0,2.79-2.86v-2.53h4.39Z"/><path class="cls-3" d="M1158.82,628.85a9.46,9.46,0,1,1-9.46-9.56A9.26,9.26,0,0,1,1158.82,628.85Zm-4.88,0c0-3.41-2.19-5.13-4.58-5.13s-4.58,1.72-4.58,5.13,2.2,5.13,4.58,5.13S1153.94,632.26,1153.94,628.85Z"/><path class="cls-3" d="M1168.6,619.84h3.63v4.32h-3.63v7.55c0,1.58.73,2.09,2.12,2.09a7.34,7.34,0,0,0,1.51-.15v4a7.3,7.3,0,0,1-2.75.44c-3.52,0-5.72-2.09-5.72-5.57v-8.39h-3.26v-4.32h.92a2.6,2.6,0,0,0,2.78-2.86v-2.53h4.4Z"/><path class="cls-3" d="M1177.83,645l4.25-9.38-7.65-15.75h5.45l4.8,10.55,4.44-10.55h5.2L1183,645Z"/><path class="cls-3" d="M1197.29,644.83v-25H1202V622c.81-1.39,2.82-2.6,5.54-2.6,5.27,0,8.31,4,8.31,9.38s-3.4,9.48-8.5,9.48a6.35,6.35,0,0,1-5.2-2.19v8.72Zm9.3-21c-2.49,0-4.5,1.86-4.5,5.05s2,5.09,4.5,5.09,4.47-1.86,4.47-5.09S1209.08,623.8,1206.59,623.8Z"/><path class="cls-3" d="M1235.87,632.7c-.92,3.11-3.78,5.71-8.21,5.71-5,0-9.3-3.55-9.3-9.63,0-5.75,4.24-9.49,8.86-9.49,5.57,0,8.9,3.55,8.9,9.34,0,.7-.07,1.43-.07,1.5h-12.9a4.39,4.39,0,0,0,4.55,4.11,4,4,0,0,0,4.1-2.75Zm-4.55-5.9c-.07-1.8-1.24-3.55-4-3.55a3.9,3.9,0,0,0-4,3.55Z"/><path class="cls-3" d="M1242.61,631.93a3,3,0,0,0,3.3,2.75c1.61,0,2.38-.85,2.38-1.8,0-.8-.55-1.46-1.94-1.76l-2.39-.55c-3.48-.77-5-2.85-5-5.38,0-3.23,2.86-5.9,6.74-5.9,5.13,0,6.85,3.26,7.07,5.2l-4.07.92a2.74,2.74,0,0,0-3-2.42c-1.29,0-2.31.77-2.31,1.8,0,.87.66,1.42,1.65,1.61l2.56.55c3.56.73,5.35,2.89,5.35,5.53,0,2.93-2.27,5.93-7,5.93-5.42,0-7.29-3.51-7.51-5.57Z"/><path class="cls-3" d="M1271.74,624v13.84h-4.91V624h-3v-4.18h3v-2.05c0-4.07,2.56-6.71,6.56-6.71a7.1,7.1,0,0,1,2.41.37v4.1a5.57,5.57,0,0,0-1.54-.18,2.31,2.31,0,0,0-2.52,2.49v2h12v18H1279V624Zm9.63-13.16a3,3,0,0,1,3,3,3,3,0,0,1-6,0A3,3,0,0,1,1281.37,610.86Z"/><path class="cls-3" d="M1293.9,637.86H1289v-18h4.73v2.23a6,6,0,0,1,5.2-2.71c4.47,0,6.52,3.19,6.52,7.15v11.35h-4.87V627.35c0-2-1-3.59-3.34-3.59-2.12,0-3.37,1.65-3.37,3.74Z"/><path class="cls-3" d="M1314.71,627.5l4.44-.66c1-.15,1.35-.66,1.35-1.29,0-1.28-1-2.34-3-2.34a3.2,3.2,0,0,0-3.44,2.93l-4.32-.92c.29-2.82,2.89-5.93,7.73-5.93,5.71,0,7.84,3.22,7.84,6.85V635a20,20,0,0,0,.22,2.85H1321a12,12,0,0,1-.19-2.16,6,6,0,0,1-5.31,2.68c-3.85,0-6.19-2.6-6.19-5.42C1309.33,629.73,1311.71,627.94,1314.71,627.5Zm5.79,3.07v-.8l-4.06.62a2.27,2.27,0,0,0-2.24,2.27,2.12,2.12,0,0,0,2.35,2.09C1318.6,634.75,1320.5,633.76,1320.5,630.57Z"/><path class="cls-3" d="M1330.18,637.86V611.34h4.87v26.52Z"/><path class="cls-3" d="M1342.67,610.9a3,3,0,1,1-3,3A3,3,0,0,1,1342.67,610.9Zm-2.42,27v-18h4.87v18Z"/><path class="cls-3" d="M1353,631.93a3,3,0,0,0,3.3,2.75c1.61,0,2.38-.85,2.38-1.8,0-.8-.55-1.46-1.94-1.76l-2.38-.55c-3.48-.77-5.06-2.85-5.06-5.38,0-3.23,2.86-5.9,6.75-5.9,5.12,0,6.85,3.26,7.07,5.2l-4.07.92a2.76,2.76,0,0,0-3-2.42,2.08,2.08,0,0,0-2.31,1.8c0,.87.66,1.42,1.65,1.61l2.57.55c3.55.73,5.35,2.89,5.35,5.53,0,2.93-2.28,5.93-7,5.93-5.42,0-7.29-3.51-7.51-5.57Z"/><path class="cls-3" d="M1383.3,632.7c-.92,3.11-3.77,5.71-8.21,5.71-4.94,0-9.3-3.55-9.3-9.63,0-5.75,4.25-9.49,8.86-9.49,5.57,0,8.91,3.55,8.91,9.34,0,.7-.08,1.43-.08,1.5h-12.89a4.39,4.39,0,0,0,4.54,4.11,4,4,0,0,0,4.1-2.75Zm-4.54-5.9c-.08-1.8-1.25-3.55-4-3.55a3.89,3.89,0,0,0-4,3.55Z"/><path class="cls-3" d="M1404.59,634.6c0,1.21.07,2.53.14,3.26h-4.65a12.72,12.72,0,0,1-.18-2.08,5.65,5.65,0,0,1-5.06,2.52c-5.13,0-8.79-4-8.79-9.48,0-5.28,3.55-9.42,8.65-9.42,3.11,0,4.58,1.28,5.09,2.23V611.34h4.8Zm-9.16-.66c2.49,0,4.43-1.9,4.43-5.16s-1.94-5-4.43-5-4.47,1.83-4.47,5.06S1392.86,633.94,1395.43,633.94Z"/><circle class="cls-1" cx="1237.17" cy="417.68" r="76.94"/><path class="cls-2" d="M1226.27,426.81a10.39,10.39,0,0,0,10.81,10c5.67,0,10.25-3.76,10.25-9.71,0-6.78-5-10-10.53-10a12.15,12.15,0,0,0-9.16,4c-1.19-.46-10.26-3.57-11.54-3.94l7.05-30.5h33.53v10.9h-24.92l-2.93,13.1c2.57-2.38,6.78-3.66,10.72-3.66,11.91,0,20.33,7.14,20.33,19.87,0,11.09-8.51,20.7-22.8,20.7-12.92,0-21.9-8.79-22.63-18.13Z"/><circle class="cls-1" cx="678.43" cy="832.31" r="145.94"/><path class="cls-2" d="M651,784.44V744.68H636.71v-8.52c8.7-.09,14.74-4.94,15.93-11.17h10.9v59.45Z"/><path class="cls-2" d="M674.53,768.41c0-6.42,4.22-12.1,10.54-14.48a14.42,14.42,0,0,1-9.35-13.28c0-10,8.89-17,21.26-17s21.25,7.06,21.25,17A14.42,14.42,0,0,1,709,753.93a15.63,15.63,0,0,1,10.44,14.48c0,10.26-8.89,17.4-22.44,17.4S674.53,778.67,674.53,768.41Zm32.52-1.29c0-4.3-3.39-8.42-10.07-8.42s-10,4.12-10,8.42,3.48,8.25,10,8.25S707.05,771.34,707.05,767.12Zm-1.28-25.55c0-3.94-3.21-7.51-8.79-7.51s-8.71,3.57-8.71,7.51c0,4.21,3.21,7.69,8.71,7.78C702.56,749.26,705.77,745.78,705.77,741.57Z"/><path class="cls-3" d="M877.39,918.93H866.84l-2.16,5.94h-5.35l10-26h5.86l9.89,26h-5.49Zm-8.86-4.61h7.18l-3.59-9.82Z"/><path class="cls-3" d="M898.94,911.68a7.4,7.4,0,0,0-1.47-.15c-2.49,0-4.65,1.21-4.65,5.1v8.24H888v-18h4.72v2.68c1.1-2.38,3.59-2.82,5.13-2.82a10.26,10.26,0,0,1,1.14.07Z"/><path class="cls-3" d="M909.09,906.84h3.62v4.33h-3.62v7.54c0,1.58.73,2.09,2.12,2.09a7.28,7.28,0,0,0,1.5-.14v4a7,7,0,0,1-2.74.45c-3.52,0-5.72-2.09-5.72-5.57v-8.39H901v-4.33h.92a2.59,2.59,0,0,0,2.78-2.85v-2.53h4.4Z"/><path class="cls-3" d="M919.27,897.9a3,3,0,1,1-3,3A3,3,0,0,1,919.27,897.9Zm-2.42,27v-18h4.88v18Z"/><path class="cls-3" d="M930.45,915.86c0,3.26,2.12,5.09,4.61,5.09a4.13,4.13,0,0,0,4.14-3l4.29,1.43a8.38,8.38,0,0,1-8.43,6.08,9.57,9.57,0,0,1-.14-19.13c4.9,0,7.69,3,8.46,6.09L939,913.84a3.93,3.93,0,0,0-4-3C932.53,910.8,930.45,912.59,930.45,915.86Z"/><path class="cls-3" d="M947.08,924.87V898.34H952v26.53Z"/><path class="cls-3" d="M973.31,919.7c-.92,3.12-3.77,5.72-8.21,5.72-4.94,0-9.3-3.56-9.3-9.64,0-5.75,4.25-9.49,8.86-9.49,5.57,0,8.91,3.56,8.91,9.35,0,.69-.08,1.42-.08,1.5H960.6a4.38,4.38,0,0,0,4.54,4.1,4,4,0,0,0,4.1-2.75Zm-4.54-5.9c-.08-1.79-1.25-3.55-4-3.55a3.9,3.9,0,0,0-4,3.55Z"/><path class="cls-3" d="M980.05,918.93a3,3,0,0,0,3.3,2.75c1.61,0,2.38-.84,2.38-1.79s-.55-1.47-1.94-1.76l-2.38-.55c-3.48-.77-5.06-2.86-5.06-5.39,0-3.22,2.86-5.9,6.74-5.9,5.13,0,6.85,3.26,7.07,5.21l-4.06.91a2.76,2.76,0,0,0-3-2.42,2.08,2.08,0,0,0-2.31,1.8c0,.88.66,1.43,1.65,1.61L985,914c3.55.73,5.34,2.89,5.34,5.53,0,2.93-2.27,5.94-7,5.94-5.43,0-7.29-3.52-7.51-5.57Z"/><path class="cls-3" d="M1003.36,931.83v-25h4.72V909a6.31,6.31,0,0,1,5.53-2.6c5.28,0,8.32,4,8.32,9.38s-3.41,9.49-8.5,9.49a6.33,6.33,0,0,1-5.2-2.2v8.72Zm9.3-21c-2.49,0-4.51,1.87-4.51,5.06s2,5.09,4.51,5.09,4.47-1.87,4.47-5.09S1015.15,910.8,1012.66,910.8Z"/><path class="cls-3" d="M1037.36,922.93a5.71,5.71,0,0,1-5,2.41c-4.36,0-6.85-3.18-6.85-7.1v-11.4h4.87v10.41c0,2,1,3.63,3.3,3.63a3.26,3.26,0,0,0,3.41-3.56V906.84H1042v14.77a30.67,30.67,0,0,0,.18,3.26h-4.65A13,13,0,0,1,1037.36,922.93Z"/><path class="cls-3" d="M1047.18,924.87V898.34H1052v10.48a6.43,6.43,0,0,1,5.46-2.45c5.28,0,8.32,4.06,8.32,9.41s-3.37,9.53-8.5,9.53a6.1,6.1,0,0,1-5.35-2.64v2.2Zm9.23-14.14c-2.46,0-4.51,1.79-4.51,5.09s2,5.13,4.51,5.13,4.47-1.83,4.47-5.13S1058.9,910.73,1056.41,910.73Z"/><path class="cls-3" d="M1069.6,924.87V898.34h4.87v26.53Z"/><path class="cls-3" d="M1082.09,897.9a3,3,0,1,1-3,3A3,3,0,0,1,1082.09,897.9Zm-2.42,27v-18h4.88v18Z"/><path class="cls-3" d="M1092.39,918.93a3,3,0,0,0,3.29,2.75c1.62,0,2.39-.84,2.39-1.79s-.55-1.47-2-1.76l-2.38-.55c-3.48-.77-5-2.86-5-5.39,0-3.22,2.85-5.9,6.74-5.9,5.13,0,6.85,3.26,7.07,5.21l-4.07.91a2.74,2.74,0,0,0-3-2.42,2.07,2.07,0,0,0-2.3,1.8c0,.88.66,1.43,1.64,1.61l2.57.55c3.55.73,5.35,2.89,5.35,5.53,0,2.93-2.27,5.94-7,5.94-5.42,0-7.29-3.52-7.51-5.57Z"/><path class="cls-3" d="M1111.51,924.87h-4.87V898.34h4.87v10a6.43,6.43,0,0,1,4.87-2c4.58,0,6.71,3.18,6.71,7.14v11.36h-4.87V914.35c0-2-1-3.59-3.34-3.59-2.05,0-3.26,1.54-3.37,3.52Z"/><path class="cls-3" d="M1144.19,919.7c-.91,3.12-3.77,5.72-8.2,5.72-5,0-9.31-3.56-9.31-9.64,0-5.75,4.25-9.49,8.87-9.49,5.57,0,8.9,3.56,8.9,9.35,0,.69-.07,1.42-.07,1.5h-12.9a4.39,4.39,0,0,0,4.54,4.1,4,4,0,0,0,4.11-2.75Zm-4.54-5.9c-.07-1.79-1.24-3.55-4-3.55a3.9,3.9,0,0,0-4,3.55Z"/><path class="cls-3" d="M1165.48,921.61c0,1.21.07,2.53.15,3.26H1161a13,13,0,0,1-.18-2.09,5.66,5.66,0,0,1-5.06,2.53c-5.12,0-8.79-4-8.79-9.49,0-5.28,3.56-9.42,8.65-9.42,3.11,0,4.58,1.29,5.09,2.24v-10.3h4.8Zm-9.16-.66c2.49,0,4.43-1.91,4.43-5.17s-1.94-5-4.43-5-4.47,1.83-4.47,5.06S1153.76,921,1156.32,921Z"/><path class="cls-3" d="M1182.22,897.9a3,3,0,1,1-3,3A3,3,0,0,1,1182.22,897.9Zm-2.41,27v-18h4.87v18Z"/><path class="cls-3" d="M1194.75,924.87h-4.87v-18h4.73v2.24a6,6,0,0,1,5.2-2.71c4.47,0,6.52,3.18,6.52,7.14v11.36h-4.87V914.35c0-2-1-3.59-3.34-3.59-2.12,0-3.37,1.65-3.37,3.74Z"/><path class="cls-3" d="M877.21,962.9a3,3,0,0,0,3.3,2.75c1.61,0,2.38-.85,2.38-1.8s-.55-1.46-1.94-1.76l-2.38-.55c-3.48-.76-5.06-2.85-5.06-5.38,0-3.23,2.86-5.9,6.74-5.9,5.13,0,6.85,3.26,7.07,5.2l-4.06.92a2.76,2.76,0,0,0-3-2.42,2.08,2.08,0,0,0-2.31,1.8c0,.87.66,1.42,1.65,1.61l2.57.55c3.55.73,5.34,2.89,5.34,5.53,0,2.93-2.27,5.93-7,5.93-5.43,0-7.29-3.51-7.51-5.56Z"/><path class="cls-3" d="M894.91,959.82c0,3.26,2.12,5.1,4.62,5.1a4.13,4.13,0,0,0,4.14-3L908,963.3a8.35,8.35,0,0,1-8.42,6.08,9.32,9.32,0,0,1-9.49-9.56,9.22,9.22,0,0,1,9.34-9.56c4.91,0,7.69,3,8.46,6.08l-4.36,1.47a3.93,3.93,0,0,0-4-3C897,954.77,894.91,956.56,894.91,959.82Z"/><path class="cls-3" d="M914,941.87a3,3,0,1,1-3,3A3,3,0,0,1,914,941.87Zm-2.42,27v-18h4.88v18Z"/><path class="cls-3" d="M937.77,963.67c-.91,3.11-3.77,5.71-8.2,5.71-5,0-9.31-3.55-9.31-9.63,0-5.75,4.25-9.49,8.87-9.49,5.57,0,8.9,3.55,8.9,9.34,0,.7-.07,1.43-.07,1.5h-12.9a4.39,4.39,0,0,0,4.54,4.11,4,4,0,0,0,4.11-2.75Zm-4.54-5.9c-.07-1.79-1.24-3.55-4-3.55a3.89,3.89,0,0,0-4,3.55Z"/><path class="cls-3" d="M946.75,968.84h-4.87v-18h4.72v2.24a6,6,0,0,1,5.21-2.72c4.47,0,6.52,3.19,6.52,7.15v11.36h-4.87V958.32c0-2-1-3.59-3.34-3.59-2.12,0-3.37,1.65-3.37,3.74Z"/><path class="cls-3" d="M969.28,950.81h3.63v4.32h-3.63v7.55c0,1.58.74,2.09,2.13,2.09a6.52,6.52,0,0,0,1.5-.15v4a7.1,7.1,0,0,1-2.75.44c-3.51,0-5.71-2.09-5.71-5.57v-8.39h-3.26v-4.32h.91a2.6,2.6,0,0,0,2.79-2.86v-2.53h4.39Z"/><path class="cls-3" d="M979.47,941.87a3,3,0,1,1-3,3A3,3,0,0,1,979.47,941.87Zm-2.42,27v-18h4.87v18Z"/><path class="cls-3" d="M993,955v13.85H988V955h-3v-4.18h3v-2c0-4.07,2.57-6.71,6.56-6.71a7.13,7.13,0,0,1,2.42.37v4.1a5.63,5.63,0,0,0-1.54-.18,2.31,2.31,0,0,0-2.53,2.49v2h12v18h-4.83V955Zm9.64-13.16a3,3,0,0,1,3,3,3,3,0,0,1-6,0A3,3,0,0,1,1002.59,941.83Z"/><path class="cls-3" d="M1013.76,959.82c0,3.26,2.13,5.1,4.62,5.1a4.12,4.12,0,0,0,4.14-3l4.29,1.43a8.37,8.37,0,0,1-8.43,6.08,9.33,9.33,0,0,1-9.49-9.56,9.22,9.22,0,0,1,9.34-9.56c4.91,0,7.7,3,8.47,6.08l-4.36,1.47a3.94,3.94,0,0,0-4-3C1015.85,954.77,1013.76,956.56,1013.76,959.82Z"/><path class="cls-3" d="M1031.53,969.17h-4.39l13-26.64h4.43Z"/><path class="cls-3" d="M1046.41,962.9a3,3,0,0,0,3.3,2.75c1.61,0,2.38-.85,2.38-1.8s-.55-1.46-1.95-1.76l-2.38-.55c-3.48-.76-5-2.85-5-5.38,0-3.23,2.86-5.9,6.74-5.9,5.13,0,6.85,3.26,7.07,5.2l-4.07.92a2.74,2.74,0,0,0-3-2.42c-1.29,0-2.31.77-2.31,1.8,0,.87.66,1.42,1.65,1.61l2.56.55c3.55.73,5.35,2.89,5.35,5.53,0,2.93-2.27,5.93-7,5.93-5.42,0-7.29-3.51-7.51-5.56Z"/><path class="cls-3" d="M1064.1,959.82c0,3.26,2.13,5.1,4.62,5.1a4.12,4.12,0,0,0,4.14-3l4.29,1.43a8.37,8.37,0,0,1-8.43,6.08,9.33,9.33,0,0,1-9.49-9.56,9.22,9.22,0,0,1,9.34-9.56c4.91,0,7.7,3,8.47,6.08l-4.36,1.47a3.94,3.94,0,0,0-4-3C1066.19,954.77,1064.1,956.56,1064.1,959.82Z"/><path class="cls-3" d="M1085.61,968.84h-4.87V942.31h4.87v10a6.44,6.44,0,0,1,4.87-2c4.58,0,6.71,3.19,6.71,7.15v11.36h-4.87V958.32c0-2-1-3.59-3.34-3.59-2,0-3.26,1.54-3.37,3.52Z"/><path class="cls-3" d="M1119.68,959.82a9.45,9.45,0,1,1-9.45-9.56A9.25,9.25,0,0,1,1119.68,959.82Zm-4.87,0c0-3.4-2.2-5.13-4.58-5.13s-4.58,1.73-4.58,5.13,2.2,5.13,4.58,5.13S1114.81,963.23,1114.81,959.82Z"/><path class="cls-3" d="M1123.53,968.84V942.31h4.88v26.53Z"/><path class="cls-3" d="M1137.79,958.47l4.43-.66c1-.15,1.35-.66,1.35-1.28,0-1.29-1-2.35-3-2.35a3.2,3.2,0,0,0-3.44,2.93l-4.32-.91c.29-2.83,2.89-5.94,7.73-5.94,5.71,0,7.84,3.22,7.84,6.85V966a20.32,20.32,0,0,0,.22,2.86h-4.47a12.24,12.24,0,0,1-.19-2.17,6,6,0,0,1-5.31,2.68c-3.85,0-6.19-2.6-6.19-5.42C1132.4,960.7,1134.78,958.91,1137.79,958.47Zm5.78,3.07v-.8l-4.06.62a2.27,2.27,0,0,0-2.24,2.27,2.11,2.11,0,0,0,2.35,2.09C1141.67,965.72,1143.57,964.73,1143.57,961.54Z"/><path class="cls-3" d="M1164.24,955.65a7.4,7.4,0,0,0-1.47-.15c-2.49,0-4.65,1.21-4.65,5.09v8.25h-4.87v-18H1158v2.67c1.1-2.38,3.59-2.82,5.13-2.82a10.37,10.37,0,0,1,1.14.08Z"/><path class="cls-3" d="M1167.68,968.84V942.31h4.87v26.53Z"/><path class="cls-3" d="M1178.82,975.94l4.25-9.38-7.66-15.75h5.46l4.8,10.55,4.43-10.55h5.21L1184,975.94Z"/><path class="cls-3" d="M892.44,994.78h4.87v19.6c0,3.48-2.16,5.93-5.64,5.93a8.47,8.47,0,0,1-2.75-.4v-4.07a6,6,0,0,0,1.5.18c1.47,0,2-.8,2-2.12Zm2.41-9a3,3,0,0,1,3,3,3,3,0,0,1-6,0A3,3,0,0,1,894.85,985.8Z"/><path class="cls-3" d="M920.06,1003.79a9.45,9.45,0,1,1-9.45-9.56A9.25,9.25,0,0,1,920.06,1003.79Zm-4.87,0c0-3.41-2.2-5.13-4.58-5.13s-4.58,1.72-4.58,5.13,2.2,5.13,4.58,5.13S915.19,1007.2,915.19,1003.79Z"/><path class="cls-3" d="M935.49,1010.86a5.72,5.72,0,0,1-5,2.42c-4.36,0-6.85-3.19-6.85-7.11V994.78h4.88v10.4c0,2,1,3.63,3.29,3.63a3.26,3.26,0,0,0,3.41-3.56V994.78h4.87v14.76a27.66,27.66,0,0,0,.19,3.26h-4.66A13,13,0,0,1,935.49,1010.86Z"/><path class="cls-3" d="M956.3,999.61a7.4,7.4,0,0,0-1.47-.15c-2.49,0-4.65,1.21-4.65,5.1v8.24h-4.87v-18H950v2.67c1.1-2.38,3.59-2.82,5.13-2.82.4,0,.77,0,1.14.07Z"/><path class="cls-3" d="M964.61,1012.8h-4.87v-18h4.73V997a6,6,0,0,1,5.2-2.71c4.47,0,6.52,3.19,6.52,7.14v11.36h-4.87v-10.51c0-2-1-3.59-3.34-3.59-2.12,0-3.37,1.64-3.37,3.73Z"/><path class="cls-3" d="M985.42,1002.43l4.44-.66c1-.14,1.35-.66,1.35-1.28,0-1.28-1-2.34-3-2.34a3.2,3.2,0,0,0-3.44,2.93l-4.32-.92c.29-2.82,2.89-5.93,7.73-5.93,5.71,0,7.84,3.22,7.84,6.85v8.86a20.08,20.08,0,0,0,.22,2.86h-4.47a12.12,12.12,0,0,1-.19-2.16,6,6,0,0,1-5.31,2.67c-3.85,0-6.19-2.6-6.19-5.42C980,1004.67,982.42,1002.87,985.42,1002.43Zm5.79,3.08v-.81l-4.06.63a2.27,2.27,0,0,0-2.24,2.27,2.12,2.12,0,0,0,2.35,2.09C989.31,1009.69,991.21,1008.7,991.21,1005.51Z"/><path class="cls-3" d="M1000.89,1012.8V986.28h4.87v26.52Z"/><path class="cls-3" d="M1013.6,1006.87a3,3,0,0,0,3.3,2.74c1.61,0,2.38-.84,2.38-1.79s-.55-1.47-1.94-1.76l-2.38-.55c-3.49-.77-5.06-2.86-5.06-5.38,0-3.23,2.86-5.9,6.74-5.9,5.13,0,6.85,3.26,7.07,5.2l-4.07.91a2.73,2.73,0,0,0-3-2.41c-1.29,0-2.31.77-2.31,1.79s.66,1.43,1.65,1.61l2.56.55c3.56.74,5.35,2.9,5.35,5.54,0,2.93-2.27,5.93-7,5.93-5.42,0-7.29-3.52-7.51-5.57Z"/><path class="cls-3" d="M1054.45,1003.79a9.45,9.45,0,1,1-9.45-9.56A9.25,9.25,0,0,1,1054.45,1003.79Zm-4.87,0c0-3.41-2.2-5.13-4.58-5.13s-4.58,1.72-4.58,5.13,2.2,5.13,4.58,5.13S1049.58,1007.2,1049.58,1003.79Z"/><path class="cls-3" d="M1069.29,999.61a7.38,7.38,0,0,0-1.46-.15c-2.5,0-4.66,1.21-4.66,5.1v8.24h-4.87v-18H1063v2.67c1.09-2.38,3.59-2.82,5.12-2.82.41,0,.77,0,1.14.07Z"/><path class="cls-3" d="M1084.31,1006.87a3,3,0,0,0,3.3,2.74c1.61,0,2.38-.84,2.38-1.79s-.55-1.47-1.94-1.76l-2.38-.55c-3.48-.77-5.06-2.86-5.06-5.38,0-3.23,2.86-5.9,6.74-5.9,5.13,0,6.85,3.26,7.07,5.2l-4.06.91a2.75,2.75,0,0,0-3-2.41,2.08,2.08,0,0,0-2.31,1.79c0,.88.66,1.43,1.65,1.61l2.56.55c3.56.74,5.35,2.9,5.35,5.54,0,2.93-2.27,5.93-7,5.93-5.43,0-7.29-3.52-7.51-5.57Z"/><path class="cls-3" d="M1114.65,1007.63c-.92,3.12-3.77,5.72-8.21,5.72-4.94,0-9.3-3.55-9.3-9.64,0-5.75,4.25-9.48,8.86-9.48,5.57,0,8.91,3.55,8.91,9.34,0,.69-.08,1.43-.08,1.5h-12.89a4.38,4.38,0,0,0,4.54,4.1,4,4,0,0,0,4.1-2.74Zm-4.54-5.89c-.08-1.8-1.25-3.56-4-3.56a3.9,3.9,0,0,0-4,3.56Z"/><path class="cls-3" d="M1129.74,999.61a7.3,7.3,0,0,0-1.46-.15c-2.49,0-4.66,1.21-4.66,5.1v8.24h-4.87v-18h4.73v2.67c1.1-2.38,3.59-2.82,5.13-2.82.4,0,.77,0,1.13.07Z"/><path class="cls-3" d="M1135.61,985.84a3,3,0,1,1-3,3A3,3,0,0,1,1135.61,985.84Zm-2.42,27v-18h4.87v18Z"/><path class="cls-3" d="M1159.42,1007.63c-.92,3.12-3.77,5.72-8.21,5.72-4.94,0-9.3-3.55-9.3-9.64,0-5.75,4.25-9.48,8.86-9.48,5.57,0,8.91,3.55,8.91,9.34,0,.69-.08,1.43-.08,1.5h-12.89a4.38,4.38,0,0,0,4.54,4.1,4,4,0,0,0,4.1-2.74Zm-4.54-5.89c-.08-1.8-1.25-3.56-4-3.56a3.9,3.9,0,0,0-4,3.56Z"/><path class="cls-3" d="M1166.16,1006.87a3,3,0,0,0,3.3,2.74c1.61,0,2.38-.84,2.38-1.79s-.55-1.47-1.94-1.76l-2.38-.55c-3.48-.77-5.06-2.86-5.06-5.38,0-3.23,2.86-5.9,6.74-5.9,5.13,0,6.85,3.26,7.07,5.2l-4.06.91a2.75,2.75,0,0,0-3-2.41,2.08,2.08,0,0,0-2.31,1.79c0,.88.66,1.43,1.65,1.61l2.56.55c3.56.74,5.35,2.9,5.35,5.54,0,2.93-2.27,5.93-7,5.93-5.43,0-7.3-3.52-7.52-5.57Z"/><circle class="cls-1" cx="1017.95" cy="765.14" r="114.19"/><path class="cls-2" d="M998.8,793V753.23H984.51v-8.52c8.7-.09,14.75-4.94,15.94-11.17h10.9V793Z"/><path class="cls-2" d="M1035.07,793V753.23h-14.28v-8.52c8.7-.09,14.74-4.94,15.93-11.17h10.9V793Z"/><path class="cls-3" d="M187.74,723.34v9.79h-5.05v-26h9.71c5.13,0,8.53,3.41,8.53,8.1s-3.4,8.09-8.53,8.09Zm4-4.36c2.53,0,4.07-1.46,4.07-3.7s-1.54-3.73-4.07-3.73h-4V719Z"/><path class="cls-3" d="M220.94,724.11a9.46,9.46,0,1,1-9.46-9.56A9.26,9.26,0,0,1,220.94,724.11Zm-4.88,0c0-3.4-2.19-5.13-4.58-5.13s-4.58,1.73-4.58,5.13,2.2,5.13,4.58,5.13S216.06,727.52,216.06,724.11Z"/><path class="cls-3" d="M224.79,740.09v-25h4.72v2.2a6.31,6.31,0,0,1,5.53-2.6c5.28,0,8.32,4,8.32,9.38s-3.41,9.48-8.5,9.48a6.33,6.33,0,0,1-5.2-2.19v8.72Zm9.3-21c-2.49,0-4.51,1.86-4.51,5.05s2,5.1,4.51,5.1,4.47-1.87,4.47-5.1S236.58,719.06,234.09,719.06Z"/><path class="cls-3" d="M258.79,731.18a5.69,5.69,0,0,1-5,2.42c-4.36,0-6.85-3.19-6.85-7.11V715.1h4.87v10.4c0,2,1,3.63,3.3,3.63a3.25,3.25,0,0,0,3.41-3.55V715.1h4.87v14.76a30.9,30.9,0,0,0,.18,3.27h-4.65A13,13,0,0,1,258.79,731.18Z"/><path class="cls-3" d="M268.61,733.13V706.6h4.87v26.53Z"/><path class="cls-3" d="M282.86,722.76l4.43-.66c1-.15,1.36-.66,1.36-1.28,0-1.29-1-2.35-3-2.35a3.21,3.21,0,0,0-3.45,2.93l-4.32-.91c.29-2.83,2.89-5.94,7.73-5.94,5.71,0,7.84,3.22,7.84,6.85v8.87a20.32,20.32,0,0,0,.22,2.86h-4.47A12.32,12.32,0,0,1,289,731a6,6,0,0,1-5.32,2.68c-3.84,0-6.19-2.6-6.19-5.42C277.47,725,279.85,723.2,282.86,722.76Zm5.79,3.07V725l-4.07.62a2.27,2.27,0,0,0-2.24,2.27,2.11,2.11,0,0,0,2.35,2.09C286.74,730,288.65,729,288.65,725.83Z"/><path class="cls-3" d="M309.31,719.94a7.4,7.4,0,0,0-1.47-.15c-2.49,0-4.65,1.21-4.65,5.09v8.25h-4.87v-18H303v2.67c1.1-2.38,3.6-2.82,5.13-2.82a10.2,10.2,0,0,1,1.14.08Z"/><path class="cls-3" d="M324.33,727.19a3,3,0,0,0,3.3,2.75c1.61,0,2.38-.85,2.38-1.8,0-.8-.55-1.46-1.94-1.76l-2.38-.55c-3.48-.76-5.06-2.85-5.06-5.38,0-3.23,2.86-5.9,6.74-5.9,5.13,0,6.85,3.26,7.07,5.2l-4.06.92a2.76,2.76,0,0,0-3-2.42,2.08,2.08,0,0,0-2.31,1.8c0,.87.66,1.42,1.65,1.61l2.56.55c3.56.73,5.35,2.89,5.35,5.53,0,2.93-2.27,5.93-7,5.93-5.43,0-7.29-3.51-7.51-5.56Z"/><path class="cls-3" d="M342,724.11c0,3.26,2.12,5.1,4.61,5.1a4.11,4.11,0,0,0,4.14-3.05l4.29,1.43a8.37,8.37,0,0,1-8.43,6.08,9.32,9.32,0,0,1-9.48-9.56,9.22,9.22,0,0,1,9.34-9.56c4.91,0,7.69,3,8.46,6.08l-4.36,1.47a3.93,3.93,0,0,0-4-3C344.12,719.06,342,720.85,342,724.11Z"/><path class="cls-3" d="M361.08,706.16a3,3,0,1,1-3,3A3,3,0,0,1,361.08,706.16Zm-2.42,27v-18h4.87v18Z"/><path class="cls-3" d="M384.89,728c-.91,3.11-3.77,5.71-8.2,5.71-4.95,0-9.31-3.55-9.31-9.63,0-5.75,4.25-9.49,8.87-9.49,5.57,0,8.9,3.55,8.9,9.34,0,.7-.07,1.43-.07,1.5h-12.9a4.39,4.39,0,0,0,4.54,4.11,4,4,0,0,0,4.11-2.75Zm-4.54-5.9c-.07-1.79-1.24-3.55-4-3.55a3.89,3.89,0,0,0-4,3.55Z"/><path class="cls-3" d="M393.87,733.13H389v-18h4.72v2.24a6,6,0,0,1,5.21-2.72c4.47,0,6.52,3.19,6.52,7.15v11.36h-4.87V722.61c0-2-1-3.59-3.34-3.59-2.12,0-3.37,1.65-3.37,3.74Z"/><path class="cls-3" d="M413.91,724.11c0,3.26,2.13,5.1,4.62,5.1a4.12,4.12,0,0,0,4.14-3.05l4.29,1.43a8.37,8.37,0,0,1-8.43,6.08,9.33,9.33,0,0,1-9.49-9.56,9.22,9.22,0,0,1,9.34-9.56c4.91,0,7.7,3,8.46,6.08l-4.35,1.47a3.94,3.94,0,0,0-4-3C416,719.06,413.91,720.85,413.91,724.11Z"/><path class="cls-3" d="M446.52,728c-.92,3.11-3.77,5.71-8.21,5.71-4.94,0-9.3-3.55-9.3-9.63,0-5.75,4.25-9.49,8.86-9.49,5.57,0,8.91,3.55,8.91,9.34,0,.7-.08,1.43-.08,1.5H433.81a4.39,4.39,0,0,0,4.54,4.11,4,4,0,0,0,4.1-2.75Zm-4.54-5.9c-.08-1.79-1.25-3.55-4-3.55a3.89,3.89,0,0,0-4,3.55Z"/><path class="cls-3" d="M211.65,784.05v-25h4.73v2.19c.8-1.39,2.82-2.6,5.53-2.6,5.27,0,8.31,4,8.31,9.38s-3.4,9.49-8.5,9.49a6.33,6.33,0,0,1-5.2-2.2v8.72ZM221,763c-2.5,0-4.51,1.87-4.51,5.06s2,5.09,4.51,5.09,4.46-1.87,4.46-5.09S223.45,763,221,763Z"/><path class="cls-3" d="M245.65,775.15a5.69,5.69,0,0,1-5,2.42c-4.36,0-6.85-3.19-6.85-7.11V759.07h4.87v10.4c0,2,1,3.63,3.3,3.63a3.25,3.25,0,0,0,3.4-3.55V759.07h4.88v14.76a30.67,30.67,0,0,0,.18,3.26H245.8A11.45,11.45,0,0,1,245.65,775.15Z"/><path class="cls-3" d="M255.47,777.09V750.57h4.8v10.48a6.4,6.4,0,0,1,5.46-2.46c5.27,0,8.31,4.07,8.31,9.42s-3.37,9.52-8.5,9.52a6.08,6.08,0,0,1-5.34-2.64v2.2ZM264.7,763c-2.45,0-4.5,1.8-4.5,5.09s2.05,5.13,4.5,5.13,4.47-1.83,4.47-5.13S267.19,763,264.7,763Z"/><path class="cls-3" d="M277.89,777.09V750.57h4.88v26.52Z"/><path class="cls-3" d="M290.39,750.13a3,3,0,1,1-3,3A3,3,0,0,1,290.39,750.13Zm-2.42,27v-18h4.87v18Z"/><path class="cls-3" d="M301.56,768.08c0,3.26,2.13,5.09,4.62,5.09a4.13,4.13,0,0,0,4.14-3l4.28,1.43a8.36,8.36,0,0,1-8.42,6.08,9.32,9.32,0,0,1-9.49-9.56,9.22,9.22,0,0,1,9.34-9.56c4.91,0,7.69,3,8.46,6.08l-4.36,1.46a3.93,3.93,0,0,0-4-3C303.65,763,301.56,764.82,301.56,768.08Z"/><path class="cls-3" d="M322.41,766.72l4.43-.66c1-.14,1.36-.65,1.36-1.28,0-1.28-1-2.34-3-2.34a3.2,3.2,0,0,0-3.45,2.93l-4.32-.92c.29-2.82,2.89-5.93,7.73-5.93,5.71,0,7.84,3.22,7.84,6.85v8.86a20.08,20.08,0,0,0,.22,2.86h-4.47a12.12,12.12,0,0,1-.18-2.16,6,6,0,0,1-5.32,2.67c-3.84,0-6.19-2.6-6.19-5.42C317,769,319.4,767.16,322.41,766.72Zm5.79,3.08V769l-4.07.62a2.27,2.27,0,0,0-2.24,2.27,2.12,2.12,0,0,0,2.35,2.09C326.29,774,328.2,773,328.2,769.8Z"/><path class="cls-3" d="M343.77,759.07h3.62v4.32h-3.62v7.55c0,1.57.73,2.09,2.12,2.09a7.14,7.14,0,0,0,1.5-.15v4a7.19,7.19,0,0,1-2.74.44c-3.52,0-5.72-2.09-5.72-5.57v-8.39h-3.26v-4.32h.92a2.6,2.6,0,0,0,2.78-2.86v-2.53h4.4Z"/><path class="cls-3" d="M354,750.13a3,3,0,1,1-3,3A3,3,0,0,1,354,750.13Zm-2.41,27v-18h4.87v18Z"/><path class="cls-3" d="M379.16,768.08a9.46,9.46,0,1,1-9.45-9.56A9.25,9.25,0,0,1,379.16,768.08Zm-4.87,0c0-3.41-2.2-5.13-4.58-5.13s-4.58,1.72-4.58,5.13,2.2,5.13,4.58,5.13S374.29,771.49,374.29,768.08Z"/><path class="cls-3" d="M387.88,777.09H383v-18h4.72v2.23a6,6,0,0,1,5.21-2.71c4.47,0,6.52,3.19,6.52,7.14v11.36h-4.88V766.58c0-2-1-3.59-3.33-3.59-2.12,0-3.37,1.65-3.37,3.73Z"/><path class="cls-3" d="M407,771.16a3,3,0,0,0,3.3,2.74c1.61,0,2.38-.84,2.38-1.79s-.55-1.47-1.94-1.76l-2.38-.55c-3.48-.77-5.06-2.86-5.06-5.38,0-3.23,2.86-5.9,6.74-5.9,5.13,0,6.85,3.26,7.07,5.2l-4.06.92a2.75,2.75,0,0,0-3-2.42,2.08,2.08,0,0,0-2.31,1.79c0,.88.66,1.43,1.65,1.62l2.57.54c3.55.74,5.34,2.9,5.34,5.54,0,2.93-2.27,5.93-7,5.93-5.43,0-7.29-3.52-7.51-5.57Z"/><path class="cls-3" d="M89.17,314.22,77.37,295.8v18.42H72.31v-26h6.3l10.81,17.18V288.25h5.06v26Z"/><path class="cls-3" d="M116.1,309.06c-.92,3.11-3.78,5.71-8.21,5.71-5,0-9.31-3.55-9.31-9.63,0-5.76,4.25-9.49,8.87-9.49,5.57,0,8.9,3.55,8.9,9.34,0,.7-.07,1.43-.07,1.5h-12.9a4.4,4.4,0,0,0,4.55,4.11,4,4,0,0,0,4.1-2.75Zm-4.55-5.9c-.07-1.8-1.24-3.56-4-3.56a3.91,3.91,0,0,0-4,3.56Z"/><path class="cls-3" d="M135.26,296.2l3.88,11.61,3.33-11.61h4.84l-5.64,18H136.8l-4.22-12.31-4.14,12.31H123.5l-5.75-18h5.12l3.34,11.57,3.92-11.57Z"/><path class="cls-3" d="M159.4,321.18v-25h4.73v2.2c.8-1.4,2.82-2.6,5.53-2.6,5.28,0,8.32,4,8.32,9.37s-3.41,9.49-8.5,9.49a6.33,6.33,0,0,1-5.2-2.2v8.72Zm9.31-21c-2.49,0-4.51,1.87-4.51,5.06s2,5.09,4.51,5.09,4.47-1.87,4.47-5.09S171.2,300.15,168.71,300.15Z"/><path class="cls-3" d="M193.4,312.28a5.68,5.68,0,0,1-5,2.42c-4.36,0-6.85-3.19-6.85-7.11V296.2h4.87v10.4c0,2,1,3.63,3.3,3.63a3.26,3.26,0,0,0,3.41-3.55V296.2H198V311a30.67,30.67,0,0,0,.18,3.26h-4.65A12.6,12.6,0,0,1,193.4,312.28Z"/><path class="cls-3" d="M203.22,314.22V287.7H208v10.48a6.41,6.41,0,0,1,5.46-2.46c5.28,0,8.32,4.07,8.32,9.42s-3.37,9.52-8.5,9.52A6.1,6.1,0,0,1,208,312v2.2Zm9.24-14.14c-2.46,0-4.51,1.8-4.51,5.09s2.05,5.13,4.51,5.13,4.46-1.83,4.46-5.13S215,300.08,212.46,300.08Z"/><path class="cls-3" d="M225.65,314.22V287.7h4.87v26.52Z"/><path class="cls-3" d="M238.14,287.26a3,3,0,1,1-3,3A3,3,0,0,1,238.14,287.26Zm-2.42,27v-18h4.87v18Z"/><path class="cls-3" d="M249.31,305.21c0,3.26,2.13,5.09,4.62,5.09a4.13,4.13,0,0,0,4.14-3l4.29,1.43a8.38,8.38,0,0,1-8.43,6.08,9.33,9.33,0,0,1-9.49-9.56,9.22,9.22,0,0,1,9.34-9.56c4.91,0,7.7,3,8.47,6.08l-4.36,1.47a3.94,3.94,0,0,0-4-3.05C251.4,300.15,249.31,302,249.31,305.21Z"/><path class="cls-3" d="M270.16,303.85l4.43-.65c1-.15,1.36-.66,1.36-1.29,0-1.28-1-2.34-3-2.34a3.2,3.2,0,0,0-3.45,2.93l-4.32-.92c.29-2.82,2.9-5.93,7.73-5.93,5.72,0,7.84,3.22,7.84,6.85v8.87a20,20,0,0,0,.22,2.85h-4.47a12.12,12.12,0,0,1-.18-2.16,6,6,0,0,1-5.31,2.68c-3.85,0-6.2-2.61-6.2-5.43C264.77,306.09,267.16,304.29,270.16,303.85Zm5.79,3.08v-.8l-4.07.62a2.27,2.27,0,0,0-2.23,2.27,2.12,2.12,0,0,0,2.34,2.09C274,311.11,276,310.12,276,306.93Z"/><path class="cls-3" d="M291.52,296.2h3.63v4.32h-3.63v7.55c0,1.57.73,2.09,2.13,2.09a7.3,7.3,0,0,0,1.5-.15v4a7.3,7.3,0,0,1-2.75.44c-3.52,0-5.72-2.09-5.72-5.57v-8.39h-3.26V296.2h.92a2.59,2.59,0,0,0,2.78-2.86v-2.53h4.4Z"/><path class="cls-3" d="M301.71,287.26a3,3,0,1,1-3,3A3,3,0,0,1,301.71,287.26Zm-2.42,27v-18h4.87v18Z"/><path class="cls-3" d="M326.91,305.21a9.45,9.45,0,1,1-9.45-9.56A9.25,9.25,0,0,1,326.91,305.21Zm-4.87,0c0-3.41-2.2-5.13-4.58-5.13s-4.58,1.72-4.58,5.13,2.2,5.13,4.58,5.13S322,308.62,322,305.21Z"/><path class="cls-3" d="M335.63,314.22h-4.87v-18h4.73v2.23a6,6,0,0,1,5.2-2.71c4.47,0,6.52,3.19,6.52,7.15v11.35h-4.87V303.71c0-2-1-3.59-3.34-3.59-2.12,0-3.37,1.65-3.37,3.73Z"/><path class="cls-3" d="M109.91,331.23a3,3,0,1,1-3,3A3,3,0,0,1,109.91,331.23Zm-2.42,27v-18h4.87v18Z"/><path class="cls-3" d="M122.43,358.19h-4.87v-18h4.73v2.24a6,6,0,0,1,5.2-2.71c4.47,0,6.52,3.19,6.52,7.14v11.36h-4.87V347.67c0-2-1-3.59-3.33-3.59-2.13,0-3.38,1.65-3.38,3.74Z"/><path class="cls-3" d="M154,340.16h3.62v4.33H154V352c0,1.58.73,2.09,2.12,2.09a7.28,7.28,0,0,0,1.5-.14v4a7.19,7.19,0,0,1-2.74.44c-3.52,0-5.72-2.09-5.72-5.57v-8.39h-3.26v-4.33h.92a2.59,2.59,0,0,0,2.78-2.85v-2.53H154Z"/><path class="cls-3" d="M165.78,358.19h-4.87V331.67h4.87v10a6.41,6.41,0,0,1,4.87-2c4.58,0,6.71,3.19,6.71,7.14v11.36h-4.88V347.67c0-2-1-3.59-3.33-3.59-2.05,0-3.26,1.54-3.37,3.52Z"/><path class="cls-3" d="M198.46,353c-.92,3.12-3.77,5.72-8.21,5.72-4.94,0-9.3-3.55-9.3-9.64,0-5.75,4.25-9.48,8.86-9.48,5.57,0,8.91,3.55,8.91,9.34,0,.69-.08,1.43-.08,1.5H185.75a4.38,4.38,0,0,0,4.54,4.1,4,4,0,0,0,4.1-2.75Zm-4.54-5.89c-.08-1.8-1.25-3.56-4-3.56a3.9,3.9,0,0,0-4,3.56Z"/><path class="cls-3" d="M211.61,358.19v-18h4.66v2.2a6.18,6.18,0,0,1,5.27-2.71,5.56,5.56,0,0,1,5.35,3,6.27,6.27,0,0,1,5.72-3c3.33,0,6.52,2,6.52,6.85v11.69H234.4v-10.7c0-1.94-1-3.41-3.19-3.41a3.32,3.32,0,0,0-3.33,3.56v10.55H223v-10.7c0-1.94-1-3.41-3.18-3.41a3.3,3.3,0,0,0-3.37,3.56v10.55Z"/><path class="cls-3" d="M260.23,353c-.91,3.12-3.77,5.72-8.2,5.72-4.95,0-9.31-3.55-9.31-9.64,0-5.75,4.25-9.48,8.86-9.48,5.57,0,8.91,3.55,8.91,9.34,0,.69-.07,1.43-.07,1.5h-12.9a4.38,4.38,0,0,0,4.54,4.1,4,4,0,0,0,4.11-2.75Zm-4.54-5.89c-.07-1.8-1.25-3.56-4-3.56a3.9,3.9,0,0,0-4,3.56Z"/><path class="cls-3" d="M281.52,354.93c0,1.21.07,2.53.14,3.26H277a13,13,0,0,1-.18-2.09,5.66,5.66,0,0,1-5.06,2.53c-5.13,0-8.79-4-8.79-9.49,0-5.28,3.55-9.42,8.65-9.42,3.11,0,4.58,1.29,5.09,2.24V331.67h4.8Zm-9.16-.66c2.49,0,4.43-1.91,4.43-5.17s-1.94-5-4.43-5-4.47,1.84-4.47,5.06S269.79,354.27,272.36,354.27Z"/><path class="cls-3" d="M289.21,331.23a3,3,0,1,1-3,3A3,3,0,0,1,289.21,331.23Zm-2.42,27v-18h4.88v18Z"/><path class="cls-3" d="M301.16,347.82l4.43-.66c1-.14,1.35-.66,1.35-1.28,0-1.28-1-2.34-3-2.34a3.2,3.2,0,0,0-3.44,2.93l-4.32-.92c.29-2.82,2.89-5.93,7.73-5.93,5.71,0,7.84,3.22,7.84,6.85v8.86a20.2,20.2,0,0,0,.22,2.86h-4.47a12.21,12.21,0,0,1-.19-2.16A6,6,0,0,1,302,358.7c-3.84,0-6.19-2.6-6.19-5.42C295.77,350.06,298.15,348.26,301.16,347.82Zm5.78,3.08v-.81l-4.06.63a2.27,2.27,0,0,0-2.24,2.27,2.12,2.12,0,0,0,2.35,2.09C305,355.08,306.94,354.09,306.94,350.9Z"/><path class="cls-3" d="M611.28,329.87h-2.64v10h-5.09v-26H613.7c5,0,8.28,3.48,8.28,8a7.36,7.36,0,0,1-5.53,7.36L622,339.87h-5.65Zm1.47-4.36c2.56,0,4.06-1.47,4.06-3.59s-1.5-3.63-4.06-3.63h-4.11v7.22Z"/><path class="cls-3" d="M641.73,334.7c-.92,3.12-3.78,5.72-8.21,5.72-4.94,0-9.3-3.55-9.3-9.64,0-5.75,4.24-9.48,8.86-9.48,5.57,0,8.9,3.55,8.9,9.34,0,.69-.07,1.43-.07,1.5H629a4.39,4.39,0,0,0,4.55,4.1,4,4,0,0,0,4.1-2.75Zm-4.55-5.9c-.07-1.79-1.24-3.55-4-3.55a3.91,3.91,0,0,0-4,3.55Z"/><path class="cls-3" d="M645.83,346.83v-25h4.73V324c.8-1.39,2.82-2.6,5.53-2.6,5.28,0,8.32,4,8.32,9.38s-3.41,9.49-8.5,9.49a6.35,6.35,0,0,1-5.21-2.2v8.72Zm9.31-21c-2.49,0-4.51,1.87-4.51,5.06s2,5.09,4.51,5.09,4.47-1.87,4.47-5.09S657.63,325.8,655.14,325.8Z"/><path class="cls-3" d="M685.8,330.86a9.45,9.45,0,1,1-9.45-9.56A9.25,9.25,0,0,1,685.8,330.86Zm-4.87,0c0-3.41-2.2-5.13-4.58-5.13s-4.58,1.72-4.58,5.13S674,336,676.35,336,680.93,334.26,680.93,330.86Z"/><path class="cls-3" d="M700.64,326.68a7.3,7.3,0,0,0-1.46-.15c-2.49,0-4.66,1.21-4.66,5.1v8.24h-4.87v-18h4.73v2.68c1.1-2.38,3.59-2.82,5.13-2.82a10.08,10.08,0,0,1,1.13.07Z"/><path class="cls-3" d="M710.79,321.84h3.63v4.33h-3.63v7.54c0,1.58.73,2.09,2.13,2.09a7.44,7.44,0,0,0,1.5-.14v4a7.3,7.3,0,0,1-2.75.44c-3.52,0-5.71-2.09-5.71-5.57v-8.39h-3.27v-4.33h.92a2.59,2.59,0,0,0,2.78-2.85v-2.53h4.4Z"/><path class="cls-3" d="M721.6,333.93a3,3,0,0,0,3.3,2.75c1.61,0,2.38-.84,2.38-1.79s-.55-1.47-1.94-1.76l-2.38-.55c-3.49-.77-5.06-2.86-5.06-5.39,0-3.22,2.86-5.89,6.74-5.89,5.13,0,6.85,3.25,7.07,5.2l-4.07.91a2.73,2.73,0,0,0-3-2.41c-1.29,0-2.31.76-2.31,1.79,0,.88.66,1.43,1.65,1.61l2.56.55c3.56.73,5.35,2.9,5.35,5.53,0,2.93-2.27,5.94-7,5.94-5.42,0-7.29-3.52-7.51-5.57Z"/><path class="cls-3" d="M738.82,333.86c2.27,0,3.63,1.83,3.63,4.21,0,5.39-3.74,7.66-6.45,8v-2.34a4.51,4.51,0,0,0,3.48-4,1.92,1.92,0,0,1-1,.22,2.92,2.92,0,0,1-3-3A3.14,3.14,0,0,1,738.82,333.86Z"/><path class="cls-3" d="M756.33,339.87v-18H761V324a6.18,6.18,0,0,1,5.27-2.71,5.56,5.56,0,0,1,5.35,3,6.27,6.27,0,0,1,5.72-3c3.33,0,6.52,2,6.52,6.85v11.69h-4.73v-10.7c0-1.94-1-3.41-3.19-3.41a3.32,3.32,0,0,0-3.33,3.56v10.55h-4.84v-10.7c0-1.94-1-3.41-3.18-3.41a3.3,3.3,0,0,0-3.37,3.56v10.55Z"/><path class="cls-3" d="M805,334.7c-.91,3.12-3.77,5.72-8.21,5.72-4.94,0-9.3-3.55-9.3-9.64,0-5.75,4.25-9.48,8.86-9.48,5.57,0,8.91,3.55,8.91,9.34,0,.69-.08,1.43-.08,1.5H792.24a4.38,4.38,0,0,0,4.54,4.1,4,4,0,0,0,4.1-2.75Zm-4.54-5.9c-.08-1.79-1.25-3.55-4-3.55a3.9,3.9,0,0,0-4,3.55Z"/><path class="cls-3" d="M809.06,339.87v-18h4.65V324a6.19,6.19,0,0,1,5.27-2.71,5.56,5.56,0,0,1,5.35,3,6.27,6.27,0,0,1,5.72-3c3.33,0,6.52,2,6.52,6.85v11.69h-4.73v-10.7c0-1.94-1-3.41-3.18-3.41a3.32,3.32,0,0,0-3.34,3.56v10.55h-4.83v-10.7c0-1.94-1-3.41-3.19-3.41a3.3,3.3,0,0,0-3.37,3.56v10.55Z"/><path class="cls-3" d="M859.07,330.86a9.46,9.46,0,1,1-9.46-9.56A9.26,9.26,0,0,1,859.07,330.86Zm-4.88,0c0-3.41-2.2-5.13-4.58-5.13s-4.58,1.72-4.58,5.13,2.2,5.13,4.58,5.13S854.19,334.26,854.19,330.86Z"/><path class="cls-3" d="M873.9,326.68a7.23,7.23,0,0,0-1.46-.15c-2.49,0-4.65,1.21-4.65,5.1v8.24h-4.88v-18h4.73v2.68c1.1-2.38,3.59-2.82,5.13-2.82a10.08,10.08,0,0,1,1.13.07Z"/><path class="cls-3" d="M881.75,329.5l4.43-.66c1-.14,1.35-.66,1.35-1.28,0-1.28-1-2.35-3-2.35a3.2,3.2,0,0,0-3.44,2.94l-4.32-.92c.29-2.82,2.89-5.93,7.73-5.93,5.71,0,7.84,3.22,7.84,6.85V337a20.2,20.2,0,0,0,.22,2.86h-4.47a12.21,12.21,0,0,1-.19-2.16,6,6,0,0,1-5.31,2.67c-3.85,0-6.19-2.6-6.19-5.42C876.36,331.74,878.74,329.94,881.75,329.5Zm5.78,3.08v-.81l-4.06.63a2.27,2.27,0,0,0-2.24,2.27,2.11,2.11,0,0,0,2.35,2.08C885.63,336.75,887.53,335.77,887.53,332.58Z"/><path class="cls-3" d="M902.08,339.87h-4.87v-18h4.72v2.24a6,6,0,0,1,5.2-2.71c4.47,0,6.53,3.18,6.53,7.14v11.36h-4.88V329.35c0-2-1-3.59-3.33-3.59-2.12,0-3.37,1.65-3.37,3.74Z"/><path class="cls-3" d="M935.79,336.61c0,1.21.07,2.53.14,3.26h-4.65a13,13,0,0,1-.18-2.09,5.66,5.66,0,0,1-5.06,2.53c-5.13,0-8.79-4-8.79-9.49,0-5.28,3.55-9.42,8.64-9.42,3.12,0,4.58,1.29,5.1,2.24v-10.3h4.8Zm-9.16-.66c2.49,0,4.43-1.91,4.43-5.17s-1.94-5-4.43-5-4.47,1.84-4.47,5.06S924.06,336,926.63,336Z"/><path class="cls-3" d="M945.24,329.5l4.43-.66c1-.14,1.36-.66,1.36-1.28,0-1.28-1-2.35-3-2.35a3.21,3.21,0,0,0-3.45,2.94l-4.32-.92c.29-2.82,2.9-5.93,7.73-5.93,5.72,0,7.84,3.22,7.84,6.85V337a20.2,20.2,0,0,0,.22,2.86h-4.47a12.29,12.29,0,0,1-.18-2.16,6,6,0,0,1-5.31,2.67c-3.85,0-6.2-2.6-6.2-5.42C939.85,331.74,942.24,329.94,945.24,329.5Zm5.79,3.08v-.81l-4.07.63a2.27,2.27,0,0,0-2.23,2.27,2.11,2.11,0,0,0,2.34,2.08C949.12,336.75,951,335.77,951,332.58Z"/><path class="cls-3" d="M963.67,333.86c2.27,0,3.63,1.83,3.63,4.21,0,5.39-3.74,7.66-6.45,8v-2.34a4.51,4.51,0,0,0,3.48-4,1.92,1.92,0,0,1-1,.22,2.93,2.93,0,0,1-3-3A3.14,3.14,0,0,1,963.67,333.86Z"/><path class="cls-3" d="M560.79,373.47l4.44-.66c1-.15,1.35-.66,1.35-1.28,0-1.29-1-2.35-3-2.35a3.2,3.2,0,0,0-3.44,2.93l-4.33-.91c.3-2.82,2.9-5.94,7.73-5.94,5.72,0,7.84,3.23,7.84,6.85V381a20.17,20.17,0,0,0,.23,2.86H567.1a12.24,12.24,0,0,1-.19-2.17,6,6,0,0,1-5.31,2.68c-3.85,0-6.19-2.6-6.19-5.42C555.41,375.7,557.79,373.91,560.79,373.47Zm5.79,3.08v-.81l-4.06.62a2.28,2.28,0,0,0-2.24,2.27,2.11,2.11,0,0,0,2.35,2.09C564.68,380.72,566.58,379.73,566.58,376.55Z"/><path class="cls-3" d="M587.25,370.65a7.4,7.4,0,0,0-1.47-.15c-2.49,0-4.65,1.21-4.65,5.09v8.25h-4.87v-18H581v2.68c1.1-2.39,3.59-2.83,5.13-2.83a10.37,10.37,0,0,1,1.14.08Z"/><path class="cls-3" d="M597.39,365.81H601v4.32h-3.63v7.55c0,1.58.74,2.09,2.13,2.09a6.52,6.52,0,0,0,1.5-.15v4a7.1,7.1,0,0,1-2.75.44c-3.51,0-5.71-2.09-5.71-5.57v-8.39H589.3v-4.32h.91A2.6,2.6,0,0,0,593,363v-2.52h4.39Z"/><path class="cls-3" d="M607.58,356.87a3,3,0,1,1-3,3A3,3,0,0,1,607.58,356.87Zm-2.42,27v-18H610v18Z"/><path class="cls-3" d="M618.75,374.82c0,3.26,2.13,5.1,4.62,5.1a4.13,4.13,0,0,0,4.14-3l4.29,1.42a8.38,8.38,0,0,1-8.43,6.09,9.33,9.33,0,0,1-9.49-9.57,9.22,9.22,0,0,1,9.34-9.56c4.91,0,7.7,3,8.47,6.08l-4.36,1.47a3.94,3.94,0,0,0-4-3C620.84,369.77,618.75,371.56,618.75,374.82Z"/><path class="cls-3" d="M635.39,383.84V357.31h4.87v26.53Z"/><path class="cls-3" d="M661.62,378.67a8.13,8.13,0,0,1-8.21,5.72c-4.94,0-9.3-3.56-9.3-9.64,0-5.75,4.25-9.49,8.86-9.49,5.57,0,8.91,3.56,8.91,9.34,0,.7-.08,1.43-.08,1.51H648.91a4.38,4.38,0,0,0,4.54,4.1,4,4,0,0,0,4.1-2.75Zm-4.54-5.9c-.08-1.79-1.25-3.55-4-3.55a3.89,3.89,0,0,0-4,3.55Z"/><path class="cls-3" d="M668.36,377.9a3,3,0,0,0,3.3,2.75c1.61,0,2.38-.84,2.38-1.8,0-.8-.55-1.46-1.94-1.76l-2.38-.54c-3.48-.77-5.06-2.86-5.06-5.39,0-3.22,2.86-5.9,6.74-5.9,5.13,0,6.85,3.26,7.07,5.2l-4.06.92a2.76,2.76,0,0,0-3-2.42,2.08,2.08,0,0,0-2.31,1.8c0,.88.66,1.43,1.65,1.61l2.56.55c3.56.73,5.35,2.89,5.35,5.53,0,2.93-2.27,5.94-7,5.94-5.43,0-7.3-3.52-7.52-5.57Z"/><path class="cls-3" d="M685.58,377.83c2.27,0,3.63,1.83,3.63,4.21,0,5.39-3.74,7.66-6.45,8v-2.35a4.48,4.48,0,0,0,3.48-3.95,1.92,1.92,0,0,1-1,.22,2.92,2.92,0,0,1-3-3A3.14,3.14,0,0,1,685.58,377.83Z"/><path class="cls-3" d="M703.1,390.8v-25h4.72V368a6.31,6.31,0,0,1,5.53-2.6c5.28,0,8.32,4,8.32,9.38s-3.41,9.49-8.5,9.49a6.33,6.33,0,0,1-5.2-2.2v8.72Zm9.3-21c-2.49,0-4.51,1.87-4.51,5.05s2,5.1,4.51,5.1,4.47-1.87,4.47-5.1S714.89,369.77,712.4,369.77Z"/><path class="cls-3" d="M736.51,370.65a7.4,7.4,0,0,0-1.47-.15c-2.49,0-4.65,1.21-4.65,5.09v8.25h-4.87v-18h4.72v2.68c1.1-2.39,3.59-2.83,5.13-2.83a10.2,10.2,0,0,1,1.14.08Z"/><path class="cls-3" d="M755.93,378.67a8.14,8.14,0,0,1-8.21,5.72c-5,0-9.3-3.56-9.3-9.64,0-5.75,4.24-9.49,8.86-9.49,5.57,0,8.9,3.56,8.9,9.34,0,.7-.07,1.43-.07,1.51h-12.9a4.39,4.39,0,0,0,4.55,4.1,4,4,0,0,0,4.1-2.75Zm-4.55-5.9c-.07-1.79-1.24-3.55-4-3.55a3.9,3.9,0,0,0-4,3.55Z"/><path class="cls-3" d="M762.67,377.9a3,3,0,0,0,3.3,2.75c1.61,0,2.38-.84,2.38-1.8,0-.8-.55-1.46-1.94-1.76l-2.39-.54c-3.48-.77-5-2.86-5-5.39,0-3.22,2.86-5.9,6.74-5.9,5.13,0,6.85,3.26,7.07,5.2l-4.07.92a2.74,2.74,0,0,0-3-2.42c-1.29,0-2.31.77-2.31,1.8s.66,1.43,1.65,1.61l2.56.55c3.56.73,5.35,2.89,5.35,5.53,0,2.93-2.27,5.94-7,5.94-5.42,0-7.29-3.52-7.51-5.57Z"/><path class="cls-3" d="M793,378.67c-.91,3.11-3.77,5.72-8.2,5.72-4.95,0-9.31-3.56-9.31-9.64,0-5.75,4.25-9.49,8.87-9.49,5.57,0,8.9,3.56,8.9,9.34,0,.7-.07,1.43-.07,1.51h-12.9a4.39,4.39,0,0,0,4.54,4.1,4,4,0,0,0,4.11-2.75Zm-4.54-5.9c-.07-1.79-1.24-3.55-4-3.55a3.89,3.89,0,0,0-4,3.55Z"/><path class="cls-3" d="M802,383.84h-4.87v-18h4.72v2.24a6,6,0,0,1,5.21-2.71c4.47,0,6.52,3.18,6.52,7.14v11.36h-4.87V373.32c0-2-1-3.59-3.34-3.59-2.12,0-3.37,1.65-3.37,3.74Z"/><path class="cls-3" d="M824.51,365.81h3.63v4.32h-3.63v7.55c0,1.58.74,2.09,2.13,2.09a6.52,6.52,0,0,0,1.5-.15v4a7.1,7.1,0,0,1-2.75.44c-3.51,0-5.71-2.09-5.71-5.57v-8.39h-3.26v-4.32h.91a2.6,2.6,0,0,0,2.79-2.86v-2.52h4.39Z"/><path class="cls-3" d="M836.68,373.47l4.43-.66c1-.15,1.36-.66,1.36-1.28,0-1.29-1-2.35-3-2.35a3.21,3.21,0,0,0-3.45,2.93l-4.32-.91c.29-2.82,2.89-5.94,7.73-5.94,5.72,0,7.84,3.23,7.84,6.85V381a20.32,20.32,0,0,0,.22,2.86H843a12.32,12.32,0,0,1-.18-2.17,6,6,0,0,1-5.32,2.68c-3.84,0-6.19-2.6-6.19-5.42C831.29,375.7,833.67,373.91,836.68,373.47Zm5.79,3.08v-.81l-4.07.62a2.28,2.28,0,0,0-2.23,2.27,2.11,2.11,0,0,0,2.34,2.09C840.56,380.72,842.47,379.73,842.47,376.55Z"/><path class="cls-3" d="M858,365.81h3.63v4.32H858v7.55c0,1.58.73,2.09,2.12,2.09a6.69,6.69,0,0,0,1.51-.15v4a7.1,7.1,0,0,1-2.75.44c-3.52,0-5.72-2.09-5.72-5.57v-8.39h-3.26v-4.32h.92a2.59,2.59,0,0,0,2.78-2.86v-2.52H858Z"/><path class="cls-3" d="M868.22,356.87a3,3,0,1,1-3,3A3,3,0,0,1,868.22,356.87Zm-2.41,27v-18h4.87v18Z"/><path class="cls-3" d="M893.43,374.82a9.45,9.45,0,1,1-9.45-9.56A9.26,9.26,0,0,1,893.43,374.82Zm-4.87,0c0-3.4-2.2-5.13-4.58-5.13s-4.58,1.73-4.58,5.13S881.6,380,884,380,888.56,378.23,888.56,374.82Z"/><path class="cls-3" d="M902.15,383.84h-4.87v-18H902v2.24a6,6,0,0,1,5.21-2.71c4.47,0,6.52,3.18,6.52,7.14v11.36h-4.87V373.32c0-2-1-3.59-3.34-3.59-2.12,0-3.37,1.65-3.37,3.74Z"/><path class="cls-3" d="M921.31,377.9a3,3,0,0,0,3.3,2.75c1.61,0,2.38-.84,2.38-1.8,0-.8-.55-1.46-1.94-1.76l-2.38-.54c-3.48-.77-5.06-2.86-5.06-5.39,0-3.22,2.86-5.9,6.75-5.9,5.12,0,6.85,3.26,7.07,5.2l-4.07.92a2.76,2.76,0,0,0-3-2.42,2.08,2.08,0,0,0-2.31,1.8c0,.88.66,1.43,1.65,1.61l2.57.55c3.55.73,5.35,2.89,5.35,5.53,0,2.93-2.28,5.94-7,5.94-5.42,0-7.29-3.52-7.51-5.57Z"/><path class="cls-3" d="M949.49,383.84h-4.87V357.31h4.87v10a6.43,6.43,0,0,1,4.87-2c4.58,0,6.71,3.18,6.71,7.14v11.36h-4.88V373.32c0-2-1-3.59-3.33-3.59-2.05,0-3.26,1.54-3.37,3.52Z"/><path class="cls-3" d="M982.17,378.67a8.13,8.13,0,0,1-8.21,5.72c-4.94,0-9.3-3.56-9.3-9.64,0-5.75,4.25-9.49,8.86-9.49,5.57,0,8.91,3.56,8.91,9.34,0,.7-.08,1.43-.08,1.51H969.46a4.38,4.38,0,0,0,4.54,4.1,4,4,0,0,0,4.1-2.75Zm-4.54-5.9c-.08-1.79-1.25-3.55-4-3.55a3.89,3.89,0,0,0-4,3.55Z"/><path class="cls-3" d="M986.28,383.84V357.31h4.87v26.53Z"/><path class="cls-3" d="M1013.53,380.58c0,1.2.08,2.52.15,3.26H1009a11.71,11.71,0,0,1-.19-2.09,5.63,5.63,0,0,1-5.05,2.53c-5.13,0-8.79-4-8.79-9.49,0-5.28,3.55-9.42,8.64-9.42,3.11,0,4.58,1.28,5.09,2.24v-10.3h4.8Zm-9.16-.66c2.5,0,4.44-1.91,4.44-5.17s-1.94-5-4.44-5-4.47,1.83-4.47,5.06S1001.81,379.92,1004.37,379.92Z"/><path class="cls-3" d="M552.75,417.43l4.43-.66c1-.14,1.36-.65,1.36-1.28,0-1.28-1-2.34-3-2.34a3.2,3.2,0,0,0-3.45,2.93l-4.32-.92c.29-2.82,2.9-5.93,7.73-5.93,5.72,0,7.84,3.22,7.84,6.85v8.86a20.08,20.08,0,0,0,.22,2.86h-4.47a12.12,12.12,0,0,1-.18-2.16,6,6,0,0,1-5.31,2.67c-3.85,0-6.19-2.6-6.19-5.42C547.37,419.67,549.75,417.87,552.75,417.43Zm5.79,3.08v-.8l-4.07.62a2.27,2.27,0,0,0-2.23,2.27,2.12,2.12,0,0,0,2.34,2.09C556.63,424.69,558.54,423.7,558.54,420.51Z"/><path class="cls-3" d="M574.11,409.78h3.63v4.32h-3.63v7.55c0,1.57.73,2.09,2.13,2.09a7.3,7.3,0,0,0,1.5-.15v4a7.3,7.3,0,0,1-2.75.44c-3.52,0-5.71-2.09-5.71-5.57V414.1H566v-4.32h.92a2.59,2.59,0,0,0,2.78-2.86v-2.53h4.4Z"/><path class="cls-3" d="M590.82,427.8v-18h4.65V412a6.22,6.22,0,0,1,5.28-2.71,5.59,5.59,0,0,1,5.35,3,6.26,6.26,0,0,1,5.71-3c3.34,0,6.52,2,6.52,6.86V427.8h-4.72V417.1c0-1.94-1-3.4-3.19-3.4a3.3,3.3,0,0,0-3.33,3.55V427.8h-4.84V417.1c0-1.94-1-3.4-3.19-3.4a3.3,3.3,0,0,0-3.37,3.55V427.8Z"/><path class="cls-3" d="M639.44,422.64c-.92,3.11-3.78,5.71-8.21,5.71-5,0-9.31-3.55-9.31-9.63,0-5.76,4.25-9.49,8.87-9.49,5.57,0,8.9,3.55,8.9,9.34,0,.7-.07,1.43-.07,1.5h-12.9a4.39,4.39,0,0,0,4.55,4.1,4,4,0,0,0,4.1-2.74Zm-4.55-5.9c-.07-1.8-1.24-3.56-4-3.56a3.91,3.91,0,0,0-4,3.56Z"/><path class="cls-3" d="M659.7,422.64c-.92,3.11-3.78,5.71-8.21,5.71-5,0-9.3-3.55-9.3-9.63,0-5.76,4.24-9.49,8.86-9.49,5.57,0,8.9,3.55,8.9,9.34,0,.7-.07,1.43-.07,1.5H647a4.39,4.39,0,0,0,4.55,4.1,4,4,0,0,0,4.1-2.74Zm-4.55-5.9c-.07-1.8-1.24-3.56-4-3.56a3.91,3.91,0,0,0-4,3.56Z"/><path class="cls-3" d="M669.81,409.78h3.63v4.32h-3.63v7.55c0,1.57.73,2.09,2.12,2.09a7.34,7.34,0,0,0,1.51-.15v4a7.3,7.3,0,0,1-2.75.44c-3.52,0-5.72-2.09-5.72-5.57V414.1h-3.26v-4.32h.92a2.6,2.6,0,0,0,2.78-2.86v-2.53h4.4Z"/><path class="cls-3" d="M680,400.84a3,3,0,1,1-3,3A3,3,0,0,1,680,400.84Zm-2.42,27v-18h4.87v18Z"/><path class="cls-3" d="M692.52,427.8h-4.87v-18h4.73V412a6,6,0,0,1,5.2-2.71c4.47,0,6.52,3.19,6.52,7.14V427.8h-4.87V417.29c0-2-1-3.59-3.33-3.59-2.13,0-3.38,1.65-3.38,3.73Z"/><path class="cls-3" d="M712.16,427.62a4,4,0,0,0,4.22,3.41c3.07,0,4.8-1.54,4.8-5v-1.32a5.75,5.75,0,0,1-5,2.31c-4.8,0-8.39-3.7-8.39-8.76,0-4.76,3.44-8.79,8.39-8.79,2.85,0,4.5,1.24,5.13,2.45v-2.12H726v16.08c0,4.95-2.68,9.45-9.46,9.45-4.94,0-8.24-3.08-8.75-6.52Zm9.09-9.38a4.29,4.29,0,1,0-8.57,0c0,2.82,1.79,4.58,4.32,4.58S721.25,421,721.25,418.24Z"/><path class="cls-3" d="M733.56,421.87a3,3,0,0,0,3.3,2.74c1.61,0,2.38-.84,2.38-1.79s-.55-1.47-1.94-1.76l-2.38-.55c-3.48-.77-5.06-2.86-5.06-5.38,0-3.23,2.86-5.9,6.74-5.9,5.13,0,6.85,3.26,7.07,5.2l-4.06.92a2.75,2.75,0,0,0-3-2.42,2.08,2.08,0,0,0-2.31,1.79c0,.88.66,1.43,1.65,1.62l2.56.54c3.56.74,5.35,2.9,5.35,5.54,0,2.93-2.27,5.93-7,5.93-5.42,0-7.29-3.52-7.51-5.57Z"/><path class="cls-3" d="M749.75,428.13h-4.39l13-26.63h4.43Z"/><path class="cls-3" d="M764.26,418.79c0,3.26,2.13,5.09,4.62,5.09a4.13,4.13,0,0,0,4.14-3l4.29,1.43a8.38,8.38,0,0,1-8.43,6.08,9.33,9.33,0,0,1-9.49-9.56,9.22,9.22,0,0,1,9.34-9.56c4.91,0,7.7,3,8.47,6.08l-4.36,1.46a3.94,3.94,0,0,0-4-3C766.35,413.73,764.26,415.53,764.26,418.79Z"/><path class="cls-3" d="M798.26,418.79a9.45,9.45,0,1,1-9.45-9.56A9.25,9.25,0,0,1,798.26,418.79Zm-4.87,0c0-3.41-2.2-5.13-4.58-5.13s-4.58,1.72-4.58,5.13,2.2,5.13,4.58,5.13S793.39,422.2,793.39,418.79Z"/><path class="cls-3" d="M807,427.8h-4.87v-18h4.73V412a6,6,0,0,1,5.2-2.71c4.47,0,6.52,3.19,6.52,7.14V427.8h-4.87V417.29c0-2-1-3.59-3.33-3.59-2.13,0-3.38,1.65-3.38,3.73Z"/><path class="cls-3" d="M829.33,407.8v2h4.07V414h-4.07V427.8h-4.9V414h-3v-4.17h3v-2.06c0-4.06,2.56-6.7,6.55-6.7a6.88,6.88,0,0,1,2.42.37v4.1a5.63,5.63,0,0,0-1.54-.18A2.29,2.29,0,0,0,829.33,407.8Z"/><path class="cls-3" d="M852.31,422.64c-.92,3.11-3.78,5.71-8.21,5.71-5,0-9.31-3.55-9.31-9.63,0-5.76,4.25-9.49,8.87-9.49,5.57,0,8.9,3.55,8.9,9.34,0,.7-.07,1.43-.07,1.5h-12.9a4.39,4.39,0,0,0,4.55,4.1,4,4,0,0,0,4.1-2.74Zm-4.55-5.9c-.07-1.8-1.24-3.56-4-3.56a3.91,3.91,0,0,0-4,3.56Z"/><path class="cls-3" d="M867.4,414.61a7.23,7.23,0,0,0-1.46-.14c-2.49,0-4.66,1.2-4.66,5.09v8.24h-4.87v-18h4.73v2.67c1.1-2.38,3.59-2.82,5.13-2.82.4,0,.77,0,1.13.07Z"/><path class="cls-3" d="M886.82,422.64c-.92,3.11-3.77,5.71-8.21,5.71-4.94,0-9.3-3.55-9.3-9.63,0-5.76,4.25-9.49,8.86-9.49,5.57,0,8.91,3.55,8.91,9.34,0,.7-.08,1.43-.08,1.5H874.11a4.38,4.38,0,0,0,4.54,4.1,4,4,0,0,0,4.1-2.74Zm-4.54-5.9c-.08-1.8-1.25-3.56-4-3.56a3.9,3.9,0,0,0-4,3.56Z"/><path class="cls-3" d="M895.8,427.8h-4.88v-18h4.73V412a6,6,0,0,1,5.2-2.71c4.47,0,6.52,3.19,6.52,7.14V427.8H902.5V417.29c0-2-1-3.59-3.33-3.59-2.13,0-3.37,1.65-3.37,3.73Z"/><path class="cls-3" d="M915.84,418.79c0,3.26,2.12,5.09,4.61,5.09a4.12,4.12,0,0,0,4.14-3l4.29,1.43a8.38,8.38,0,0,1-8.43,6.08,9.32,9.32,0,0,1-9.48-9.56,9.22,9.22,0,0,1,9.34-9.56c4.91,0,7.69,3,8.46,6.08l-4.36,1.46a3.93,3.93,0,0,0-4-3C917.93,413.73,915.84,415.53,915.84,418.79Z"/><path class="cls-3" d="M948.44,422.64c-.91,3.11-3.77,5.71-8.2,5.71-5,0-9.31-3.55-9.31-9.63,0-5.76,4.25-9.49,8.87-9.49,5.57,0,8.9,3.55,8.9,9.34,0,.7-.07,1.43-.07,1.5h-12.9a4.39,4.39,0,0,0,4.54,4.1,4,4,0,0,0,4.11-2.74Zm-4.54-5.9c-.07-1.8-1.24-3.56-4-3.56a3.9,3.9,0,0,0-4,3.56Z"/><path class="cls-3" d="M955.19,421.87a3,3,0,0,0,3.29,2.74c1.62,0,2.39-.84,2.39-1.79s-.55-1.47-2-1.76l-2.38-.55c-3.48-.77-5-2.86-5-5.38,0-3.23,2.85-5.9,6.74-5.9,5.13,0,6.85,3.26,7.07,5.2l-4.07.92a2.74,2.74,0,0,0-3-2.42,2.07,2.07,0,0,0-2.3,1.79c0,.88.66,1.43,1.64,1.62l2.57.54c3.55.74,5.35,2.9,5.35,5.54,0,2.93-2.27,5.93-7,5.93-5.42,0-7.29-3.52-7.51-5.57Z"/><path class="cls-3" d="M984.31,407.8v2h4.07V414h-4.07V427.8H979.4V414h-3v-4.17h3v-2.06c0-4.06,2.57-6.7,6.56-6.7a6.88,6.88,0,0,1,2.42.37v4.1a5.63,5.63,0,0,0-1.54-.18A2.29,2.29,0,0,0,984.31,407.8Z"/><path class="cls-3" d="M1008.68,418.79a9.46,9.46,0,1,1-9.45-9.56A9.25,9.25,0,0,1,1008.68,418.79Zm-4.87,0c0-3.41-2.2-5.13-4.58-5.13s-4.58,1.72-4.58,5.13,2.19,5.13,4.58,5.13S1003.81,422.2,1003.81,418.79Z"/><path class="cls-3" d="M1023.52,414.61a7.33,7.33,0,0,0-1.47-.14c-2.49,0-4.65,1.2-4.65,5.09v8.24h-4.87v-18h4.72v2.67c1.1-2.38,3.59-2.82,5.13-2.82.41,0,.77,0,1.14.07Z"/><path class="cls-3" d="M606.54,478.73v-25h4.72v2.2a6.31,6.31,0,0,1,5.53-2.6c5.28,0,8.32,4,8.32,9.38s-3.41,9.49-8.5,9.49a6.33,6.33,0,0,1-5.2-2.2v8.72Zm9.3-21c-2.49,0-4.5,1.87-4.5,5.06s2,5.09,4.5,5.09,4.47-1.87,4.47-5.09S618.33,457.7,615.84,457.7Z"/><path class="cls-3" d="M640,458.58a7.38,7.38,0,0,0-1.46-.15c-2.5,0-4.66,1.21-4.66,5.1v8.24H629v-18h4.73v2.68c1.1-2.38,3.59-2.82,5.12-2.82a10.26,10.26,0,0,1,1.14.07Z"/><path class="cls-3" d="M660.76,462.76a9.45,9.45,0,1,1-9.45-9.57A9.25,9.25,0,0,1,660.76,462.76Zm-4.87,0c0-3.41-2.2-5.13-4.58-5.13s-4.58,1.72-4.58,5.13,2.2,5.12,4.58,5.12S655.89,466.16,655.89,462.76Z"/><path class="cls-3" d="M664.61,453.74h4.87v19.6c0,3.48-2.16,5.94-5.64,5.94a8.47,8.47,0,0,1-2.75-.4v-4.07a6.59,6.59,0,0,0,1.5.18c1.47,0,2-.8,2-2.12Zm2.42-9a3,3,0,0,1,3,3,3,3,0,0,1-6,0A3,3,0,0,1,667,444.77Z"/><path class="cls-3" d="M690.84,466.6c-.92,3.12-3.77,5.72-8.21,5.72-4.94,0-9.3-3.56-9.3-9.64,0-5.75,4.25-9.49,8.86-9.49,5.57,0,8.91,3.56,8.91,9.35,0,.69-.08,1.42-.08,1.5H678.13a4.38,4.38,0,0,0,4.54,4.1,4,4,0,0,0,4.1-2.75Zm-4.54-5.9c-.08-1.79-1.25-3.55-4-3.55a3.9,3.9,0,0,0-4,3.55Z"/><path class="cls-3" d="M698.46,462.76c0,3.26,2.13,5.09,4.62,5.09a4.13,4.13,0,0,0,4.14-3l4.28,1.43a8.36,8.36,0,0,1-8.42,6.08,9.33,9.33,0,0,1-9.49-9.56,9.23,9.23,0,0,1,9.34-9.57c4.91,0,7.69,3,8.46,6.09L707,460.74a3.94,3.94,0,0,0-4-3C700.55,457.7,698.46,459.5,698.46,462.76Z"/><path class="cls-3" d="M721.1,453.74h3.63v4.33H721.1v7.54c0,1.58.74,2.09,2.13,2.09a7.44,7.44,0,0,0,1.5-.14v4A7.3,7.3,0,0,1,722,472c-3.51,0-5.71-2.09-5.71-5.57v-8.39H713v-4.33h.91a2.59,2.59,0,0,0,2.79-2.85v-2.53h4.39Z"/><path class="cls-3" d="M743.82,453.74h3.63v4.33h-3.63v7.54c0,1.58.73,2.09,2.12,2.09a7.48,7.48,0,0,0,1.51-.14v4a7.3,7.3,0,0,1-2.75.44c-3.52,0-5.72-2.09-5.72-5.57v-8.39h-3.26v-4.33h.92a2.59,2.59,0,0,0,2.78-2.85v-2.53h4.4Z"/><path class="cls-3" d="M756,461.4l4.44-.66c1-.15,1.35-.66,1.35-1.28,0-1.28-1-2.35-3-2.35a3.2,3.2,0,0,0-3.44,2.94l-4.33-.92c.3-2.82,2.9-5.94,7.73-5.94,5.72,0,7.84,3.23,7.84,6.86v8.86a20.2,20.2,0,0,0,.22,2.86h-4.46a11.33,11.33,0,0,1-.19-2.16,6,6,0,0,1-5.31,2.67c-3.85,0-6.19-2.6-6.19-5.42C750.6,463.64,753,461.84,756,461.4Zm5.79,3.08v-.81l-4.06.63a2.27,2.27,0,0,0-2.24,2.27,2.11,2.11,0,0,0,2.35,2.08C759.87,468.65,761.77,467.67,761.77,464.48Z"/><path class="cls-3" d="M782.44,458.58a7.4,7.4,0,0,0-1.47-.15c-2.49,0-4.65,1.21-4.65,5.1v8.24h-4.87v-18h4.72v2.68c1.1-2.38,3.59-2.82,5.13-2.82a10.42,10.42,0,0,1,1.14.07Z"/><path class="cls-3" d="M788.81,471.59A4,4,0,0,0,793,475c3.08,0,4.8-1.54,4.8-5v-1.32a5.7,5.7,0,0,1-5,2.31c-4.8,0-8.38-3.7-8.38-8.75,0-4.77,3.44-8.8,8.38-8.8,2.86,0,4.51,1.25,5.13,2.46v-2.13h4.69v16.09c0,4.94-2.67,9.45-9.45,9.45-4.95,0-8.24-3.08-8.75-6.52Zm9.09-9.38a4.3,4.3,0,1,0-8.58,0c0,2.82,1.8,4.58,4.33,4.58S797.9,465,797.9,462.21Z"/><path class="cls-3" d="M823.73,466.6c-.92,3.12-3.78,5.72-8.21,5.72-4.95,0-9.31-3.56-9.31-9.64,0-5.75,4.25-9.49,8.87-9.49,5.57,0,8.9,3.56,8.9,9.35,0,.69-.07,1.42-.07,1.5H811a4.39,4.39,0,0,0,4.55,4.1,4,4,0,0,0,4.1-2.75Zm-4.55-5.9c-.07-1.79-1.24-3.55-4-3.55a3.91,3.91,0,0,0-4,3.55Z"/><path class="cls-3" d="M833.84,453.74h3.63v4.33h-3.63v7.54c0,1.58.73,2.09,2.12,2.09a7.48,7.48,0,0,0,1.51-.14v4a7.3,7.3,0,0,1-2.75.44c-3.52,0-5.72-2.09-5.72-5.57v-8.39h-3.26v-4.33h.92a2.59,2.59,0,0,0,2.78-2.85v-2.53h4.4Z"/><path class="cls-3" d="M853.66,471.59a4,4,0,0,0,4.21,3.4c3.08,0,4.8-1.54,4.8-5v-1.32a5.71,5.71,0,0,1-5,2.31c-4.8,0-8.39-3.7-8.39-8.75,0-4.77,3.45-8.8,8.39-8.8,2.86,0,4.51,1.25,5.13,2.46v-2.13h4.69v16.09c0,4.94-2.67,9.45-9.45,9.45-4.95,0-8.24-3.08-8.76-6.52Zm9.09-9.38a4.3,4.3,0,1,0-8.58,0c0,2.82,1.8,4.58,4.33,4.58S862.75,465,862.75,462.21Z"/><path class="cls-3" d="M883.41,458.58a7.38,7.38,0,0,0-1.46-.15c-2.5,0-4.66,1.21-4.66,5.1v8.24h-4.87v-18h4.73v2.68c1.1-2.38,3.59-2.82,5.12-2.82a10.26,10.26,0,0,1,1.14.07Z"/><path class="cls-3" d="M904.22,462.76a9.45,9.45,0,1,1-9.45-9.57A9.25,9.25,0,0,1,904.22,462.76Zm-4.87,0c0-3.41-2.2-5.13-4.58-5.13s-4.58,1.72-4.58,5.13,2.2,5.12,4.58,5.12S899.35,466.16,899.35,462.76Z"/><path class="cls-3" d="M919.65,469.83a5.72,5.72,0,0,1-5,2.42c-4.36,0-6.85-3.19-6.85-7.11v-11.4h4.88v10.41c0,2,1,3.63,3.29,3.63a3.26,3.26,0,0,0,3.41-3.56V453.74h4.87v14.77a27.66,27.66,0,0,0,.19,3.26h-4.66A13,13,0,0,1,919.65,469.83Z"/><path class="cls-3" d="M929.47,478.73v-25h4.72v2.2a6.31,6.31,0,0,1,5.53-2.6c5.28,0,8.32,4,8.32,9.38s-3.41,9.49-8.5,9.49a6.33,6.33,0,0,1-5.2-2.2v8.72Zm9.3-21c-2.49,0-4.5,1.87-4.5,5.06s2,5.09,4.5,5.09,4.47-1.87,4.47-5.09S941.26,457.7,938.77,457.7Z"/><path class="cls-3" d="M954.53,465.83a3,3,0,0,0,3.29,2.75c1.62,0,2.39-.84,2.39-1.79s-.55-1.47-2-1.76l-2.38-.55c-3.48-.77-5-2.86-5-5.39,0-3.22,2.85-5.9,6.74-5.9,5.13,0,6.85,3.26,7.07,5.21l-4.07.91a2.74,2.74,0,0,0-3-2.42,2.07,2.07,0,0,0-2.3,1.8c0,.88.66,1.43,1.65,1.61l2.56.55c3.55.73,5.35,2.9,5.35,5.53,0,2.93-2.27,5.94-7,5.94-5.42,0-7.29-3.52-7.51-5.57Z"/><path class="cls-3" d="M630.49,831H619.93l-2.16,5.93h-5.35l10-26h5.86l9.89,26h-5.49Zm-8.87-4.62h7.18l-3.59-9.82Z"/><path class="cls-3" d="M652,823.75a7.4,7.4,0,0,0-1.47-.15c-2.49,0-4.65,1.21-4.65,5.09v8.24H641v-18h4.72v2.67c1.1-2.38,3.59-2.82,5.13-2.82a10.2,10.2,0,0,1,1.14.08Z"/><path class="cls-3" d="M662.18,818.91h3.62v4.32h-3.62v7.55c0,1.58.73,2.09,2.12,2.09a6.52,6.52,0,0,0,1.5-.15v4a7.24,7.24,0,0,1-2.74.44c-3.52,0-5.72-2.09-5.72-5.57v-8.39h-3.26v-4.32H655a2.6,2.6,0,0,0,2.78-2.86v-2.53h4.4Z"/><path class="cls-3" d="M672.36,810a3,3,0,1,1-3,3A3,3,0,0,1,672.36,810Zm-2.42,27v-18h4.88v18Z"/><path class="cls-3" d="M683.54,827.92c0,3.26,2.12,5.09,4.61,5.09a4.12,4.12,0,0,0,4.14-3l4.29,1.43a8.37,8.37,0,0,1-8.43,6.08,9.33,9.33,0,0,1-9.49-9.56,9.23,9.23,0,0,1,9.35-9.56c4.91,0,7.69,3,8.46,6.08l-4.36,1.47a3.93,3.93,0,0,0-4-3C685.62,822.87,683.54,824.66,683.54,827.92Z"/><path class="cls-3" d="M700.17,836.93V810.41H705v26.52Z"/><path class="cls-3" d="M726.4,831.77c-.91,3.11-3.77,5.71-8.2,5.71-5,0-9.31-3.55-9.31-9.63,0-5.75,4.25-9.49,8.86-9.49,5.57,0,8.91,3.55,8.91,9.34,0,.7-.08,1.43-.08,1.5H713.69a4.39,4.39,0,0,0,4.54,4.11,4,4,0,0,0,4.1-2.75Zm-4.54-5.9c-.07-1.79-1.25-3.55-4-3.55a3.89,3.89,0,0,0-4,3.55Z"/><path class="cls-3" d="M733.14,831a3,3,0,0,0,3.3,2.75c1.61,0,2.38-.85,2.38-1.8s-.55-1.46-1.94-1.76l-2.38-.55c-3.48-.76-5.06-2.85-5.06-5.38,0-3.23,2.86-5.9,6.74-5.9,5.13,0,6.86,3.26,7.07,5.2l-4.06.92a2.76,2.76,0,0,0-3-2.42,2.08,2.08,0,0,0-2.31,1.8c0,.87.66,1.42,1.65,1.61l2.57.55c3.55.73,5.34,2.89,5.34,5.53,0,2.93-2.27,5.93-7,5.93-5.43,0-7.29-3.51-7.51-5.56Z"/><path class="cls-3" d="M577.07,887.86v-25h4.72v2.19c.81-1.39,2.82-2.6,5.54-2.6,5.27,0,8.31,4,8.31,9.38s-3.41,9.49-8.5,9.49a6.33,6.33,0,0,1-5.2-2.2v8.72Zm9.3-21c-2.49,0-4.5,1.87-4.5,5.06s2,5.09,4.5,5.09,4.47-1.87,4.47-5.09S588.86,866.83,586.37,866.83Z"/><path class="cls-3" d="M611.07,879a5.72,5.72,0,0,1-5,2.42c-4.36,0-6.85-3.19-6.85-7.11V862.88h4.88v10.4c0,2,1,3.63,3.29,3.63a3.26,3.26,0,0,0,3.41-3.56V862.88h4.87v14.76a27.66,27.66,0,0,0,.19,3.26h-4.66A12.84,12.84,0,0,1,611.07,879Z"/><path class="cls-3" d="M620.89,880.9V854.38h4.8v10.47a6.4,6.4,0,0,1,5.46-2.45c5.27,0,8.31,4.07,8.31,9.42s-3.37,9.52-8.5,9.52a6.11,6.11,0,0,1-5.35-2.64v2.2Zm9.23-14.14c-2.45,0-4.51,1.79-4.51,5.09s2.06,5.13,4.51,5.13,4.47-1.83,4.47-5.13S632.61,866.76,630.12,866.76Z"/><path class="cls-3" d="M643.31,880.9V854.38h4.87V880.9Z"/><path class="cls-3" d="M655.8,853.94a3,3,0,1,1-3,3A3,3,0,0,1,655.8,853.94Zm-2.41,27v-18h4.87v18Z"/><path class="cls-3" d="M666.1,875a3,3,0,0,0,3.3,2.74c1.61,0,2.38-.84,2.38-1.79s-.55-1.47-1.95-1.76l-2.38-.55c-3.48-.77-5.05-2.86-5.05-5.38,0-3.23,2.86-5.9,6.74-5.9,5.13,0,6.85,3.26,7.07,5.2l-4.07.92a2.73,2.73,0,0,0-3-2.42c-1.29,0-2.31.77-2.31,1.79s.66,1.43,1.65,1.61l2.56.55c3.55.74,5.35,2.9,5.35,5.54,0,2.93-2.27,5.93-7,5.93-5.42,0-7.29-3.52-7.51-5.57Z"/><path class="cls-3" d="M685.22,880.9h-4.87V854.38h4.87v10a6.48,6.48,0,0,1,4.88-2c4.58,0,6.7,3.19,6.7,7.14V880.9h-4.87V870.39c0-2-1-3.59-3.34-3.59a3.37,3.37,0,0,0-3.37,3.51Z"/><path class="cls-3" d="M717.91,875.74c-.92,3.11-3.78,5.71-8.21,5.71-5,0-9.31-3.55-9.31-9.63,0-5.76,4.25-9.49,8.87-9.49,5.57,0,8.9,3.55,8.9,9.34,0,.7-.07,1.43-.07,1.5h-12.9a4.39,4.39,0,0,0,4.55,4.1,4,4,0,0,0,4.1-2.74Zm-4.55-5.9c-.07-1.8-1.24-3.56-4-3.56a3.9,3.9,0,0,0-4,3.56Z"/><path class="cls-3" d="M739.19,877.64c0,1.21.07,2.53.15,3.26h-4.65a11.51,11.51,0,0,1-.19-2.09,5.64,5.64,0,0,1-5,2.53c-5.13,0-8.8-4-8.8-9.49,0-5.27,3.56-9.41,8.65-9.41,3.11,0,4.58,1.28,5.09,2.23V854.38h4.8ZM730,877c2.49,0,4.44-1.9,4.44-5.16s-2-5-4.44-5-4.47,1.83-4.47,5.05S727.47,877,730,877Z"/><path class="cls-3" d="M755.94,853.94a3,3,0,1,1-3,3A3,3,0,0,1,755.94,853.94Zm-2.42,27v-18h4.87v18Z"/><path class="cls-3" d="M768.47,880.9h-4.88v-18h4.73v2.23a6,6,0,0,1,5.2-2.71c4.47,0,6.52,3.19,6.52,7.14V880.9h-4.87V870.39c0-2-1-3.59-3.33-3.59-2.13,0-3.37,1.65-3.37,3.73Z"/><path class="cls-3" d="M586.61,914.5l4.43-.66c1-.15,1.36-.66,1.36-1.28,0-1.28-1-2.35-3-2.35a3.19,3.19,0,0,0-3.44,2.93l-4.33-.91c.29-2.82,2.9-5.94,7.73-5.94,5.72,0,7.84,3.23,7.84,6.85V922a20.32,20.32,0,0,0,.22,2.86h-4.47a12.29,12.29,0,0,1-.18-2.16,6,6,0,0,1-5.31,2.67c-3.85,0-6.19-2.6-6.19-5.42C581.23,916.73,583.61,914.94,586.61,914.5Zm5.79,3.08v-.81l-4.07.62a2.28,2.28,0,0,0-2.23,2.28,2.11,2.11,0,0,0,2.34,2.08C590.5,921.75,592.4,920.76,592.4,917.58Z"/><path class="cls-3" d="M607,924.87h-4.88v-18h4.73v2.24a6,6,0,0,1,5.2-2.71c4.47,0,6.52,3.18,6.52,7.14v11.36h-4.87V914.35c0-2-1-3.59-3.33-3.59-2.13,0-3.37,1.65-3.37,3.74Z"/><path class="cls-3" d="M629.48,906.84h3.63v4.33h-3.63v7.54c0,1.58.73,2.09,2.12,2.09a6.69,6.69,0,0,0,1.51-.15v4a7.1,7.1,0,0,1-2.75.44c-3.52,0-5.72-2.08-5.72-5.57v-8.38h-3.26v-4.33h.92a2.59,2.59,0,0,0,2.78-2.86v-2.52h4.4Z"/><path class="cls-3" d="M641.24,924.87h-4.87V898.34h4.87v10a6.43,6.43,0,0,1,4.87-2c4.58,0,6.71,3.18,6.71,7.14v11.36h-4.88V914.35c0-2-1-3.59-3.33-3.59-2.05,0-3.26,1.54-3.37,3.52Z"/><path class="cls-3" d="M675.31,915.85a9.45,9.45,0,1,1-9.45-9.56A9.25,9.25,0,0,1,675.31,915.85Zm-4.87,0c0-3.4-2.2-5.12-4.58-5.12s-4.58,1.72-4.58,5.12,2.2,5.13,4.58,5.13S670.44,919.26,670.44,915.85Z"/><path class="cls-3" d="M679.16,924.87V898.34H684v26.53Z"/><path class="cls-3" d="M706.79,915.85a9.46,9.46,0,1,1-9.46-9.56A9.26,9.26,0,0,1,706.79,915.85Zm-4.88,0c0-3.4-2.2-5.12-4.58-5.12s-4.58,1.72-4.58,5.12S695,921,697.33,921,701.91,919.26,701.91,915.85Z"/><path class="cls-3" d="M713.75,924.68a4,4,0,0,0,4.21,3.41c3.08,0,4.8-1.54,4.8-5v-1.32a5.71,5.71,0,0,1-5,2.31c-4.8,0-8.39-3.7-8.39-8.76,0-4.76,3.45-8.79,8.39-8.79,2.86,0,4.51,1.25,5.13,2.46v-2.13h4.69v16.09c0,4.94-2.67,9.45-9.45,9.45-5,0-8.24-3.08-8.76-6.52Zm9.08-9.38a4.29,4.29,0,1,0-8.57,0c0,2.83,1.8,4.58,4.32,4.58S722.83,918.09,722.83,915.3Z"/><path class="cls-3" d="M734.93,897.9a3,3,0,1,1-3,3A3,3,0,0,1,734.93,897.9Zm-2.42,27v-18h4.87v18Z"/><path class="cls-3" d="M758.74,919.7c-.92,3.12-3.77,5.72-8.21,5.72-4.94,0-9.3-3.56-9.3-9.64,0-5.75,4.25-9.49,8.86-9.49,5.57,0,8.91,3.56,8.91,9.34,0,.7-.08,1.43-.08,1.51H746a4.38,4.38,0,0,0,4.54,4.1,4,4,0,0,0,4.1-2.75Zm-4.54-5.9c-.08-1.79-1.25-3.55-4-3.55a3.89,3.89,0,0,0-4,3.55Z"/><path class="cls-3" d="M765.48,918.93a3,3,0,0,0,3.3,2.75c1.61,0,2.38-.84,2.38-1.8,0-.8-.55-1.46-1.94-1.75l-2.38-.55c-3.48-.77-5.06-2.86-5.06-5.39,0-3.22,2.86-5.9,6.74-5.9,5.13,0,6.85,3.26,7.07,5.21l-4.06.91a2.76,2.76,0,0,0-3-2.42,2.08,2.08,0,0,0-2.31,1.8c0,.88.66,1.43,1.65,1.61l2.56.55c3.56.73,5.35,2.89,5.35,5.53,0,2.93-2.27,5.94-7,5.94-5.43,0-7.3-3.52-7.52-5.57Z"/></g></g></svg>