<svg xmlns="http://www.w3.org/2000/svg" viewBox="0 0 1366 852.66"><defs><style>.cls-1{fill:#004d61;}.cls-2{fill:#5bd1d7;}.cls-3{fill:#fff;}</style></defs><title>Asset 10</title><g id="Layer_2" data-name="Layer 2"><g id="Layer_1-2" data-name="Layer 1"><path class="cls-1" d="M792.37,850.58v-26a1.3,1.3,0,0,1,.76-1.2,4.43,4.43,0,0,1,3.68,0,1.29,1.29,0,0,1,.76,1.2v26a1.33,1.33,0,0,1-.78,1.2,4,4,0,0,1-3.66,0A1.34,1.34,0,0,1,792.37,850.58Z"/><path class="cls-1" d="M802,850.58V834.82a1.35,1.35,0,0,1,.7-1.16,3.51,3.51,0,0,1,1.86-.44,2.81,2.81,0,0,1,1.62.45,1.34,1.34,0,0,1,.66,1.17v1.21a5.49,5.49,0,0,1,2.06-2.18,6.22,6.22,0,0,1,8.12,1.51,8.47,8.47,0,0,1,2.06,5.72v9.48a1.33,1.33,0,0,1-.78,1.2,3.56,3.56,0,0,1-1.82.44,3.61,3.61,0,0,1-1.78-.43,1.35,1.35,0,0,1-.78-1.2v-9.46a3.49,3.49,0,0,0-1-2.49,3.25,3.25,0,0,0-2.44-1.1,3.15,3.15,0,0,0-2.3,1,3.56,3.56,0,0,0-1,2.59v9.46a1.43,1.43,0,0,1-.78,1.12,3.23,3.23,0,0,1-1.82.51,3.14,3.14,0,0,1-1.82-.5A1.4,1.4,0,0,1,802,850.58Z"/><path class="cls-1" d="M822.89,850.58V834.82a1.35,1.35,0,0,1,.7-1.16,3.51,3.51,0,0,1,1.86-.44,2.81,2.81,0,0,1,1.62.45,1.34,1.34,0,0,1,.66,1.17v1.21a5.49,5.49,0,0,1,2.06-2.18,6.22,6.22,0,0,1,8.12,1.51A8.47,8.47,0,0,1,840,841.1v9.48a1.33,1.33,0,0,1-.78,1.2,3.56,3.56,0,0,1-1.82.44,3.61,3.61,0,0,1-1.78-.43,1.35,1.35,0,0,1-.78-1.2v-9.46a3.49,3.49,0,0,0-1-2.49,3.25,3.25,0,0,0-2.44-1.1,3.15,3.15,0,0,0-2.3,1,3.56,3.56,0,0,0-1,2.59v9.46a1.43,1.43,0,0,1-.78,1.12,3.23,3.23,0,0,1-1.82.51,3.14,3.14,0,0,1-1.82-.5A1.4,1.4,0,0,1,822.89,850.58Z"/><path class="cls-1" d="M843.09,844.38V841.1a7.64,7.64,0,0,1,2.56-5.7,8.92,8.92,0,0,1,12.2,0,7.51,7.51,0,0,1,2.6,5.72v3.28a7.66,7.66,0,0,1-2.6,5.72,8.69,8.69,0,0,1-12.16,0A7.7,7.7,0,0,1,843.09,844.38Zm5.16,0a3.63,3.63,0,0,0,1,2.54,3.3,3.3,0,0,0,4.94,0,3.57,3.57,0,0,0,1.06-2.54v-3.25a3.47,3.47,0,0,0-1.06-2.46,3.26,3.26,0,0,0-2.46-1.12,3.32,3.32,0,0,0-2.48,1.1,3.49,3.49,0,0,0-1,2.48Z"/><path class="cls-1" d="M861.81,835.18c0-.56.4-1.06,1.18-1.52a4.58,4.58,0,0,1,2.26-.68,1.47,1.47,0,0,1,1.52.88l4.44,11.6,4.44-11.52a1.43,1.43,0,0,1,1.48-1,4.66,4.66,0,0,1,2.2.7c.83.47,1.24,1,1.24,1.54a1.45,1.45,0,0,1-.16.68l-6.84,15.84c-.29.62-1.08.92-2.36.92s-2.05-.3-2.32-.92L862,835.9A1.2,1.2,0,0,1,861.81,835.18Z"/><path class="cls-1" d="M881.69,847.1a4.59,4.59,0,0,1,2.4-4.43,14.92,14.92,0,0,1,6.92-1.29h1.64v-.53a4.25,4.25,0,0,0-.86-2.65,3.11,3.11,0,0,0-2.66-1.14,6.52,6.52,0,0,0-3.08.68,6.22,6.22,0,0,1-1.48.68,1.44,1.44,0,0,1-1.28-.8,3.35,3.35,0,0,1-.48-1.76c0-.77.69-1.44,2.06-2a11.24,11.24,0,0,1,4.34-.86q4.37,0,6.48,2.22a7.73,7.73,0,0,1,2.12,5.58v9.8a1.37,1.37,0,0,1-.72,1.16,3.18,3.18,0,0,1-1.8.48,2.65,2.65,0,0,1-1.66-.51,1.52,1.52,0,0,1-.66-1.24v-1.24c-1.84,2.24-3.86,3.35-6.08,3.35a5.17,5.17,0,0,1-3.74-1.4A5.4,5.4,0,0,1,881.69,847.1Zm5.16-.65a2,2,0,0,0,.58,1.54,2.25,2.25,0,0,0,1.54.51,3.64,3.64,0,0,0,2.48-1.13,3.42,3.42,0,0,0,1.2-2.51v-.8h-.6a12.09,12.09,0,0,0-3.82.48A1.85,1.85,0,0,0,886.85,846.45Z"/><path class="cls-1" d="M901.61,845.82V826.64a1.32,1.32,0,0,1,.8-1.12,3.53,3.53,0,0,1,1.76-.46,3.59,3.59,0,0,1,1.82.45,1.27,1.27,0,0,1,.78,1.09v6.62h4.72a1.1,1.1,0,0,1,1,.61,2.76,2.76,0,0,1,.36,1.43,2.8,2.8,0,0,1-.36,1.44,1.08,1.08,0,0,1-1,.6h-4.72v8.34a2.08,2.08,0,0,0,.5,1.57,2.63,2.63,0,0,0,1.74.45h1.56a2,2,0,0,1,1.62.67,2.35,2.35,0,0,1,.58,1.59,2.42,2.42,0,0,1-.58,1.64,2,2,0,0,1-1.62.66H909Q901.62,852.22,901.61,845.82Z"/><path class="cls-1" d="M915.25,826.7a2,2,0,0,1,.85-1.61,3.34,3.34,0,0,1,2.1-.67,2.86,2.86,0,0,1,1.9.67,2,2,0,0,1,0,3.21,2.77,2.77,0,0,1-1.9.68,3.23,3.23,0,0,1-2.1-.68A2,2,0,0,1,915.25,826.7Zm.48,23.88V834.82a1.34,1.34,0,0,1,.69-1.16,3.32,3.32,0,0,1,1.77-.44,3.37,3.37,0,0,1,1.79.44,1.34,1.34,0,0,1,.71,1.16v15.76a1.41,1.41,0,0,1-.75,1.12,3.26,3.26,0,0,1-3.5,0A1.41,1.41,0,0,1,915.73,850.58Z"/><path class="cls-1" d="M924,844.38V841.1a7.61,7.61,0,0,1,2.56-5.7,8.92,8.92,0,0,1,12.2,0,7.54,7.54,0,0,1,2.6,5.72v3.28a7.7,7.7,0,0,1-2.6,5.72,8.69,8.69,0,0,1-12.16,0A7.7,7.7,0,0,1,924,844.38Zm5.16,0a3.63,3.63,0,0,0,1,2.54,3.28,3.28,0,0,0,2.48,1.11,3.31,3.31,0,0,0,2.46-1.11,3.57,3.57,0,0,0,1.06-2.54v-3.25a3.47,3.47,0,0,0-1.06-2.46,3.3,3.3,0,0,0-4.94,0,3.49,3.49,0,0,0-1,2.48Z"/><path class="cls-1" d="M944.61,850.58V834.82a1.33,1.33,0,0,1,.7-1.16,3.51,3.51,0,0,1,1.86-.44,2.81,2.81,0,0,1,1.62.45,1.34,1.34,0,0,1,.66,1.17v1.21a5.42,5.42,0,0,1,2.06-2.18,6.22,6.22,0,0,1,8.12,1.51,8.52,8.52,0,0,1,2.06,5.72v9.48a1.33,1.33,0,0,1-.78,1.2,3.94,3.94,0,0,1-3.6,0,1.35,1.35,0,0,1-.78-1.2v-9.46a3.53,3.53,0,0,0-1-2.49,3.27,3.27,0,0,0-2.44-1.1,3.14,3.14,0,0,0-2.3,1,3.56,3.56,0,0,0-1,2.59v9.46a1.43,1.43,0,0,1-.78,1.12,3.26,3.26,0,0,1-1.82.51,3.12,3.12,0,0,1-1.82-.5A1.4,1.4,0,0,1,944.61,850.58Z"/><path class="cls-1" d="M964.33,849.14a2.63,2.63,0,0,1,.53-1.5,1.47,1.47,0,0,1,1.21-.78,2.35,2.35,0,0,1,1.11.4,11.8,11.8,0,0,0,1.76.83,7.49,7.49,0,0,0,2.59.41c2,0,3-.55,3-1.67a1.67,1.67,0,0,0-1-1.48,9.78,9.78,0,0,0-2.36-.89c-.92-.24-1.85-.51-2.78-.84A5.42,5.42,0,0,1,966,842a4.4,4.4,0,0,1-1-2.94,6,6,0,0,1,1.72-4.28q1.72-1.78,5.44-1.79a12.19,12.19,0,0,1,4.42.76c1.29.51,1.94,1.12,1.94,1.84a3.16,3.16,0,0,1-.54,1.58,1.57,1.57,0,0,1-1.34.9,8,8,0,0,1-1.74-.5,8.12,8.12,0,0,0-2.66-.5,3.41,3.41,0,0,0-2.08.55,1.52,1.52,0,0,0-.72,1.2,1.24,1.24,0,0,0,.72,1.09,6,6,0,0,0,1.78.67,21.76,21.76,0,0,1,2.28.64,15.84,15.84,0,0,1,2.25.95,4.53,4.53,0,0,1,1.74,1.69,5.26,5.26,0,0,1,.71,2.79A5.35,5.35,0,0,1,977,851a8.32,8.32,0,0,1-5.42,1.58,11.43,11.43,0,0,1-5.12-1C965,850.85,964.33,850.05,964.33,849.14Z"/><circle class="cls-2" cx="885.03" cy="735.46" r="76.94"/><path class="cls-3" d="M859,757.13c0-2.73.69-4.62,2.05-5.67s3.41-1.57,6.14-1.57q4.93,0,6.57,1.57a6,6,0,0,1,1.62,4.52A5.31,5.31,0,0,0,878,760.7a11.68,11.68,0,0,0,6.56,1.68q9.56,0,9.55-9.87v-2q0-5.14-2.46-7.72a9.11,9.11,0,0,0-6.88-2.57h-16q-3.46,0-4.88-1.63a7.05,7.05,0,0,1-1.42-4.78c0-.48.07-1.5.21-3l2.83-26.46q.53-5,2.94-5H902a3.87,3.87,0,0,1,3.46,2.1,10.71,10.71,0,0,1,0,10.08,3.87,3.87,0,0,1-3.46,2.1H879l-1,14.07h6.83q11.76,0,18.74,5.46t7,17.43v2q0,12.39-7,18.27T885,776.66q-12.08,0-19-5.77T859,757.13Z"/><circle class="cls-2" cx="1125.95" cy="188.31" r="185.64"/><path class="cls-3" d="M1071.66,187.17V176.92a15.25,15.25,0,0,1,3.37-9.08,40.3,40.3,0,0,1,8.15-8.14l9.64-7.21a50.51,50.51,0,0,0,8.46-7.54q3.46-3.93,3.46-7.64a7.72,7.72,0,0,0-2-5.26q-2-2.28-6.07-2.28a8.36,8.36,0,0,0-5.74,2q-2.23,2-2.24,6.21a5.43,5.43,0,0,1-2.33,4.36,9.58,9.58,0,0,1-6.16,1.85q-7.26,0-7.26-8.5A17.66,17.66,0,0,1,1080,121a26.08,26.08,0,0,1,16.57-5.51,27.18,27.18,0,0,1,17.19,5.76,18.66,18.66,0,0,1,7.38,15.52,22.94,22.94,0,0,1-3.38,12,35.41,35.41,0,0,1-8.12,9.45q-4.75,3.83-9.55,7a75.54,75.54,0,0,0-8.2,6.21q-3.4,3-3.41,5.58v1h27.69a4.24,4.24,0,0,1,3.49,2.1,8.41,8.41,0,0,1,1.48,4.94,8.88,8.88,0,0,1-1.47,5,4.18,4.18,0,0,1-3.47,2.2H1078.8a8.85,8.85,0,0,1-4.77-1.48A4.23,4.23,0,0,1,1071.66,187.17Z"/><path class="cls-3" d="M1127,173.13q0-3.67,1.78-5.14t5.88-1.47q8.5,0,8.51,6a5,5,0,0,0,2.62,4.47,12.18,12.18,0,0,0,6.51,1.62q9.87,0,9.87-10.5v-9.45q-4.2,4.62-13.12,4.62-10,0-16-5.14t-6-16.91v-.94q0-12.81,7-18.8t18.69-6q11.76,0,18.8,6t7,18.8v27.82q0,12.81-7.29,18.8t-19.48,6q-12.18,0-18.48-6.09T1127,173.13Zm16.38-33.38q0,10.92,9.45,10.91t9.34-9.94v-1.94q0-10.69-9.45-10.69t-9.34,10.69Z"/><path class="cls-1" d="M1001,236.16v-26a1.47,1.47,0,0,1,.54-1.12,2.05,2.05,0,0,1,1.42-.48h8a9.64,9.64,0,0,1,6.6,2.18q2.48,2.19,2.48,6.82v.24c0,3.12-.86,5.42-2.58,6.88a10.13,10.13,0,0,1-6.82,2.2h-4.48v9.28a1.33,1.33,0,0,1-.78,1.2,4,4,0,0,1-3.66,0A1.33,1.33,0,0,1,1001,236.16Zm5.2-13.36h4.48a4,4,0,0,0,3.1-1.16,4.83,4.83,0,0,0,1.1-3.44v-.48a4.85,4.85,0,0,0-1.1-3.44,4.08,4.08,0,0,0-3.1-1.16h-4.48Z"/><path class="cls-1" d="M1021.23,230v-3.28a7.61,7.61,0,0,1,2.56-5.7,8.92,8.92,0,0,1,12.2,0,7.54,7.54,0,0,1,2.6,5.72V230a7.7,7.7,0,0,1-2.6,5.72,8.69,8.69,0,0,1-12.16,0A7.7,7.7,0,0,1,1021.23,230Zm5.16,0a3.63,3.63,0,0,0,1,2.54,3.28,3.28,0,0,0,2.48,1.11,3.31,3.31,0,0,0,2.46-1.11,3.57,3.57,0,0,0,1.06-2.54v-3.26a3.49,3.49,0,0,0-1.06-2.46,3.32,3.32,0,0,0-4.94,0,3.53,3.53,0,0,0-1,2.48Z"/><path class="cls-1" d="M1041.91,245V220.4a1.33,1.33,0,0,1,.7-1.16,3.26,3.26,0,0,1,1.74-.44,3.06,3.06,0,0,1,1.72.45,1.34,1.34,0,0,1,.68,1.17v1.21a6.4,6.4,0,0,1,2.18-2.18,6,6,0,0,1,3.22-.89,6.52,6.52,0,0,1,5.08,2.38,8.41,8.41,0,0,1,2.08,5.74V230a8.55,8.55,0,0,1-2.12,5.72,6.26,6.26,0,0,1-4.88,2.48,5.65,5.65,0,0,1-3.18-.95,5.4,5.4,0,0,1-2.06-2.24v10a1.39,1.39,0,0,1-.78,1.14,3.4,3.4,0,0,1-1.86.5,3.11,3.11,0,0,1-1.8-.5A1.4,1.4,0,0,1,1041.91,245Zm5.16-14.34a2.93,2.93,0,0,0,1.08,1.87,3.3,3.3,0,0,0,4.92-.06,3.55,3.55,0,0,0,1.08-2.52v-3.26a3.45,3.45,0,0,0-1.08-2.48,3.5,3.5,0,0,0-2.56-1.09,3.37,3.37,0,0,0-2.4,1,3.44,3.44,0,0,0-1,2.58Z"/><path class="cls-1" d="M1062.43,230v-9.6a1.43,1.43,0,0,1,.78-1.12,3.26,3.26,0,0,1,1.82-.52,3.1,3.1,0,0,1,1.78.52,1.43,1.43,0,0,1,.78,1.12V230a3.57,3.57,0,0,0,1,2.5,3.29,3.29,0,0,0,2.48,1.09,3.24,3.24,0,0,0,2.46-1.09,3.59,3.59,0,0,0,1-2.5V220.4a1.35,1.35,0,0,1,.78-1.12,3.41,3.41,0,0,1,1.82-.48,3.25,3.25,0,0,1,1.84.48,1.37,1.37,0,0,1,.72,1.12V230a7.6,7.6,0,0,1-2.56,5.68,8.82,8.82,0,0,1-12.18,0A7.58,7.58,0,0,1,1062.43,230Z"/><path class="cls-1" d="M1084,236.16V209.32a1.33,1.33,0,0,1,.7-1.16,3.46,3.46,0,0,1,1.86-.44,3.66,3.66,0,0,1,1.84.44,1.31,1.31,0,0,1,.76,1.16v26.84a1.41,1.41,0,0,1-.78,1.12,3.19,3.19,0,0,1-1.82.52,3.12,3.12,0,0,1-1.82-.5A1.38,1.38,0,0,1,1084,236.16Z"/><path class="cls-1" d="M1092.35,232.68a4.59,4.59,0,0,1,2.4-4.43,14.89,14.89,0,0,1,6.92-1.29h1.64v-.53a4.3,4.3,0,0,0-.86-2.66,3.15,3.15,0,0,0-2.66-1.13,6.52,6.52,0,0,0-3.08.68,6.42,6.42,0,0,1-1.48.68,1.43,1.43,0,0,1-1.28-.8,3.35,3.35,0,0,1-.48-1.76c0-.77.68-1.44,2.06-2a11.2,11.2,0,0,1,4.34-.86q4.35,0,6.48,2.22a7.77,7.77,0,0,1,2.12,5.58v9.8a1.37,1.37,0,0,1-.72,1.16,3.18,3.18,0,0,1-1.8.48,2.63,2.63,0,0,1-1.66-.51,1.53,1.53,0,0,1-.66-1.24v-1.24q-2.76,3.34-6.08,3.35a5.15,5.15,0,0,1-3.74-1.4A5.36,5.36,0,0,1,1092.35,232.68Zm5.16-.65a1.93,1.93,0,0,0,.58,1.54,2.24,2.24,0,0,0,1.54.51,3.61,3.61,0,0,0,2.48-1.14,3.4,3.4,0,0,0,1.2-2.5v-.8h-.6a12,12,0,0,0-3.82.48A1.85,1.85,0,0,0,1097.51,232Z"/><path class="cls-1" d="M1112.31,236.16V220.4a1.33,1.33,0,0,1,.7-1.16,3.38,3.38,0,0,1,1.82-.44,2.9,2.9,0,0,1,1.66.45,1.34,1.34,0,0,1,.66,1.17v1.65a6.4,6.4,0,0,1,2-2.46,4.68,4.68,0,0,1,2.92-1.05h1.24a1.69,1.69,0,0,1,1.3.69,2.4,2.4,0,0,1,.58,1.57,2.47,2.47,0,0,1-.58,1.62,1.71,1.71,0,0,1-1.3.68h-1.24a4.12,4.12,0,0,0-3.22,1.64,6.39,6.39,0,0,0-1.38,4.27v7.14a1.4,1.4,0,0,1-.8,1.11,3.3,3.3,0,0,1-1.84.52,3,3,0,0,1-1.8-.5A1.4,1.4,0,0,1,1112.31,236.16Z"/><path class="cls-1" d="M1134.19,234.72a2.69,2.69,0,0,1,.52-1.5,1.49,1.49,0,0,1,1.22-.78,2.35,2.35,0,0,1,1.11.4,11.42,11.42,0,0,0,1.76.82,7.21,7.21,0,0,0,2.59.42c2,0,3-.56,3-1.67a1.66,1.66,0,0,0-1-1.48A9.94,9.94,0,0,0,1141,230c-.92-.24-1.85-.52-2.78-.84a5.38,5.38,0,0,1-2.38-1.64,4.31,4.31,0,0,1-1-2.93,6,6,0,0,1,1.72-4.28c1.14-1.19,3-1.79,5.44-1.79a12.23,12.23,0,0,1,4.42.76c1.29.51,1.94,1.12,1.94,1.84a3.16,3.16,0,0,1-.54,1.58,1.57,1.57,0,0,1-1.34.9,7.66,7.66,0,0,1-1.74-.5,8.17,8.17,0,0,0-2.66-.5,3.35,3.35,0,0,0-2.08.55,1.52,1.52,0,0,0-.72,1.2,1.25,1.25,0,0,0,.72,1.09,5.7,5.7,0,0,0,1.78.66,21.82,21.82,0,0,1,2.27.65,15.49,15.49,0,0,1,2.26,1,4.53,4.53,0,0,1,1.74,1.69,5.25,5.25,0,0,1,.71,2.78,5.34,5.34,0,0,1-1.94,4.36,8.34,8.34,0,0,1-5.42,1.59,11.57,11.57,0,0,1-5.12-1C1134.89,236.43,1134.19,235.63,1134.19,234.72Z"/><path class="cls-1" d="M1151.31,230v-3.2a8.25,8.25,0,0,1,2.16-5.94c1.44-1.5,3.6-2.26,6.48-2.26a9.8,9.8,0,0,1,4.56,1c1.22.64,1.84,1.36,1.84,2.16a2.88,2.88,0,0,1-.6,1.68,1.74,1.74,0,0,1-1.44.84,5.85,5.85,0,0,1-1.42-.54,6.06,6.06,0,0,0-2.54-.54q-3.88,0-3.88,3.65V230c0,2.44,1.3,3.65,3.92,3.65a5.55,5.55,0,0,0,2.52-.58,5,5,0,0,1,1.48-.58,1.93,1.93,0,0,1,1.58.8,2.69,2.69,0,0,1,.62,1.64c0,.83-.65,1.58-1.94,2.26a9.92,9.92,0,0,1-4.66,1c-2.91,0-5.08-.74-6.52-2.24A8.22,8.22,0,0,1,1151.31,230Z"/><path class="cls-1" d="M1169,212.28a2,2,0,0,1,.85-1.61A3.23,3.23,0,0,1,1172,210a2.84,2.84,0,0,1,1.91.67,2,2,0,0,1,0,3.2,2.8,2.8,0,0,1-1.91.69,3.19,3.19,0,0,1-2.09-.69A2,2,0,0,1,1169,212.28Zm.48,23.88V220.4a1.34,1.34,0,0,1,.69-1.16,3.27,3.27,0,0,1,1.77-.44,3.39,3.39,0,0,1,1.79.44,1.34,1.34,0,0,1,.71,1.16v15.76a1.41,1.41,0,0,1-.75,1.12,3,3,0,0,1-1.75.52,2.9,2.9,0,0,1-1.75-.5A1.38,1.38,0,0,1,1169.51,236.16Z"/><path class="cls-1" d="M1177.75,230v-3.4a7.42,7.42,0,0,1,2.56-5.64,8.82,8.82,0,0,1,6.2-2.36,8.5,8.5,0,0,1,5.82,2.15,6.94,6.94,0,0,1,2.42,5.41,5.5,5.5,0,0,1-.3,2,2,2,0,0,1-.92,1.09,3.86,3.86,0,0,1-1.14.39,8.47,8.47,0,0,1-1.36.08h-8.12v.6a3.4,3.4,0,0,0,1.28,2.78,5.12,5.12,0,0,0,3.4,1.06,6.48,6.48,0,0,0,3-.76,6.09,6.09,0,0,1,1.92-.76,1.68,1.68,0,0,1,1.4.78,2.62,2.62,0,0,1,.56,1.5c0,.75-.68,1.49-2,2.22a10.33,10.33,0,0,1-5,1.1,10.48,10.48,0,0,1-7-2.26A7.35,7.35,0,0,1,1177.75,230Zm5.16-3.36h5.84a1.57,1.57,0,0,0,.9-.2,1,1,0,0,0,.26-.81,2.61,2.61,0,0,0-1-2.13,3.91,3.91,0,0,0-2.5-.82,3.84,3.84,0,0,0-2.44.81,2.5,2.5,0,0,0-1,2.11Z"/><path class="cls-1" d="M1197.83,236.16V220.4a1.33,1.33,0,0,1,.7-1.16,3.46,3.46,0,0,1,1.86-.44,2.81,2.81,0,0,1,1.62.45,1.34,1.34,0,0,1,.66,1.17v1.21a5.35,5.35,0,0,1,2.06-2.18,6.08,6.08,0,0,1,3.3-.89,6.2,6.2,0,0,1,4.82,2.4,8.52,8.52,0,0,1,2.06,5.72v9.48a1.33,1.33,0,0,1-.78,1.2,3.58,3.58,0,0,1-1.82.44,3.48,3.48,0,0,1-1.78-.44,1.33,1.33,0,0,1-.78-1.19v-9.46a3.53,3.53,0,0,0-1-2.49,3.28,3.28,0,0,0-2.44-1.1,3.1,3.1,0,0,0-2.3,1,3.51,3.51,0,0,0-1,2.59v9.46a1.4,1.4,0,0,1-.78,1.11,3.19,3.19,0,0,1-1.82.52,3.12,3.12,0,0,1-1.82-.5A1.38,1.38,0,0,1,1197.83,236.16Z"/><path class="cls-1" d="M1218.11,230v-3.2a8.25,8.25,0,0,1,2.16-5.94c1.44-1.5,3.6-2.26,6.48-2.26a9.8,9.8,0,0,1,4.56,1c1.22.64,1.84,1.36,1.84,2.16a2.88,2.88,0,0,1-.6,1.68,1.74,1.74,0,0,1-1.44.84,5.85,5.85,0,0,1-1.42-.54,6.06,6.06,0,0,0-2.54-.54q-3.89,0-3.88,3.65V230c0,2.44,1.3,3.65,3.92,3.65a5.55,5.55,0,0,0,2.52-.58,5,5,0,0,1,1.48-.58,1.93,1.93,0,0,1,1.58.8,2.69,2.69,0,0,1,.62,1.64c0,.83-.65,1.58-1.94,2.26a9.92,9.92,0,0,1-4.66,1c-2.91,0-5.08-.74-6.52-2.24A8.22,8.22,0,0,1,1218.11,230Z"/><path class="cls-1" d="M1235.23,230v-3.4a7.44,7.44,0,0,1,2.55-5.64,8.85,8.85,0,0,1,6.2-2.36,8.51,8.51,0,0,1,5.83,2.15,6.94,6.94,0,0,1,2.42,5.41,5.73,5.73,0,0,1-.3,2,2,2,0,0,1-.93,1.09,3.68,3.68,0,0,1-1.14.39,8.39,8.39,0,0,1-1.36.08h-8.11v.6a3.42,3.42,0,0,0,1.27,2.78,5.16,5.16,0,0,0,3.4,1.06,6.42,6.42,0,0,0,3-.76,6.27,6.27,0,0,1,1.92-.76,1.7,1.7,0,0,1,1.41.78,2.6,2.6,0,0,1,.55,1.5q0,1.13-2,2.22a11.95,11.95,0,0,1-12-1.16A7.32,7.32,0,0,1,1235.23,230Zm5.16-3.36h5.84a1.52,1.52,0,0,0,.89-.2,1,1,0,0,0,.27-.81,2.62,2.62,0,0,0-1-2.13,3.87,3.87,0,0,0-2.5-.82,3.83,3.83,0,0,0-2.43.81,2.5,2.5,0,0,0-1,2.11Z"/><path class="cls-1" d="M1028.91,293V268.4a1.33,1.33,0,0,1,.7-1.16,3.26,3.26,0,0,1,1.74-.44,3.06,3.06,0,0,1,1.72.45,1.34,1.34,0,0,1,.68,1.17v1.21a6.4,6.4,0,0,1,2.18-2.18,6,6,0,0,1,3.22-.89,6.52,6.52,0,0,1,5.08,2.38,8.41,8.41,0,0,1,2.08,5.74V278a8.55,8.55,0,0,1-2.12,5.72,6.26,6.26,0,0,1-4.88,2.48,5.65,5.65,0,0,1-3.18-1,5.4,5.4,0,0,1-2.06-2.24v10a1.39,1.39,0,0,1-.78,1.14,3.4,3.4,0,0,1-1.86.5,3.11,3.11,0,0,1-1.8-.5A1.4,1.4,0,0,1,1028.91,293Zm5.16-14.34a2.93,2.93,0,0,0,1.08,1.87,3.3,3.3,0,0,0,4.92-.06,3.55,3.55,0,0,0,1.08-2.52v-3.26a3.45,3.45,0,0,0-1.08-2.48,3.5,3.5,0,0,0-2.56-1.09,3.37,3.37,0,0,0-2.4,1,3.44,3.44,0,0,0-1,2.58Z"/><path class="cls-1" d="M1049.43,278v-9.6a1.43,1.43,0,0,1,.78-1.12,3.26,3.26,0,0,1,1.82-.52,3.1,3.1,0,0,1,1.78.52,1.43,1.43,0,0,1,.78,1.12V278a3.57,3.57,0,0,0,1,2.5,3.29,3.29,0,0,0,2.48,1.09,3.24,3.24,0,0,0,2.46-1.09,3.59,3.59,0,0,0,1-2.5V268.4a1.35,1.35,0,0,1,.78-1.12,3.41,3.41,0,0,1,1.82-.48,3.25,3.25,0,0,1,1.84.48,1.37,1.37,0,0,1,.72,1.12V278a7.6,7.6,0,0,1-2.56,5.68,8.82,8.82,0,0,1-12.18,0A7.58,7.58,0,0,1,1049.43,278Z"/><path class="cls-1" d="M1070.63,284.16v-26.8a1.31,1.31,0,0,1,.7-1.16,3.4,3.4,0,0,1,1.82-.44,3.73,3.73,0,0,1,1.88.44,1.31,1.31,0,0,1,.76,1.16v12.27a5.91,5.91,0,0,1,2-2.18,5.5,5.5,0,0,1,3.1-.89,6.45,6.45,0,0,1,5,2.4,8.4,8.4,0,0,1,2.1,5.72V278a8.55,8.55,0,0,1-2.12,5.72,6.18,6.18,0,0,1-8.24,1.53,5.54,5.54,0,0,1-2.2-2.24v1.18a1.45,1.45,0,0,1-.7,1.13,2.64,2.64,0,0,1-1.62.52,3,3,0,0,1-1.8-.5A1.4,1.4,0,0,1,1070.63,284.16Zm5.16-5.5a3,3,0,0,0,1.1,1.85,3.45,3.45,0,0,0,2.5,1.09,3.23,3.23,0,0,0,2.44-1.13,3.64,3.64,0,0,0,1-2.52v-3.26a3.53,3.53,0,0,0-1-2.48,3.33,3.33,0,0,0-2.48-1.09,3.58,3.58,0,0,0-2.46,1,3.35,3.35,0,0,0-1.1,2.58Z"/><path class="cls-1" d="M1091.71,284.16V257.32a1.33,1.33,0,0,1,.7-1.16,3.51,3.51,0,0,1,1.86-.44,3.66,3.66,0,0,1,1.84.44,1.31,1.31,0,0,1,.76,1.16v26.84a1.41,1.41,0,0,1-.78,1.12,3.19,3.19,0,0,1-1.82.52,3.12,3.12,0,0,1-1.82-.5A1.4,1.4,0,0,1,1091.71,284.16Z"/><path class="cls-1" d="M1101,260.28a2,2,0,0,1,.85-1.61,3.25,3.25,0,0,1,2.09-.67,2.84,2.84,0,0,1,1.91.67,2,2,0,0,1,0,3.2,2.8,2.8,0,0,1-1.91.69,3.21,3.21,0,0,1-2.09-.69A2,2,0,0,1,1101,260.28Zm.48,23.88V268.4a1.34,1.34,0,0,1,.69-1.16,3.27,3.27,0,0,1,1.77-.44,3.39,3.39,0,0,1,1.79.44,1.34,1.34,0,0,1,.71,1.16v15.76a1.41,1.41,0,0,1-.75,1.12,3,3,0,0,1-1.75.52,2.92,2.92,0,0,1-1.75-.5A1.41,1.41,0,0,1,1101.43,284.16Z"/><path class="cls-1" d="M1109.75,278v-3.2a8.25,8.25,0,0,1,2.16-5.94c1.44-1.5,3.6-2.26,6.48-2.26a9.8,9.8,0,0,1,4.56,1c1.23.64,1.84,1.36,1.84,2.16a2.88,2.88,0,0,1-.6,1.68,1.74,1.74,0,0,1-1.44.84,6,6,0,0,1-1.42-.54,6,6,0,0,0-2.54-.54q-3.88,0-3.88,3.65V278c0,2.44,1.31,3.65,3.92,3.65a5.49,5.49,0,0,0,2.52-.58,5.12,5.12,0,0,1,1.48-.58,1.92,1.92,0,0,1,1.58.8,2.69,2.69,0,0,1,.62,1.64c0,.83-.65,1.58-1.94,2.26a9.9,9.9,0,0,1-4.66,1c-2.91,0-5.08-.74-6.52-2.24A8.22,8.22,0,0,1,1109.75,278Z"/><path class="cls-1" d="M1126.63,280.68a4.59,4.59,0,0,1,2.4-4.43A14.92,14.92,0,0,1,1136,275h1.64v-.53a4.3,4.3,0,0,0-.86-2.66,3.15,3.15,0,0,0-2.66-1.13,6.52,6.52,0,0,0-3.08.68,6.42,6.42,0,0,1-1.48.68,1.44,1.44,0,0,1-1.28-.8,3.35,3.35,0,0,1-.48-1.76c0-.77.69-1.44,2.06-2a11.2,11.2,0,0,1,4.34-.86c2.91,0,5.06.74,6.48,2.22a7.77,7.77,0,0,1,2.12,5.58v9.8a1.37,1.37,0,0,1-.72,1.16,3.18,3.18,0,0,1-1.8.48,2.63,2.63,0,0,1-1.66-.51,1.53,1.53,0,0,1-.66-1.24v-1.24q-2.76,3.35-6.08,3.35a5.15,5.15,0,0,1-3.74-1.4A5.36,5.36,0,0,1,1126.63,280.68Zm5.16-.65a1.93,1.93,0,0,0,.58,1.54,2.24,2.24,0,0,0,1.54.51,3.61,3.61,0,0,0,2.48-1.14,3.4,3.4,0,0,0,1.2-2.5v-.8h-.6a12,12,0,0,0-3.82.48A1.85,1.85,0,0,0,1131.79,280Z"/><path class="cls-1" d="M1146.55,279.4V260.22a1.3,1.3,0,0,1,.8-1.12,3.43,3.43,0,0,1,1.76-.46,3.69,3.69,0,0,1,1.82.44,1.3,1.3,0,0,1,.78,1.1v6.62h4.72a1.1,1.1,0,0,1,1,.61,3,3,0,0,1,0,2.86,1.08,1.08,0,0,1-1,.61h-4.72v8.34a2,2,0,0,0,.5,1.57,2.6,2.6,0,0,0,1.74.45h1.56a2.06,2.06,0,0,1,1.62.67,2.4,2.4,0,0,1,.58,1.59,2.43,2.43,0,0,1-.58,1.63,2,2,0,0,1-1.62.67H1154Q1146.54,285.8,1146.55,279.4Z"/><path class="cls-1" d="M1160.19,260.28a2,2,0,0,1,.85-1.61,3.23,3.23,0,0,1,2.09-.67,2.84,2.84,0,0,1,1.91.67,2,2,0,0,1,0,3.2,2.8,2.8,0,0,1-1.91.69,3.19,3.19,0,0,1-2.09-.69A2,2,0,0,1,1160.19,260.28Zm.48,23.88V268.4a1.34,1.34,0,0,1,.69-1.16,3.27,3.27,0,0,1,1.77-.44,3.39,3.39,0,0,1,1.79.44,1.34,1.34,0,0,1,.71,1.16v15.76a1.41,1.41,0,0,1-.75,1.12,3,3,0,0,1-1.75.52,2.92,2.92,0,0,1-1.75-.5A1.38,1.38,0,0,1,1160.67,284.16Z"/><path class="cls-1" d="M1168.91,278v-3.28a7.61,7.61,0,0,1,2.56-5.7,8.59,8.59,0,0,1,6.12-2.42,8.69,8.69,0,0,1,6.08,2.4,7.54,7.54,0,0,1,2.6,5.72V278a7.7,7.7,0,0,1-2.6,5.72,8.69,8.69,0,0,1-12.16,0A7.66,7.66,0,0,1,1168.91,278Zm5.16,0a3.59,3.59,0,0,0,1,2.54,3.28,3.28,0,0,0,2.48,1.11,3.31,3.31,0,0,0,2.46-1.11,3.61,3.61,0,0,0,1.06-2.54v-3.26a3.53,3.53,0,0,0-1.06-2.46,3.32,3.32,0,0,0-4.94,0,3.49,3.49,0,0,0-1,2.48Z"/><path class="cls-1" d="M1189.55,284.16V268.4a1.33,1.33,0,0,1,.7-1.16,3.46,3.46,0,0,1,1.86-.44,2.81,2.81,0,0,1,1.62.45,1.34,1.34,0,0,1,.66,1.17v1.21a5.35,5.35,0,0,1,2.06-2.18,6.08,6.08,0,0,1,3.3-.89,6.17,6.17,0,0,1,4.81,2.4,8.48,8.48,0,0,1,2.07,5.72v9.48a1.33,1.33,0,0,1-.78,1.2,3.58,3.58,0,0,1-1.82.44,3.48,3.48,0,0,1-1.78-.44,1.33,1.33,0,0,1-.78-1.19v-9.46a3.53,3.53,0,0,0-1-2.49,3.28,3.28,0,0,0-2.44-1.1,3.1,3.1,0,0,0-2.3,1,3.51,3.51,0,0,0-1,2.59v9.46a1.4,1.4,0,0,1-.78,1.11,3.19,3.19,0,0,1-1.82.52,3.12,3.12,0,0,1-1.82-.5A1.38,1.38,0,0,1,1189.55,284.16Z"/><path class="cls-1" d="M1209.27,282.72a2.69,2.69,0,0,1,.52-1.5,1.49,1.49,0,0,1,1.22-.78,2.42,2.42,0,0,1,1.11.4,11,11,0,0,0,1.76.82,7.21,7.21,0,0,0,2.59.42c2,0,3-.56,3-1.67a1.66,1.66,0,0,0-1-1.48,9.94,9.94,0,0,0-2.36-.89c-.92-.24-1.85-.52-2.78-.84a5.38,5.38,0,0,1-2.38-1.64,4.31,4.31,0,0,1-1-2.93,6,6,0,0,1,1.72-4.28c1.14-1.19,3-1.79,5.44-1.79a12.13,12.13,0,0,1,4.41.76c1.3.51,2,1.12,2,1.84a3.16,3.16,0,0,1-.54,1.58,1.58,1.58,0,0,1-1.34.9,7.66,7.66,0,0,1-1.74-.5,8.17,8.17,0,0,0-2.66-.5,3.35,3.35,0,0,0-2.08.55,1.52,1.52,0,0,0-.72,1.2,1.25,1.25,0,0,0,.72,1.09,5.7,5.7,0,0,0,1.78.66,21.82,21.82,0,0,1,2.27.65,15.36,15.36,0,0,1,2.25.95,4.49,4.49,0,0,1,1.75,1.69,5.25,5.25,0,0,1,.71,2.78,5.34,5.34,0,0,1-1.94,4.36,8.34,8.34,0,0,1-5.42,1.59,11.57,11.57,0,0,1-5.12-1C1210,284.43,1209.27,283.63,1209.27,282.72Z"/><circle class="cls-2" cx="1156.55" cy="597.56" r="209.45"/><path class="cls-3" d="M1103.31,573.11c0-2.31.57-3.88,1.69-4.72s3.17-1.26,6.13-1.26q5,0,6.71,1.21c1.17.8,1.75,2.22,1.75,4.25q0,6.09,9.29,6.09,5.32,0,7.47-2.15c1.42-1.44,2.14-3.87,2.14-7.3v-2q0-4.93-2.56-6.66c-1.71-1.16-4.19-1.74-7.47-1.74q-4.67,0-4.67-6.3t4.69-6.3a13.83,13.83,0,0,0,3-.26,8.24,8.24,0,0,0,2.5-1,4.86,4.86,0,0,0,2-2.7,15,15,0,0,0,.68-4.92q0-7.47-7.72-7.47A11.21,11.21,0,0,0,1123,531a4.44,4.44,0,0,0-1.88,4.07,5.54,5.54,0,0,1-1.69,4.38c-1.12,1-3.13,1.49-6,1.49-3.66,0-6-.43-7-1.31s-1.53-2.64-1.53-5.3a17.79,17.79,0,0,1,5.84-13.07q5.83-5.73,18.15-5.73,23.47,0,23.47,19.16a25.13,25.13,0,0,1-2.17,10.62,12.53,12.53,0,0,1-6,6.45q10.66,4,10.67,15.43v2q0,12.18-7.28,17.95T1128.36,593q-12.42,0-18.73-6.09T1103.31,573.11Z"/><path class="cls-3" d="M1159,536.89V520.61c0-1.26.74-2.41,2.21-3.46a8.28,8.28,0,0,1,4.93-1.58h37.28a8.51,8.51,0,0,1,4.77,1.58c1.58,1.05,2.37,2.2,2.37,3.46v13.13q0,3.68-3.36,10l-24.57,47Q1181.44,593,1178,593a11.62,11.62,0,0,1-7.2-2.42,7.17,7.17,0,0,1-3.2-5.88,5.78,5.78,0,0,1,.74-2.73l25.83-44.73v-7.35h-18.8v7q0,2.1-2.52,3.57a11.23,11.23,0,0,1-5.77,1.47,10.66,10.66,0,0,1-5.73-1.47A4.22,4.22,0,0,1,1159,536.89Z"/><path class="cls-1" d="M1087.53,640.8v-26a1.53,1.53,0,0,1,.48-1.12,1.63,1.63,0,0,1,1.2-.48h7.92q9.48,0,9.48,8.36a9,9,0,0,1-1.42,5.28,7.05,7.05,0,0,1-3.82,2.72l5.24,9.72a1,1,0,0,1,.2.64,2.46,2.46,0,0,1-1,1.86,3.44,3.44,0,0,1-2.2.86,2,2,0,0,1-1.8-1.24l-5.68-11h-3.36V640.8a1.34,1.34,0,0,1-.76,1.2,4,4,0,0,1-3.66,0A1.34,1.34,0,0,1,1087.53,640.8Zm5.2-14.52h4.4c2.85,0,4.28-1.42,4.28-4.24s-1.43-4.28-4.28-4.28h-4.4Z"/><path class="cls-1" d="M1110.33,640.8v-26a1.27,1.27,0,0,1,.76-1.2,4.43,4.43,0,0,1,3.68,0,1.28,1.28,0,0,1,.76,1.2v26a1.34,1.34,0,0,1-.78,1.2,3.69,3.69,0,0,1-1.82.44,3.63,3.63,0,0,1-1.84-.44A1.34,1.34,0,0,1,1110.33,640.8Z"/><path class="cls-1" d="M1118.41,615.46a3,3,0,0,1,.42-1.58,1.35,1.35,0,0,1,1.22-.68H1137a1.36,1.36,0,0,1,1.22.68,3.19,3.19,0,0,1,0,3.2,1.38,1.38,0,0,1-1.2.68h-5.84v23a1.35,1.35,0,0,1-.78,1.21,3.69,3.69,0,0,1-1.82.44,3.63,3.63,0,0,1-1.84-.44,1.35,1.35,0,0,1-.76-1.21v-23h-5.88a1.36,1.36,0,0,1-1.2-.66A2.87,2.87,0,0,1,1118.41,615.46Z"/><path class="cls-1" d="M1141.45,640.8v-25a2.42,2.42,0,0,1,.74-2,2.71,2.71,0,0,1,1.86-.64,4.18,4.18,0,0,1,2.28.52,6.39,6.39,0,0,1,1.76,2.24l4.92,9,4.92-9a6.18,6.18,0,0,1,1.78-2.24,4.24,4.24,0,0,1,2.3-.52,2.75,2.75,0,0,1,1.86.64,2.45,2.45,0,0,1,.74,2v25a1.34,1.34,0,0,1-.78,1.2,3.69,3.69,0,0,1-1.82.44,3.63,3.63,0,0,1-1.84-.44,1.34,1.34,0,0,1-.76-1.2V623.6l-4.68,8.32a1.87,1.87,0,0,1-1.76,1,1.83,1.83,0,0,1-1.72-1l-4.6-8.64V640.8a1.34,1.34,0,0,1-.78,1.2,3.69,3.69,0,0,1-1.82.44,3.63,3.63,0,0,1-1.84-.44A1.34,1.34,0,0,1,1141.45,640.8Z"/><path class="cls-1" d="M1169.09,633.52V622.36c0-3.18.84-5.5,2.54-7a10,10,0,0,1,6.82-2.2,10.13,10.13,0,0,1,6.84,2.2c1.7,1.46,2.56,3.78,2.56,7v11.16c0,3.17-.86,5.49-2.56,7a10.18,10.18,0,0,1-6.84,2.2,10.07,10.07,0,0,1-6.82-2.2C1169.93,639,1169.09,636.69,1169.09,633.52Zm5.2,0c0,3.06,1.38,4.6,4.16,4.6s4.2-1.54,4.2-4.6V622.36q0-4.61-4.2-4.6c-2.78,0-4.16,1.53-4.16,4.6Z"/><path class="cls-1" d="M1199.61,616.92a2,2,0,0,1,.85-1.61,3.23,3.23,0,0,1,2.09-.67,2.84,2.84,0,0,1,1.91.67,2,2,0,0,1,.79,1.61,2.09,2.09,0,0,1-.79,1.59,2.8,2.8,0,0,1-1.91.69,3.19,3.19,0,0,1-2.09-.69A2,2,0,0,1,1199.61,616.92Zm.48,23.88V625a1.32,1.32,0,0,1,.69-1.16,3.18,3.18,0,0,1,1.77-.44,3.3,3.3,0,0,1,1.79.44,1.32,1.32,0,0,1,.71,1.16V640.8a1.43,1.43,0,0,1-.75,1.12,3,3,0,0,1-1.75.52,3,3,0,0,1-1.75-.5A1.41,1.41,0,0,1,1200.09,640.8Z"/><path class="cls-1" d="M1209.05,640.8V625a1.31,1.31,0,0,1,.7-1.16,3.37,3.37,0,0,1,1.86-.44,2.88,2.88,0,0,1,1.62.44,1.36,1.36,0,0,1,.66,1.17v1.21a5.33,5.33,0,0,1,2.06-2.17,6,6,0,0,1,3.3-.89,6.2,6.2,0,0,1,4.82,2.4,8.5,8.5,0,0,1,2.06,5.72v9.48a1.34,1.34,0,0,1-.78,1.2,3.69,3.69,0,0,1-1.82.44,3.59,3.59,0,0,1-1.78-.44,1.33,1.33,0,0,1-.78-1.2v-9.45a3.57,3.57,0,0,0-1-2.5,3.27,3.27,0,0,0-2.44-1.09,3.1,3.1,0,0,0-2.3,1,3.49,3.49,0,0,0-1,2.59v9.45a1.43,1.43,0,0,1-.78,1.12,3.26,3.26,0,0,1-1.82.52,3.19,3.19,0,0,1-1.82-.5A1.4,1.4,0,0,1,1209.05,640.8Z"/><path class="cls-1" d="M1077.27,684V664.86a1.33,1.33,0,0,1,.8-1.13,3.52,3.52,0,0,1,1.76-.45,3.69,3.69,0,0,1,1.82.44,1.27,1.27,0,0,1,.78,1.1v6.62h4.72a1.08,1.08,0,0,1,1,.61,3,3,0,0,1,0,2.86,1.08,1.08,0,0,1-1,.61h-4.72v8.34a2,2,0,0,0,.5,1.56,2.54,2.54,0,0,0,1.74.46h1.56a2,2,0,0,1,1.62.67,2.36,2.36,0,0,1,.58,1.59,2.44,2.44,0,0,1-.58,1.63,2,2,0,0,1-1.62.67h-1.56Q1077.26,690.44,1077.27,684Z"/><path class="cls-1" d="M1091.23,688.8V662a1.31,1.31,0,0,1,.7-1.16,3.37,3.37,0,0,1,1.86-.44,3.56,3.56,0,0,1,1.84.44,1.32,1.32,0,0,1,.76,1.16v12.26a5.29,5.29,0,0,1,1.92-2.17,5.4,5.4,0,0,1,3.12-.89,6.2,6.2,0,0,1,4.82,2.4,8.5,8.5,0,0,1,2.06,5.72v9.48a1.34,1.34,0,0,1-.78,1.2,3.69,3.69,0,0,1-1.82.44,3.59,3.59,0,0,1-1.78-.44,1.33,1.33,0,0,1-.78-1.2v-9.45a3.58,3.58,0,0,0-1-2.48,3.26,3.26,0,0,0-2.44-1.11,3.1,3.1,0,0,0-2.3,1,3.49,3.49,0,0,0-1,2.59v9.45a1.43,1.43,0,0,1-.78,1.12,3.26,3.26,0,0,1-1.82.52,3.19,3.19,0,0,1-1.82-.5A1.38,1.38,0,0,1,1091.23,688.8Z"/><path class="cls-1" d="M1111.43,682.6v-3.4a7.39,7.39,0,0,1,2.56-5.64,8.77,8.77,0,0,1,6.2-2.36,8.45,8.45,0,0,1,5.82,2.15,6.92,6.92,0,0,1,2.42,5.4,5.46,5.46,0,0,1-.3,2,1.94,1.94,0,0,1-.92,1.09,3.91,3.91,0,0,1-1.14.4,9.82,9.82,0,0,1-1.36.08h-8.12v.6a3.43,3.43,0,0,0,1.28,2.78,5.18,5.18,0,0,0,3.4,1.06,6.48,6.48,0,0,0,3-.76,5.83,5.83,0,0,1,1.92-.76,1.68,1.68,0,0,1,1.4.78,2.62,2.62,0,0,1,.56,1.5c0,.74-.68,1.49-2,2.22a11.95,11.95,0,0,1-12-1.16A7.38,7.38,0,0,1,1111.43,682.6Zm5.16-3.36h5.84a1.49,1.49,0,0,0,.9-.21,1,1,0,0,0,.26-.8,2.61,2.61,0,0,0-1-2.13,4.17,4.17,0,0,0-4.94,0,2.53,2.53,0,0,0-1,2.11Z"/><path class="cls-1" d="M1139.51,688.8V673a1.31,1.31,0,0,1,.7-1.16,3.37,3.37,0,0,1,1.86-.44,2.88,2.88,0,0,1,1.62.44,1.36,1.36,0,0,1,.66,1.17v1.21a5.65,5.65,0,0,1,5.28-3.06,4.62,4.62,0,0,1,3,1.11,6.55,6.55,0,0,1,2,2.92,7.36,7.36,0,0,1,2.62-3,6.24,6.24,0,0,1,3.42-1,6.72,6.72,0,0,1,5,2.2,8.18,8.18,0,0,1,2.12,5.92v9.48a1.43,1.43,0,0,1-.78,1.12,3.26,3.26,0,0,1-1.82.52,3.18,3.18,0,0,1-1.78-.52,1.43,1.43,0,0,1-.78-1.12v-9.45a3.61,3.61,0,0,0-1-2.65,3.06,3.06,0,0,0-2.28-1,2.93,2.93,0,0,0-2.22,1,3.59,3.59,0,0,0-.94,2.61v9.53a1.3,1.3,0,0,1-.76,1.2,3.88,3.88,0,0,1-1.84.4,3.69,3.69,0,0,1-1.78-.42,1.29,1.29,0,0,1-.78-1.18v-9.49a3.53,3.53,0,0,0-1-2.59,3.12,3.12,0,0,0-2.3-1,2.93,2.93,0,0,0-2.2,1,3.59,3.59,0,0,0-.92,2.63v9.45a1.43,1.43,0,0,1-.78,1.12,3.26,3.26,0,0,1-1.82.52,3.19,3.19,0,0,1-1.82-.5A1.4,1.4,0,0,1,1139.51,688.8Z"/><path class="cls-1" d="M1170.91,682.6v-3.4a7.39,7.39,0,0,1,2.56-5.64,8.77,8.77,0,0,1,6.2-2.36,8.45,8.45,0,0,1,5.82,2.15,6.92,6.92,0,0,1,2.42,5.4,5.46,5.46,0,0,1-.3,2,1.94,1.94,0,0,1-.92,1.09,3.91,3.91,0,0,1-1.14.4,9.82,9.82,0,0,1-1.36.08h-8.12v.6a3.43,3.43,0,0,0,1.28,2.78,5.18,5.18,0,0,0,3.4,1.06,6.48,6.48,0,0,0,3-.76,5.83,5.83,0,0,1,1.92-.76,1.68,1.68,0,0,1,1.4.78,2.62,2.62,0,0,1,.56,1.5c0,.74-.68,1.49-2,2.22a11.95,11.95,0,0,1-12-1.16A7.38,7.38,0,0,1,1170.91,682.6Zm5.16-3.36h5.84a1.49,1.49,0,0,0,.9-.21,1,1,0,0,0,.26-.8,2.61,2.61,0,0,0-1-2.13,4.17,4.17,0,0,0-4.94,0,2.53,2.53,0,0,0-1,2.11Z"/><path class="cls-1" d="M1190.31,682.6v-3.28a8.39,8.39,0,0,1,2.1-5.72,6.45,6.45,0,0,1,5-2.4,5.44,5.44,0,0,1,3.1.89,6.26,6.26,0,0,1,2.06,2.17V662a1.3,1.3,0,0,1,.74-1.16,3.51,3.51,0,0,1,1.86-.44,3.44,3.44,0,0,1,1.84.44,1.32,1.32,0,0,1,.72,1.16v26.8a1.4,1.4,0,0,1-.74,1.14,3.22,3.22,0,0,1-1.82.5,2.6,2.6,0,0,1-1.62-.53,1.43,1.43,0,0,1-.7-1.13v-1.17a5.67,5.67,0,0,1-2.18,2.24,6.37,6.37,0,0,1-3.38.95,6.3,6.3,0,0,1-4.88-2.48A8.52,8.52,0,0,1,1190.31,682.6Zm5.16,0a3.63,3.63,0,0,0,1,2.52,3.21,3.21,0,0,0,2.44,1.13,3.57,3.57,0,0,0,2.52-1.09,3,3,0,0,0,1.12-1.85v-4a3.32,3.32,0,0,0-1.1-2.58,3.65,3.65,0,0,0-2.5-1,3.29,3.29,0,0,0-2.48,1.09,3.47,3.47,0,0,0-1,2.48Z"/><path class="cls-1" d="M1211.51,664.92a2,2,0,0,1,.85-1.61,3.23,3.23,0,0,1,2.09-.67,2.86,2.86,0,0,1,1.91.67,2,2,0,0,1,.79,1.61,2.09,2.09,0,0,1-.79,1.59,2.82,2.82,0,0,1-1.91.69,3.19,3.19,0,0,1-2.09-.69A2,2,0,0,1,1211.51,664.92Zm.48,23.88V673a1.32,1.32,0,0,1,.69-1.16,3.18,3.18,0,0,1,1.77-.44,3.26,3.26,0,0,1,1.78.44A1.32,1.32,0,0,1,1217,673V688.8a1.43,1.43,0,0,1-.75,1.12,3.06,3.06,0,0,1-1.75.52,3,3,0,0,1-1.75-.5A1.41,1.41,0,0,1,1212,688.8Z"/><path class="cls-1" d="M1219.82,685.31a4.59,4.59,0,0,1,2.41-4.43,15,15,0,0,1,6.92-1.28h1.63v-.54a4.26,4.26,0,0,0-.85-2.65,3.16,3.16,0,0,0-2.66-1.13,6.37,6.37,0,0,0-3.08.68,6.92,6.92,0,0,1-1.49.68,1.43,1.43,0,0,1-1.27-.8,3.36,3.36,0,0,1-.49-1.76c0-.77.69-1.45,2.06-2a11.07,11.07,0,0,1,4.35-.86q4.35,0,6.47,2.22a7.73,7.73,0,0,1,2.12,5.58v9.8a1.4,1.4,0,0,1-.71,1.16,3.2,3.2,0,0,1-1.8.48,2.61,2.61,0,0,1-1.66-.51,1.52,1.52,0,0,1-.66-1.25v-1.24q-2.76,3.36-6.09,3.36a5.21,5.21,0,0,1-3.74-1.4A5.43,5.43,0,0,1,1219.82,685.31Zm5.16-.64a2,2,0,0,0,.58,1.54,2.26,2.26,0,0,0,1.55.51,3.58,3.58,0,0,0,2.47-1.14,3.37,3.37,0,0,0,1.2-2.51v-.79h-.59a12.46,12.46,0,0,0-3.83.47A1.87,1.87,0,0,0,1225,684.67Z"/><circle class="cls-2" cx="636.59" cy="395.85" r="328.53"/><path class="cls-3" d="M594.94,361.82q0-3.68,1.79-5.14t5.88-1.47q8.5,0,8.5,6a5,5,0,0,0,2.63,4.46,12.09,12.09,0,0,0,6.51,1.63q9.87,0,9.87-10.5v-9.45Q625.92,352,617,352q-10,0-16-5.14t-6-16.91V329q0-12.81,7-18.8t18.69-6q11.76,0,18.79,6t7,18.8v27.82q0,12.81-7.3,18.8t-19.48,6q-12.18,0-18.48-6.09T594.94,361.82Zm16.38-33.38q0,10.92,9.45,10.91t9.35-9.94v-1.94q0-10.7-9.45-10.69t-9.35,10.69Z"/><path class="cls-3" d="M650.38,318.67a6,6,0,0,1,3-5.57l13.86-8.4a5.59,5.59,0,0,1,3-.73,9,9,0,0,1,5,1.47,4.31,4.31,0,0,1,2.26,3.67v66.78a4.09,4.09,0,0,1-2.42,3.73,13.38,13.38,0,0,1-11.55,0,4.08,4.08,0,0,1-2.41-3.73V322.45l-3.05,1.89a4.65,4.65,0,0,1-2.62.84,4.43,4.43,0,0,1-3.68-2A7.41,7.41,0,0,1,650.38,318.67Z"/><path class="cls-1" d="M545.18,418.78V407.62c0-3.14.85-5.46,2.56-6.94a9.83,9.83,0,0,1,6.68-2.22,10.84,10.84,0,0,1,6.86,2.08,6.68,6.68,0,0,1,2.66,5.52,2.66,2.66,0,0,1-.6,2,3,3,0,0,1-2,.54c-1.71,0-2.57-.54-2.6-1.64,0-.34-.06-.64-.1-.9a5,5,0,0,0-.32-1,3.31,3.31,0,0,0-.66-1,3.23,3.23,0,0,0-1.2-.72,5.33,5.33,0,0,0-1.88-.3c-2.8,0-4.2,1.54-4.2,4.6v11.16q0,4.61,4.28,4.6a5,5,0,0,0,2.14-.4,2.48,2.48,0,0,0,1.24-1.14,6,6,0,0,0,.52-1.32,8.26,8.26,0,0,0,.18-1.42c.08-1.09.93-1.64,2.56-1.64a3.05,3.05,0,0,1,2,.54,2.63,2.63,0,0,1,.62,2,7.05,7.05,0,0,1-2.66,5.76,10.59,10.59,0,0,1-6.9,2.16,9.74,9.74,0,0,1-6.66-2.22C546,424.24,545.18,421.93,545.18,418.78Z"/><path class="cls-1" d="M566.34,419.86v-3.28a7.61,7.61,0,0,1,2.56-5.7,8.92,8.92,0,0,1,12.2,0,7.54,7.54,0,0,1,2.6,5.72v3.28a7.7,7.7,0,0,1-2.6,5.72,8.69,8.69,0,0,1-12.16,0A7.7,7.7,0,0,1,566.34,419.86Zm5.16,0a3.63,3.63,0,0,0,1,2.54A3.28,3.28,0,0,0,575,423.5a3.31,3.31,0,0,0,2.46-1.11,3.57,3.57,0,0,0,1.06-2.54V416.6a3.47,3.47,0,0,0-1.06-2.46,3.3,3.3,0,0,0-4.94,0,3.49,3.49,0,0,0-1,2.48Z"/><path class="cls-1" d="M587,426.06V410.3a1.33,1.33,0,0,1,.7-1.16,3.51,3.51,0,0,1,1.86-.44,2.81,2.81,0,0,1,1.62.45,1.34,1.34,0,0,1,.66,1.17v1.21a5.42,5.42,0,0,1,2.06-2.18,6.22,6.22,0,0,1,8.12,1.51,8.52,8.52,0,0,1,2.06,5.72v9.48a1.33,1.33,0,0,1-.78,1.2,3.58,3.58,0,0,1-1.82.44,3.48,3.48,0,0,1-1.78-.44,1.33,1.33,0,0,1-.78-1.19v-9.46a3.53,3.53,0,0,0-1-2.49,3.27,3.27,0,0,0-2.44-1.1,3.14,3.14,0,0,0-2.3,1,3.56,3.56,0,0,0-1,2.59v9.46a1.4,1.4,0,0,1-.78,1.11,3.19,3.19,0,0,1-1.82.52,3.12,3.12,0,0,1-1.82-.5A1.4,1.4,0,0,1,587,426.06Z"/><path class="cls-1" d="M607.94,426.09V405.32A8.08,8.08,0,0,1,610,399.7a6.46,6.46,0,0,1,5-2.28h2.36a1.75,1.75,0,0,1,1.44.67,2.51,2.51,0,0,1,.52,1.59,2.55,2.55,0,0,1-.52,1.63,1.72,1.72,0,0,1-1.44.67h-1.28a3,3,0,0,0-2.14.8,2.82,2.82,0,0,0-.82,2.12v3.8H618a1.1,1.1,0,0,1,1,.61,2.76,2.76,0,0,1,.36,1.43,2.8,2.8,0,0,1-.36,1.44,1.08,1.08,0,0,1-1,.6H613.1v13.36a1.27,1.27,0,0,1-.78,1.13,3.76,3.76,0,0,1-1.86.43,3.34,3.34,0,0,1-1.8-.44A1.32,1.32,0,0,1,607.94,426.09Z"/><path class="cls-1" d="M620.38,419.86v-3.4a7.42,7.42,0,0,1,2.56-5.64,8.83,8.83,0,0,1,6.2-2.36,8.47,8.47,0,0,1,5.82,2.15,7,7,0,0,1,2.42,5.41,5.5,5.5,0,0,1-.3,2,2,2,0,0,1-.92,1.09,3.68,3.68,0,0,1-1.14.39,8.47,8.47,0,0,1-1.36.08h-8.12v.6a3.43,3.43,0,0,0,1.28,2.78,5.14,5.14,0,0,0,3.4,1.06,6.48,6.48,0,0,0,3-.76,6.27,6.27,0,0,1,1.92-.76,1.67,1.67,0,0,1,1.4.78,2.62,2.62,0,0,1,.56,1.5c0,.75-.67,1.49-2,2.22a10.33,10.33,0,0,1-5,1.1,10.5,10.5,0,0,1-7-2.26A7.35,7.35,0,0,1,620.38,419.86Zm5.16-3.36h5.84a1.53,1.53,0,0,0,.9-.2,1,1,0,0,0,.26-.81,2.58,2.58,0,0,0-1-2.12,4.13,4.13,0,0,0-4.94,0,2.54,2.54,0,0,0-1,2.11Z"/><path class="cls-1" d="M640.46,426.06V410.3a1.33,1.33,0,0,1,.7-1.16,3.38,3.38,0,0,1,1.82-.44,2.87,2.87,0,0,1,1.66.45,1.34,1.34,0,0,1,.66,1.17V412a6.49,6.49,0,0,1,2-2.46,4.68,4.68,0,0,1,2.92-1.05h1.24a1.69,1.69,0,0,1,1.3.69,2.35,2.35,0,0,1,.58,1.57,2.42,2.42,0,0,1-.58,1.62,1.67,1.67,0,0,1-1.3.68h-1.24a4.12,4.12,0,0,0-3.22,1.64,6.39,6.39,0,0,0-1.38,4.27v7.14a1.4,1.4,0,0,1-.8,1.11,3.3,3.3,0,0,1-1.84.52,3,3,0,0,1-1.8-.5A1.4,1.4,0,0,1,640.46,426.06Z"/><path class="cls-1" d="M654.42,419.86v-3.4a7.42,7.42,0,0,1,2.56-5.64,8.82,8.82,0,0,1,6.2-2.36,8.5,8.5,0,0,1,5.82,2.15,7,7,0,0,1,2.42,5.41,5.5,5.5,0,0,1-.3,2,2,2,0,0,1-.92,1.09,3.86,3.86,0,0,1-1.14.39,8.47,8.47,0,0,1-1.36.08h-8.12v.6a3.4,3.4,0,0,0,1.28,2.78,5.12,5.12,0,0,0,3.4,1.06,6.48,6.48,0,0,0,3-.76,6.09,6.09,0,0,1,1.92-.76,1.68,1.68,0,0,1,1.4.78,2.62,2.62,0,0,1,.56,1.5c0,.75-.68,1.49-2,2.22a10.33,10.33,0,0,1-5,1.1,10.48,10.48,0,0,1-7-2.26A7.35,7.35,0,0,1,654.42,419.86Zm5.16-3.36h5.84a1.57,1.57,0,0,0,.9-.2,1,1,0,0,0,.26-.81,2.58,2.58,0,0,0-1-2.12,4.13,4.13,0,0,0-4.94,0,2.52,2.52,0,0,0-1,2.11Z"/><path class="cls-1" d="M674.5,426.06V410.3a1.33,1.33,0,0,1,.7-1.16,3.46,3.46,0,0,1,1.86-.44,2.81,2.81,0,0,1,1.62.45,1.34,1.34,0,0,1,.66,1.17v1.21a5.35,5.35,0,0,1,2.06-2.18,6.08,6.08,0,0,1,3.3-.89,6.2,6.2,0,0,1,4.82,2.4,8.52,8.52,0,0,1,2.06,5.72v9.48a1.33,1.33,0,0,1-.78,1.2,3.58,3.58,0,0,1-1.82.44,3.48,3.48,0,0,1-1.78-.44,1.33,1.33,0,0,1-.78-1.19v-9.46a3.53,3.53,0,0,0-1-2.49,3.28,3.28,0,0,0-2.44-1.1,3.14,3.14,0,0,0-2.3,1,3.52,3.52,0,0,0-1,2.59v9.46a1.4,1.4,0,0,1-.78,1.11,3.19,3.19,0,0,1-1.82.52,3.12,3.12,0,0,1-1.82-.5A1.38,1.38,0,0,1,674.5,426.06Z"/><path class="cls-1" d="M694.78,419.86v-3.2a8.25,8.25,0,0,1,2.16-5.94c1.44-1.5,3.6-2.26,6.48-2.26a9.8,9.8,0,0,1,4.56,1c1.22.64,1.84,1.36,1.84,2.16a2.88,2.88,0,0,1-.6,1.68,1.74,1.74,0,0,1-1.44.84,5.85,5.85,0,0,1-1.42-.54,6.06,6.06,0,0,0-2.54-.54q-3.89,0-3.88,3.66v3.17c0,2.44,1.3,3.65,3.92,3.65a5.55,5.55,0,0,0,2.52-.58,5,5,0,0,1,1.48-.58,1.93,1.93,0,0,1,1.58.8,2.69,2.69,0,0,1,.62,1.64c0,.83-.65,1.58-1.94,2.26a9.92,9.92,0,0,1-4.66,1c-2.91,0-5.08-.74-6.52-2.24A8.22,8.22,0,0,1,694.78,419.86Z"/><path class="cls-1" d="M711.9,419.86v-3.4a7.42,7.42,0,0,1,2.56-5.64,8.82,8.82,0,0,1,6.2-2.36,8.5,8.5,0,0,1,5.82,2.15A7,7,0,0,1,728.9,416a5.5,5.5,0,0,1-.3,2,2,2,0,0,1-.92,1.09,3.86,3.86,0,0,1-1.14.39,8.47,8.47,0,0,1-1.36.08h-8.12v.6a3.4,3.4,0,0,0,1.28,2.78,5.12,5.12,0,0,0,3.4,1.06,6.48,6.48,0,0,0,3-.76,6.09,6.09,0,0,1,1.92-.76,1.68,1.68,0,0,1,1.4.78,2.62,2.62,0,0,1,.56,1.5c0,.75-.68,1.49-2,2.22a10.33,10.33,0,0,1-5,1.1,10.48,10.48,0,0,1-7-2.26A7.35,7.35,0,0,1,711.9,419.86Zm5.16-3.36h5.84a1.57,1.57,0,0,0,.9-.2,1,1,0,0,0,.26-.81,2.58,2.58,0,0,0-1-2.12,4.13,4.13,0,0,0-4.94,0,2.52,2.52,0,0,0-1,2.11Z"/><path class="cls-1" d="M526.16,482.9V458.3a1.33,1.33,0,0,1,.7-1.16,3.26,3.26,0,0,1,1.74-.44,3.06,3.06,0,0,1,1.72.45,1.34,1.34,0,0,1,.68,1.17v1.21a6.4,6.4,0,0,1,2.18-2.18,6,6,0,0,1,3.22-.89,6.52,6.52,0,0,1,5.08,2.38,8.41,8.41,0,0,1,2.08,5.74v3.28a8.55,8.55,0,0,1-2.12,5.72,6.26,6.26,0,0,1-4.88,2.48,5.72,5.72,0,0,1-3.18-.94,5.52,5.52,0,0,1-2.06-2.24v10a1.39,1.39,0,0,1-.78,1.14,3.32,3.32,0,0,1-1.86.5,3,3,0,0,1-1.8-.5A1.4,1.4,0,0,1,526.16,482.9Zm5.16-14.33a2.91,2.91,0,0,0,1.08,1.86,3.3,3.3,0,0,0,4.92-.06,3.55,3.55,0,0,0,1.08-2.52V464.6a3.42,3.42,0,0,0-1.08-2.48,3.47,3.47,0,0,0-2.56-1.1,3.34,3.34,0,0,0-2.4,1,3.41,3.41,0,0,0-1,2.58Z"/><path class="cls-1" d="M546.88,474.06V458.3a1.33,1.33,0,0,1,.7-1.16,3.4,3.4,0,0,1,1.82-.44,2.87,2.87,0,0,1,1.66.45,1.34,1.34,0,0,1,.66,1.17V460a6.49,6.49,0,0,1,2-2.46,4.7,4.7,0,0,1,2.92-1.05h1.24a1.69,1.69,0,0,1,1.3.69,2.35,2.35,0,0,1,.58,1.57,2.42,2.42,0,0,1-.58,1.62,1.67,1.67,0,0,1-1.3.68h-1.24a4.12,4.12,0,0,0-3.22,1.64,6.39,6.39,0,0,0-1.38,4.27v7.14a1.4,1.4,0,0,1-.8,1.11,3.27,3.27,0,0,1-1.84.52,3,3,0,0,1-1.8-.5A1.4,1.4,0,0,1,546.88,474.06Z"/><path class="cls-1" d="M560.84,467.86v-3.4a7.42,7.42,0,0,1,2.56-5.64,8.83,8.83,0,0,1,6.2-2.36,8.47,8.47,0,0,1,5.82,2.15,7,7,0,0,1,2.42,5.41,5.5,5.5,0,0,1-.3,2,2,2,0,0,1-.92,1.09,3.68,3.68,0,0,1-1.14.39,8.47,8.47,0,0,1-1.36.08H566v.6a3.43,3.43,0,0,0,1.28,2.78,5.14,5.14,0,0,0,3.4,1.06,6.48,6.48,0,0,0,3-.76,6.27,6.27,0,0,1,1.92-.76,1.67,1.67,0,0,1,1.4.78,2.62,2.62,0,0,1,.56,1.5c0,.75-.67,1.49-2,2.22a10.33,10.33,0,0,1-5,1.1,10.5,10.5,0,0,1-7-2.26A7.35,7.35,0,0,1,560.84,467.86ZM566,464.5h5.84a1.53,1.53,0,0,0,.9-.2,1,1,0,0,0,.26-.81,2.58,2.58,0,0,0-1-2.12,4.13,4.13,0,0,0-4.94,0,2.54,2.54,0,0,0-1,2.11Z"/><path class="cls-1" d="M579.72,472.62a2.71,2.71,0,0,1,.53-1.5,1.47,1.47,0,0,1,1.21-.78,2.35,2.35,0,0,1,1.11.4,10.94,10.94,0,0,0,1.76.82,7.27,7.27,0,0,0,2.6.42c2,0,3-.55,3-1.67a1.67,1.67,0,0,0-1-1.48,9.78,9.78,0,0,0-2.36-.89c-.92-.24-1.85-.51-2.78-.84a5.42,5.42,0,0,1-2.38-1.63,4.4,4.4,0,0,1-1-2.94,6,6,0,0,1,1.72-4.28q1.73-1.78,5.44-1.79a12.19,12.19,0,0,1,4.42.76c1.29.51,1.94,1.12,1.94,1.84a3.16,3.16,0,0,1-.54,1.58,1.57,1.57,0,0,1-1.34.9,8,8,0,0,1-1.74-.5,8.12,8.12,0,0,0-2.66-.5,3.35,3.35,0,0,0-2.08.55,1.52,1.52,0,0,0-.72,1.2,1.24,1.24,0,0,0,.72,1.09,6,6,0,0,0,1.78.67,21.1,21.1,0,0,1,2.28.64,15.36,15.36,0,0,1,2.25.95,4.53,4.53,0,0,1,1.74,1.69,5.26,5.26,0,0,1,.71,2.79,5.32,5.32,0,0,1-1.94,4.35,8.32,8.32,0,0,1-5.42,1.59,11.43,11.43,0,0,1-5.12-1C580.43,474.33,579.72,473.53,579.72,472.62Z"/><path class="cls-1" d="M596.76,467.86v-3.4a7.42,7.42,0,0,1,2.56-5.64,8.83,8.83,0,0,1,6.2-2.36,8.47,8.47,0,0,1,5.82,2.15,7,7,0,0,1,2.42,5.41,5.5,5.5,0,0,1-.3,2,2,2,0,0,1-.92,1.09,3.68,3.68,0,0,1-1.14.39,8.47,8.47,0,0,1-1.36.08h-8.12v.6a3.43,3.43,0,0,0,1.28,2.78,5.14,5.14,0,0,0,3.4,1.06,6.48,6.48,0,0,0,3-.76,6.27,6.27,0,0,1,1.92-.76,1.67,1.67,0,0,1,1.4.78,2.62,2.62,0,0,1,.56,1.5c0,.75-.67,1.49-2,2.22a10.33,10.33,0,0,1-5,1.1,10.5,10.5,0,0,1-7-2.26A7.35,7.35,0,0,1,596.76,467.86Zm5.16-3.36h5.84a1.53,1.53,0,0,0,.9-.2,1,1,0,0,0,.26-.81,2.58,2.58,0,0,0-1-2.12,4.13,4.13,0,0,0-4.94,0,2.54,2.54,0,0,0-1,2.11Z"/><path class="cls-1" d="M616.84,474.06V458.3a1.33,1.33,0,0,1,.7-1.16,3.51,3.51,0,0,1,1.86-.44,2.81,2.81,0,0,1,1.62.45,1.34,1.34,0,0,1,.66,1.17v1.21a5.42,5.42,0,0,1,2.06-2.18,6.22,6.22,0,0,1,8.12,1.51,8.52,8.52,0,0,1,2.06,5.72v9.48a1.33,1.33,0,0,1-.78,1.2,3.58,3.58,0,0,1-1.82.44,3.48,3.48,0,0,1-1.78-.44,1.33,1.33,0,0,1-.78-1.19v-9.46a3.53,3.53,0,0,0-1-2.49,3.27,3.27,0,0,0-2.44-1.1,3.14,3.14,0,0,0-2.3,1,3.56,3.56,0,0,0-1,2.59v9.46a1.4,1.4,0,0,1-.78,1.11,3.19,3.19,0,0,1-1.82.52,3.12,3.12,0,0,1-1.82-.5A1.4,1.4,0,0,1,616.84,474.06Z"/><path class="cls-1" d="M637.72,469.3V450.12a1.32,1.32,0,0,1,.8-1.12,3.53,3.53,0,0,1,1.76-.46,3.59,3.59,0,0,1,1.82.45,1.27,1.27,0,0,1,.78,1.09v6.62h4.72a1.1,1.1,0,0,1,1,.61,2.76,2.76,0,0,1,.36,1.43,2.8,2.8,0,0,1-.36,1.44,1.08,1.08,0,0,1-1,.6h-4.72v8.34a2.08,2.08,0,0,0,.5,1.57,2.6,2.6,0,0,0,1.74.45h1.56a2.06,2.06,0,0,1,1.62.67,2.35,2.35,0,0,1,.58,1.59,2.38,2.38,0,0,1-.58,1.63,2,2,0,0,1-1.62.67h-1.56Q637.73,475.7,637.72,469.3Z"/><path class="cls-1" d="M650.52,470.58a4.59,4.59,0,0,1,2.4-4.43,14.89,14.89,0,0,1,6.92-1.29h1.64v-.53a4.25,4.25,0,0,0-.86-2.65,3.13,3.13,0,0,0-2.66-1.14,6.52,6.52,0,0,0-3.08.68,6.63,6.63,0,0,1-1.48.68,1.43,1.43,0,0,1-1.28-.8,3.35,3.35,0,0,1-.48-1.76c0-.77.68-1.44,2.06-2a11.2,11.2,0,0,1,4.34-.86q4.35,0,6.48,2.22a7.77,7.77,0,0,1,2.12,5.58v9.8a1.37,1.37,0,0,1-.72,1.16,3.18,3.18,0,0,1-1.8.48,2.63,2.63,0,0,1-1.66-.51,1.53,1.53,0,0,1-.66-1.24v-1.24c-1.84,2.24-3.87,3.35-6.08,3.35a5.15,5.15,0,0,1-3.74-1.4A5.36,5.36,0,0,1,650.52,470.58Zm5.16-.65a1.93,1.93,0,0,0,.58,1.54,2.24,2.24,0,0,0,1.54.51,3.64,3.64,0,0,0,2.48-1.13,3.42,3.42,0,0,0,1.2-2.51v-.8h-.6a12,12,0,0,0-3.82.48A1.85,1.85,0,0,0,655.68,469.93Z"/><path class="cls-1" d="M670.44,469.3V450.12a1.3,1.3,0,0,1,.8-1.12,3.53,3.53,0,0,1,1.76-.46,3.59,3.59,0,0,1,1.82.45,1.27,1.27,0,0,1,.78,1.09v6.62h4.72a1.1,1.1,0,0,1,1,.61,2.76,2.76,0,0,1,.36,1.43,2.8,2.8,0,0,1-.36,1.44,1.08,1.08,0,0,1-1,.6H675.6v8.34a2,2,0,0,0,.5,1.57,2.6,2.6,0,0,0,1.74.45h1.56a2.06,2.06,0,0,1,1.62.67,2.4,2.4,0,0,1,.58,1.59A2.43,2.43,0,0,1,681,475a2,2,0,0,1-1.62.67h-1.56Q670.43,475.7,670.44,469.3Z"/><path class="cls-1" d="M684.08,450.18a2,2,0,0,1,.85-1.61,3.29,3.29,0,0,1,2.09-.67,2.89,2.89,0,0,1,1.91.67,2,2,0,0,1,0,3.21,2.85,2.85,0,0,1-1.91.68,3.24,3.24,0,0,1-2.09-.68A2,2,0,0,1,684.08,450.18Zm.48,23.88V458.3a1.34,1.34,0,0,1,.69-1.16,3.27,3.27,0,0,1,1.77-.44,3.42,3.42,0,0,1,1.79.44,1.34,1.34,0,0,1,.71,1.16v15.76a1.41,1.41,0,0,1-.75,1.12,3,3,0,0,1-1.75.52,2.9,2.9,0,0,1-1.75-.5A1.38,1.38,0,0,1,684.56,474.06Z"/><path class="cls-1" d="M692.8,467.86v-3.28a7.61,7.61,0,0,1,2.56-5.7,8.59,8.59,0,0,1,6.12-2.42,8.69,8.69,0,0,1,6.08,2.4,7.54,7.54,0,0,1,2.6,5.72v3.28a7.7,7.7,0,0,1-2.6,5.72,8.69,8.69,0,0,1-12.16,0A7.66,7.66,0,0,1,692.8,467.86Zm5.16,0a3.59,3.59,0,0,0,1,2.54,3.28,3.28,0,0,0,2.48,1.11,3.31,3.31,0,0,0,2.46-1.11,3.61,3.61,0,0,0,1.06-2.54V464.6a3.52,3.52,0,0,0-1.06-2.46,3.3,3.3,0,0,0-4.94,0,3.45,3.45,0,0,0-1,2.48Z"/><path class="cls-1" d="M713.44,474.06V458.3a1.33,1.33,0,0,1,.7-1.16,3.44,3.44,0,0,1,1.85-.44,2.76,2.76,0,0,1,1.62.45,1.32,1.32,0,0,1,.66,1.17v1.21a5.45,5.45,0,0,1,2.07-2.18,6.08,6.08,0,0,1,3.3-.89,6.17,6.17,0,0,1,4.81,2.4,8.48,8.48,0,0,1,2.07,5.72v9.48a1.32,1.32,0,0,1-.79,1.2,3.52,3.52,0,0,1-1.81.44,3.46,3.46,0,0,1-1.78-.44,1.31,1.31,0,0,1-.78-1.19v-9.46a3.5,3.5,0,0,0-1.05-2.49,3.25,3.25,0,0,0-2.43-1.1,3.16,3.16,0,0,0-2.31,1,3.56,3.56,0,0,0-1,2.59v9.46a1.39,1.39,0,0,1-.79,1.11,3.14,3.14,0,0,1-1.82.52,3.09,3.09,0,0,1-1.81-.5A1.38,1.38,0,0,1,713.44,474.06Z"/><path class="cls-1" d="M733.15,472.62a2.71,2.71,0,0,1,.53-1.5,1.49,1.49,0,0,1,1.22-.78,2.42,2.42,0,0,1,1.11.4,10.18,10.18,0,0,0,1.76.82,7.21,7.21,0,0,0,2.59.42c2,0,2.95-.55,2.95-1.67a1.66,1.66,0,0,0-1-1.48,9.94,9.94,0,0,0-2.36-.89c-.92-.24-1.85-.51-2.79-.84a5.48,5.48,0,0,1-2.38-1.63,4.4,4.4,0,0,1-1-2.94,6,6,0,0,1,1.72-4.28c1.14-1.19,3-1.79,5.43-1.79a12.15,12.15,0,0,1,4.42.76c1.3.51,2,1.12,2,1.84a3.09,3.09,0,0,1-.55,1.58,1.55,1.55,0,0,1-1.33.9,7.83,7.83,0,0,1-1.75-.5,8.07,8.07,0,0,0-2.66-.5,3.39,3.39,0,0,0-2.08.55,1.54,1.54,0,0,0-.72,1.2,1.26,1.26,0,0,0,.72,1.09,6.18,6.18,0,0,0,1.78.67,21.1,21.1,0,0,1,2.28.64,15.36,15.36,0,0,1,2.25.95,4.49,4.49,0,0,1,1.75,1.69,5.83,5.83,0,0,1-1.24,7.14,8.29,8.29,0,0,1-5.41,1.59,11.51,11.51,0,0,1-5.13-1C733.86,474.33,733.15,473.53,733.15,472.62Z"/><circle class="cls-2" cx="145.94" cy="357.67" r="145.94"/><path class="cls-3" d="M101,284.64a6,6,0,0,1,3-5.56l13.86-8.4a5.58,5.58,0,0,1,3-.74,9,9,0,0,1,5,1.47,4.34,4.34,0,0,1,2.26,3.68v66.78a4.09,4.09,0,0,1-2.42,3.73,13.38,13.38,0,0,1-11.55,0,4.08,4.08,0,0,1-2.41-3.73V288.42l-3,1.89a4.57,4.57,0,0,1-2.62.84,4.42,4.42,0,0,1-3.68-2A7.43,7.43,0,0,1,101,284.64Z"/><path class="cls-3" d="M136.34,326.05v-1.26q0-15.23,13-19.61Q139,301.52,139,288.7q0-9.37,6.25-14t17-4.59q10.71,0,17,4.59t6.25,14q0,12.82-10.39,16.48,12.92,4.38,12.91,19.61v1.26q0,11.06-7,16.27t-18.69,5.22q-11.65,0-18.75-5.22T136.34,326.05Zm16.38-1.85q0,10.74,9.45,10.74t9.34-10.74v-2.37q0-10.2-9.34-10.2t-9.45,10.2Zm2-33.25q0,8.08,7.46,8.08t7.45-8.08q0-8.19-7.45-8.2T154.71,291Z"/><path class="cls-1" d="M107.35,392.21v-26A1.35,1.35,0,0,1,108,365a2.86,2.86,0,0,1,1.6-.45h7.73c5.35,0,8,2.35,8,7q0,4.89-3.41,6.37a6.53,6.53,0,0,1,3.08,2.25,7.28,7.28,0,0,1,1,4.26v.84c0,3-.72,5.12-2.17,6.47a8.22,8.22,0,0,1-5.83,2h-8.49a2.68,2.68,0,0,1-1.64-.49A1.37,1.37,0,0,1,107.35,392.21Zm5.15-16.28H117a3,3,0,0,0,2.38-.92,3.67,3.67,0,0,0,.83-2.53,3.41,3.41,0,0,0-.87-2.46,3.15,3.15,0,0,0-2.38-.89H112.5Zm0,13.32H117c2.59,0,3.88-1.46,3.88-4.36v-.64a4.5,4.5,0,0,0-1-3.24,3.89,3.89,0,0,0-2.91-1H112.5Z"/><path class="cls-1" d="M128.7,386v-3.29a7.64,7.64,0,0,1,2.56-5.7,8.91,8.91,0,0,1,12.2,0,7.47,7.47,0,0,1,2.6,5.71V386a7.64,7.64,0,0,1-2.6,5.71,8.67,8.67,0,0,1-12.16,0A7.68,7.68,0,0,1,128.7,386Zm5.16,0a3.61,3.61,0,0,0,1,2.54,3.3,3.3,0,0,0,4.94,0A3.55,3.55,0,0,0,140.9,386V382.7a3.47,3.47,0,0,0-1.06-2.46,3.32,3.32,0,0,0-4.94,0,3.49,3.49,0,0,0-1,2.48Z"/><path class="cls-1" d="M148.62,386v-3.29a7.64,7.64,0,0,1,2.56-5.7,8.91,8.91,0,0,1,12.2,0,7.47,7.47,0,0,1,2.6,5.71V386a7.64,7.64,0,0,1-2.6,5.71,8.67,8.67,0,0,1-12.16,0A7.68,7.68,0,0,1,148.62,386Zm5.16,0a3.61,3.61,0,0,0,1,2.54,3.3,3.3,0,0,0,4.94,0,3.55,3.55,0,0,0,1.06-2.54V382.7a3.47,3.47,0,0,0-1.06-2.46,3.32,3.32,0,0,0-4.94,0,3.49,3.49,0,0,0-1,2.48Z"/><path class="cls-1" d="M169.3,392.17V365.32a1.33,1.33,0,0,1,.7-1.15,3.34,3.34,0,0,1,1.82-.45,3.61,3.61,0,0,1,1.88.45,1.3,1.3,0,0,1,.76,1.15v16.77L182,375a1.59,1.59,0,0,1,1-.41,2.48,2.48,0,0,1,1.68.8,2.35,2.35,0,0,1,.84,1.69,1.33,1.33,0,0,1-.44,1l-4.72,4.27,5.88,8.4a1.43,1.43,0,0,1,.28.84,2.34,2.34,0,0,1-1,1.73,3,3,0,0,1-1.94.84,1.49,1.49,0,0,1-1.28-.69l-5.4-8-2.48,2.28v4.41a1.42,1.42,0,0,1-.8,1.12,3.33,3.33,0,0,1-1.84.52,3.11,3.11,0,0,1-1.8-.5A1.42,1.42,0,0,1,169.3,392.17Z"/><path class="cls-1" d="M76,434v-3.21a8.25,8.25,0,0,1,2.16-5.94c1.44-1.5,3.6-2.26,6.48-2.26a9.93,9.93,0,0,1,4.56,1c1.22.65,1.84,1.37,1.84,2.16a2.83,2.83,0,0,1-.6,1.68,1.73,1.73,0,0,1-1.44.85,6.36,6.36,0,0,1-1.42-.54,6.06,6.06,0,0,0-2.54-.54c-2.59,0-3.88,1.21-3.88,3.65V434c0,2.44,1.3,3.65,3.92,3.65a5.55,5.55,0,0,0,2.52-.58,5,5,0,0,1,1.48-.58,1.92,1.92,0,0,1,1.58.81,2.65,2.65,0,0,1,.62,1.64c0,.82-.65,1.58-1.94,2.25a9.92,9.92,0,0,1-4.66,1q-4.36,0-6.52-2.24A8.25,8.25,0,0,1,76,434Z"/><path class="cls-1" d="M94.05,440.17V413.36a1.33,1.33,0,0,1,.7-1.16,3.46,3.46,0,0,1,1.86-.44,3.56,3.56,0,0,1,1.84.45,1.31,1.31,0,0,1,.76,1.15v12.27a5.38,5.38,0,0,1,1.92-2.18,5.47,5.47,0,0,1,3.12-.89,6.15,6.15,0,0,1,4.81,2.41,8.43,8.43,0,0,1,2.07,5.71v9.49a1.33,1.33,0,0,1-.78,1.19,3.86,3.86,0,0,1-3.6,0,1.34,1.34,0,0,1-.78-1.2v-9.45a3.58,3.58,0,0,0-1-2.48,3.26,3.26,0,0,0-2.44-1.11,3.13,3.13,0,0,0-2.3,1,3.53,3.53,0,0,0-1,2.6v9.45a1.43,1.43,0,0,1-.78,1.12,3.26,3.26,0,0,1-1.82.52,3.19,3.19,0,0,1-1.82-.5A1.4,1.4,0,0,1,94.05,440.17Z"/><path class="cls-1" d="M113.84,436.68a4.59,4.59,0,0,1,2.4-4.43,14.94,14.94,0,0,1,6.92-1.28h1.64v-.54a4.21,4.21,0,0,0-.86-2.65,3.11,3.11,0,0,0-2.66-1.14,6.54,6.54,0,0,0-3.08.68,6.51,6.51,0,0,1-1.48.69,1.46,1.46,0,0,1-1.28-.8,3.38,3.38,0,0,1-.48-1.77c0-.77.69-1.44,2.06-2a11.07,11.07,0,0,1,4.34-.87c2.91,0,5.07.75,6.48,2.23a7.71,7.71,0,0,1,2.12,5.57v9.81a1.36,1.36,0,0,1-.72,1.15,3.18,3.18,0,0,1-1.8.49,2.65,2.65,0,0,1-1.66-.52,1.52,1.52,0,0,1-.66-1.24v-1.24c-1.84,2.24-3.86,3.36-6.08,3.36a5.17,5.17,0,0,1-3.74-1.41A5.4,5.4,0,0,1,113.84,436.68ZM119,436a2,2,0,0,0,.58,1.53,2.26,2.26,0,0,0,1.54.52A3.59,3.59,0,0,0,123.6,437a3.42,3.42,0,0,0,1.2-2.51v-.8h-.6a12.09,12.09,0,0,0-3.82.48A1.87,1.87,0,0,0,119,436Z"/><path class="cls-1" d="M133.84,449V424.4a1.33,1.33,0,0,1,.7-1.15,3.17,3.17,0,0,1,1.74-.44,3,3,0,0,1,1.72.44,1.34,1.34,0,0,1,.68,1.17v1.21a6.58,6.58,0,0,1,2.18-2.18,6,6,0,0,1,3.22-.89,6.51,6.51,0,0,1,5.08,2.38,8.41,8.41,0,0,1,2.08,5.74V434a8.48,8.48,0,0,1-2.12,5.71,6.28,6.28,0,0,1-4.88,2.49,5.78,5.78,0,0,1-3.18-.95A5.52,5.52,0,0,1,139,439v10a1.39,1.39,0,0,1-.78,1.14,3.32,3.32,0,0,1-1.86.5,3,3,0,0,1-1.8-.5A1.39,1.39,0,0,1,133.84,449ZM139,434.67a2.91,2.91,0,0,0,1.08,1.86,3.37,3.37,0,0,0,2.44,1.07,3.31,3.31,0,0,0,2.48-1.13,3.55,3.55,0,0,0,1.08-2.52V430.7a3.42,3.42,0,0,0-1.08-2.48,3.46,3.46,0,0,0-2.56-1.09A3.47,3.47,0,0,0,139,430.7Z"/><path class="cls-1" d="M154.52,435.4V416.23a1.32,1.32,0,0,1,.8-1.13,3.75,3.75,0,0,1,3.58,0,1.27,1.27,0,0,1,.78,1.09v6.63h4.72a1.08,1.08,0,0,1,1,.6,3,3,0,0,1,0,2.87,1.1,1.1,0,0,1-1,.61h-4.72v8.34a2.07,2.07,0,0,0,.5,1.56,2.63,2.63,0,0,0,1.74.46h1.56a2,2,0,0,1,1.62.66,2.35,2.35,0,0,1,.58,1.59,2.4,2.4,0,0,1-.58,1.64,2,2,0,0,1-1.62.67h-1.56Q154.53,441.81,154.52,435.4Z"/><path class="cls-1" d="M167.52,434v-3.41a7.42,7.42,0,0,1,2.56-5.63,8.82,8.82,0,0,1,6.2-2.37,8.43,8.43,0,0,1,5.82,2.16,6.89,6.89,0,0,1,2.42,5.4,5.5,5.5,0,0,1-.3,2,1.91,1.91,0,0,1-.92,1.09,4,4,0,0,1-1.14.4,10,10,0,0,1-1.36.07h-8.12v.61A3.42,3.42,0,0,0,174,437a5.17,5.17,0,0,0,3.4,1.07,6.44,6.44,0,0,0,3-.77,6.27,6.27,0,0,1,1.92-.76,1.65,1.65,0,0,1,1.4.79,2.5,2.5,0,0,1,.56,1.5c0,.74-.67,1.48-2,2.21a10.3,10.3,0,0,1-5,1.11,10.5,10.5,0,0,1-7-2.27A7.34,7.34,0,0,1,167.52,434Zm5.16-3.37h5.84a1.46,1.46,0,0,0,.9-.2,1,1,0,0,0,.26-.8,2.59,2.59,0,0,0-1-2.13,4.13,4.13,0,0,0-4.94,0,2.54,2.54,0,0,0-1,2.11Z"/><path class="cls-1" d="M187.6,440.17V424.4a1.33,1.33,0,0,1,.7-1.15,3.34,3.34,0,0,1,1.82-.44,2.87,2.87,0,0,1,1.66.44,1.36,1.36,0,0,1,.66,1.17v1.66a6.54,6.54,0,0,1,2-2.47,4.76,4.76,0,0,1,2.92-1.05h1.24a1.67,1.67,0,0,1,1.3.69,2.35,2.35,0,0,1,.58,1.57,2.42,2.42,0,0,1-.58,1.62,1.67,1.67,0,0,1-1.3.69h-1.24a4.12,4.12,0,0,0-3.22,1.63,6.39,6.39,0,0,0-1.38,4.27v7.14c0,.4-.26.77-.8,1.12a3.33,3.33,0,0,1-1.84.52,3.11,3.11,0,0,1-1.8-.5A1.42,1.42,0,0,1,187.6,440.17Z"/><path class="cls-1" d="M201.48,438.72a2.76,2.76,0,0,1,.53-1.5,1.51,1.51,0,0,1,1.21-.78,2.34,2.34,0,0,1,1.12.41,11.93,11.93,0,0,0,1.76.82,7.21,7.21,0,0,0,2.59.42c2,0,2.95-.56,2.95-1.68a1.65,1.65,0,0,0-1-1.48,9.78,9.78,0,0,0-2.36-.89c-.92-.23-1.84-.51-2.78-.84a5.48,5.48,0,0,1-2.38-1.63,4.4,4.4,0,0,1-1-2.94,6,6,0,0,1,1.72-4.27q1.73-1.8,5.44-1.8a12.15,12.15,0,0,1,4.42.76c1.3.51,1.94,1.12,1.94,1.85a3.23,3.23,0,0,1-.54,1.58,1.54,1.54,0,0,1-1.34.89,8,8,0,0,1-1.74-.5,8.07,8.07,0,0,0-2.66-.5,3.43,3.43,0,0,0-2.08.55,1.53,1.53,0,0,0-.72,1.21,1.26,1.26,0,0,0,.72,1.09,6.37,6.37,0,0,0,1.78.66,21.1,21.1,0,0,1,2.28.64,15.36,15.36,0,0,1,2.25.95,4.58,4.58,0,0,1,1.75,1.7,5.19,5.19,0,0,1,.7,2.78,5.32,5.32,0,0,1-1.94,4.36,8.32,8.32,0,0,1-5.42,1.59,11.6,11.6,0,0,1-5.12-1C202.19,440.43,201.48,439.63,201.48,438.72Z"/><circle class="cls-2" cx="274.79" cy="114.19" r="114.19"/><path class="cls-3" d="M242.24,44.89a6,6,0,0,1,3-5.57l13.86-8.4a5.67,5.67,0,0,1,3-.73,9,9,0,0,1,5,1.47,4.29,4.29,0,0,1,2.26,3.67v66.78a4.07,4.07,0,0,1-2.42,3.73,13.38,13.38,0,0,1-11.55,0,4.06,4.06,0,0,1-2.41-3.73V48.67L250,50.56a4.65,4.65,0,0,1-2.62.84,4.43,4.43,0,0,1-3.68-2A7.38,7.38,0,0,1,242.24,44.89Z"/><path class="cls-3" d="M274.58,44.89a6,6,0,0,1,3.05-5.57l13.86-8.4a5.67,5.67,0,0,1,3-.73,9,9,0,0,1,5,1.47,4.31,4.31,0,0,1,2.26,3.67v66.78a4.07,4.07,0,0,1-2.42,3.73,13.38,13.38,0,0,1-11.55,0,4.06,4.06,0,0,1-2.41-3.73V48.67l-3,1.89a4.65,4.65,0,0,1-2.62.84,4.43,4.43,0,0,1-3.68-2A7.38,7.38,0,0,1,274.58,44.89Z"/><path class="cls-1" d="M211.89,142.71a2.6,2.6,0,0,1,.6-2,3,3,0,0,1,2-.54c1.62,0,2.49.55,2.6,1.64.1,2.86,1.48,4.28,4.12,4.28,2.82,0,4.24-1.53,4.24-4.6V125.75h-4.08a1.34,1.34,0,0,1-1.2-.68,3.23,3.23,0,0,1,0-3.22,1.35,1.35,0,0,1,1.22-.66h7a2.91,2.91,0,0,1,1.6.44,1.38,1.38,0,0,1,.68,1.2v18.68q0,4.73-2.54,6.94a9.78,9.78,0,0,1-6.66,2.22,10.63,10.63,0,0,1-6.9-2.14A7,7,0,0,1,211.89,142.71Z"/><path class="cls-1" d="M234,142.59v-3.28a7.61,7.61,0,0,1,2.56-5.7,8.92,8.92,0,0,1,12.2,0,7.54,7.54,0,0,1,2.6,5.72v3.28a7.7,7.7,0,0,1-2.6,5.72,8.69,8.69,0,0,1-12.16,0A7.7,7.7,0,0,1,234,142.59Zm5.16,0a3.63,3.63,0,0,0,1,2.54,3.28,3.28,0,0,0,2.48,1.11,3.31,3.31,0,0,0,2.46-1.11,3.57,3.57,0,0,0,1.06-2.54v-3.25a3.47,3.47,0,0,0-1.06-2.46,3.3,3.3,0,0,0-4.94,0,3.49,3.49,0,0,0-1,2.48Z"/><path class="cls-1" d="M254.45,142.67v-9.6a1.43,1.43,0,0,1,.78-1.12,3.24,3.24,0,0,1,1.82-.52,3.2,3.2,0,0,1,1.78.52,1.43,1.43,0,0,1,.78,1.12v9.57a3.51,3.51,0,0,0,1,2.5,3.29,3.29,0,0,0,2.48,1.09,3.24,3.24,0,0,0,2.46-1.09,3.58,3.58,0,0,0,1-2.5V133a1.35,1.35,0,0,1,.78-1.12,3.39,3.39,0,0,1,1.82-.48,3.27,3.27,0,0,1,1.84.48,1.37,1.37,0,0,1,.72,1.12v9.64a7.63,7.63,0,0,1-2.56,5.68,8.82,8.82,0,0,1-12.18,0A7.58,7.58,0,0,1,254.45,142.67Z"/><path class="cls-1" d="M275.61,148.79V133a1.33,1.33,0,0,1,.7-1.16,3.38,3.38,0,0,1,1.82-.44,2.9,2.9,0,0,1,1.66.45,1.34,1.34,0,0,1,.66,1.17v1.65a6.4,6.4,0,0,1,2-2.46,4.68,4.68,0,0,1,2.92-1.05h1.24a1.69,1.69,0,0,1,1.3.69,2.4,2.4,0,0,1,.58,1.57,2.47,2.47,0,0,1-.58,1.62,1.67,1.67,0,0,1-1.3.68h-1.24a4.12,4.12,0,0,0-3.22,1.64,6.39,6.39,0,0,0-1.38,4.27v7.14c0,.4-.27.77-.8,1.12a3.37,3.37,0,0,1-1.84.51,3,3,0,0,1-1.8-.5A1.4,1.4,0,0,1,275.61,148.79Z"/><path class="cls-1" d="M290.69,148.79V133a1.33,1.33,0,0,1,.7-1.16,3.46,3.46,0,0,1,1.86-.44,2.81,2.81,0,0,1,1.62.45,1.34,1.34,0,0,1,.66,1.17v1.21a5.35,5.35,0,0,1,2.06-2.18,6.08,6.08,0,0,1,3.3-.89,6.2,6.2,0,0,1,4.82,2.4,8.52,8.52,0,0,1,2.06,5.72v9.48A1.33,1.33,0,0,1,307,150a3.94,3.94,0,0,1-3.6,0,1.35,1.35,0,0,1-.78-1.2v-9.46a3.53,3.53,0,0,0-1-2.49,3.28,3.28,0,0,0-2.44-1.1,3.14,3.14,0,0,0-2.3,1,3.52,3.52,0,0,0-1,2.59v9.46a1.43,1.43,0,0,1-.78,1.12,3.26,3.26,0,0,1-1.82.51,3.12,3.12,0,0,1-1.82-.5A1.38,1.38,0,0,1,290.69,148.79Z"/><path class="cls-1" d="M310.49,145.31a4.59,4.59,0,0,1,2.4-4.43,14.89,14.89,0,0,1,6.92-1.29h1.64v-.53a4.25,4.25,0,0,0-.86-2.65,3.13,3.13,0,0,0-2.66-1.14,6.52,6.52,0,0,0-3.08.68,6.63,6.63,0,0,1-1.48.68,1.43,1.43,0,0,1-1.28-.8,3.35,3.35,0,0,1-.48-1.76c0-.77.68-1.44,2.06-2a11.2,11.2,0,0,1,4.34-.86q4.35,0,6.48,2.22a7.77,7.77,0,0,1,2.12,5.58v9.8a1.37,1.37,0,0,1-.72,1.16,3.18,3.18,0,0,1-1.8.48,2.63,2.63,0,0,1-1.66-.51,1.52,1.52,0,0,1-.66-1.24v-1.24c-1.84,2.24-3.87,3.35-6.08,3.35a5.15,5.15,0,0,1-3.74-1.4A5.36,5.36,0,0,1,310.49,145.31Zm5.16-.65a1.93,1.93,0,0,0,.58,1.54,2.24,2.24,0,0,0,1.54.51,3.64,3.64,0,0,0,2.48-1.13,3.42,3.42,0,0,0,1.2-2.51v-.8h-.6a12,12,0,0,0-3.82.48A1.85,1.85,0,0,0,315.65,144.66Z"/><path class="cls-1" d="M330.81,148.79V122a1.33,1.33,0,0,1,.7-1.16,3.46,3.46,0,0,1,1.86-.44,3.66,3.66,0,0,1,1.84.44A1.33,1.33,0,0,1,336,122v26.84a1.41,1.41,0,0,1-.78,1.12,3.19,3.19,0,0,1-1.82.52,3.12,3.12,0,0,1-1.82-.5A1.38,1.38,0,0,1,330.81,148.79Z"/><path class="cls-1" d="M215.67,193.31a4.59,4.59,0,0,1,2.4-4.43,14.92,14.92,0,0,1,6.92-1.29h1.64v-.53a4.25,4.25,0,0,0-.86-2.65,3.13,3.13,0,0,0-2.66-1.14A6.52,6.52,0,0,0,220,184a6.42,6.42,0,0,1-1.48.68,1.44,1.44,0,0,1-1.28-.8,3.35,3.35,0,0,1-.48-1.76c0-.77.69-1.44,2.06-2a11.2,11.2,0,0,1,4.34-.86c2.91,0,5.06.74,6.48,2.22a7.77,7.77,0,0,1,2.12,5.58v9.8a1.37,1.37,0,0,1-.72,1.16,3.18,3.18,0,0,1-1.8.48,2.63,2.63,0,0,1-1.66-.51,1.52,1.52,0,0,1-.66-1.24v-1.24c-1.84,2.24-3.87,3.35-6.08,3.35a5.15,5.15,0,0,1-3.74-1.4A5.36,5.36,0,0,1,215.67,193.31Zm5.16-.65a1.93,1.93,0,0,0,.58,1.54,2.24,2.24,0,0,0,1.54.51,3.64,3.64,0,0,0,2.48-1.13,3.42,3.42,0,0,0,1.2-2.51v-.8H226a12,12,0,0,0-3.82.48A1.85,1.85,0,0,0,220.83,192.66Z"/><path class="cls-1" d="M235.63,196.79V181a1.33,1.33,0,0,1,.7-1.16,3.38,3.38,0,0,1,1.82-.44,2.9,2.9,0,0,1,1.66.45,1.34,1.34,0,0,1,.66,1.17v1.65a6.49,6.49,0,0,1,2-2.46,4.68,4.68,0,0,1,2.92-1.05h1.24a1.69,1.69,0,0,1,1.3.69,2.4,2.4,0,0,1,.58,1.57,2.47,2.47,0,0,1-.58,1.62,1.67,1.67,0,0,1-1.3.68h-1.24a4.12,4.12,0,0,0-3.22,1.64,6.39,6.39,0,0,0-1.38,4.27v7.14c0,.4-.27.77-.8,1.12a3.37,3.37,0,0,1-1.84.51,3,3,0,0,1-1.8-.5A1.4,1.4,0,0,1,235.63,196.79Z"/><path class="cls-1" d="M250.67,192V172.85a1.32,1.32,0,0,1,.8-1.12,3.53,3.53,0,0,1,1.76-.46,3.59,3.59,0,0,1,1.82.45,1.27,1.27,0,0,1,.78,1.09v6.62h4.72a1.1,1.1,0,0,1,1,.61,2.76,2.76,0,0,1,.36,1.43,2.8,2.8,0,0,1-.36,1.44,1.08,1.08,0,0,1-1,.6h-4.72v8.34a2,2,0,0,0,.5,1.57,2.6,2.6,0,0,0,1.74.45h1.56a2.06,2.06,0,0,1,1.62.67,2.4,2.4,0,0,1,.58,1.59,2.43,2.43,0,0,1-.58,1.63,2,2,0,0,1-1.62.67h-1.56Q250.66,198.43,250.67,192Z"/><path class="cls-1" d="M264.31,172.91a2,2,0,0,1,.85-1.61,3.29,3.29,0,0,1,2.09-.67,2.89,2.89,0,0,1,1.91.67,2,2,0,0,1,0,3.21,2.8,2.8,0,0,1-1.91.68,3.18,3.18,0,0,1-2.09-.68A2,2,0,0,1,264.31,172.91Zm.48,23.88V181a1.34,1.34,0,0,1,.69-1.16,3.27,3.27,0,0,1,1.77-.44,3.39,3.39,0,0,1,1.79.44,1.34,1.34,0,0,1,.71,1.16v15.76a1.41,1.41,0,0,1-.75,1.12,3,3,0,0,1-1.75.52,2.92,2.92,0,0,1-1.75-.5A1.38,1.38,0,0,1,264.79,196.79Z"/><path class="cls-1" d="M273.11,190.59v-3.2a8.25,8.25,0,0,1,2.16-5.94c1.44-1.5,3.6-2.26,6.48-2.26a9.8,9.8,0,0,1,4.56,1c1.22.64,1.84,1.36,1.84,2.16a2.88,2.88,0,0,1-.6,1.68,1.74,1.74,0,0,1-1.44.84,5.85,5.85,0,0,1-1.42-.54,6.06,6.06,0,0,0-2.54-.54q-3.88,0-3.88,3.66v3.17c0,2.44,1.3,3.65,3.92,3.65a5.55,5.55,0,0,0,2.52-.58,5,5,0,0,1,1.48-.58,1.93,1.93,0,0,1,1.58.8,2.69,2.69,0,0,1,.62,1.64c0,.83-.65,1.58-1.94,2.26a9.92,9.92,0,0,1-4.66,1c-2.91,0-5.08-.74-6.52-2.24A8.22,8.22,0,0,1,273.11,190.59Z"/><path class="cls-1" d="M291.47,196.79V170a1.33,1.33,0,0,1,.7-1.16,3.46,3.46,0,0,1,1.86-.44,3.66,3.66,0,0,1,1.84.44,1.33,1.33,0,0,1,.76,1.16v26.84a1.41,1.41,0,0,1-.78,1.12,3.19,3.19,0,0,1-1.82.52,3.12,3.12,0,0,1-1.82-.5A1.38,1.38,0,0,1,291.47,196.79Z"/><path class="cls-1" d="M300.27,190.59v-3.4a7.42,7.42,0,0,1,2.56-5.64,8.82,8.82,0,0,1,6.2-2.36,8.5,8.5,0,0,1,5.82,2.15,7,7,0,0,1,2.42,5.41,5.5,5.5,0,0,1-.3,2,2,2,0,0,1-.92,1.09,3.86,3.86,0,0,1-1.14.39,8.47,8.47,0,0,1-1.36.08h-8.12v.6a3.4,3.4,0,0,0,1.28,2.78,5.12,5.12,0,0,0,3.4,1.06,6.48,6.48,0,0,0,3-.76,6.09,6.09,0,0,1,1.92-.76,1.68,1.68,0,0,1,1.4.78,2.62,2.62,0,0,1,.56,1.5c0,.75-.68,1.49-2,2.22a10.33,10.33,0,0,1-5,1.1,10.48,10.48,0,0,1-7-2.26A7.35,7.35,0,0,1,300.27,190.59Zm5.16-3.36h5.84a1.5,1.5,0,0,0,.9-.2,1,1,0,0,0,.26-.81,2.58,2.58,0,0,0-1-2.12,4.13,4.13,0,0,0-4.94,0,2.52,2.52,0,0,0-1,2.11Z"/><path class="cls-1" d="M319.15,195.35a2.69,2.69,0,0,1,.52-1.5,1.49,1.49,0,0,1,1.22-.78,2.42,2.42,0,0,1,1.11.4,10.91,10.91,0,0,0,1.76.83,7.45,7.45,0,0,0,2.59.41c2,0,3-.55,3-1.67a1.67,1.67,0,0,0-1-1.48,9.94,9.94,0,0,0-2.36-.89c-.92-.24-1.85-.51-2.78-.84a5.36,5.36,0,0,1-2.38-1.63,4.35,4.35,0,0,1-1-2.94,6,6,0,0,1,1.72-4.28c1.14-1.19,3-1.79,5.43-1.79a12.15,12.15,0,0,1,4.42.76c1.3.51,2,1.12,2,1.84a3.16,3.16,0,0,1-.54,1.58,1.58,1.58,0,0,1-1.34.9,7.66,7.66,0,0,1-1.74-.5,8.17,8.17,0,0,0-2.67-.5,3.46,3.46,0,0,0-2.08.55,1.53,1.53,0,0,0-.71,1.2,1.25,1.25,0,0,0,.71,1.09,6.14,6.14,0,0,0,1.79.67,21.62,21.62,0,0,1,2.27.64,15.36,15.36,0,0,1,2.25,1,4.49,4.49,0,0,1,1.75,1.69,5.26,5.26,0,0,1,.71,2.79,5.35,5.35,0,0,1-1.94,4.36,8.39,8.39,0,0,1-5.42,1.58,11.43,11.43,0,0,1-5.12-1C319.85,197.06,319.15,196.26,319.15,195.35Z"/></g></g></svg>