<svg xmlns="http://www.w3.org/2000/svg" viewBox="0 0 991.4 692"><defs><style>.cls-1{fill:#004d61;}.cls-2{fill:#ff502f;}.cls-3{fill:#5bd1d7;}</style></defs><title>Asset 8</title><g id="Layer_2" data-name="Layer 2"><g id="Layer_1-2" data-name="Layer 1"><path class="cls-1" d="M103.67,120a6.94,6.94,0,0,1-6.94-6.94V69.39a6.94,6.94,0,1,1,13.87,0v43.67A6.94,6.94,0,0,1,103.67,120Z"/><path class="cls-1" d="M122.73,120a6.94,6.94,0,0,1-6.94-6.94V69.39a6.94,6.94,0,1,1,13.88,0v43.67A6.94,6.94,0,0,1,122.73,120Z"/><path class="cls-2" d="M147.4,52.68,124.88,30a5.92,5.92,0,0,0-6.2-1.39,18.28,18.28,0,0,0-11.27,0A5.9,5.9,0,0,0,101.24,30L78.33,52.64a5.93,5.93,0,0,0,8.34,8.44l8.12-8v12a18.25,18.25,0,1,0,36.5,0V53.29L139,61a5.93,5.93,0,1,0,8.41-8.36Z"/><circle class="cls-1" cx="113.02" cy="15" r="15"/><path class="cls-1" d="M27.1,120a6.94,6.94,0,0,1-6.94-6.94V69.39a6.94,6.94,0,0,1,13.88,0v43.67A6.94,6.94,0,0,1,27.1,120Z"/><path class="cls-1" d="M46.16,120a6.94,6.94,0,0,1-6.94-6.94V69.39a6.94,6.94,0,0,1,13.88,0v43.67A6.94,6.94,0,0,1,46.16,120Z"/><path class="cls-2" d="M70.83,52.68,48.31,30a5.92,5.92,0,0,0-6.2-1.39,18.28,18.28,0,0,0-11.27,0A5.91,5.91,0,0,0,24.67,30L1.76,52.64a5.93,5.93,0,0,0,8.34,8.44l8.12-8v12a18.25,18.25,0,0,0,36.5,0V53.29L62.42,61a5.93,5.93,0,1,0,8.41-8.36Z"/><circle class="cls-1" cx="36.45" cy="15" r="15"/><path class="cls-1" d="M180.24,120a6.94,6.94,0,0,1-6.94-6.94V69.39a6.94,6.94,0,1,1,13.87,0v43.67A6.94,6.94,0,0,1,180.24,120Z"/><path class="cls-1" d="M199.3,120a6.94,6.94,0,0,1-6.94-6.94V69.39a6.94,6.94,0,1,1,13.88,0v43.67A6.94,6.94,0,0,1,199.3,120Z"/><path class="cls-2" d="M224,52.68,201.45,30a5.92,5.92,0,0,0-6.2-1.39,18.28,18.28,0,0,0-11.27,0A5.9,5.9,0,0,0,177.81,30L154.9,52.64a5.93,5.93,0,0,0,8.34,8.44l8.12-8v12a18.25,18.25,0,0,0,36.5,0V53.29l7.7,7.75A5.93,5.93,0,1,0,224,52.68Z"/><circle class="cls-1" cx="189.59" cy="15" r="15"/><path class="cls-1" d="M256.81,120a6.94,6.94,0,0,1-6.94-6.94V69.39a6.94,6.94,0,1,1,13.87,0v43.67A6.94,6.94,0,0,1,256.81,120Z"/><path class="cls-1" d="M275.87,120a6.94,6.94,0,0,1-6.94-6.94V69.39a6.94,6.94,0,0,1,13.88,0v43.67A6.94,6.94,0,0,1,275.87,120Z"/><path class="cls-2" d="M300.54,52.68,278,30a5.93,5.93,0,0,0-6.2-1.39,18.32,18.32,0,0,0-11.28,0A5.89,5.89,0,0,0,254.38,30L231.47,52.64a5.93,5.93,0,0,0,8.34,8.44l8.12-8v12a18.25,18.25,0,0,0,36.5,0V53.29l7.7,7.75a5.93,5.93,0,1,0,8.41-8.36Z"/><circle class="cls-1" cx="266.16" cy="15" r="15"/><path class="cls-1" d="M333.38,120a6.94,6.94,0,0,1-6.94-6.94V69.39a6.94,6.94,0,1,1,13.87,0v43.67A6.94,6.94,0,0,1,333.38,120Z"/><path class="cls-1" d="M352.44,120a6.94,6.94,0,0,1-6.94-6.94V69.39a6.94,6.94,0,1,1,13.88,0v43.67A6.94,6.94,0,0,1,352.44,120Z"/><path class="cls-2" d="M377.11,52.68,354.59,30a5.93,5.93,0,0,0-6.2-1.39,18.32,18.32,0,0,0-11.28,0A5.89,5.89,0,0,0,331,30L308,52.64a5.93,5.93,0,0,0,8.34,8.44l8.12-8v12a18.25,18.25,0,0,0,36.5,0V53.29L368.7,61a5.93,5.93,0,1,0,8.41-8.36Z"/><circle class="cls-1" cx="342.73" cy="15" r="15"/><path class="cls-1" d="M410,120a6.94,6.94,0,0,1-6.94-6.94V69.39a6.94,6.94,0,1,1,13.87,0v43.67A6.94,6.94,0,0,1,410,120Z"/><path class="cls-1" d="M429,120a6.94,6.94,0,0,1-6.94-6.94V69.39a6.94,6.94,0,0,1,13.88,0v43.67A6.94,6.94,0,0,1,429,120Z"/><path class="cls-2" d="M453.68,52.68,431.16,30a5.93,5.93,0,0,0-6.2-1.39,18.32,18.32,0,0,0-11.28,0A5.89,5.89,0,0,0,407.52,30L384.61,52.64A5.93,5.93,0,0,0,393,61.08l8.12-8v12a18.25,18.25,0,0,0,36.5,0V53.29l7.7,7.75a5.93,5.93,0,1,0,8.41-8.36Z"/><circle class="cls-1" cx="419.3" cy="15" r="15"/><path class="cls-1" d="M563.09,120a6.94,6.94,0,0,1-6.94-6.94V69.39a6.94,6.94,0,1,1,13.87,0v43.67A6.94,6.94,0,0,1,563.09,120Z"/><path class="cls-1" d="M582.15,120a6.94,6.94,0,0,1-6.94-6.94V69.39a6.94,6.94,0,1,1,13.87,0v43.67A6.94,6.94,0,0,1,582.15,120Z"/><path class="cls-2" d="M606.82,52.68,584.3,30a5.93,5.93,0,0,0-6.2-1.39,18.32,18.32,0,0,0-11.28,0A5.89,5.89,0,0,0,560.66,30L537.75,52.64a5.93,5.93,0,0,0,8.34,8.44l8.12-8v12a18.25,18.25,0,0,0,36.5,0V53.29l7.7,7.75a5.93,5.93,0,1,0,8.41-8.36Z"/><circle class="cls-1" cx="572.44" cy="15" r="15"/><path class="cls-1" d="M639.66,120a6.94,6.94,0,0,1-6.94-6.94V69.39a6.94,6.94,0,1,1,13.87,0v43.67A6.94,6.94,0,0,1,639.66,120Z"/><path class="cls-1" d="M658.72,120a6.94,6.94,0,0,1-6.94-6.94V69.39a6.94,6.94,0,1,1,13.87,0v43.67A6.94,6.94,0,0,1,658.72,120Z"/><path class="cls-2" d="M683.39,52.68,660.87,30a5.93,5.93,0,0,0-6.2-1.39,18.32,18.32,0,0,0-11.28,0A5.89,5.89,0,0,0,637.23,30L614.32,52.64a5.93,5.93,0,0,0,8.34,8.44l8.12-8v12a18.25,18.25,0,0,0,36.5,0V53.29L675,61a5.93,5.93,0,1,0,8.41-8.36Z"/><circle class="cls-1" cx="649.01" cy="15" r="15"/><path class="cls-1" d="M716.23,120a6.94,6.94,0,0,1-6.94-6.94V69.39a6.94,6.94,0,1,1,13.87,0v43.67A6.94,6.94,0,0,1,716.23,120Z"/><path class="cls-1" d="M735.29,120a6.94,6.94,0,0,1-6.94-6.94V69.39a6.94,6.94,0,1,1,13.87,0v43.67A6.94,6.94,0,0,1,735.29,120Z"/><path class="cls-2" d="M760,52.68,737.44,30a5.93,5.93,0,0,0-6.2-1.39,18.32,18.32,0,0,0-11.28,0A5.89,5.89,0,0,0,713.8,30L690.89,52.64a5.93,5.93,0,0,0,8.34,8.44l8.12-8v12a18.25,18.25,0,1,0,36.5,0V53.29l7.7,7.75A5.93,5.93,0,1,0,760,52.68Z"/><circle class="cls-1" cx="725.58" cy="15" r="15"/><path class="cls-1" d="M869.36,120a6.94,6.94,0,0,1-6.93-6.94V69.39a6.94,6.94,0,1,1,13.87,0v43.67A6.94,6.94,0,0,1,869.36,120Z"/><path class="cls-1" d="M888.43,120a6.94,6.94,0,0,1-6.94-6.94V69.39a6.94,6.94,0,1,1,13.87,0v43.67A6.94,6.94,0,0,1,888.43,120Z"/><path class="cls-2" d="M913.1,52.68,890.58,30a5.94,5.94,0,0,0-6.21-1.39,18.28,18.28,0,0,0-11.27,0A5.89,5.89,0,0,0,866.94,30L844,52.64a5.93,5.93,0,0,0,8.34,8.44l8.12-8v12a18.25,18.25,0,0,0,36.5,0V53.29l7.7,7.75a5.93,5.93,0,1,0,8.41-8.36Z"/><circle class="cls-1" cx="878.71" cy="15" r="15"/><path class="cls-1" d="M945.93,120a6.94,6.94,0,0,1-6.93-6.94V69.39a6.94,6.94,0,1,1,13.87,0v43.67A6.94,6.94,0,0,1,945.93,120Z"/><path class="cls-1" d="M965,120a6.94,6.94,0,0,1-6.94-6.94V69.39a6.94,6.94,0,1,1,13.87,0v43.67A6.94,6.94,0,0,1,965,120Z"/><path class="cls-2" d="M989.67,52.68,967.15,30a5.94,5.94,0,0,0-6.21-1.39,18.28,18.28,0,0,0-11.27,0A5.89,5.89,0,0,0,943.51,30L920.6,52.64a5.93,5.93,0,0,0,8.34,8.44l8.12-8v12a18.25,18.25,0,0,0,36.5,0V53.29l7.7,7.75a5.93,5.93,0,1,0,8.41-8.36Z"/><circle class="cls-1" cx="955.28" cy="15" r="15"/><path class="cls-1" d="M792.79,120a6.94,6.94,0,0,1-6.93-6.94V69.39a6.94,6.94,0,1,1,13.87,0v43.67A6.94,6.94,0,0,1,792.79,120Z"/><path class="cls-1" d="M811.86,120a6.94,6.94,0,0,1-6.94-6.94V69.39a6.94,6.94,0,1,1,13.87,0v43.67A6.94,6.94,0,0,1,811.86,120Z"/><path class="cls-2" d="M836.53,52.68,814,30a5.94,5.94,0,0,0-6.21-1.39,18.28,18.28,0,0,0-11.27,0A5.89,5.89,0,0,0,790.37,30L767.46,52.64a5.93,5.93,0,0,0,8.34,8.44l8.12-8v12a18.25,18.25,0,1,0,36.5,0V53.29l7.7,7.75a5.93,5.93,0,1,0,8.41-8.36Z"/><circle class="cls-1" cx="802.15" cy="15" r="15"/><path class="cls-1" d="M486.52,120a6.94,6.94,0,0,1-6.94-6.94V69.39a6.94,6.94,0,1,1,13.87,0v43.67A6.94,6.94,0,0,1,486.52,120Z"/><path class="cls-1" d="M505.58,120a6.94,6.94,0,0,1-6.94-6.94V69.39a6.94,6.94,0,1,1,13.88,0v43.67A6.94,6.94,0,0,1,505.58,120Z"/><path class="cls-2" d="M530.25,52.68,507.73,30a5.93,5.93,0,0,0-6.2-1.39,18.32,18.32,0,0,0-11.28,0A5.89,5.89,0,0,0,484.09,30L461.18,52.64a5.93,5.93,0,0,0,8.34,8.44l8.12-8v12a18.25,18.25,0,1,0,36.5,0V53.29l7.7,7.75a5.93,5.93,0,1,0,8.41-8.36Z"/><circle class="cls-1" cx="495.87" cy="15" r="15"/><path class="cls-1" d="M103.67,263a6.94,6.94,0,0,1-6.94-6.94V212.39a6.94,6.94,0,1,1,13.87,0v43.67A6.94,6.94,0,0,1,103.67,263Z"/><path class="cls-1" d="M122.73,263a6.94,6.94,0,0,1-6.94-6.94V212.39a6.94,6.94,0,1,1,13.88,0v43.67A6.94,6.94,0,0,1,122.73,263Z"/><path class="cls-2" d="M147.4,195.68,124.88,173a5.92,5.92,0,0,0-6.2-1.39,18.28,18.28,0,0,0-11.27,0,5.9,5.9,0,0,0-6.17,1.36L78.33,195.64a5.93,5.93,0,0,0,8.34,8.44l8.12-8v12a18.25,18.25,0,1,0,36.5,0V196.29L139,204a5.93,5.93,0,1,0,8.41-8.36Z"/><circle class="cls-1" cx="113.02" cy="158" r="15"/><path class="cls-1" d="M27.1,263a6.94,6.94,0,0,1-6.94-6.94V212.39a6.94,6.94,0,0,1,13.88,0v43.67A6.94,6.94,0,0,1,27.1,263Z"/><path class="cls-1" d="M46.16,263a6.94,6.94,0,0,1-6.94-6.94V212.39a6.94,6.94,0,0,1,13.88,0v43.67A6.94,6.94,0,0,1,46.16,263Z"/><path class="cls-2" d="M70.83,195.68,48.31,173a5.92,5.92,0,0,0-6.2-1.39,18.28,18.28,0,0,0-11.27,0A5.91,5.91,0,0,0,24.67,173L1.76,195.64a5.93,5.93,0,0,0,8.34,8.44l8.12-8v12a18.25,18.25,0,0,0,36.5,0V196.29l7.7,7.75a5.93,5.93,0,1,0,8.41-8.36Z"/><circle class="cls-1" cx="36.45" cy="158" r="15"/><path class="cls-1" d="M180.24,263a6.94,6.94,0,0,1-6.94-6.94V212.39a6.94,6.94,0,1,1,13.87,0v43.67A6.94,6.94,0,0,1,180.24,263Z"/><path class="cls-1" d="M199.3,263a6.94,6.94,0,0,1-6.94-6.94V212.39a6.94,6.94,0,0,1,13.88,0v43.67A6.94,6.94,0,0,1,199.3,263Z"/><path class="cls-2" d="M224,195.68,201.45,173a5.92,5.92,0,0,0-6.2-1.39,18.28,18.28,0,0,0-11.27,0,5.9,5.9,0,0,0-6.17,1.36L154.9,195.64a5.93,5.93,0,0,0,8.34,8.44l8.12-8v12a18.25,18.25,0,0,0,36.5,0V196.29l7.7,7.75a5.93,5.93,0,1,0,8.41-8.36Z"/><circle class="cls-1" cx="189.59" cy="158" r="15"/><path class="cls-1" d="M256.81,263a6.94,6.94,0,0,1-6.94-6.94V212.39a6.94,6.94,0,1,1,13.87,0v43.67A6.94,6.94,0,0,1,256.81,263Z"/><path class="cls-1" d="M275.87,263a6.94,6.94,0,0,1-6.94-6.94V212.39a6.94,6.94,0,0,1,13.88,0v43.67A6.94,6.94,0,0,1,275.87,263Z"/><path class="cls-2" d="M300.54,195.68,278,173a5.93,5.93,0,0,0-6.2-1.39,18.32,18.32,0,0,0-11.28,0,5.89,5.89,0,0,0-6.16,1.36l-22.91,22.66a5.93,5.93,0,0,0,8.34,8.44l8.12-8v12a18.25,18.25,0,0,0,36.5,0V196.29l7.7,7.75a5.93,5.93,0,1,0,8.41-8.36Z"/><circle class="cls-1" cx="266.16" cy="158" r="15"/><path class="cls-1" d="M333.38,263a6.94,6.94,0,0,1-6.94-6.94V212.39a6.94,6.94,0,1,1,13.87,0v43.67A6.94,6.94,0,0,1,333.38,263Z"/><path class="cls-1" d="M352.44,263a6.94,6.94,0,0,1-6.94-6.94V212.39a6.94,6.94,0,1,1,13.88,0v43.67A6.94,6.94,0,0,1,352.44,263Z"/><path class="cls-2" d="M377.11,195.68,354.59,173a5.93,5.93,0,0,0-6.2-1.39,18.32,18.32,0,0,0-11.28,0A5.89,5.89,0,0,0,331,173L308,195.64a5.93,5.93,0,0,0,8.34,8.44l8.12-8v12a18.25,18.25,0,0,0,36.5,0V196.29l7.7,7.75a5.93,5.93,0,1,0,8.41-8.36Z"/><circle class="cls-1" cx="342.73" cy="158" r="15"/><path class="cls-1" d="M410,263a6.94,6.94,0,0,1-6.94-6.94V212.39a6.94,6.94,0,1,1,13.87,0v43.67A6.94,6.94,0,0,1,410,263Z"/><path class="cls-1" d="M429,263a6.94,6.94,0,0,1-6.94-6.94V212.39a6.94,6.94,0,0,1,13.88,0v43.67A6.94,6.94,0,0,1,429,263Z"/><path class="cls-2" d="M453.68,195.68,431.16,173a5.93,5.93,0,0,0-6.2-1.39,18.32,18.32,0,0,0-11.28,0,5.89,5.89,0,0,0-6.16,1.36l-22.91,22.66a5.93,5.93,0,0,0,8.34,8.44l8.12-8v12a18.25,18.25,0,0,0,36.5,0V196.29l7.7,7.75a5.93,5.93,0,1,0,8.41-8.36Z"/><circle class="cls-1" cx="419.3" cy="158" r="15"/><path class="cls-1" d="M563.09,263a6.94,6.94,0,0,1-6.94-6.94V212.39a6.94,6.94,0,1,1,13.87,0v43.67A6.94,6.94,0,0,1,563.09,263Z"/><path class="cls-1" d="M582.15,263a6.94,6.94,0,0,1-6.94-6.94V212.39a6.94,6.94,0,1,1,13.87,0v43.67A6.94,6.94,0,0,1,582.15,263Z"/><path class="cls-2" d="M606.82,195.68,584.3,173a5.93,5.93,0,0,0-6.2-1.39,18.32,18.32,0,0,0-11.28,0,5.89,5.89,0,0,0-6.16,1.36l-22.91,22.66a5.93,5.93,0,0,0,8.34,8.44l8.12-8v12a18.25,18.25,0,0,0,36.5,0V196.29l7.7,7.75a5.93,5.93,0,1,0,8.41-8.36Z"/><circle class="cls-1" cx="572.44" cy="158" r="15"/><path class="cls-1" d="M639.66,263a6.94,6.94,0,0,1-6.94-6.94V212.39a6.94,6.94,0,1,1,13.87,0v43.67A6.94,6.94,0,0,1,639.66,263Z"/><path class="cls-1" d="M658.72,263a6.94,6.94,0,0,1-6.94-6.94V212.39a6.94,6.94,0,1,1,13.87,0v43.67A6.94,6.94,0,0,1,658.72,263Z"/><path class="cls-2" d="M683.39,195.68,660.87,173a5.93,5.93,0,0,0-6.2-1.39,18.32,18.32,0,0,0-11.28,0,5.89,5.89,0,0,0-6.16,1.36l-22.91,22.66a5.93,5.93,0,0,0,8.34,8.44l8.12-8v12a18.25,18.25,0,0,0,36.5,0V196.29L675,204a5.93,5.93,0,1,0,8.41-8.36Z"/><circle class="cls-1" cx="649.01" cy="158" r="15"/><path class="cls-1" d="M716.23,263a6.94,6.94,0,0,1-6.94-6.94V212.39a6.94,6.94,0,1,1,13.87,0v43.67A6.94,6.94,0,0,1,716.23,263Z"/><path class="cls-1" d="M735.29,263a6.94,6.94,0,0,1-6.94-6.94V212.39a6.94,6.94,0,1,1,13.87,0v43.67A6.94,6.94,0,0,1,735.29,263Z"/><path class="cls-2" d="M760,195.68,737.44,173a5.93,5.93,0,0,0-6.2-1.39,18.32,18.32,0,0,0-11.28,0A5.89,5.89,0,0,0,713.8,173l-22.91,22.66a5.93,5.93,0,0,0,8.34,8.44l8.12-8v12a18.25,18.25,0,1,0,36.5,0V196.29l7.7,7.75a5.93,5.93,0,1,0,8.41-8.36Z"/><circle class="cls-1" cx="725.58" cy="158" r="15"/><path class="cls-1" d="M869.36,263a6.94,6.94,0,0,1-6.93-6.94V212.39a6.94,6.94,0,1,1,13.87,0v43.67A6.94,6.94,0,0,1,869.36,263Z"/><path class="cls-1" d="M888.43,263a6.94,6.94,0,0,1-6.94-6.94V212.39a6.94,6.94,0,1,1,13.87,0v43.67A6.94,6.94,0,0,1,888.43,263Z"/><path class="cls-2" d="M913.1,195.68,890.58,173a5.94,5.94,0,0,0-6.21-1.39,18.28,18.28,0,0,0-11.27,0,5.89,5.89,0,0,0-6.16,1.36L844,195.64a5.93,5.93,0,0,0,8.34,8.44l8.12-8v12a18.25,18.25,0,0,0,36.5,0V196.29l7.7,7.75a5.93,5.93,0,1,0,8.41-8.36Z"/><circle class="cls-1" cx="878.71" cy="158" r="15"/><path class="cls-1" d="M945.93,263a6.94,6.94,0,0,1-6.93-6.94V212.39a6.94,6.94,0,1,1,13.87,0v43.67A6.94,6.94,0,0,1,945.93,263Z"/><path class="cls-1" d="M965,263a6.94,6.94,0,0,1-6.94-6.94V212.39a6.94,6.94,0,1,1,13.87,0v43.67A6.94,6.94,0,0,1,965,263Z"/><path class="cls-2" d="M989.67,195.68,967.15,173a5.94,5.94,0,0,0-6.21-1.39,18.28,18.28,0,0,0-11.27,0,5.89,5.89,0,0,0-6.16,1.36L920.6,195.64a5.93,5.93,0,0,0,8.34,8.44l8.12-8v12a18.25,18.25,0,0,0,36.5,0V196.29l7.7,7.75a5.93,5.93,0,1,0,8.41-8.36Z"/><circle class="cls-1" cx="955.28" cy="158" r="15"/><path class="cls-1" d="M792.79,263a6.94,6.94,0,0,1-6.93-6.94V212.39a6.94,6.94,0,1,1,13.87,0v43.67A6.94,6.94,0,0,1,792.79,263Z"/><path class="cls-1" d="M811.86,263a6.94,6.94,0,0,1-6.94-6.94V212.39a6.94,6.94,0,1,1,13.87,0v43.67A6.94,6.94,0,0,1,811.86,263Z"/><path class="cls-2" d="M836.53,195.68,814,173a5.94,5.94,0,0,0-6.21-1.39,18.28,18.28,0,0,0-11.27,0,5.89,5.89,0,0,0-6.16,1.36l-22.91,22.66a5.93,5.93,0,0,0,8.34,8.44l8.12-8v12a18.25,18.25,0,1,0,36.5,0V196.29l7.7,7.75a5.93,5.93,0,1,0,8.41-8.36Z"/><circle class="cls-1" cx="802.15" cy="158" r="15"/><path class="cls-1" d="M486.52,263a6.94,6.94,0,0,1-6.94-6.94V212.39a6.94,6.94,0,1,1,13.87,0v43.67A6.94,6.94,0,0,1,486.52,263Z"/><path class="cls-1" d="M505.58,263a6.94,6.94,0,0,1-6.94-6.94V212.39a6.94,6.94,0,1,1,13.88,0v43.67A6.94,6.94,0,0,1,505.58,263Z"/><path class="cls-2" d="M530.25,195.68,507.73,173a5.93,5.93,0,0,0-6.2-1.39,18.32,18.32,0,0,0-11.28,0,5.89,5.89,0,0,0-6.16,1.36l-22.91,22.66a5.93,5.93,0,0,0,8.34,8.44l8.12-8v12a18.25,18.25,0,1,0,36.5,0V196.29l7.7,7.75a5.93,5.93,0,1,0,8.41-8.36Z"/><circle class="cls-1" cx="495.87" cy="158" r="15"/><path class="cls-1" d="M103.67,406a6.94,6.94,0,0,1-6.94-6.94V355.39a6.94,6.94,0,1,1,13.87,0v43.67A6.94,6.94,0,0,1,103.67,406Z"/><path class="cls-1" d="M122.73,406a6.94,6.94,0,0,1-6.94-6.94V355.39a6.94,6.94,0,1,1,13.88,0v43.67A6.94,6.94,0,0,1,122.73,406Z"/><path class="cls-3" d="M147.4,338.68,124.88,316a5.92,5.92,0,0,0-6.2-1.39,18.28,18.28,0,0,0-11.27,0,5.9,5.9,0,0,0-6.17,1.36L78.33,338.64a5.93,5.93,0,0,0,8.34,8.44l8.12-8v12a18.25,18.25,0,1,0,36.5,0V339.29L139,347a5.93,5.93,0,1,0,8.41-8.36Z"/><circle class="cls-1" cx="113.02" cy="301" r="15"/><path class="cls-1" d="M27.1,406a6.94,6.94,0,0,1-6.94-6.94V355.39a6.94,6.94,0,0,1,13.88,0v43.67A6.94,6.94,0,0,1,27.1,406Z"/><path class="cls-1" d="M46.16,406a6.94,6.94,0,0,1-6.94-6.94V355.39a6.94,6.94,0,0,1,13.88,0v43.67A6.94,6.94,0,0,1,46.16,406Z"/><path class="cls-3" d="M70.83,338.68,48.31,316a5.92,5.92,0,0,0-6.2-1.39,18.28,18.28,0,0,0-11.27,0A5.91,5.91,0,0,0,24.67,316L1.76,338.64a5.93,5.93,0,0,0,8.34,8.44l8.12-8v12a18.25,18.25,0,0,0,36.5,0V339.29l7.7,7.75a5.93,5.93,0,1,0,8.41-8.36Z"/><circle class="cls-1" cx="36.45" cy="301" r="15"/><path class="cls-1" d="M180.24,406a6.94,6.94,0,0,1-6.94-6.94V355.39a6.94,6.94,0,1,1,13.87,0v43.67A6.94,6.94,0,0,1,180.24,406Z"/><path class="cls-1" d="M199.3,406a6.94,6.94,0,0,1-6.94-6.94V355.39a6.94,6.94,0,1,1,13.88,0v43.67A6.94,6.94,0,0,1,199.3,406Z"/><path class="cls-3" d="M224,338.68,201.45,316a5.92,5.92,0,0,0-6.2-1.39,18.28,18.28,0,0,0-11.27,0,5.9,5.9,0,0,0-6.17,1.36L154.9,338.64a5.93,5.93,0,0,0,8.34,8.44l8.12-8v12a18.25,18.25,0,1,0,36.5,0V339.29l7.7,7.75a5.93,5.93,0,1,0,8.41-8.36Z"/><circle class="cls-1" cx="189.59" cy="301" r="15"/><path class="cls-1" d="M256.81,406a6.94,6.94,0,0,1-6.94-6.94V355.39a6.94,6.94,0,1,1,13.87,0v43.67A6.94,6.94,0,0,1,256.81,406Z"/><path class="cls-1" d="M275.87,406a6.94,6.94,0,0,1-6.94-6.94V355.39a6.94,6.94,0,0,1,13.88,0v43.67A6.94,6.94,0,0,1,275.87,406Z"/><path class="cls-3" d="M300.54,338.68,278,316a5.93,5.93,0,0,0-6.2-1.39,18.32,18.32,0,0,0-11.28,0,5.89,5.89,0,0,0-6.16,1.36l-22.91,22.66a5.93,5.93,0,0,0,8.34,8.44l8.12-8v12a18.25,18.25,0,0,0,36.5,0V339.29l7.7,7.75a5.93,5.93,0,1,0,8.41-8.36Z"/><circle class="cls-1" cx="266.16" cy="301" r="15"/><path class="cls-1" d="M333.38,406a6.94,6.94,0,0,1-6.94-6.94V355.39a6.94,6.94,0,1,1,13.87,0v43.67A6.94,6.94,0,0,1,333.38,406Z"/><path class="cls-1" d="M352.44,406a6.94,6.94,0,0,1-6.94-6.94V355.39a6.94,6.94,0,1,1,13.88,0v43.67A6.94,6.94,0,0,1,352.44,406Z"/><path class="cls-3" d="M377.11,338.68,354.59,316a5.93,5.93,0,0,0-6.2-1.39,18.32,18.32,0,0,0-11.28,0A5.89,5.89,0,0,0,331,316L308,338.64a5.93,5.93,0,0,0,8.34,8.44l8.12-8v12a18.25,18.25,0,0,0,36.5,0V339.29l7.7,7.75a5.93,5.93,0,1,0,8.41-8.36Z"/><circle class="cls-1" cx="342.73" cy="301" r="15"/><path class="cls-1" d="M410,406a6.94,6.94,0,0,1-6.94-6.94V355.39a6.94,6.94,0,1,1,13.87,0v43.67A6.94,6.94,0,0,1,410,406Z"/><path class="cls-1" d="M429,406a6.94,6.94,0,0,1-6.94-6.94V355.39a6.94,6.94,0,0,1,13.88,0v43.67A6.94,6.94,0,0,1,429,406Z"/><path class="cls-3" d="M453.68,338.68,431.16,316a5.93,5.93,0,0,0-6.2-1.39,18.32,18.32,0,0,0-11.28,0,5.89,5.89,0,0,0-6.16,1.36l-22.91,22.66a5.93,5.93,0,0,0,8.34,8.44l8.12-8v12a18.25,18.25,0,0,0,36.5,0V339.29l7.7,7.75a5.93,5.93,0,1,0,8.41-8.36Z"/><circle class="cls-1" cx="419.3" cy="301" r="15"/><path class="cls-1" d="M563.09,406a6.94,6.94,0,0,1-6.94-6.94V355.39a6.94,6.94,0,1,1,13.87,0v43.67A6.94,6.94,0,0,1,563.09,406Z"/><path class="cls-1" d="M582.15,406a6.94,6.94,0,0,1-6.94-6.94V355.39a6.94,6.94,0,1,1,13.87,0v43.67A6.94,6.94,0,0,1,582.15,406Z"/><path class="cls-3" d="M606.82,338.68,584.3,316a5.93,5.93,0,0,0-6.2-1.39,18.32,18.32,0,0,0-11.28,0,5.89,5.89,0,0,0-6.16,1.36l-22.91,22.66a5.93,5.93,0,0,0,8.34,8.44l8.12-8v12a18.25,18.25,0,0,0,36.5,0V339.29l7.7,7.75a5.93,5.93,0,1,0,8.41-8.36Z"/><circle class="cls-1" cx="572.44" cy="301" r="15"/><path class="cls-1" d="M639.66,406a6.94,6.94,0,0,1-6.94-6.94V355.39a6.94,6.94,0,1,1,13.87,0v43.67A6.94,6.94,0,0,1,639.66,406Z"/><path class="cls-1" d="M658.72,406a6.94,6.94,0,0,1-6.94-6.94V355.39a6.94,6.94,0,1,1,13.87,0v43.67A6.94,6.94,0,0,1,658.72,406Z"/><path class="cls-3" d="M683.39,338.68,660.87,316a5.93,5.93,0,0,0-6.2-1.39,18.32,18.32,0,0,0-11.28,0,5.89,5.89,0,0,0-6.16,1.36l-22.91,22.66a5.93,5.93,0,0,0,8.34,8.44l8.12-8v12a18.25,18.25,0,0,0,36.5,0V339.29L675,347a5.93,5.93,0,1,0,8.41-8.36Z"/><circle class="cls-1" cx="649.01" cy="301" r="15"/><path class="cls-1" d="M716.23,406a6.94,6.94,0,0,1-6.94-6.94V355.39a6.94,6.94,0,1,1,13.87,0v43.67A6.94,6.94,0,0,1,716.23,406Z"/><path class="cls-1" d="M735.29,406a6.94,6.94,0,0,1-6.94-6.94V355.39a6.94,6.94,0,1,1,13.87,0v43.67A6.94,6.94,0,0,1,735.29,406Z"/><path class="cls-3" d="M760,338.68,737.44,316a5.93,5.93,0,0,0-6.2-1.39,18.32,18.32,0,0,0-11.28,0A5.89,5.89,0,0,0,713.8,316l-22.91,22.66a5.93,5.93,0,0,0,8.34,8.44l8.12-8v12a18.25,18.25,0,1,0,36.5,0V339.29l7.7,7.75a5.93,5.93,0,1,0,8.41-8.36Z"/><circle class="cls-1" cx="725.58" cy="301" r="15"/><path class="cls-1" d="M869.36,406a6.94,6.94,0,0,1-6.93-6.94V355.39a6.94,6.94,0,1,1,13.87,0v43.67A6.94,6.94,0,0,1,869.36,406Z"/><path class="cls-1" d="M888.43,406a6.94,6.94,0,0,1-6.94-6.94V355.39a6.94,6.94,0,1,1,13.87,0v43.67A6.94,6.94,0,0,1,888.43,406Z"/><path class="cls-3" d="M913.1,338.68,890.58,316a5.94,5.94,0,0,0-6.21-1.39,18.28,18.28,0,0,0-11.27,0,5.89,5.89,0,0,0-6.16,1.36L844,338.64a5.93,5.93,0,0,0,8.34,8.44l8.12-8v12a18.25,18.25,0,0,0,36.5,0V339.29l7.7,7.75a5.93,5.93,0,1,0,8.41-8.36Z"/><circle class="cls-1" cx="878.71" cy="301" r="15"/><path class="cls-1" d="M945.93,406a6.94,6.94,0,0,1-6.93-6.94V355.39a6.94,6.94,0,1,1,13.87,0v43.67A6.94,6.94,0,0,1,945.93,406Z"/><path class="cls-1" d="M965,406a6.94,6.94,0,0,1-6.94-6.94V355.39a6.94,6.94,0,1,1,13.87,0v43.67A6.94,6.94,0,0,1,965,406Z"/><path class="cls-3" d="M989.67,338.68,967.15,316a5.94,5.94,0,0,0-6.21-1.39,18.28,18.28,0,0,0-11.27,0,5.89,5.89,0,0,0-6.16,1.36L920.6,338.64a5.93,5.93,0,0,0,8.34,8.44l8.12-8v12a18.25,18.25,0,0,0,36.5,0V339.29l7.7,7.75a5.93,5.93,0,1,0,8.41-8.36Z"/><circle class="cls-1" cx="955.28" cy="301" r="15"/><path class="cls-1" d="M792.79,406a6.94,6.94,0,0,1-6.93-6.94V355.39a6.94,6.94,0,1,1,13.87,0v43.67A6.94,6.94,0,0,1,792.79,406Z"/><path class="cls-1" d="M811.86,406a6.94,6.94,0,0,1-6.94-6.94V355.39a6.94,6.94,0,1,1,13.87,0v43.67A6.94,6.94,0,0,1,811.86,406Z"/><path class="cls-3" d="M836.53,338.68,814,316a5.94,5.94,0,0,0-6.21-1.39,18.28,18.28,0,0,0-11.27,0,5.89,5.89,0,0,0-6.16,1.36l-22.91,22.66a5.93,5.93,0,0,0,8.34,8.44l8.12-8v12a18.25,18.25,0,1,0,36.5,0V339.29l7.7,7.75a5.93,5.93,0,1,0,8.41-8.36Z"/><circle class="cls-1" cx="802.15" cy="301" r="15"/><path class="cls-1" d="M486.52,406a6.94,6.94,0,0,1-6.94-6.94V355.39a6.94,6.94,0,1,1,13.87,0v43.67A6.94,6.94,0,0,1,486.52,406Z"/><path class="cls-1" d="M505.58,406a6.94,6.94,0,0,1-6.94-6.94V355.39a6.94,6.94,0,1,1,13.88,0v43.67A6.94,6.94,0,0,1,505.58,406Z"/><path class="cls-3" d="M530.25,338.68,507.73,316a5.93,5.93,0,0,0-6.2-1.39,18.32,18.32,0,0,0-11.28,0,5.89,5.89,0,0,0-6.16,1.36l-22.91,22.66a5.93,5.93,0,0,0,8.34,8.44l8.12-8v12a18.25,18.25,0,1,0,36.5,0V339.29l7.7,7.75a5.93,5.93,0,1,0,8.41-8.36Z"/><circle class="cls-1" cx="495.87" cy="301" r="15"/><path class="cls-1" d="M103.67,549a6.94,6.94,0,0,1-6.94-6.94V498.39a6.94,6.94,0,1,1,13.87,0v43.67A6.94,6.94,0,0,1,103.67,549Z"/><path class="cls-1" d="M122.73,549a6.94,6.94,0,0,1-6.94-6.94V498.39a6.94,6.94,0,1,1,13.88,0v43.67A6.94,6.94,0,0,1,122.73,549Z"/><path class="cls-3" d="M147.4,481.68,124.88,459a5.92,5.92,0,0,0-6.2-1.39,18.28,18.28,0,0,0-11.27,0,5.9,5.9,0,0,0-6.17,1.36L78.33,481.64a5.93,5.93,0,0,0,8.34,8.44l8.12-8v12a18.25,18.25,0,0,0,36.5,0V482.29L139,490a5.93,5.93,0,1,0,8.41-8.36Z"/><circle class="cls-1" cx="113.02" cy="444" r="15"/><path class="cls-1" d="M27.1,549a6.94,6.94,0,0,1-6.94-6.94V498.39a6.94,6.94,0,0,1,13.88,0v43.67A6.94,6.94,0,0,1,27.1,549Z"/><path class="cls-1" d="M46.16,549a6.94,6.94,0,0,1-6.94-6.94V498.39a6.94,6.94,0,0,1,13.88,0v43.67A6.94,6.94,0,0,1,46.16,549Z"/><path class="cls-3" d="M70.83,481.68,48.31,459a5.92,5.92,0,0,0-6.2-1.39,18.28,18.28,0,0,0-11.27,0A5.91,5.91,0,0,0,24.67,459L1.76,481.64a5.93,5.93,0,0,0,8.34,8.44l8.12-8v12a18.25,18.25,0,0,0,36.5,0V482.29l7.7,7.75a5.93,5.93,0,1,0,8.41-8.36Z"/><circle class="cls-1" cx="36.45" cy="444" r="15"/><path class="cls-1" d="M180.24,549a6.94,6.94,0,0,1-6.94-6.94V498.39a6.94,6.94,0,1,1,13.87,0v43.67A6.94,6.94,0,0,1,180.24,549Z"/><path class="cls-1" d="M199.3,549a6.94,6.94,0,0,1-6.94-6.94V498.39a6.94,6.94,0,1,1,13.88,0v43.67A6.94,6.94,0,0,1,199.3,549Z"/><path class="cls-3" d="M224,481.68,201.45,459a5.92,5.92,0,0,0-6.2-1.39,18.28,18.28,0,0,0-11.27,0,5.9,5.9,0,0,0-6.17,1.36L154.9,481.64a5.93,5.93,0,0,0,8.34,8.44l8.12-8v12a18.25,18.25,0,0,0,36.5,0V482.29l7.7,7.75a5.93,5.93,0,1,0,8.41-8.36Z"/><circle class="cls-1" cx="189.59" cy="444" r="15"/><path class="cls-1" d="M256.81,549a6.94,6.94,0,0,1-6.94-6.94V498.39a6.94,6.94,0,1,1,13.87,0v43.67A6.94,6.94,0,0,1,256.81,549Z"/><path class="cls-1" d="M275.87,549a6.94,6.94,0,0,1-6.94-6.94V498.39a6.94,6.94,0,0,1,13.88,0v43.67A6.94,6.94,0,0,1,275.87,549Z"/><path class="cls-3" d="M300.54,481.68,278,459a5.93,5.93,0,0,0-6.2-1.39,18.32,18.32,0,0,0-11.28,0,5.89,5.89,0,0,0-6.16,1.36l-22.91,22.66a5.93,5.93,0,0,0,8.34,8.44l8.12-8v12a18.25,18.25,0,0,0,36.5,0V482.29l7.7,7.75a5.93,5.93,0,1,0,8.41-8.36Z"/><circle class="cls-1" cx="266.16" cy="444" r="15"/><path class="cls-1" d="M333.38,549a6.94,6.94,0,0,1-6.94-6.94V498.39a6.94,6.94,0,1,1,13.87,0v43.67A6.94,6.94,0,0,1,333.38,549Z"/><path class="cls-1" d="M352.44,549a6.94,6.94,0,0,1-6.94-6.94V498.39a6.94,6.94,0,1,1,13.88,0v43.67A6.94,6.94,0,0,1,352.44,549Z"/><path class="cls-3" d="M377.11,481.68,354.59,459a5.93,5.93,0,0,0-6.2-1.39,18.32,18.32,0,0,0-11.28,0A5.89,5.89,0,0,0,331,459L308,481.64a5.93,5.93,0,0,0,8.34,8.44l8.12-8v12a18.25,18.25,0,0,0,36.5,0V482.29l7.7,7.75a5.93,5.93,0,1,0,8.41-8.36Z"/><circle class="cls-1" cx="342.73" cy="444" r="15"/><path class="cls-1" d="M410,549a6.94,6.94,0,0,1-6.94-6.94V498.39a6.94,6.94,0,1,1,13.87,0v43.67A6.94,6.94,0,0,1,410,549Z"/><path class="cls-1" d="M429,549a6.94,6.94,0,0,1-6.94-6.94V498.39a6.94,6.94,0,0,1,13.88,0v43.67A6.94,6.94,0,0,1,429,549Z"/><path class="cls-3" d="M453.68,481.68,431.16,459a5.93,5.93,0,0,0-6.2-1.39,18.32,18.32,0,0,0-11.28,0,5.89,5.89,0,0,0-6.16,1.36l-22.91,22.66a5.93,5.93,0,0,0,8.34,8.44l8.12-8v12a18.25,18.25,0,0,0,36.5,0V482.29l7.7,7.75a5.93,5.93,0,1,0,8.41-8.36Z"/><circle class="cls-1" cx="419.3" cy="444" r="15"/><path class="cls-1" d="M563.09,549a6.94,6.94,0,0,1-6.94-6.94V498.39a6.94,6.94,0,1,1,13.87,0v43.67A6.94,6.94,0,0,1,563.09,549Z"/><path class="cls-1" d="M582.15,549a6.94,6.94,0,0,1-6.94-6.94V498.39a6.94,6.94,0,1,1,13.87,0v43.67A6.94,6.94,0,0,1,582.15,549Z"/><path class="cls-3" d="M606.82,481.68,584.3,459a5.93,5.93,0,0,0-6.2-1.39,18.32,18.32,0,0,0-11.28,0,5.89,5.89,0,0,0-6.16,1.36l-22.91,22.66a5.93,5.93,0,0,0,8.34,8.44l8.12-8v12a18.25,18.25,0,0,0,36.5,0V482.29l7.7,7.75a5.93,5.93,0,1,0,8.41-8.36Z"/><circle class="cls-1" cx="572.44" cy="444" r="15"/><path class="cls-1" d="M639.66,549a6.94,6.94,0,0,1-6.94-6.94V498.39a6.94,6.94,0,1,1,13.87,0v43.67A6.94,6.94,0,0,1,639.66,549Z"/><path class="cls-1" d="M658.72,549a6.94,6.94,0,0,1-6.94-6.94V498.39a6.94,6.94,0,1,1,13.87,0v43.67A6.94,6.94,0,0,1,658.72,549Z"/><path class="cls-3" d="M683.39,481.68,660.87,459a5.93,5.93,0,0,0-6.2-1.39,18.32,18.32,0,0,0-11.28,0,5.89,5.89,0,0,0-6.16,1.36l-22.91,22.66a5.93,5.93,0,0,0,8.34,8.44l8.12-8v12a18.25,18.25,0,0,0,36.5,0V482.29L675,490a5.93,5.93,0,1,0,8.41-8.36Z"/><circle class="cls-1" cx="649.01" cy="444" r="15"/><path class="cls-1" d="M716.23,549a6.94,6.94,0,0,1-6.94-6.94V498.39a6.94,6.94,0,1,1,13.87,0v43.67A6.94,6.94,0,0,1,716.23,549Z"/><path class="cls-1" d="M735.29,549a6.94,6.94,0,0,1-6.94-6.94V498.39a6.94,6.94,0,1,1,13.87,0v43.67A6.94,6.94,0,0,1,735.29,549Z"/><path class="cls-3" d="M760,481.68,737.44,459a5.93,5.93,0,0,0-6.2-1.39,18.32,18.32,0,0,0-11.28,0A5.89,5.89,0,0,0,713.8,459l-22.91,22.66a5.93,5.93,0,0,0,8.34,8.44l8.12-8v12a18.25,18.25,0,0,0,36.5,0V482.29l7.7,7.75a5.93,5.93,0,1,0,8.41-8.36Z"/><circle class="cls-1" cx="725.58" cy="444" r="15"/><path class="cls-1" d="M869.36,549a6.94,6.94,0,0,1-6.93-6.94V498.39a6.94,6.94,0,1,1,13.87,0v43.67A6.94,6.94,0,0,1,869.36,549Z"/><path class="cls-1" d="M888.43,549a6.94,6.94,0,0,1-6.94-6.94V498.39a6.94,6.94,0,1,1,13.87,0v43.67A6.94,6.94,0,0,1,888.43,549Z"/><path class="cls-3" d="M913.1,481.68,890.58,459a5.94,5.94,0,0,0-6.21-1.39,18.28,18.28,0,0,0-11.27,0,5.89,5.89,0,0,0-6.16,1.36L844,481.64a5.93,5.93,0,0,0,8.34,8.44l8.12-8v12a18.25,18.25,0,0,0,36.5,0V482.29l7.7,7.75a5.93,5.93,0,1,0,8.41-8.36Z"/><circle class="cls-1" cx="878.71" cy="444" r="15"/><path class="cls-1" d="M945.93,549a6.94,6.94,0,0,1-6.93-6.94V498.39a6.94,6.94,0,1,1,13.87,0v43.67A6.94,6.94,0,0,1,945.93,549Z"/><path class="cls-1" d="M965,549a6.94,6.94,0,0,1-6.94-6.94V498.39a6.94,6.94,0,1,1,13.87,0v43.67A6.94,6.94,0,0,1,965,549Z"/><path class="cls-3" d="M989.67,481.68,967.15,459a5.94,5.94,0,0,0-6.21-1.39,18.28,18.28,0,0,0-11.27,0,5.89,5.89,0,0,0-6.16,1.36L920.6,481.64a5.93,5.93,0,0,0,8.34,8.44l8.12-8v12a18.25,18.25,0,0,0,36.5,0V482.29l7.7,7.75a5.93,5.93,0,1,0,8.41-8.36Z"/><circle class="cls-1" cx="955.28" cy="444" r="15"/><path class="cls-1" d="M792.79,549a6.94,6.94,0,0,1-6.93-6.94V498.39a6.94,6.94,0,1,1,13.87,0v43.67A6.94,6.94,0,0,1,792.79,549Z"/><path class="cls-1" d="M811.86,549a6.94,6.94,0,0,1-6.94-6.94V498.39a6.94,6.94,0,1,1,13.87,0v43.67A6.94,6.94,0,0,1,811.86,549Z"/><path class="cls-3" d="M836.53,481.68,814,459a5.94,5.94,0,0,0-6.21-1.39,18.28,18.28,0,0,0-11.27,0,5.89,5.89,0,0,0-6.16,1.36l-22.91,22.66a5.93,5.93,0,0,0,8.34,8.44l8.12-8v12a18.25,18.25,0,0,0,36.5,0V482.29l7.7,7.75a5.93,5.93,0,1,0,8.41-8.36Z"/><circle class="cls-1" cx="802.15" cy="444" r="15"/><path class="cls-1" d="M486.52,549a6.94,6.94,0,0,1-6.94-6.94V498.39a6.94,6.94,0,1,1,13.87,0v43.67A6.94,6.94,0,0,1,486.52,549Z"/><path class="cls-1" d="M505.58,549a6.94,6.94,0,0,1-6.94-6.94V498.39a6.94,6.94,0,1,1,13.88,0v43.67A6.94,6.94,0,0,1,505.58,549Z"/><path class="cls-3" d="M530.25,481.68,507.73,459a5.93,5.93,0,0,0-6.2-1.39,18.32,18.32,0,0,0-11.28,0,5.89,5.89,0,0,0-6.16,1.36l-22.91,22.66a5.93,5.93,0,0,0,8.34,8.44l8.12-8v12a18.25,18.25,0,1,0,36.5,0V482.29l7.7,7.75a5.93,5.93,0,1,0,8.41-8.36Z"/><circle class="cls-1" cx="495.87" cy="444" r="15"/><path class="cls-1" d="M103.67,692a6.94,6.94,0,0,1-6.94-6.94V641.39a6.94,6.94,0,1,1,13.87,0v43.67A6.94,6.94,0,0,1,103.67,692Z"/><path class="cls-1" d="M122.73,692a6.94,6.94,0,0,1-6.94-6.94V641.39a6.94,6.94,0,1,1,13.88,0v43.67A6.94,6.94,0,0,1,122.73,692Z"/><path class="cls-3" d="M147.4,624.68,124.88,602a5.92,5.92,0,0,0-6.2-1.39,18.28,18.28,0,0,0-11.27,0,5.9,5.9,0,0,0-6.17,1.36L78.33,624.64a5.93,5.93,0,0,0,8.34,8.44l8.12-8v12a18.25,18.25,0,0,0,36.5,0V625.29L139,633a5.93,5.93,0,1,0,8.41-8.36Z"/><circle class="cls-1" cx="113.02" cy="587" r="15"/><path class="cls-1" d="M27.1,692a6.94,6.94,0,0,1-6.94-6.94V641.39a6.94,6.94,0,0,1,13.88,0v43.67A6.94,6.94,0,0,1,27.1,692Z"/><path class="cls-1" d="M46.16,692a6.94,6.94,0,0,1-6.94-6.94V641.39a6.94,6.94,0,0,1,13.88,0v43.67A6.94,6.94,0,0,1,46.16,692Z"/><path class="cls-3" d="M70.83,624.68,48.31,602a5.92,5.92,0,0,0-6.2-1.39,18.28,18.28,0,0,0-11.27,0A5.91,5.91,0,0,0,24.67,602L1.76,624.64a5.93,5.93,0,0,0,8.34,8.44l8.12-8v12a18.25,18.25,0,0,0,36.5,0V625.29l7.7,7.75a5.93,5.93,0,1,0,8.41-8.36Z"/><circle class="cls-1" cx="36.45" cy="587" r="15"/><path class="cls-1" d="M180.24,692a6.94,6.94,0,0,1-6.94-6.94V641.39a6.94,6.94,0,1,1,13.87,0v43.67A6.94,6.94,0,0,1,180.24,692Z"/><path class="cls-1" d="M199.3,692a6.94,6.94,0,0,1-6.94-6.94V641.39a6.94,6.94,0,0,1,13.88,0v43.67A6.94,6.94,0,0,1,199.3,692Z"/><path class="cls-3" d="M224,624.68,201.45,602a5.92,5.92,0,0,0-6.2-1.39,18.28,18.28,0,0,0-11.27,0,5.9,5.9,0,0,0-6.17,1.36L154.9,624.64a5.93,5.93,0,0,0,8.34,8.44l8.12-8v12a18.25,18.25,0,0,0,36.5,0V625.29l7.7,7.75a5.93,5.93,0,1,0,8.41-8.36Z"/><circle class="cls-1" cx="189.59" cy="587" r="15"/><path class="cls-1" d="M256.81,692a6.94,6.94,0,0,1-6.94-6.94V641.39a6.94,6.94,0,1,1,13.87,0v43.67A6.94,6.94,0,0,1,256.81,692Z"/><path class="cls-1" d="M275.87,692a6.94,6.94,0,0,1-6.94-6.94V641.39a6.94,6.94,0,0,1,13.88,0v43.67A6.94,6.94,0,0,1,275.87,692Z"/><path class="cls-3" d="M300.54,624.68,278,602a5.93,5.93,0,0,0-6.2-1.39,18.32,18.32,0,0,0-11.28,0,5.89,5.89,0,0,0-6.16,1.36l-22.91,22.66a5.93,5.93,0,0,0,8.34,8.44l8.12-8v12a18.25,18.25,0,0,0,36.5,0V625.29l7.7,7.75a5.93,5.93,0,1,0,8.41-8.36Z"/><circle class="cls-1" cx="266.16" cy="587" r="15"/><path class="cls-1" d="M333.38,692a6.94,6.94,0,0,1-6.94-6.94V641.39a6.94,6.94,0,1,1,13.87,0v43.67A6.94,6.94,0,0,1,333.38,692Z"/><path class="cls-1" d="M352.44,692a6.94,6.94,0,0,1-6.94-6.94V641.39a6.94,6.94,0,0,1,13.88,0v43.67A6.94,6.94,0,0,1,352.44,692Z"/><path class="cls-3" d="M377.11,624.68,354.59,602a5.93,5.93,0,0,0-6.2-1.39,18.32,18.32,0,0,0-11.28,0A5.89,5.89,0,0,0,331,602L308,624.64a5.93,5.93,0,0,0,8.34,8.44l8.12-8v12a18.25,18.25,0,0,0,36.5,0V625.29l7.7,7.75a5.93,5.93,0,1,0,8.41-8.36Z"/><circle class="cls-1" cx="342.73" cy="587" r="15"/><path class="cls-1" d="M410,692a6.94,6.94,0,0,1-6.94-6.94V641.39a6.94,6.94,0,1,1,13.87,0v43.67A6.94,6.94,0,0,1,410,692Z"/><path class="cls-1" d="M429,692a6.94,6.94,0,0,1-6.94-6.94V641.39a6.94,6.94,0,0,1,13.88,0v43.67A6.94,6.94,0,0,1,429,692Z"/><path class="cls-3" d="M453.68,624.68,431.16,602a5.93,5.93,0,0,0-6.2-1.39,18.32,18.32,0,0,0-11.28,0,5.89,5.89,0,0,0-6.16,1.36l-22.91,22.66a5.93,5.93,0,0,0,8.34,8.44l8.12-8v12a18.25,18.25,0,0,0,36.5,0V625.29l7.7,7.75a5.93,5.93,0,1,0,8.41-8.36Z"/><circle class="cls-1" cx="419.3" cy="587" r="15"/><path class="cls-1" d="M563.09,692a6.94,6.94,0,0,1-6.94-6.94V641.39a6.94,6.94,0,1,1,13.87,0v43.67A6.94,6.94,0,0,1,563.09,692Z"/><path class="cls-1" d="M582.15,692a6.94,6.94,0,0,1-6.94-6.94V641.39a6.94,6.94,0,1,1,13.87,0v43.67A6.94,6.94,0,0,1,582.15,692Z"/><path class="cls-3" d="M606.82,624.68,584.3,602a5.93,5.93,0,0,0-6.2-1.39,18.32,18.32,0,0,0-11.28,0,5.89,5.89,0,0,0-6.16,1.36l-22.91,22.66a5.93,5.93,0,0,0,8.34,8.44l8.12-8v12a18.25,18.25,0,0,0,36.5,0V625.29l7.7,7.75a5.93,5.93,0,1,0,8.41-8.36Z"/><circle class="cls-1" cx="572.44" cy="587" r="15"/><path class="cls-1" d="M486.52,692a6.94,6.94,0,0,1-6.94-6.94V641.39a6.94,6.94,0,1,1,13.87,0v43.67A6.94,6.94,0,0,1,486.52,692Z"/><path class="cls-1" d="M505.58,692a6.94,6.94,0,0,1-6.94-6.94V641.39a6.94,6.94,0,0,1,13.88,0v43.67A6.94,6.94,0,0,1,505.58,692Z"/><path class="cls-3" d="M530.25,624.68,507.73,602a5.93,5.93,0,0,0-6.2-1.39,18.32,18.32,0,0,0-11.28,0,5.89,5.89,0,0,0-6.16,1.36l-22.91,22.66a5.93,5.93,0,0,0,8.34,8.44l8.12-8v12a18.25,18.25,0,0,0,36.5,0V625.29l7.7,7.75a5.93,5.93,0,1,0,8.41-8.36Z"/><circle class="cls-1" cx="495.87" cy="587" r="15"/></g></g></svg>