<svg xmlns="http://www.w3.org/2000/svg" viewBox="0 0 368 531.97"><defs><style>.cls-1{fill:#5bd1d7;}.cls-2{fill:#ff502f;}.cls-3{fill:#024152;}.cls-4,.cls-6{fill:#fff;}.cls-4{stroke:#024152;stroke-miterlimit:10;stroke-width:2px;opacity:0.8;}.cls-5{fill:#2e3d38;}</style></defs><title>Asset 8</title><g id="Layer_2" data-name="Layer 2"><g id="Layer_1-2" data-name="Layer 1"><path class="cls-1" d="M33.53,432l35,28.48,35-28.48A36.73,36.73,0,0,0,117,403.51V97A35,35,0,0,0,82,62H55A35,35,0,0,0,20,97V403.51A36.73,36.73,0,0,0,33.53,432Z"/><path class="cls-2" d="M150.28,432.49l35,28.48,35-28.48A36.73,36.73,0,0,0,233.75,404V97.47a35,35,0,0,0-35-35h-27a35,35,0,0,0-35,35V404A36.73,36.73,0,0,0,150.28,432.49Z"/><path class="cls-3" d="M267,432.49,302,461l35-28.48A36.73,36.73,0,0,0,350.5,404V97.47a35,35,0,0,0-35-35h-27a35,35,0,0,0-35,35V404A36.73,36.73,0,0,0,267,432.49Z"/><rect class="cls-4" x="1" y="119.97" width="366" height="61" rx="30.5"/><rect class="cls-4" x="1" y="195.63" width="366" height="61" rx="30.5"/><rect class="cls-4" x="1" y="271.3" width="366" height="61" rx="30.5"/><rect class="cls-4" x="1" y="346.97" width="366" height="61" rx="30.5"/><rect class="cls-5" x="1" y="470.97" width="366" height="61" rx="30.5"/><path d="M10.16,35.5V2.35a1.63,1.63,0,0,1,1-1.53A4.93,4.93,0,0,1,13.47.31a5,5,0,0,1,2.35.51,1.65,1.65,0,0,1,1,1.53V15.66H28.26V2.35a1.63,1.63,0,0,1,1-1.53A5,5,0,0,1,31.58.31a4.93,4.93,0,0,1,2.34.51,1.63,1.63,0,0,1,1,1.53V35.5a1.72,1.72,0,0,1-1,1.53,5.15,5.15,0,0,1-4.67,0,1.71,1.71,0,0,1-1-1.53V20.86H16.79V35.5a1.71,1.71,0,0,1-1,1.53,4.66,4.66,0,0,1-2.32.56A4.61,4.61,0,0,1,11.13,37,1.71,1.71,0,0,1,10.16,35.5Z"/><path d="M40.86,26.21V2.35a1.63,1.63,0,0,1,1-1.53,5.65,5.65,0,0,1,4.69,0,1.63,1.63,0,0,1,1,1.53V26.21q0,5.87,5.61,5.87t5.61-5.87V2.35a1.63,1.63,0,0,1,1-1.53,5.65,5.65,0,0,1,4.69,0,1.63,1.63,0,0,1,1,1.53V26.21c0,4-1.11,7-3.34,8.85a13.31,13.31,0,0,1-8.9,2.83c-3.71,0-6.67-.93-8.9-2.8S40.86,30.26,40.86,26.21Z"/><path d="M71.31,35.5V3.62a3.14,3.14,0,0,1,.94-2.5A3.51,3.51,0,0,1,74.62.31,5.36,5.36,0,0,1,77.53,1a8.08,8.08,0,0,1,2.24,2.86L86,15.25,92.32,3.83A7.87,7.87,0,0,1,94.59,1,5.46,5.46,0,0,1,97.52.31a3.51,3.51,0,0,1,2.37.81,3.14,3.14,0,0,1,.94,2.5V35.5a1.72,1.72,0,0,1-1,1.53,5.15,5.15,0,0,1-4.67,0,1.72,1.72,0,0,1-1-1.53V13.57l-6,10.6A2.38,2.38,0,0,1,86,25.5a2.34,2.34,0,0,1-2.19-1.33l-5.86-11V35.5a1.73,1.73,0,0,1-1,1.53,4.69,4.69,0,0,1-2.32.56A4.61,4.61,0,0,1,72.28,37,1.71,1.71,0,0,1,71.31,35.5Z"/><path d="M103.57,34.64a3.16,3.16,0,0,1,.1-.54L113.52,2A2.52,2.52,0,0,1,115,.53,6.67,6.67,0,0,1,117.75,0a6.35,6.35,0,0,1,2.76.59A2.68,2.68,0,0,1,122,2.24l9.84,32.08a2.71,2.71,0,0,1,.1.51,2.31,2.31,0,0,1-1.37,1.94,5.42,5.42,0,0,1-2.81.82c-1.26,0-2-.44-2.24-1.33l-1.94-6.78H112.69l-1.9,6.78c-.27.89-1.11,1.33-2.53,1.33a6.37,6.37,0,0,1-3.18-.85A2.43,2.43,0,0,1,103.57,34.64Zm10.58-10.36H123L118.53,8.62Z"/><path d="M136.28,35.5V2.4a1.69,1.69,0,0,1,1-1.56,4.73,4.73,0,0,1,2.34-.53A5,5,0,0,1,142.4,1a8.22,8.22,0,0,1,2.14,2.86l9.84,19V2.35a1.65,1.65,0,0,1,1-1.53,5.67,5.67,0,0,1,4.7,0,1.64,1.64,0,0,1,1,1.53V35.5A1.72,1.72,0,0,1,160,37a4.69,4.69,0,0,1-2.32.56,4,4,0,0,1-3.82-2.09L142.91,15V35.5a1.72,1.72,0,0,1-1,1.53,4.73,4.73,0,0,1-2.33.56,4.63,4.63,0,0,1-2.34-.56A1.71,1.71,0,0,1,136.28,35.5Z"/><path d="M177.33,35.5V2.35A2,2,0,0,1,178,.92a2,2,0,0,1,1.53-.61h10.09Q201.66.31,201.66,11a11.39,11.39,0,0,1-1.81,6.74A9,9,0,0,1,195,21.17l6.68,12.39a1.21,1.21,0,0,1,.26.81,3.15,3.15,0,0,1-1.33,2.38,4.33,4.33,0,0,1-2.8,1.09,2.5,2.5,0,0,1-2.3-1.58l-7.24-14.08H184V35.5A1.72,1.72,0,0,1,183,37a5.15,5.15,0,0,1-4.67,0A1.73,1.73,0,0,1,177.33,35.5ZM184,17h5.61q5.46,0,5.46-5.4t-5.46-5.46H184Z"/><path d="M206.4,35.5V2.35a1.65,1.65,0,0,1,1-1.53,5,5,0,0,1,2.35-.51,4.93,4.93,0,0,1,2.34.51,1.63,1.63,0,0,1,1,1.53V15.66h11.48V2.35a1.63,1.63,0,0,1,1-1.53,5.65,5.65,0,0,1,4.69,0,1.63,1.63,0,0,1,1,1.53V35.5a1.71,1.71,0,0,1-1,1.53,5.13,5.13,0,0,1-4.66,0,1.71,1.71,0,0,1-1-1.53V20.86H213V35.5A1.72,1.72,0,0,1,212,37a5.15,5.15,0,0,1-4.67,0A1.73,1.73,0,0,1,206.4,35.5Z"/><path d="M234.66,3.06c0-.75.48-1.39,1.45-1.94A6,6,0,0,1,239,.31a2.16,2.16,0,0,1,2,1.32l7.75,14.74,7.81-14.74a2.19,2.19,0,0,1,2-1.32,6,6,0,0,1,2.93.81c1,.55,1.45,1.19,1.45,1.94a1.29,1.29,0,0,1-.15.66L252.35,22a1.22,1.22,0,0,0-.2.66V35.5a1.71,1.71,0,0,1-1,1.53,4.64,4.64,0,0,1-2.35.56,4.71,4.71,0,0,1-2.32-.56,1.72,1.72,0,0,1-1-1.53V22.64a1.15,1.15,0,0,0-.15-.66L234.81,3.72A2,2,0,0,1,234.66,3.06Z"/><path d="M264.08,3.19a3.73,3.73,0,0,1,.54-2,1.71,1.71,0,0,1,1.55-.87h21.58a1.7,1.7,0,0,1,1.55.87,3.73,3.73,0,0,1,.54,2,3.76,3.76,0,0,1-.56,2.06,1.75,1.75,0,0,1-1.53.87H280.3V35.49a1.71,1.71,0,0,1-1,1.53,5.07,5.07,0,0,1-4.67,0,1.7,1.7,0,0,1-1-1.53V6.12h-7.5a1.76,1.76,0,0,1-1.53-.84A3.74,3.74,0,0,1,264.08,3.19Z"/><path d="M293.46,35.5V2.35a1.63,1.63,0,0,1,1-1.53,5.65,5.65,0,0,1,4.69,0,1.63,1.63,0,0,1,1,1.53V15.66h11.47V2.35a1.65,1.65,0,0,1,1-1.53,5.67,5.67,0,0,1,4.7,0,1.64,1.64,0,0,1,1,1.53V35.5a1.72,1.72,0,0,1-1,1.53,5.15,5.15,0,0,1-4.67,0,1.73,1.73,0,0,1-1-1.53V20.86H300.09V35.5a1.71,1.71,0,0,1-1,1.53,5.13,5.13,0,0,1-4.66,0A1.71,1.71,0,0,1,293.46,35.5Z"/><path d="M324.31,35.5V3.62a3.14,3.14,0,0,1,.95-2.5,3.51,3.51,0,0,1,2.37-.81,5.36,5.36,0,0,1,2.91.66,8.2,8.2,0,0,1,2.24,2.86l6.27,11.42,6.28-11.42A7.87,7.87,0,0,1,347.6,1a5.46,5.46,0,0,1,2.93-.66,3.51,3.51,0,0,1,2.37.81,3.14,3.14,0,0,1,.94,2.5V35.5a1.72,1.72,0,0,1-1,1.53,5.15,5.15,0,0,1-4.67,0,1.73,1.73,0,0,1-1-1.53V13.57l-6,10.6A2.38,2.38,0,0,1,339,25.5a2.33,2.33,0,0,1-2.19-1.33l-5.87-11V35.5A1.72,1.72,0,0,1,330,37a5.15,5.15,0,0,1-4.67,0A1.73,1.73,0,0,1,324.31,35.5Z"/><path class="cls-6" d="M87.62,508V496c0-3.38.91-5.87,2.75-7.46a10.56,10.56,0,0,1,7.18-2.38,11.6,11.6,0,0,1,7.37,2.23,7.15,7.15,0,0,1,2.86,5.94,2.87,2.87,0,0,1-.64,2.17,3.23,3.23,0,0,1-2.15.58c-1.84,0-2.77-.59-2.8-1.77,0-.37-.06-.69-.11-1a4.72,4.72,0,0,0-.34-1.08,3.83,3.83,0,0,0-.71-1.12,3.26,3.26,0,0,0-1.29-.77,5.82,5.82,0,0,0-2-.32q-4.52,0-4.51,4.94v12c0,3.3,1.53,4.94,4.6,4.94a5.43,5.43,0,0,0,2.3-.43,2.7,2.7,0,0,0,1.33-1.22,6.57,6.57,0,0,0,.56-1.42,8.48,8.48,0,0,0,.19-1.53c.09-1.17,1-1.76,2.76-1.76a3.28,3.28,0,0,1,2.17.58,2.83,2.83,0,0,1,.66,2.17,7.55,7.55,0,0,1-2.86,6.19,11.37,11.37,0,0,1-7.41,2.33,10.48,10.48,0,0,1-7.16-2.39Q87.62,513.07,87.62,508Z"/><path class="cls-6" d="M111.22,508V496q0-5.12,2.73-7.48a12.61,12.61,0,0,1,14.69,0q2.75,2.37,2.75,7.48v12c0,3.41-.92,5.91-2.75,7.48a12.57,12.57,0,0,1-14.69,0C112.13,513.9,111.22,511.4,111.22,508Zm5.59,0c0,3.3,1.49,4.94,4.47,4.94s4.52-1.64,4.52-4.94V496q0-4.94-4.52-4.94T116.81,496Z"/><path class="cls-6" d="M135.82,508V496q0-5.07,2.73-7.46a10.48,10.48,0,0,1,7.16-2.38,11.71,11.71,0,0,1,7.42,2.23,7.26,7.26,0,0,1,2.86,6,2.69,2.69,0,0,1-.67,2.11,3.33,3.33,0,0,1-2.13.56c-1.83,0-2.77-.59-2.79-1.77a5.41,5.41,0,0,0-1.08-3.07c-.63-.79-1.76-1.18-3.4-1.18q-4.51,0-4.51,4.94v12c0,3.3,1.49,4.94,4.47,4.94a4.38,4.38,0,0,0,3.33-1.24,5.19,5.19,0,0,0,1.19-3.7v-2.54h-3.49a1.46,1.46,0,0,1-1.27-.64,2.65,2.65,0,0,1-.45-1.55,2.58,2.58,0,0,1,.48-1.53,1.45,1.45,0,0,1,1.24-.66h7.31a1.64,1.64,0,0,1,1.29.53,1.86,1.86,0,0,1,.48,1.27V508c0,3.41-.92,5.91-2.76,7.48a12.55,12.55,0,0,1-14.68,0C136.73,513.9,135.82,511.4,135.82,508Z"/><path class="cls-6" d="M160.41,515.82V487.91a1.43,1.43,0,0,1,.82-1.31,4.05,4.05,0,0,1,2-.45,4.18,4.18,0,0,1,2.36.55,7,7,0,0,1,1.81,2.41l8.3,16V487.87a1.36,1.36,0,0,1,.82-1.29,4.75,4.75,0,0,1,3.95,0,1.36,1.36,0,0,1,.82,1.29v28a1.45,1.45,0,0,1-.84,1.29,4,4,0,0,1-2,.47,3.36,3.36,0,0,1-3.22-1.76L166,498.53v17.29a1.45,1.45,0,0,1-.83,1.29,4,4,0,0,1-2,.47,4,4,0,0,1-2-.47A1.46,1.46,0,0,1,160.41,515.82Z"/><path class="cls-6" d="M186.43,515.82v-28a1.36,1.36,0,0,1,.82-1.29,4.75,4.75,0,0,1,3.95,0,1.36,1.36,0,0,1,.82,1.29v28a1.45,1.45,0,0,1-.84,1.29,4,4,0,0,1-2,.47,3.91,3.91,0,0,1-2-.47A1.44,1.44,0,0,1,186.43,515.82Z"/><path class="cls-6" d="M195.11,488.58a3.09,3.09,0,0,1,.46-1.7,1.43,1.43,0,0,1,1.31-.73h18.19a1.44,1.44,0,0,1,1.31.73,3.17,3.17,0,0,1,.45,1.7,3.13,3.13,0,0,1-.47,1.73,1.48,1.48,0,0,1-1.29.74h-6.28v24.76a1.44,1.44,0,0,1-.84,1.29,3.87,3.87,0,0,1-2,.48,3.81,3.81,0,0,1-2-.48,1.43,1.43,0,0,1-.82-1.29V491.05h-6.32a1.46,1.46,0,0,1-1.29-.72A3.05,3.05,0,0,1,195.11,488.58Z"/><path class="cls-6" d="M219.88,515.82v-28a1.38,1.38,0,0,1,.82-1.29,4.14,4.14,0,0,1,2-.43,4.19,4.19,0,0,1,2,.43,1.37,1.37,0,0,1,.81,1.29v28a1.45,1.45,0,0,1-.84,1.29,4.34,4.34,0,0,1-3.93,0A1.46,1.46,0,0,1,219.88,515.82Z"/><path class="cls-6" d="M230.29,508V496q0-5.12,2.73-7.48a12.59,12.59,0,0,1,14.68,0q2.76,2.37,2.76,7.48v12c0,3.41-.92,5.91-2.76,7.48a12.55,12.55,0,0,1-14.68,0C231.2,513.9,230.29,511.4,230.29,508Zm5.59,0c0,3.3,1.49,4.94,4.47,4.94s4.52-1.64,4.52-4.94V496q0-4.94-4.52-4.94T235.88,496Z"/><path class="cls-6" d="M255.23,515.82V487.91a1.41,1.41,0,0,1,.82-1.31,4,4,0,0,1,2-.45,4.22,4.22,0,0,1,2.37.55,7.14,7.14,0,0,1,1.8,2.41l8.3,16V487.87a1.38,1.38,0,0,1,.82-1.29,4.14,4.14,0,0,1,2-.43,4.19,4.19,0,0,1,2,.43,1.37,1.37,0,0,1,.81,1.29v28a1.45,1.45,0,0,1-.83,1.29,4,4,0,0,1-2,.47,3.37,3.37,0,0,1-3.23-1.76l-9.24-17.29v17.29a1.45,1.45,0,0,1-.84,1.29,4,4,0,0,1-2,.47,3.91,3.91,0,0,1-2-.47A1.44,1.44,0,0,1,255.23,515.82Z"/><path d="M75.83,389.63a3.32,3.32,0,0,1,.76-2,2.12,2.12,0,0,1,1.7-1,2.17,2.17,0,0,1,1.26.54,15.13,15.13,0,0,1,1.38,1.18,6.15,6.15,0,0,0,1.91,1.19,7,7,0,0,0,2.75.53,6,6,0,0,0,3.45-.94,3.18,3.18,0,0,0,1.37-2.8,3.77,3.77,0,0,0-.75-2.3,6.06,6.06,0,0,0-2-1.68c-.82-.44-1.71-.87-2.69-1.28s-1.95-.89-2.94-1.4a18,18,0,0,1-2.71-1.74,7,7,0,0,1-2-2.58,8.64,8.64,0,0,1-.75-3.68,8.76,8.76,0,0,1,.92-4.08A7,7,0,0,1,80,364.83a11.38,11.38,0,0,1,3.32-1.44,14.57,14.57,0,0,1,3.74-.46,19.81,19.81,0,0,1,2.36.15,25,25,0,0,1,2.65.51,5.66,5.66,0,0,1,2.28,1.11,2.28,2.28,0,0,1,.88,1.76,3.82,3.82,0,0,1-.61,2,1.81,1.81,0,0,1-1.63,1,8.39,8.39,0,0,1-2.11-.82,8.84,8.84,0,0,0-3.82-.82,6.28,6.28,0,0,0-3.59.88,2.8,2.8,0,0,0-1.27,2.43,2.83,2.83,0,0,0,1,2.18,8.28,8.28,0,0,0,2.56,1.5c1,.39,2.12.87,3.31,1.46a28.43,28.43,0,0,1,3.31,1.92,8,8,0,0,1,2.56,3,9.7,9.7,0,0,1,1,4.58,8.45,8.45,0,0,1-2.82,6.81,11,11,0,0,1-7.41,2.4,13.83,13.83,0,0,1-7-1.68Q75.84,391.61,75.83,389.63Z"/><path d="M97.76,365.58a3.17,3.17,0,0,1,.45-1.7,1.46,1.46,0,0,1,1.32-.73h18.18a1.45,1.45,0,0,1,1.32.73,3.17,3.17,0,0,1,.45,1.7,3.05,3.05,0,0,1-.48,1.73,1.46,1.46,0,0,1-1.29.74h-6.27v24.76a1.44,1.44,0,0,1-.84,1.29,4.28,4.28,0,0,1-3.94,0,1.44,1.44,0,0,1-.81-1.29V368.05H99.53a1.46,1.46,0,0,1-1.29-.72A3.05,3.05,0,0,1,97.76,365.58Z"/><path d="M122.53,392.82V364.87a1.64,1.64,0,0,1,.52-1.21,1.75,1.75,0,0,1,1.29-.51h8.51q10.2,0,10.19,9a9.67,9.67,0,0,1-1.52,5.68,7.55,7.55,0,0,1-4.11,2.92L143,391.18a1,1,0,0,1,.22.69,2.63,2.63,0,0,1-1.12,2,3.64,3.64,0,0,1-2.37.92,2.11,2.11,0,0,1-1.93-1.33l-6.11-11.87h-3.61v11.23a1.44,1.44,0,0,1-.82,1.29,3.91,3.91,0,0,1-2,.47,4,4,0,0,1-2-.47A1.45,1.45,0,0,1,122.53,392.82Zm5.59-15.61h4.73q4.6,0,4.6-4.56t-4.6-4.6h-4.73Z"/><path d="M146.91,385V364.87a1.36,1.36,0,0,1,.82-1.29,4.75,4.75,0,0,1,4,0,1.36,1.36,0,0,1,.82,1.29V385c0,3.3,1.58,4.94,4.73,4.94S162,388.29,162,385V364.87a1.36,1.36,0,0,1,.82-1.29,4.14,4.14,0,0,1,2-.43,4.19,4.19,0,0,1,2,.43,1.37,1.37,0,0,1,.81,1.29V385q0,5.07-2.81,7.46a13,13,0,0,1-15,0C147.85,390.9,146.91,388.4,146.91,385Z"/><path d="M172.28,385V373q0-5.07,2.75-7.46a10.58,10.58,0,0,1,7.18-2.38,11.65,11.65,0,0,1,7.38,2.23,7.15,7.15,0,0,1,2.86,5.94,2.87,2.87,0,0,1-.65,2.17,3.22,3.22,0,0,1-2.15.58q-2.75,0-2.79-1.77c0-.37-.07-.69-.11-1a5.28,5.28,0,0,0-.34-1.08,4,4,0,0,0-.71-1.12,3.42,3.42,0,0,0-1.29-.77,5.91,5.91,0,0,0-2-.32q-4.51,0-4.52,4.94v12c0,3.3,1.54,4.94,4.6,4.94a5.37,5.37,0,0,0,2.3-.43,2.72,2.72,0,0,0,1.34-1.22,7.13,7.13,0,0,0,.56-1.42,8.48,8.48,0,0,0,.19-1.53c.09-1.17,1-1.76,2.75-1.76a3.26,3.26,0,0,1,2.17.58,2.79,2.79,0,0,1,.67,2.17,7.55,7.55,0,0,1-2.86,6.19,11.4,11.4,0,0,1-7.42,2.33,10.5,10.5,0,0,1-7.16-2.39Q172.28,390.07,172.28,385Z"/><path d="M194.17,365.58a3.17,3.17,0,0,1,.45-1.7,1.44,1.44,0,0,1,1.31-.73h18.19a1.44,1.44,0,0,1,1.31.73,3.17,3.17,0,0,1,.45,1.7,3,3,0,0,1-.47,1.73,1.47,1.47,0,0,1-1.29.74h-6.28v24.76a1.44,1.44,0,0,1-.84,1.29,4.26,4.26,0,0,1-3.93,0,1.43,1.43,0,0,1-.82-1.29V368.05h-6.32a1.48,1.48,0,0,1-1.29-.72A3.13,3.13,0,0,1,194.17,365.58Z"/><path d="M218.81,385V364.87a1.37,1.37,0,0,1,.81-1.29,4.19,4.19,0,0,1,2-.43,4.14,4.14,0,0,1,2,.43,1.38,1.38,0,0,1,.82,1.29V385c0,3.3,1.57,4.94,4.73,4.94s4.73-1.64,4.73-4.94V364.87a1.37,1.37,0,0,1,.81-1.29,4.19,4.19,0,0,1,2-.43,4.14,4.14,0,0,1,2,.43,1.38,1.38,0,0,1,.82,1.29V385q0,5.07-2.82,7.46a13,13,0,0,1-15,0C219.75,390.9,218.81,388.4,218.81,385Z"/><path d="M244.48,392.82V364.87a1.66,1.66,0,0,1,.51-1.21,1.78,1.78,0,0,1,1.29-.51h8.52q10.18,0,10.19,9a9.6,9.6,0,0,1-1.53,5.68,7.49,7.49,0,0,1-4.1,2.92L265,391.18a1.05,1.05,0,0,1,.21.69,2.62,2.62,0,0,1-1.11,2,3.66,3.66,0,0,1-2.37.92,2.11,2.11,0,0,1-1.93-1.33l-6.11-11.87h-3.61v11.23a1.44,1.44,0,0,1-.82,1.29,3.92,3.92,0,0,1-2,.47,4,4,0,0,1-2-.47A1.45,1.45,0,0,1,244.48,392.82Zm5.59-15.61h4.73q4.6,0,4.6-4.56t-4.6-4.6h-4.73Z"/><path d="M269,392.82V364.91a1.45,1.45,0,0,1,.73-1.29,3.06,3.06,0,0,1,1.72-.47h15.31a1.44,1.44,0,0,1,1.31.73,3.09,3.09,0,0,1,.45,1.67,3.24,3.24,0,0,1-.47,1.77,1.49,1.49,0,0,1-1.29.73H274.58v8.6h6.53a1.49,1.49,0,0,1,1.29.66,2.75,2.75,0,0,1,0,3.06,1.51,1.51,0,0,1-1.32.66h-6.53v8.65h12.17a1.47,1.47,0,0,1,1.29.73,3.21,3.21,0,0,1,.47,1.76,3.15,3.15,0,0,1-.45,1.68,1.46,1.46,0,0,1-1.31.73H271.44a3.14,3.14,0,0,1-1.72-.47A1.47,1.47,0,0,1,269,392.82Z"/><path d="M65,316.82V288.87a1.37,1.37,0,0,1,.81-1.29,4.19,4.19,0,0,1,2-.43,4.14,4.14,0,0,1,2,.43,1.38,1.38,0,0,1,.82,1.29v27.95a1.45,1.45,0,0,1-.84,1.29,4.36,4.36,0,0,1-3.94,0A1.45,1.45,0,0,1,65,316.82Z"/><path d="M75.73,316.82V288.91a1.42,1.42,0,0,1,.81-1.31,4.08,4.08,0,0,1,2-.45,4.24,4.24,0,0,1,2.37.55,7.14,7.14,0,0,1,1.8,2.41l8.3,16V288.87a1.36,1.36,0,0,1,.82-1.29,4.75,4.75,0,0,1,4,0,1.36,1.36,0,0,1,.82,1.29v27.95a1.45,1.45,0,0,1-.84,1.29,4,4,0,0,1-1.95.47,3.37,3.37,0,0,1-3.23-1.76l-9.24-17.29v17.29a1.45,1.45,0,0,1-.84,1.29,4.36,4.36,0,0,1-3.94,0A1.45,1.45,0,0,1,75.73,316.82Z"/><path d="M99.68,289.58a3.17,3.17,0,0,1,.45-1.7,1.44,1.44,0,0,1,1.31-.73h18.19a1.44,1.44,0,0,1,1.31.73,3.17,3.17,0,0,1,.45,1.7,3.13,3.13,0,0,1-.47,1.73,1.48,1.48,0,0,1-1.29.74h-6.28v24.76a1.44,1.44,0,0,1-.84,1.29,3.86,3.86,0,0,1-2,.48,3.82,3.82,0,0,1-2-.48,1.43,1.43,0,0,1-.82-1.29V292.05h-6.32a1.47,1.47,0,0,1-1.29-.72A3,3,0,0,1,99.68,289.58Z"/><path d="M124.45,316.82V288.91a1.45,1.45,0,0,1,.73-1.29,3,3,0,0,1,1.72-.47h15.3a1.46,1.46,0,0,1,1.32.73,3.09,3.09,0,0,1,.45,1.67,3.17,3.17,0,0,1-.48,1.77,1.47,1.47,0,0,1-1.29.73H130v8.6h6.53a1.49,1.49,0,0,1,1.29.66,2.77,2.77,0,0,1,0,3.06,1.49,1.49,0,0,1-1.31.66H130v8.65H142.2a1.45,1.45,0,0,1,1.29.73,3.41,3.41,0,0,1,0,3.44,1.48,1.48,0,0,1-1.32.73H126.9a3.12,3.12,0,0,1-1.72-.47A1.47,1.47,0,0,1,124.45,316.82Z"/><path d="M147.24,316.82V288.87a1.66,1.66,0,0,1,.51-1.21,1.78,1.78,0,0,1,1.29-.51h8.52q10.19,0,10.19,9a9.6,9.6,0,0,1-1.53,5.68,7.55,7.55,0,0,1-4.11,2.92l5.64,10.45a1.05,1.05,0,0,1,.21.69,2.6,2.6,0,0,1-1.12,2,3.61,3.61,0,0,1-2.36.92,2.13,2.13,0,0,1-1.94-1.33l-6.1-11.87h-3.61v11.23a1.46,1.46,0,0,1-.82,1.29,4.36,4.36,0,0,1-3.94,0A1.44,1.44,0,0,1,147.24,316.82Zm5.59-15.61h4.73c3.06,0,4.6-1.52,4.6-4.56s-1.54-4.6-4.6-4.6h-4.73Z"/><path d="M168.89,316.1a3.6,3.6,0,0,1,.08-.46l8.31-27.05a2.13,2.13,0,0,1,1.27-1.26,5.75,5.75,0,0,1,2.3-.44,5.27,5.27,0,0,1,2.32.49,2.24,2.24,0,0,1,1.29,1.4l8.3,27.05a2.45,2.45,0,0,1,.09.43,2,2,0,0,1-1.16,1.63,4.62,4.62,0,0,1-2.37.69c-1.06,0-1.69-.37-1.89-1.12l-1.63-5.72h-9.22l-1.6,5.72c-.23.75-.94,1.12-2.13,1.12a5.46,5.46,0,0,1-2.68-.71A2.06,2.06,0,0,1,168.89,316.1Zm8.92-8.74h7.44l-3.74-13.2Z"/><path d="M196.17,309V297q0-5.07,2.75-7.46a10.56,10.56,0,0,1,7.18-2.38,11.65,11.65,0,0,1,7.38,2.23,7.18,7.18,0,0,1,2.86,5.94,2.87,2.87,0,0,1-.65,2.17,3.23,3.23,0,0,1-2.15.58c-1.83,0-2.77-.59-2.79-1.77,0-.37-.07-.69-.11-1a5.43,5.43,0,0,0-.35-1.08,3.63,3.63,0,0,0-.71-1.12,3.26,3.26,0,0,0-1.29-.77,5.82,5.82,0,0,0-2-.32q-4.52,0-4.51,4.94v12c0,3.3,1.53,4.94,4.6,4.94a5.4,5.4,0,0,0,2.3-.43,2.66,2.66,0,0,0,1.33-1.22,6.09,6.09,0,0,0,.56-1.42,8.39,8.39,0,0,0,.2-1.53c.08-1.17,1-1.76,2.75-1.76a3.28,3.28,0,0,1,2.17.58,2.83,2.83,0,0,1,.67,2.17,7.58,7.58,0,0,1-2.86,6.19,11.4,11.4,0,0,1-7.42,2.33,10.5,10.5,0,0,1-7.16-2.39Q196.17,314.07,196.17,309Z"/><path d="M218.05,289.58a3.18,3.18,0,0,1,.46-1.7,1.43,1.43,0,0,1,1.31-.73H238a1.44,1.44,0,0,1,1.31.73,3.17,3.17,0,0,1,.45,1.7,3.13,3.13,0,0,1-.47,1.73,1.48,1.48,0,0,1-1.29.74h-6.28v24.76a1.44,1.44,0,0,1-.84,1.29,3.87,3.87,0,0,1-2,.48,3.81,3.81,0,0,1-2-.48,1.43,1.43,0,0,1-.82-1.29V292.05h-6.32a1.46,1.46,0,0,1-1.29-.72A3.05,3.05,0,0,1,218.05,289.58Z"/><path d="M242.82,316.82V288.87a1.38,1.38,0,0,1,.82-1.29,4.14,4.14,0,0,1,2-.43,4.19,4.19,0,0,1,2,.43,1.37,1.37,0,0,1,.81,1.29v27.95a1.45,1.45,0,0,1-.84,1.29,4.34,4.34,0,0,1-3.93,0A1.46,1.46,0,0,1,242.82,316.82Z"/><path d="M253.23,309V297q0-5.12,2.73-7.48a12.59,12.59,0,0,1,14.68,0q2.76,2.37,2.76,7.48v12c0,3.41-.92,5.91-2.76,7.48a12.55,12.55,0,0,1-14.68,0C254.14,314.9,253.23,312.4,253.23,309Zm5.59,0c0,3.3,1.49,4.94,4.47,4.94s4.52-1.64,4.52-4.94V297q0-4.94-4.52-4.94T258.82,297Z"/><path d="M278.17,316.82V288.91a1.41,1.41,0,0,1,.82-1.31,4,4,0,0,1,2-.45,4.22,4.22,0,0,1,2.37.55,7.14,7.14,0,0,1,1.8,2.41l8.3,16V288.87a1.38,1.38,0,0,1,.82-1.29,4.77,4.77,0,0,1,4,0,1.37,1.37,0,0,1,.81,1.29v27.95a1.45,1.45,0,0,1-.83,1.29,4,4,0,0,1-2,.47,3.37,3.37,0,0,1-3.23-1.76l-9.24-17.29v17.29a1.45,1.45,0,0,1-.84,1.29,4,4,0,0,1-2,.47,3.91,3.91,0,0,1-2-.47A1.44,1.44,0,0,1,278.17,316.82Z"/><path d="M90.8,240.82V212.87a1.56,1.56,0,0,1,.58-1.21,2.22,2.22,0,0,1,1.52-.51h8.65a10.35,10.35,0,0,1,7.09,2.34c1.78,1.56,2.67,4,2.67,7.33v.26c0,3.35-.93,5.82-2.77,7.39a10.92,10.92,0,0,1-7.34,2.37H96.39v10a1.45,1.45,0,0,1-.84,1.29,4,4,0,0,1-2,.47,3.91,3.91,0,0,1-2-.47A1.44,1.44,0,0,1,90.8,240.82Zm5.59-14.37h4.81a4.38,4.38,0,0,0,3.34-1.24,5.23,5.23,0,0,0,1.18-3.7V221a5.25,5.25,0,0,0-1.18-3.7,4.38,4.38,0,0,0-3.34-1.24H96.39Z"/><path d="M114.75,240.82V212.87a1.36,1.36,0,0,1,.82-1.29,4.75,4.75,0,0,1,4,0,1.36,1.36,0,0,1,.82,1.29v24.81h10.49a1.39,1.39,0,0,1,1.23.73,3.51,3.51,0,0,1,0,3.44,1.41,1.41,0,0,1-1.23.73H117.2a3.14,3.14,0,0,1-1.72-.47A1.47,1.47,0,0,1,114.75,240.82Z"/><path d="M135.56,240.82V212.91a1.45,1.45,0,0,1,.73-1.29,3.06,3.06,0,0,1,1.72-.47h15.31a1.44,1.44,0,0,1,1.31.73,3.09,3.09,0,0,1,.45,1.67,3.24,3.24,0,0,1-.47,1.77,1.49,1.49,0,0,1-1.29.73H141.15v8.6h6.54a1.52,1.52,0,0,1,1.29.66,2.7,2.7,0,0,1,.47,1.57,2.61,2.61,0,0,1-.45,1.49,1.49,1.49,0,0,1-1.31.66h-6.54v8.65h12.17a1.47,1.47,0,0,1,1.29.73,3.21,3.21,0,0,1,.47,1.76,3.15,3.15,0,0,1-.45,1.68,1.46,1.46,0,0,1-1.31.73H138a3.14,3.14,0,0,1-1.72-.47A1.47,1.47,0,0,1,135.56,240.82Z"/><path d="M155.49,240.1a2.74,2.74,0,0,1,.09-.46l8.31-27a2.1,2.1,0,0,1,1.27-1.26,5.75,5.75,0,0,1,2.3-.44,5.3,5.3,0,0,1,2.32.49,2.24,2.24,0,0,1,1.29,1.4l8.3,27.05a3.21,3.21,0,0,1,.08.43,1.93,1.93,0,0,1-1.16,1.63,4.56,4.56,0,0,1-2.36.69c-1.06,0-1.7-.37-1.9-1.12l-1.63-5.72h-9.21l-1.61,5.72c-.22.75-.93,1.12-2.13,1.12a5.48,5.48,0,0,1-2.68-.71A2.08,2.08,0,0,1,155.49,240.1Zm8.93-8.74h7.43l-3.74-13.2Z"/><path d="M181.53,237.63a3.37,3.37,0,0,1,.75-2,2.14,2.14,0,0,1,1.7-1,2.22,2.22,0,0,1,1.27.54,15,15,0,0,1,1.37,1.18,6.21,6.21,0,0,0,1.92,1.19,7,7,0,0,0,2.75.53,6,6,0,0,0,3.44-.94,3.18,3.18,0,0,0,1.37-2.8,3.77,3.77,0,0,0-.75-2.3,6.06,6.06,0,0,0-2-1.68c-.81-.44-1.71-.87-2.68-1.28s-2-.89-2.95-1.4a18,18,0,0,1-2.71-1.74,7,7,0,0,1-2-2.58,8.64,8.64,0,0,1-.75-3.68,8.76,8.76,0,0,1,.92-4.08,7.05,7.05,0,0,1,2.48-2.75,11.21,11.21,0,0,1,3.31-1.44,14.57,14.57,0,0,1,3.74-.46,19.81,19.81,0,0,1,2.36.15,24.07,24.07,0,0,1,2.65.51A5.66,5.66,0,0,1,200,212.7a2.28,2.28,0,0,1,.88,1.76,3.9,3.9,0,0,1-.6,2,1.83,1.83,0,0,1-1.64,1,8.25,8.25,0,0,1-2.1-.82,8.91,8.91,0,0,0-3.83-.82,6.28,6.28,0,0,0-3.59.88,2.8,2.8,0,0,0-1.27,2.43,2.83,2.83,0,0,0,1,2.18,8.28,8.28,0,0,0,2.56,1.5c1,.39,2.12.87,3.31,1.46a28.43,28.43,0,0,1,3.31,1.92,8,8,0,0,1,2.56,3,9.7,9.7,0,0,1,1,4.58,8.48,8.48,0,0,1-2.81,6.81,11.05,11.05,0,0,1-7.42,2.4,13.86,13.86,0,0,1-7-1.68Q181.53,239.61,181.53,237.63Z"/><path d="M205.39,233V212.87a1.36,1.36,0,0,1,.82-1.29,4.75,4.75,0,0,1,3.95,0,1.36,1.36,0,0,1,.82,1.29V233c0,3.3,1.58,4.94,4.73,4.94s4.73-1.64,4.73-4.94V212.87a1.36,1.36,0,0,1,.82-1.29,4.75,4.75,0,0,1,4,0,1.36,1.36,0,0,1,.82,1.29V233q0,5.07-2.82,7.46a13,13,0,0,1-15,0C206.33,238.9,205.39,236.4,205.39,233Z"/><path d="M231.06,240.82V212.87a1.64,1.64,0,0,1,.52-1.21,1.75,1.75,0,0,1,1.29-.51h8.51q10.2,0,10.19,9a9.67,9.67,0,0,1-1.52,5.68,7.55,7.55,0,0,1-4.11,2.92l5.63,10.45a1,1,0,0,1,.22.69,2.6,2.6,0,0,1-1.12,2,3.64,3.64,0,0,1-2.37.92,2.11,2.11,0,0,1-1.93-1.33l-6.11-11.87h-3.61v11.23a1.44,1.44,0,0,1-.82,1.29,3.91,3.91,0,0,1-2,.47,4,4,0,0,1-2-.47A1.45,1.45,0,0,1,231.06,240.82Zm5.59-15.61h4.73q4.6,0,4.6-4.56t-4.6-4.6h-4.73Z"/><path d="M255.57,240.82V212.91a1.45,1.45,0,0,1,.73-1.29,3.06,3.06,0,0,1,1.72-.47h15.31a1.44,1.44,0,0,1,1.31.73,3.09,3.09,0,0,1,.45,1.67,3.16,3.16,0,0,1-.47,1.77,1.49,1.49,0,0,1-1.29.73H261.16v8.6h6.54a1.52,1.52,0,0,1,1.29.66,2.7,2.7,0,0,1,.47,1.57,2.61,2.61,0,0,1-.45,1.49,1.49,1.49,0,0,1-1.31.66h-6.54v8.65h12.17a1.47,1.47,0,0,1,1.29.73,3.45,3.45,0,0,1,0,3.44,1.46,1.46,0,0,1-1.31.73H258a3.14,3.14,0,0,1-1.72-.47A1.47,1.47,0,0,1,255.57,240.82Z"/><path d="M134.25,165.82V137.91a1.45,1.45,0,0,1,.73-1.29,3.06,3.06,0,0,1,1.72-.47h15a1.42,1.42,0,0,1,1.29.7,3.64,3.64,0,0,1,0,3.47,1.45,1.45,0,0,1-1.27.73H139.84v8.6h6.58a1.46,1.46,0,0,1,1.27.64,2.71,2.71,0,0,1,.45,1.59,2.57,2.57,0,0,1-.45,1.51,1.46,1.46,0,0,1-1.27.64h-6.58v11.79a1.45,1.45,0,0,1-.84,1.29,4,4,0,0,1-2,.47,3.91,3.91,0,0,1-2-.47A1.44,1.44,0,0,1,134.25,165.82Z"/><path d="M155.41,158V146c0-3.41.9-5.9,2.73-7.48a12.59,12.59,0,0,1,14.68,0q2.75,2.37,2.75,7.48v12c0,3.41-.92,5.91-2.75,7.48a12.55,12.55,0,0,1-14.68,0C156.31,163.9,155.41,161.4,155.41,158Zm5.59,0c0,3.3,1.49,4.94,4.47,4.94S170,161.29,170,158V146q0-4.94-4.51-4.94T161,146Z"/><path d="M180.34,165.82V137.87a1.67,1.67,0,0,1,.52-1.21,1.76,1.76,0,0,1,1.29-.51h8.52q10.19,0,10.19,9a9.6,9.6,0,0,1-1.53,5.68,7.55,7.55,0,0,1-4.11,2.92l5.64,10.45a1.05,1.05,0,0,1,.21.69,2.6,2.6,0,0,1-1.12,2,3.61,3.61,0,0,1-2.36.92,2.13,2.13,0,0,1-1.94-1.33l-6.1-11.87h-3.62v11.23a1.45,1.45,0,0,1-.81,1.29,4.36,4.36,0,0,1-3.94,0A1.45,1.45,0,0,1,180.34,165.82Zm5.59-15.61h4.74c3.06,0,4.6-1.52,4.6-4.56s-1.54-4.6-4.6-4.6h-4.74Z"/><path d="M204.85,165.82V138.94a2.66,2.66,0,0,1,.8-2.11,3,3,0,0,1,2-.68,4.51,4.51,0,0,1,2.45.55,7.12,7.12,0,0,1,1.89,2.41l5.29,9.64,5.29-9.64a7,7,0,0,1,1.91-2.41,4.68,4.68,0,0,1,2.48-.55,3,3,0,0,1,2,.68,2.65,2.65,0,0,1,.79,2.11v26.88a1.45,1.45,0,0,1-.84,1.29,4,4,0,0,1-1.95.47,3.92,3.92,0,0,1-2-.47,1.44,1.44,0,0,1-.82-1.29V147.33l-5,8.94a2,2,0,0,1-1.89,1.12,2,2,0,0,1-1.85-1.12L210.44,147v18.84a1.44,1.44,0,0,1-.83,1.29,4.36,4.36,0,0,1-3.94,0A1.46,1.46,0,0,1,204.85,165.82Z"/><path class="cls-6" d="M45.67,106.2V93.07a1.3,1.3,0,0,1,.39-1,1.47,1.47,0,0,1,1-.33,2.22,2.22,0,0,1,1.2.27,3.36,3.36,0,0,1,.92,1.18l2.58,4.7,2.59-4.7A3.15,3.15,0,0,1,55.26,92a2.28,2.28,0,0,1,1.21-.27,1.43,1.43,0,0,1,1,.33,1.3,1.3,0,0,1,.39,1V106.2a.7.7,0,0,1-.41.63,1.94,1.94,0,0,1-1,.23,2,2,0,0,1-1-.23.73.73,0,0,1-.4-.63v-9l-2.45,4.36a1,1,0,0,1-.93.55,1,1,0,0,1-.9-.55L48.4,97v9.2a.7.7,0,0,1-.41.63,1.94,1.94,0,0,1-1,.23,2,2,0,0,1-1-.23A.73.73,0,0,1,45.67,106.2Z"/><path class="cls-6" d="M59.91,103v-5c0-.21.14-.4.41-.59a1.69,1.69,0,0,1,1-.27,1.64,1.64,0,0,1,.93.27c.27.19.41.38.41.59v5a1.84,1.84,0,0,0,.55,1.31,1.76,1.76,0,0,0,2.59,0A1.87,1.87,0,0,0,66.3,103v-5a.71.71,0,0,1,.41-.59,1.84,1.84,0,0,1,1-.25,1.79,1.79,0,0,1,1,.25.72.72,0,0,1,.37.59V103a4,4,0,0,1-1.34,3,4.63,4.63,0,0,1-6.39,0A4,4,0,0,1,59.91,103Z"/><path class="cls-6" d="M70.39,105.44a1.41,1.41,0,0,1,.28-.79.77.77,0,0,1,.63-.41,1.2,1.2,0,0,1,.59.21,5.37,5.37,0,0,0,.92.43,3.77,3.77,0,0,0,1.36.22c1,0,1.55-.29,1.55-.87a.87.87,0,0,0-.51-.78A5.1,5.1,0,0,0,74,103c-.48-.12-1-.27-1.46-.44a2.9,2.9,0,0,1-1.25-.86,2.29,2.29,0,0,1-.51-1.54,3.11,3.11,0,0,1,.9-2.24A3.8,3.8,0,0,1,74.51,97a6.45,6.45,0,0,1,2.32.39c.68.27,1,.59,1,1a1.69,1.69,0,0,1-.29.83.8.8,0,0,1-.7.47,3.89,3.89,0,0,1-.91-.26,4.4,4.4,0,0,0-1.4-.26,1.77,1.77,0,0,0-1.09.28.84.84,0,0,0-.38.64.66.66,0,0,0,.38.57,3.06,3.06,0,0,0,.93.35,12.29,12.29,0,0,1,1.2.33,9.09,9.09,0,0,1,1.18.5,2.52,2.52,0,0,1,.92.89,2.83,2.83,0,0,1,.37,1.46,2.79,2.79,0,0,1-1,2.29,4.36,4.36,0,0,1-2.85.84,6.14,6.14,0,0,1-2.69-.55Q70.39,106.16,70.39,105.44Z"/><path class="cls-6" d="M79.57,93.66a1.08,1.08,0,0,1,.44-.85,1.76,1.76,0,0,1,1.1-.35,1.5,1.5,0,0,1,1,.35,1.06,1.06,0,0,1,0,1.69,1.46,1.46,0,0,1-1,.36A1.71,1.71,0,0,1,80,94.5,1.09,1.09,0,0,1,79.57,93.66Zm.25,12.54V97.92a.71.71,0,0,1,.36-.61,1.73,1.73,0,0,1,.93-.23,1.79,1.79,0,0,1,.94.23.7.7,0,0,1,.37.61v8.28a.73.73,0,0,1-.39.58,1.52,1.52,0,0,1-.92.28,1.54,1.54,0,0,1-.92-.27A.72.72,0,0,1,79.82,106.2Z"/><path class="cls-6" d="M84.19,102.94v-1.68a4.31,4.31,0,0,1,1.13-3.12A4.5,4.5,0,0,1,88.72,97a5.13,5.13,0,0,1,2.4.5c.64.34,1,.71,1,1.13a1.53,1.53,0,0,1-.31.89.92.92,0,0,1-.76.44,3.27,3.27,0,0,1-.74-.29,3.19,3.19,0,0,0-1.34-.28c-1.36,0-2,.64-2,1.92v1.66c0,1.28.68,1.92,2,1.92a3,3,0,0,0,1.33-.3,2.41,2.41,0,0,1,.77-.31,1,1,0,0,1,.83.42,1.39,1.39,0,0,1,.33.86c0,.44-.34.83-1,1.19a5.15,5.15,0,0,1-2.45.54,4.58,4.58,0,0,1-3.42-1.18A4.3,4.3,0,0,1,84.19,102.94Z"/><path class="cls-6" d="M157.48,106.2V93.07a1.33,1.33,0,0,1,.38-1,1.47,1.47,0,0,1,1-.33A2.22,2.22,0,0,1,160,92a3.25,3.25,0,0,1,.92,1.18l2.58,4.7,2.59-4.7a3.25,3.25,0,0,1,.93-1.18,2.28,2.28,0,0,1,1.21-.27,1.47,1.47,0,0,1,1,.33,1.33,1.33,0,0,1,.38,1V106.2a.71.71,0,0,1-.4.63,2,2,0,0,1-1,.23,2,2,0,0,1-1-.23.72.72,0,0,1-.39-.63v-9l-2.46,4.36a1,1,0,0,1-.93.55,1,1,0,0,1-.9-.55L160.21,97v9.2a.72.72,0,0,1-.41.63,2,2,0,0,1-1,.23,1.89,1.89,0,0,1-1-.23A.71.71,0,0,1,157.48,106.2Z"/><path class="cls-6" d="M171.46,102.94v-1.72a4,4,0,0,1,1.35-3A4.48,4.48,0,0,1,176,97a4.55,4.55,0,0,1,3.19,1.26,4,4,0,0,1,1.37,3v1.72a4,4,0,0,1-1.37,3,4.54,4.54,0,0,1-6.38,0A4,4,0,0,1,171.46,102.94Zm2.71,0a1.89,1.89,0,0,0,.55,1.34,1.7,1.7,0,0,0,1.3.58,1.72,1.72,0,0,0,1.29-.58,1.9,1.9,0,0,0,.56-1.34v-1.7a1.85,1.85,0,0,0-.56-1.3,1.75,1.75,0,0,0-2.59,0,1.84,1.84,0,0,0-.55,1.31Z"/><path class="cls-6" d="M182.28,103.69V93.63a.68.68,0,0,1,.42-.59,1.83,1.83,0,0,1,.92-.24,2,2,0,0,1,1,.23.69.69,0,0,1,.41.58v3.47h2.47a.59.59,0,0,1,.51.32,1.49,1.49,0,0,1,.19.75,1.56,1.56,0,0,1-.19.76.58.58,0,0,1-.51.31H185v4.38a1,1,0,0,0,.26.82,1.34,1.34,0,0,0,.91.24H187a1.08,1.08,0,0,1,.85.35,1.28,1.28,0,0,1,.31.84,1.3,1.3,0,0,1-.31.86,1.08,1.08,0,0,1-.85.35h-.82Q182.27,107.06,182.28,103.69Z"/><path class="cls-6" d="M189.44,93.66a1.08,1.08,0,0,1,.44-.85,1.76,1.76,0,0,1,1.1-.35,1.49,1.49,0,0,1,1,.35,1.06,1.06,0,0,1,0,1.69,1.44,1.44,0,0,1-1,.36,1.71,1.71,0,0,1-1.1-.36A1.09,1.09,0,0,1,189.44,93.66Zm.25,12.54V97.92a.71.71,0,0,1,.36-.61,2,2,0,0,1,1.87,0,.7.7,0,0,1,.37.61v8.28a.73.73,0,0,1-.39.58,1.52,1.52,0,0,1-.92.28,1.54,1.54,0,0,1-.92-.27A.72.72,0,0,1,189.69,106.2Z"/><path class="cls-6" d="M194,102.94v-1.72a4,4,0,0,1,1.34-3,4.68,4.68,0,0,1,6.4,0,4,4,0,0,1,1.37,3v1.72a4,4,0,0,1-1.37,3,4.54,4.54,0,0,1-6.38,0A4,4,0,0,1,194,102.94Zm2.7,0a1.94,1.94,0,0,0,.55,1.34,1.74,1.74,0,0,0,2.59,0,1.86,1.86,0,0,0,.56-1.34v-1.7a1.81,1.81,0,0,0-.56-1.3,1.75,1.75,0,0,0-2.59,0,1.88,1.88,0,0,0-.55,1.31Z"/><path class="cls-6" d="M204.85,106.2V97.92a.7.7,0,0,1,.37-.61,1.84,1.84,0,0,1,1-.23,1.47,1.47,0,0,1,.85.24.7.7,0,0,1,.34.61v.64a2.89,2.89,0,0,1,1.08-1.15,3.29,3.29,0,0,1,4.27.8,4.46,4.46,0,0,1,1.08,3v5a.72.72,0,0,1-.41.63,2,2,0,0,1-1,.23,1.89,1.89,0,0,1-.93-.23.72.72,0,0,1-.41-.63v-5a1.82,1.82,0,0,0-.55-1.31,1.69,1.69,0,0,0-1.28-.58,1.61,1.61,0,0,0-1.2.52,1.85,1.85,0,0,0-.52,1.37v5c0,.21-.14.4-.41.59a1.68,1.68,0,0,1-1,.27,1.65,1.65,0,0,1-1-.27A.72.72,0,0,1,204.85,106.2Z"/><path class="cls-6" d="M262.41,105.84a1.26,1.26,0,0,1,0-.22l4.06-13.21a1,1,0,0,1,.62-.61,2.89,2.89,0,0,1,2.26,0,1.13,1.13,0,0,1,.63.68l4.05,13.21a1.23,1.23,0,0,1,0,.21,1,1,0,0,1-.57.8,2.16,2.16,0,0,1-1.15.34c-.52,0-.83-.18-.93-.55l-.79-2.79h-4.5l-.79,2.79c-.11.37-.45.55-1,.55a2.71,2.71,0,0,1-1.31-.35A1,1,0,0,1,262.41,105.84Zm4.36-4.26h3.63l-1.83-6.45Z"/><path class="cls-6" d="M274,92.84a1,1,0,0,1,.56-.81,2.33,2.33,0,0,1,1.16-.32q.78,0,.93.54l3.21,11.38,3.19-11.38q.15-.54.93-.54a2.27,2.27,0,0,1,1.15.33,1,1,0,0,1,.57.8s0,.1,0,.21l-4,13.21a1.07,1.07,0,0,1-.63.68,2.57,2.57,0,0,1-1.13.24c-1,0-1.55-.3-1.76-.92l-4.06-13.21C274,92.94,274,92.87,274,92.84Z"/><path class="cls-6" d="M291.36,106.2V93.07a1.3,1.3,0,0,1,.39-1,1.43,1.43,0,0,1,1-.33,2.22,2.22,0,0,1,1.2.27,3.25,3.25,0,0,1,.92,1.18l2.59,4.7,2.58-4.7a3.36,3.36,0,0,1,.93-1.18,2.28,2.28,0,0,1,1.21-.27,1.47,1.47,0,0,1,1,.33,1.3,1.3,0,0,1,.39,1V106.2a.72.72,0,0,1-.41.63,2,2,0,0,1-1,.23,1.89,1.89,0,0,1-1-.23.71.71,0,0,1-.4-.63v-9l-2.46,4.36a1,1,0,0,1-1.83,0L294.09,97v9.2a.72.72,0,0,1-.41.63,2,2,0,0,1-1,.23,1.89,1.89,0,0,1-1-.23A.71.71,0,0,1,291.36,106.2Z"/><path class="cls-6" d="M305.34,102.94v-1.78a3.87,3.87,0,0,1,1.35-3A4.6,4.6,0,0,1,309.94,97,4.46,4.46,0,0,1,313,98.08a3.64,3.64,0,0,1,1.27,2.84,2.75,2.75,0,0,1-.16,1,1,1,0,0,1-.48.57,2.16,2.16,0,0,1-.6.21,4.61,4.61,0,0,1-.71,0h-4.27v.32a1.83,1.83,0,0,0,.67,1.46,2.73,2.73,0,0,0,1.79.55,3.44,3.44,0,0,0,1.57-.39,3.13,3.13,0,0,1,1-.4.87.87,0,0,1,.74.41,1.37,1.37,0,0,1,.29.78c0,.4-.35.78-1.06,1.17a6.25,6.25,0,0,1-6.3-.61A3.88,3.88,0,0,1,305.34,102.94Zm2.71-1.76h3.07a.79.79,0,0,0,.47-.11.51.51,0,0,0,.14-.42,1.37,1.37,0,0,0-.54-1.12,2,2,0,0,0-1.31-.43,2,2,0,0,0-1.28.42,1.32,1.32,0,0,0-.55,1.11Z"/><path class="cls-6" d="M315.53,102.94v-1.72a4.43,4.43,0,0,1,1.1-3A3.41,3.41,0,0,1,319.27,97a2.87,2.87,0,0,1,1.62.46A3.32,3.32,0,0,1,322,98.57V92.13a.69.69,0,0,1,.38-.61,1.85,1.85,0,0,1,1-.23,1.81,1.81,0,0,1,1,.23.67.67,0,0,1,.37.6V106.2a.71.71,0,0,1-.38.59,1.65,1.65,0,0,1-1,.27,1.36,1.36,0,0,1-.85-.28.77.77,0,0,1-.37-.59v-.62a2.91,2.91,0,0,1-1.14,1.18,3.34,3.34,0,0,1-1.78.5,3.31,3.31,0,0,1-2.56-1.31A4.46,4.46,0,0,1,315.53,102.94Zm2.71,0a1.94,1.94,0,0,0,.54,1.33,1.73,1.73,0,0,0,1.28.59,1.87,1.87,0,0,0,1.33-.57,1.58,1.58,0,0,0,.59-1v-2.08a1.77,1.77,0,0,0-.58-1.36,1.9,1.9,0,0,0-1.31-.52,1.76,1.76,0,0,0-1.31.57,1.87,1.87,0,0,0-.54,1.31Z"/><path class="cls-6" d="M326.66,93.66a1.06,1.06,0,0,1,.45-.85,1.72,1.72,0,0,1,1.1-.35,1.52,1.52,0,0,1,1,.35,1.08,1.08,0,0,1,0,1.69,1.48,1.48,0,0,1-1,.36,1.67,1.67,0,0,1-1.1-.36A1.07,1.07,0,0,1,326.66,93.66Zm.25,12.54V97.92a.71.71,0,0,1,.36-.61,2,2,0,0,1,1.87,0,.7.7,0,0,1,.37.61v8.28a.73.73,0,0,1-.39.58,1.52,1.52,0,0,1-.92.28,1.54,1.54,0,0,1-.92-.27A.74.74,0,0,1,326.91,106.2Z"/><path class="cls-6" d="M331,104.37a2.41,2.41,0,0,1,1.26-2.33,7.85,7.85,0,0,1,3.63-.67h.86v-.29a2.25,2.25,0,0,0-.45-1.39,1.66,1.66,0,0,0-1.4-.59,3.33,3.33,0,0,0-1.61.36,3.83,3.83,0,0,1-.78.35.75.75,0,0,1-.67-.42,1.75,1.75,0,0,1-.26-.92c0-.41.36-.76,1.09-1.06A5.86,5.86,0,0,1,335,97a4.51,4.51,0,0,1,3.41,1.16,4.1,4.1,0,0,1,1.11,2.93v5.15a.75.75,0,0,1-.38.61,1.73,1.73,0,0,1-.94.25,1.42,1.42,0,0,1-.88-.27.8.8,0,0,1-.34-.65v-.65a4.15,4.15,0,0,1-3.19,1.76,2.73,2.73,0,0,1-2-.74A2.82,2.82,0,0,1,331,104.37Zm2.71-.34a1,1,0,0,0,.3.8,1.17,1.17,0,0,0,.81.27,1.87,1.87,0,0,0,1.3-.59,1.8,1.8,0,0,0,.63-1.32v-.42h-.31a6.57,6.57,0,0,0-2,.25A1,1,0,0,0,333.74,104Z"/></g></g></svg>