<svg xmlns="http://www.w3.org/2000/svg" viewBox="0 0 877.82 713"><defs><style>.cls-1,.cls-2,.cls-3,.cls-4,.cls-5,.cls-6{fill:none;stroke-linecap:round;stroke-miterlimit:10;}.cls-1,.cls-4{stroke:#004d61;}.cls-1{stroke-width:12.49px;}.cls-2,.cls-3{stroke:#ff502f;}.cls-2,.cls-5{stroke-width:37.48px;}.cls-3,.cls-6{stroke-width:12.08px;}.cls-4{stroke-width:36.39px;}.cls-5,.cls-6{stroke:#5bd1d7;}</style></defs><title>People–kjønn</title><g id="Layer_2" data-name="Layer 2"><g id="Layer_1-2" data-name="Layer 1"><line class="cls-1" x1="97.68" y1="88.41" x2="97.68" y2="125.89"/><line class="cls-1" x1="113.92" y1="88.41" x2="113.92" y2="125.89"/><line class="cls-2" x1="105.8" y1="82.79" x2="105.8" y2="51.56"/><line class="cls-3" x1="139.11" y1="59.06" x2="109.71" y2="37.98"/><line class="cls-3" x1="72.64" y1="59.06" x2="102.05" y2="37.98"/><line class="cls-4" x1="105.72" y1="18.19" x2="105.72" y2="18.19"/><line class="cls-1" x1="31.07" y1="88.41" x2="31.07" y2="125.89"/><line class="cls-1" x1="47.31" y1="88.41" x2="47.31" y2="125.89"/><line class="cls-2" x1="39.19" y1="82.79" x2="39.19" y2="51.56"/><line class="cls-3" x1="72.51" y1="59.06" x2="43.1" y2="37.98"/><line class="cls-3" x1="6.04" y1="59.06" x2="35.45" y2="37.98"/><line class="cls-4" x1="39.12" y1="18.19" x2="39.12" y2="18.19"/><line class="cls-1" x1="164.29" y1="88.41" x2="164.29" y2="125.89"/><line class="cls-1" x1="180.53" y1="88.41" x2="180.53" y2="125.89"/><line class="cls-2" x1="172.41" y1="82.79" x2="172.41" y2="51.56"/><line class="cls-3" x1="205.72" y1="59.06" x2="176.31" y2="37.98"/><line class="cls-3" x1="139.25" y1="59.06" x2="168.66" y2="37.98"/><line class="cls-4" x1="172.33" y1="18.19" x2="172.33" y2="18.19"/><line class="cls-1" x1="230.89" y1="88.41" x2="230.89" y2="125.89"/><line class="cls-1" x1="247.13" y1="88.41" x2="247.13" y2="125.89"/><line class="cls-2" x1="239.01" y1="82.79" x2="239.01" y2="51.56"/><line class="cls-3" x1="272.33" y1="59.06" x2="242.92" y2="37.98"/><line class="cls-3" x1="205.86" y1="59.06" x2="235.27" y2="37.98"/><line class="cls-4" x1="238.93" y1="18.19" x2="238.93" y2="18.19"/><line class="cls-1" x1="297.5" y1="88.41" x2="297.5" y2="125.89"/><line class="cls-1" x1="313.74" y1="88.41" x2="313.74" y2="125.89"/><line class="cls-2" x1="305.62" y1="82.79" x2="305.62" y2="51.56"/><line class="cls-3" x1="338.93" y1="59.06" x2="309.52" y2="37.98"/><line class="cls-3" x1="272.46" y1="59.06" x2="301.87" y2="37.98"/><line class="cls-4" x1="305.54" y1="18.19" x2="305.54" y2="18.19"/><line class="cls-1" x1="364.11" y1="88.41" x2="364.11" y2="125.89"/><line class="cls-1" x1="380.35" y1="88.41" x2="380.35" y2="125.89"/><line class="cls-2" x1="372.23" y1="82.79" x2="372.23" y2="51.56"/><line class="cls-3" x1="405.54" y1="59.06" x2="376.13" y2="37.98"/><line class="cls-3" x1="339.07" y1="59.06" x2="368.48" y2="37.98"/><line class="cls-4" x1="372.15" y1="18.19" x2="372.15" y2="18.19"/><line class="cls-1" x1="430.71" y1="88.41" x2="430.71" y2="125.89"/><line class="cls-1" x1="446.95" y1="88.41" x2="446.95" y2="125.89"/><line class="cls-2" x1="438.83" y1="82.79" x2="438.83" y2="51.56"/><line class="cls-3" x1="472.15" y1="59.06" x2="442.74" y2="37.98"/><line class="cls-3" x1="405.68" y1="59.06" x2="435.08" y2="37.98"/><line class="cls-4" x1="438.75" y1="18.19" x2="438.75" y2="18.19"/><line class="cls-1" x1="497.32" y1="88.41" x2="497.32" y2="125.89"/><line class="cls-1" x1="513.56" y1="88.41" x2="513.56" y2="125.89"/><line class="cls-2" x1="505.44" y1="82.79" x2="505.44" y2="51.56"/><line class="cls-3" x1="538.75" y1="59.06" x2="509.34" y2="37.98"/><line class="cls-3" x1="472.28" y1="59.06" x2="501.69" y2="37.98"/><line class="cls-4" x1="505.36" y1="18.19" x2="505.36" y2="18.19"/><line class="cls-1" x1="563.93" y1="88.41" x2="563.93" y2="125.89"/><line class="cls-1" x1="580.17" y1="88.41" x2="580.17" y2="125.89"/><line class="cls-2" x1="572.05" y1="82.79" x2="572.05" y2="51.56"/><line class="cls-3" x1="605.36" y1="59.06" x2="575.95" y2="37.98"/><line class="cls-3" x1="538.89" y1="59.06" x2="568.3" y2="37.98"/><line class="cls-4" x1="571.97" y1="18.19" x2="571.97" y2="18.19"/><line class="cls-1" x1="630.53" y1="88.41" x2="630.53" y2="125.89"/><line class="cls-1" x1="646.77" y1="88.41" x2="646.77" y2="125.89"/><line class="cls-2" x1="638.65" y1="82.79" x2="638.65" y2="51.56"/><line class="cls-3" x1="671.96" y1="59.06" x2="642.56" y2="37.98"/><line class="cls-3" x1="605.49" y1="59.06" x2="634.9" y2="37.98"/><line class="cls-4" x1="638.57" y1="18.19" x2="638.57" y2="18.19"/><line class="cls-1" x1="830.35" y1="88.41" x2="830.35" y2="125.89"/><line class="cls-1" x1="846.59" y1="88.41" x2="846.59" y2="125.89"/><line class="cls-2" x1="838.47" y1="82.79" x2="838.47" y2="51.56"/><line class="cls-3" x1="871.78" y1="59.06" x2="842.37" y2="37.98"/><line class="cls-3" x1="805.31" y1="59.06" x2="834.72" y2="37.98"/><line class="cls-4" x1="838.39" y1="18.19" x2="838.39" y2="18.19"/><line class="cls-1" x1="697.14" y1="88.41" x2="697.14" y2="125.89"/><line class="cls-1" x1="713.38" y1="88.41" x2="713.38" y2="125.89"/><line class="cls-2" x1="705.26" y1="82.79" x2="705.26" y2="51.56"/><line class="cls-3" x1="738.57" y1="59.06" x2="709.16" y2="37.98"/><line class="cls-3" x1="672.1" y1="59.06" x2="701.51" y2="37.98"/><line class="cls-4" x1="705.18" y1="18.19" x2="705.18" y2="18.19"/><line class="cls-1" x1="763.74" y1="88.41" x2="763.74" y2="125.89"/><line class="cls-1" x1="779.98" y1="88.41" x2="779.98" y2="125.89"/><line class="cls-2" x1="771.86" y1="82.79" x2="771.86" y2="51.56"/><line class="cls-3" x1="805.18" y1="59.06" x2="775.77" y2="37.98"/><line class="cls-3" x1="738.71" y1="59.06" x2="768.12" y2="37.98"/><line class="cls-4" x1="771.78" y1="18.19" x2="771.78" y2="18.19"/><line class="cls-1" x1="97.68" y1="233.63" x2="97.68" y2="271.11"/><line class="cls-1" x1="113.92" y1="233.63" x2="113.92" y2="271.11"/><line class="cls-2" x1="105.8" y1="228.01" x2="105.8" y2="196.78"/><line class="cls-3" x1="139.11" y1="204.27" x2="109.71" y2="183.19"/><line class="cls-3" x1="72.64" y1="204.27" x2="102.05" y2="183.19"/><line class="cls-4" x1="105.72" y1="163.41" x2="105.72" y2="163.41"/><line class="cls-1" x1="31.07" y1="233.63" x2="31.07" y2="271.11"/><line class="cls-1" x1="47.31" y1="233.63" x2="47.31" y2="271.11"/><line class="cls-2" x1="39.19" y1="228.01" x2="39.19" y2="196.78"/><line class="cls-3" x1="72.51" y1="204.27" x2="43.1" y2="183.19"/><line class="cls-3" x1="6.04" y1="204.27" x2="35.45" y2="183.19"/><line class="cls-4" x1="39.12" y1="163.41" x2="39.12" y2="163.41"/><line class="cls-1" x1="164.29" y1="233.63" x2="164.29" y2="271.11"/><line class="cls-1" x1="180.53" y1="233.63" x2="180.53" y2="271.11"/><line class="cls-2" x1="172.41" y1="228.01" x2="172.41" y2="196.78"/><line class="cls-3" x1="205.72" y1="204.27" x2="176.31" y2="183.19"/><line class="cls-3" x1="139.25" y1="204.27" x2="168.66" y2="183.19"/><line class="cls-4" x1="172.33" y1="163.41" x2="172.33" y2="163.41"/><line class="cls-1" x1="230.89" y1="233.63" x2="230.89" y2="271.11"/><line class="cls-1" x1="247.13" y1="233.63" x2="247.13" y2="271.11"/><line class="cls-2" x1="239.01" y1="228.01" x2="239.01" y2="196.78"/><line class="cls-3" x1="272.33" y1="204.27" x2="242.92" y2="183.19"/><line class="cls-3" x1="205.86" y1="204.27" x2="235.27" y2="183.19"/><line class="cls-4" x1="238.93" y1="163.41" x2="238.93" y2="163.41"/><line class="cls-1" x1="297.5" y1="233.63" x2="297.5" y2="271.11"/><line class="cls-1" x1="313.74" y1="233.63" x2="313.74" y2="271.11"/><line class="cls-2" x1="305.62" y1="228.01" x2="305.62" y2="196.78"/><line class="cls-3" x1="338.93" y1="204.27" x2="309.52" y2="183.19"/><line class="cls-3" x1="272.46" y1="204.27" x2="301.87" y2="183.19"/><line class="cls-4" x1="305.54" y1="163.41" x2="305.54" y2="163.41"/><line class="cls-1" x1="364.11" y1="233.63" x2="364.11" y2="271.11"/><line class="cls-1" x1="380.35" y1="233.63" x2="380.35" y2="271.11"/><line class="cls-2" x1="372.23" y1="228.01" x2="372.23" y2="196.78"/><line class="cls-3" x1="405.54" y1="204.27" x2="376.13" y2="183.19"/><line class="cls-3" x1="339.07" y1="204.27" x2="368.48" y2="183.19"/><line class="cls-4" x1="372.15" y1="163.41" x2="372.15" y2="163.41"/><line class="cls-1" x1="430.71" y1="233.63" x2="430.71" y2="271.11"/><line class="cls-1" x1="446.95" y1="233.63" x2="446.95" y2="271.11"/><line class="cls-2" x1="438.83" y1="228.01" x2="438.83" y2="196.78"/><line class="cls-3" x1="472.15" y1="204.27" x2="442.74" y2="183.19"/><line class="cls-3" x1="405.68" y1="204.27" x2="435.08" y2="183.19"/><line class="cls-4" x1="438.75" y1="163.41" x2="438.75" y2="163.41"/><line class="cls-1" x1="497.32" y1="233.63" x2="497.32" y2="271.11"/><line class="cls-1" x1="513.56" y1="233.63" x2="513.56" y2="271.11"/><line class="cls-2" x1="505.44" y1="228.01" x2="505.44" y2="196.78"/><line class="cls-3" x1="538.75" y1="204.27" x2="509.34" y2="183.19"/><line class="cls-3" x1="472.28" y1="204.27" x2="501.69" y2="183.19"/><line class="cls-4" x1="505.36" y1="163.41" x2="505.36" y2="163.41"/><line class="cls-1" x1="563.93" y1="233.63" x2="563.93" y2="271.11"/><line class="cls-1" x1="580.17" y1="233.63" x2="580.17" y2="271.11"/><line class="cls-2" x1="572.05" y1="228.01" x2="572.05" y2="196.78"/><line class="cls-3" x1="605.36" y1="204.27" x2="575.95" y2="183.19"/><line class="cls-3" x1="538.89" y1="204.27" x2="568.3" y2="183.19"/><line class="cls-4" x1="571.97" y1="163.41" x2="571.97" y2="163.41"/><line class="cls-1" x1="630.53" y1="233.63" x2="630.53" y2="271.11"/><line class="cls-1" x1="646.77" y1="233.63" x2="646.77" y2="271.11"/><line class="cls-2" x1="638.65" y1="228.01" x2="638.65" y2="196.78"/><line class="cls-3" x1="671.96" y1="204.27" x2="642.56" y2="183.19"/><line class="cls-3" x1="605.49" y1="204.27" x2="634.9" y2="183.19"/><line class="cls-4" x1="638.57" y1="163.41" x2="638.57" y2="163.41"/><line class="cls-1" x1="830.35" y1="233.63" x2="830.35" y2="271.11"/><line class="cls-1" x1="846.59" y1="233.63" x2="846.59" y2="271.11"/><line class="cls-2" x1="838.47" y1="228.01" x2="838.47" y2="196.78"/><line class="cls-3" x1="871.78" y1="204.27" x2="842.37" y2="183.19"/><line class="cls-3" x1="805.31" y1="204.27" x2="834.72" y2="183.19"/><line class="cls-4" x1="838.39" y1="163.41" x2="838.39" y2="163.41"/><line class="cls-1" x1="697.14" y1="233.63" x2="697.14" y2="271.11"/><line class="cls-1" x1="713.38" y1="233.63" x2="713.38" y2="271.11"/><line class="cls-2" x1="705.26" y1="228.01" x2="705.26" y2="196.78"/><line class="cls-3" x1="738.57" y1="204.27" x2="709.16" y2="183.19"/><line class="cls-3" x1="672.1" y1="204.27" x2="701.51" y2="183.19"/><line class="cls-4" x1="705.18" y1="163.41" x2="705.18" y2="163.41"/><line class="cls-1" x1="763.74" y1="233.63" x2="763.74" y2="271.11"/><line class="cls-1" x1="779.98" y1="233.63" x2="779.98" y2="271.11"/><line class="cls-2" x1="771.86" y1="228.01" x2="771.86" y2="196.78"/><line class="cls-3" x1="805.18" y1="204.27" x2="775.77" y2="183.19"/><line class="cls-3" x1="738.71" y1="204.27" x2="768.12" y2="183.19"/><line class="cls-4" x1="771.78" y1="163.41" x2="771.78" y2="163.41"/><line class="cls-1" x1="97.68" y1="378.85" x2="97.68" y2="416.32"/><line class="cls-1" x1="113.92" y1="378.85" x2="113.92" y2="416.32"/><line class="cls-5" x1="105.8" y1="373.22" x2="105.8" y2="341.99"/><line class="cls-6" x1="139.11" y1="349.49" x2="109.71" y2="328.41"/><line class="cls-6" x1="72.64" y1="349.49" x2="102.05" y2="328.41"/><line class="cls-4" x1="105.72" y1="308.62" x2="105.72" y2="308.62"/><line class="cls-1" x1="31.07" y1="378.85" x2="31.07" y2="416.32"/><line class="cls-1" x1="47.31" y1="378.85" x2="47.31" y2="416.32"/><line class="cls-5" x1="39.19" y1="373.22" x2="39.19" y2="341.99"/><line class="cls-6" x1="72.51" y1="349.49" x2="43.1" y2="328.41"/><line class="cls-6" x1="6.04" y1="349.49" x2="35.45" y2="328.41"/><line class="cls-4" x1="39.12" y1="308.62" x2="39.12" y2="308.62"/><line class="cls-1" x1="164.29" y1="378.85" x2="164.29" y2="416.32"/><line class="cls-1" x1="180.53" y1="378.85" x2="180.53" y2="416.32"/><line class="cls-5" x1="172.41" y1="373.22" x2="172.41" y2="341.99"/><line class="cls-6" x1="205.72" y1="349.49" x2="176.31" y2="328.41"/><line class="cls-6" x1="139.25" y1="349.49" x2="168.66" y2="328.41"/><line class="cls-4" x1="172.33" y1="308.62" x2="172.33" y2="308.62"/><line class="cls-1" x1="230.89" y1="378.85" x2="230.89" y2="416.32"/><line class="cls-1" x1="247.13" y1="378.85" x2="247.13" y2="416.32"/><line class="cls-5" x1="239.01" y1="373.22" x2="239.01" y2="341.99"/><line class="cls-6" x1="272.33" y1="349.49" x2="242.92" y2="328.41"/><line class="cls-6" x1="205.86" y1="349.49" x2="235.27" y2="328.41"/><line class="cls-4" x1="238.93" y1="308.62" x2="238.93" y2="308.62"/><line class="cls-1" x1="297.5" y1="378.85" x2="297.5" y2="416.32"/><line class="cls-1" x1="313.74" y1="378.85" x2="313.74" y2="416.32"/><line class="cls-5" x1="305.62" y1="373.22" x2="305.62" y2="341.99"/><line class="cls-6" x1="338.93" y1="349.49" x2="309.52" y2="328.41"/><line class="cls-6" x1="272.46" y1="349.49" x2="301.87" y2="328.41"/><line class="cls-4" x1="305.54" y1="308.62" x2="305.54" y2="308.62"/><line class="cls-1" x1="364.11" y1="378.85" x2="364.11" y2="416.32"/><line class="cls-1" x1="380.35" y1="378.85" x2="380.35" y2="416.32"/><line class="cls-5" x1="372.23" y1="373.22" x2="372.23" y2="341.99"/><line class="cls-6" x1="405.54" y1="349.49" x2="376.13" y2="328.41"/><line class="cls-6" x1="339.07" y1="349.49" x2="368.48" y2="328.41"/><line class="cls-4" x1="372.15" y1="308.62" x2="372.15" y2="308.62"/><line class="cls-1" x1="430.71" y1="378.85" x2="430.71" y2="416.32"/><line class="cls-1" x1="446.95" y1="378.85" x2="446.95" y2="416.32"/><line class="cls-5" x1="438.83" y1="373.22" x2="438.83" y2="341.99"/><line class="cls-6" x1="472.15" y1="349.49" x2="442.74" y2="328.41"/><line class="cls-6" x1="405.68" y1="349.49" x2="435.08" y2="328.41"/><line class="cls-4" x1="438.75" y1="308.62" x2="438.75" y2="308.62"/><line class="cls-1" x1="497.32" y1="378.85" x2="497.32" y2="416.32"/><line class="cls-1" x1="513.56" y1="378.85" x2="513.56" y2="416.32"/><line class="cls-5" x1="505.44" y1="373.22" x2="505.44" y2="341.99"/><line class="cls-6" x1="538.75" y1="349.49" x2="509.34" y2="328.41"/><line class="cls-6" x1="472.28" y1="349.49" x2="501.69" y2="328.41"/><line class="cls-4" x1="505.36" y1="308.62" x2="505.36" y2="308.62"/><line class="cls-1" x1="563.93" y1="378.85" x2="563.93" y2="416.32"/><line class="cls-1" x1="580.17" y1="378.85" x2="580.17" y2="416.32"/><line class="cls-5" x1="572.05" y1="373.22" x2="572.05" y2="341.99"/><line class="cls-6" x1="605.36" y1="349.49" x2="575.95" y2="328.41"/><line class="cls-6" x1="538.89" y1="349.49" x2="568.3" y2="328.41"/><line class="cls-4" x1="571.97" y1="308.62" x2="571.97" y2="308.62"/><line class="cls-1" x1="630.53" y1="378.85" x2="630.53" y2="416.32"/><line class="cls-1" x1="646.77" y1="378.85" x2="646.77" y2="416.32"/><line class="cls-5" x1="638.65" y1="373.22" x2="638.65" y2="341.99"/><line class="cls-6" x1="671.96" y1="349.49" x2="642.56" y2="328.41"/><line class="cls-6" x1="605.49" y1="349.49" x2="634.9" y2="328.41"/><line class="cls-4" x1="638.57" y1="308.62" x2="638.57" y2="308.62"/><line class="cls-1" x1="830.35" y1="378.85" x2="830.35" y2="416.32"/><line class="cls-1" x1="846.59" y1="378.85" x2="846.59" y2="416.32"/><line class="cls-5" x1="838.47" y1="373.22" x2="838.47" y2="341.99"/><line class="cls-6" x1="871.78" y1="349.49" x2="842.37" y2="328.41"/><line class="cls-6" x1="805.31" y1="349.49" x2="834.72" y2="328.41"/><line class="cls-4" x1="838.39" y1="308.62" x2="838.39" y2="308.62"/><line class="cls-1" x1="697.14" y1="378.85" x2="697.14" y2="416.32"/><line class="cls-1" x1="713.38" y1="378.85" x2="713.38" y2="416.32"/><line class="cls-5" x1="705.26" y1="373.22" x2="705.26" y2="341.99"/><line class="cls-6" x1="738.57" y1="349.49" x2="709.16" y2="328.41"/><line class="cls-6" x1="672.1" y1="349.49" x2="701.51" y2="328.41"/><line class="cls-4" x1="705.18" y1="308.62" x2="705.18" y2="308.62"/><line class="cls-1" x1="763.74" y1="378.85" x2="763.74" y2="416.32"/><line class="cls-1" x1="779.98" y1="378.85" x2="779.98" y2="416.32"/><line class="cls-5" x1="771.86" y1="373.22" x2="771.86" y2="341.99"/><line class="cls-6" x1="805.18" y1="349.49" x2="775.77" y2="328.41"/><line class="cls-6" x1="738.71" y1="349.49" x2="768.12" y2="328.41"/><line class="cls-4" x1="771.78" y1="308.62" x2="771.78" y2="308.62"/><line class="cls-1" x1="97.68" y1="669.28" x2="97.68" y2="706.75"/><line class="cls-1" x1="113.92" y1="669.28" x2="113.92" y2="706.75"/><line class="cls-5" x1="105.8" y1="663.65" x2="105.8" y2="632.42"/><line class="cls-6" x1="139.11" y1="639.92" x2="109.71" y2="618.84"/><line class="cls-6" x1="72.64" y1="639.92" x2="102.05" y2="618.84"/><line class="cls-4" x1="105.72" y1="599.06" x2="105.72" y2="599.06"/><line class="cls-1" x1="31.07" y1="669.28" x2="31.07" y2="706.75"/><line class="cls-1" x1="47.31" y1="669.28" x2="47.31" y2="706.75"/><line class="cls-5" x1="39.19" y1="663.65" x2="39.19" y2="632.42"/><line class="cls-6" x1="72.51" y1="639.92" x2="43.1" y2="618.84"/><line class="cls-6" x1="6.04" y1="639.92" x2="35.45" y2="618.84"/><line class="cls-4" x1="39.12" y1="599.06" x2="39.12" y2="599.06"/><line class="cls-1" x1="164.29" y1="669.28" x2="164.29" y2="706.75"/><line class="cls-1" x1="180.53" y1="669.28" x2="180.53" y2="706.75"/><line class="cls-5" x1="172.41" y1="663.65" x2="172.41" y2="632.42"/><line class="cls-6" x1="205.72" y1="639.92" x2="176.31" y2="618.84"/><line class="cls-6" x1="139.25" y1="639.92" x2="168.66" y2="618.84"/><line class="cls-4" x1="172.33" y1="599.06" x2="172.33" y2="599.06"/><line class="cls-1" x1="230.89" y1="669.28" x2="230.89" y2="706.75"/><line class="cls-1" x1="247.13" y1="669.28" x2="247.13" y2="706.75"/><line class="cls-5" x1="239.01" y1="663.65" x2="239.01" y2="632.42"/><line class="cls-6" x1="272.33" y1="639.92" x2="242.92" y2="618.84"/><line class="cls-6" x1="205.86" y1="639.92" x2="235.27" y2="618.84"/><line class="cls-4" x1="238.93" y1="599.06" x2="238.93" y2="599.06"/><line class="cls-1" x1="297.5" y1="669.28" x2="297.5" y2="706.75"/><line class="cls-1" x1="313.74" y1="669.28" x2="313.74" y2="706.75"/><line class="cls-5" x1="305.62" y1="663.65" x2="305.62" y2="632.42"/><line class="cls-6" x1="338.93" y1="639.92" x2="309.52" y2="618.84"/><line class="cls-6" x1="272.46" y1="639.92" x2="301.87" y2="618.84"/><line class="cls-4" x1="305.54" y1="599.06" x2="305.54" y2="599.06"/><line class="cls-1" x1="364.11" y1="669.28" x2="364.11" y2="706.75"/><line class="cls-1" x1="380.35" y1="669.28" x2="380.35" y2="706.75"/><line class="cls-5" x1="372.23" y1="663.65" x2="372.23" y2="632.42"/><line class="cls-6" x1="405.54" y1="639.92" x2="376.13" y2="618.84"/><line class="cls-6" x1="339.07" y1="639.92" x2="368.48" y2="618.84"/><line class="cls-4" x1="372.15" y1="599.06" x2="372.15" y2="599.06"/><line class="cls-1" x1="430.71" y1="669.28" x2="430.71" y2="706.75"/><line class="cls-1" x1="446.95" y1="669.28" x2="446.95" y2="706.75"/><line class="cls-5" x1="438.83" y1="663.65" x2="438.83" y2="632.42"/><line class="cls-6" x1="472.15" y1="639.92" x2="442.74" y2="618.84"/><line class="cls-6" x1="405.68" y1="639.92" x2="435.08" y2="618.84"/><line class="cls-4" x1="438.75" y1="599.06" x2="438.75" y2="599.06"/><line class="cls-1" x1="497.32" y1="669.28" x2="497.32" y2="706.75"/><line class="cls-1" x1="513.56" y1="669.28" x2="513.56" y2="706.75"/><line class="cls-5" x1="505.44" y1="663.65" x2="505.44" y2="632.42"/><line class="cls-6" x1="538.75" y1="639.92" x2="509.34" y2="618.84"/><line class="cls-6" x1="472.28" y1="639.92" x2="501.69" y2="618.84"/><line class="cls-4" x1="505.36" y1="599.06" x2="505.36" y2="599.06"/><line class="cls-1" x1="97.68" y1="524.06" x2="97.68" y2="561.54"/><line class="cls-1" x1="113.92" y1="524.06" x2="113.92" y2="561.54"/><line class="cls-5" x1="105.8" y1="518.44" x2="105.8" y2="487.21"/><line class="cls-6" x1="139.11" y1="494.7" x2="109.71" y2="473.62"/><line class="cls-6" x1="72.64" y1="494.7" x2="102.05" y2="473.62"/><line class="cls-4" x1="105.72" y1="453.84" x2="105.72" y2="453.84"/><line class="cls-1" x1="31.07" y1="524.06" x2="31.07" y2="561.54"/><line class="cls-1" x1="47.31" y1="524.06" x2="47.31" y2="561.54"/><line class="cls-5" x1="39.19" y1="518.44" x2="39.19" y2="487.21"/><line class="cls-6" x1="72.51" y1="494.7" x2="43.1" y2="473.62"/><line class="cls-6" x1="6.04" y1="494.7" x2="35.45" y2="473.62"/><line class="cls-4" x1="39.12" y1="453.84" x2="39.12" y2="453.84"/><line class="cls-1" x1="164.29" y1="524.06" x2="164.29" y2="561.54"/><line class="cls-1" x1="180.53" y1="524.06" x2="180.53" y2="561.54"/><line class="cls-5" x1="172.41" y1="518.44" x2="172.41" y2="487.21"/><line class="cls-6" x1="205.72" y1="494.7" x2="176.31" y2="473.62"/><line class="cls-6" x1="139.25" y1="494.7" x2="168.66" y2="473.62"/><line class="cls-4" x1="172.33" y1="453.84" x2="172.33" y2="453.84"/><line class="cls-1" x1="230.89" y1="524.06" x2="230.89" y2="561.54"/><line class="cls-1" x1="247.13" y1="524.06" x2="247.13" y2="561.54"/><line class="cls-5" x1="239.01" y1="518.44" x2="239.01" y2="487.21"/><line class="cls-6" x1="272.33" y1="494.7" x2="242.92" y2="473.62"/><line class="cls-6" x1="205.86" y1="494.7" x2="235.27" y2="473.62"/><line class="cls-4" x1="238.93" y1="453.84" x2="238.93" y2="453.84"/><line class="cls-1" x1="297.5" y1="524.06" x2="297.5" y2="561.54"/><line class="cls-1" x1="313.74" y1="524.06" x2="313.74" y2="561.54"/><line class="cls-5" x1="305.62" y1="518.44" x2="305.62" y2="487.21"/><line class="cls-6" x1="338.93" y1="494.7" x2="309.52" y2="473.62"/><line class="cls-6" x1="272.46" y1="494.7" x2="301.87" y2="473.62"/><line class="cls-4" x1="305.54" y1="453.84" x2="305.54" y2="453.84"/><line class="cls-1" x1="364.11" y1="524.06" x2="364.11" y2="561.54"/><line class="cls-1" x1="380.35" y1="524.06" x2="380.35" y2="561.54"/><line class="cls-5" x1="372.23" y1="518.44" x2="372.23" y2="487.21"/><line class="cls-6" x1="405.54" y1="494.7" x2="376.13" y2="473.62"/><line class="cls-6" x1="339.07" y1="494.7" x2="368.48" y2="473.62"/><line class="cls-4" x1="372.15" y1="453.84" x2="372.15" y2="453.84"/><line class="cls-1" x1="430.71" y1="524.06" x2="430.71" y2="561.54"/><line class="cls-1" x1="446.95" y1="524.06" x2="446.95" y2="561.54"/><line class="cls-5" x1="438.83" y1="518.44" x2="438.83" y2="487.21"/><line class="cls-6" x1="472.15" y1="494.7" x2="442.74" y2="473.62"/><line class="cls-6" x1="405.68" y1="494.7" x2="435.08" y2="473.62"/><line class="cls-4" x1="438.75" y1="453.84" x2="438.75" y2="453.84"/><line class="cls-1" x1="497.32" y1="524.06" x2="497.32" y2="561.54"/><line class="cls-1" x1="513.56" y1="524.06" x2="513.56" y2="561.54"/><line class="cls-5" x1="505.44" y1="518.44" x2="505.44" y2="487.21"/><line class="cls-6" x1="538.75" y1="494.7" x2="509.34" y2="473.62"/><line class="cls-6" x1="472.28" y1="494.7" x2="501.69" y2="473.62"/><line class="cls-4" x1="505.36" y1="453.84" x2="505.36" y2="453.84"/><line class="cls-1" x1="563.93" y1="524.06" x2="563.93" y2="561.54"/><line class="cls-1" x1="580.17" y1="524.06" x2="580.17" y2="561.54"/><line class="cls-5" x1="572.05" y1="518.44" x2="572.05" y2="487.21"/><line class="cls-6" x1="605.36" y1="494.7" x2="575.95" y2="473.62"/><line class="cls-6" x1="538.89" y1="494.7" x2="568.3" y2="473.62"/><line class="cls-4" x1="571.97" y1="453.84" x2="571.97" y2="453.84"/><line class="cls-1" x1="630.53" y1="524.06" x2="630.53" y2="561.54"/><line class="cls-1" x1="646.77" y1="524.06" x2="646.77" y2="561.54"/><line class="cls-5" x1="638.65" y1="518.44" x2="638.65" y2="487.21"/><line class="cls-6" x1="671.96" y1="494.7" x2="642.56" y2="473.62"/><line class="cls-6" x1="605.49" y1="494.7" x2="634.9" y2="473.62"/><line class="cls-4" x1="638.57" y1="453.84" x2="638.57" y2="453.84"/><line class="cls-1" x1="830.35" y1="524.06" x2="830.35" y2="561.54"/><line class="cls-1" x1="846.59" y1="524.06" x2="846.59" y2="561.54"/><line class="cls-5" x1="838.47" y1="518.44" x2="838.47" y2="487.21"/><line class="cls-6" x1="871.78" y1="494.7" x2="842.37" y2="473.62"/><line class="cls-6" x1="805.31" y1="494.7" x2="834.72" y2="473.62"/><line class="cls-4" x1="838.39" y1="453.84" x2="838.39" y2="453.84"/><line class="cls-1" x1="697.14" y1="524.06" x2="697.14" y2="561.54"/><line class="cls-1" x1="713.38" y1="524.06" x2="713.38" y2="561.54"/><line class="cls-5" x1="705.26" y1="518.44" x2="705.26" y2="487.21"/><line class="cls-6" x1="738.57" y1="494.7" x2="709.16" y2="473.62"/><line class="cls-6" x1="672.1" y1="494.7" x2="701.51" y2="473.62"/><line class="cls-4" x1="705.18" y1="453.84" x2="705.18" y2="453.84"/><line class="cls-1" x1="763.74" y1="524.06" x2="763.74" y2="561.54"/><line class="cls-1" x1="779.98" y1="524.06" x2="779.98" y2="561.54"/><line class="cls-5" x1="771.86" y1="518.44" x2="771.86" y2="487.21"/><line class="cls-6" x1="805.18" y1="494.7" x2="775.77" y2="473.62"/><line class="cls-6" x1="738.71" y1="494.7" x2="768.12" y2="473.62"/><line class="cls-4" x1="771.78" y1="453.84" x2="771.78" y2="453.84"/></g></g></svg>