<svg xmlns="http://www.w3.org/2000/svg" viewBox="0 0 419 594"><defs><style>.cls-1{fill:#d0edf8;}.cls-2{fill:#5bd1d7;}.cls-3,.cls-7{fill:#fff;}.cls-4{fill:#ff502f;}.cls-5{fill:#024152;}.cls-6{fill:#2e3d38;}.cls-7{opacity:0.8;}</style></defs><title>Asset 9</title><g id="Layer_2" data-name="Layer 2"><g id="Layer_1-2" data-name="Layer 1"><rect class="cls-1" width="419" height="594" rx="21.5"/><path class="cls-2" d="M57.78,463.52l35,28.48,35-28.48A36.73,36.73,0,0,0,141.25,435V128.5a35,35,0,0,0-35-35h-27a35,35,0,0,0-35,35V435A36.73,36.73,0,0,0,57.78,463.52Z"/><path class="cls-3" d="M69.92,137.73V124.6a1.3,1.3,0,0,1,.39-1,1.47,1.47,0,0,1,1-.33,2.22,2.22,0,0,1,1.2.27,3.46,3.46,0,0,1,.92,1.18l2.58,4.7,2.59-4.7a3.23,3.23,0,0,1,.93-1.18,2.28,2.28,0,0,1,1.21-.27,1.43,1.43,0,0,1,1,.33,1.3,1.3,0,0,1,.39,1v13.13a.69.69,0,0,1-.41.63,1.94,1.94,0,0,1-1,.23,2,2,0,0,1-1-.23.72.72,0,0,1-.4-.63v-9l-2.45,4.37a1,1,0,0,1-.93.54,1,1,0,0,1-.9-.54l-2.42-4.54v9.2a.69.69,0,0,1-.41.63,1.94,1.94,0,0,1-.95.23,2,2,0,0,1-1-.23A.72.72,0,0,1,69.92,137.73Z"/><path class="cls-3" d="M84.16,134.52v-5a.75.75,0,0,1,.41-.59,1.7,1.7,0,0,1,1-.28,1.65,1.65,0,0,1,.93.28.74.74,0,0,1,.41.58v5a1.84,1.84,0,0,0,.55,1.31,1.76,1.76,0,0,0,2.59,0,1.87,1.87,0,0,0,.54-1.31v-5.05a.68.68,0,0,1,.41-.58,1.76,1.76,0,0,1,1-.26,1.73,1.73,0,0,1,1,.26.69.69,0,0,1,.37.59v5.06a4,4,0,0,1-1.34,3,4.63,4.63,0,0,1-6.39,0A4,4,0,0,1,84.16,134.52Z"/><path class="cls-3" d="M94.64,137a1.36,1.36,0,0,1,.28-.78.75.75,0,0,1,.63-.41,1.2,1.2,0,0,1,.59.21,6.26,6.26,0,0,0,.92.43,4,4,0,0,0,1.36.22c1,0,1.55-.3,1.55-.88a.87.87,0,0,0-.51-.78,5.1,5.1,0,0,0-1.24-.47c-.48-.12-1-.27-1.46-.44a2.82,2.82,0,0,1-1.25-.86,2.29,2.29,0,0,1-.51-1.54,3.13,3.13,0,0,1,.9-2.24,3.8,3.8,0,0,1,2.86-.94,6.27,6.27,0,0,1,2.32.4c.68.26,1,.59,1,1a1.66,1.66,0,0,1-.29.83.82.82,0,0,1-.7.48,4.17,4.17,0,0,1-.91-.27,4.4,4.4,0,0,0-1.4-.26,1.77,1.77,0,0,0-1.09.29.81.81,0,0,0-.38.63.66.66,0,0,0,.38.57,3.06,3.06,0,0,0,.93.35,10.16,10.16,0,0,1,1.2.34,7.89,7.89,0,0,1,1.18.5,2.37,2.37,0,0,1,.92.89,3.06,3.06,0,0,1-.65,3.74,4.36,4.36,0,0,1-2.85.84,6,6,0,0,1-2.69-.55Q94.64,137.69,94.64,137Z"/><path class="cls-3" d="M103.82,125.19a1,1,0,0,1,.44-.84,1.71,1.71,0,0,1,1.1-.36,1.46,1.46,0,0,1,1,.36,1.05,1.05,0,0,1,.42.84,1.08,1.08,0,0,1-.42.84,1.46,1.46,0,0,1-1,.36,1.71,1.71,0,0,1-1.1-.36A1.07,1.07,0,0,1,103.82,125.19Zm.25,12.54v-8.27a.69.69,0,0,1,.36-.61,1.65,1.65,0,0,1,.93-.24,1.7,1.7,0,0,1,.94.24.68.68,0,0,1,.37.61v8.27a.76.76,0,0,1-.39.59,1.58,1.58,0,0,1-.92.27,1.61,1.61,0,0,1-.92-.26A.75.75,0,0,1,104.07,137.73Z"/><path class="cls-3" d="M108.44,134.47v-1.68a4.34,4.34,0,0,1,1.13-3.12,4.5,4.5,0,0,1,3.4-1.18,5.26,5.26,0,0,1,2.4.5q1,.51,1,1.14a1.52,1.52,0,0,1-.31.88.92.92,0,0,1-.76.44,3,3,0,0,1-.74-.28,3.2,3.2,0,0,0-1.34-.29c-1.36,0-2,.64-2,1.92v1.67c0,1.28.68,1.91,2,1.91a3,3,0,0,0,1.33-.3,2.55,2.55,0,0,1,.77-.3,1,1,0,0,1,.83.42,1.37,1.37,0,0,1,.33.86c0,.43-.34.83-1,1.18a5.15,5.15,0,0,1-2.45.54,4.54,4.54,0,0,1-3.42-1.18A4.28,4.28,0,0,1,108.44,134.47Z"/><path class="cls-4" d="M174.53,464l35,28.48,35-28.48A36.73,36.73,0,0,0,258,435.54V129a35,35,0,0,0-35-35H196a35,35,0,0,0-35,35V435.54A36.73,36.73,0,0,0,174.53,464Z"/><path class="cls-3" d="M181.73,137.73V124.6a1.33,1.33,0,0,1,.38-1,1.47,1.47,0,0,1,1-.33,2.22,2.22,0,0,1,1.2.27,3.34,3.34,0,0,1,.92,1.18l2.58,4.7,2.59-4.7a3.34,3.34,0,0,1,.93-1.18,2.28,2.28,0,0,1,1.21-.27,1.47,1.47,0,0,1,1,.33,1.33,1.33,0,0,1,.38,1v13.13a.7.7,0,0,1-.4.63,2,2,0,0,1-1,.23,2,2,0,0,1-1-.23.71.71,0,0,1-.39-.63v-9l-2.46,4.37a1,1,0,0,1-.93.54,1,1,0,0,1-.9-.54l-2.41-4.54v9.2a.71.71,0,0,1-.41.63,2.14,2.14,0,0,1-1.93,0A.71.71,0,0,1,181.73,137.73Z"/><path class="cls-3" d="M195.71,134.47v-1.72a4,4,0,0,1,1.35-3,4.48,4.48,0,0,1,3.21-1.27,4.55,4.55,0,0,1,3.19,1.26,4,4,0,0,1,1.37,3v1.72a4.05,4.05,0,0,1-1.37,3,4.56,4.56,0,0,1-6.38,0A4.05,4.05,0,0,1,195.71,134.47Zm2.71,0a1.87,1.87,0,0,0,.55,1.33,1.7,1.7,0,0,0,1.3.58,1.72,1.72,0,0,0,1.29-.58,1.88,1.88,0,0,0,.56-1.33v-1.71a1.84,1.84,0,0,0-.56-1.29,1.73,1.73,0,0,0-1.29-.59,1.7,1.7,0,0,0-1.3.58,1.8,1.8,0,0,0-.55,1.3Z"/><path class="cls-3" d="M206.53,135.23V125.16a.69.69,0,0,1,.42-.59,1.83,1.83,0,0,1,.92-.24,2,2,0,0,1,1,.23.69.69,0,0,1,.41.58v3.47h2.47a.59.59,0,0,1,.51.32,1.6,1.6,0,0,1,0,1.51.59.59,0,0,1-.51.32h-2.47v4.38a1.08,1.08,0,0,0,.26.82,1.34,1.34,0,0,0,.91.24h.82a1,1,0,0,1,.85.35,1.24,1.24,0,0,1,.31.83,1.3,1.3,0,0,1-.31.86,1.08,1.08,0,0,1-.85.35h-.82Q206.52,138.59,206.53,135.23Z"/><path class="cls-3" d="M213.69,125.19a1,1,0,0,1,.44-.84,1.71,1.71,0,0,1,1.1-.36,1.46,1.46,0,0,1,1,.36,1.05,1.05,0,0,1,.42.84,1.08,1.08,0,0,1-.42.84,1.46,1.46,0,0,1-1,.36,1.71,1.71,0,0,1-1.1-.36A1.07,1.07,0,0,1,213.69,125.19Zm.25,12.54v-8.27a.69.69,0,0,1,.36-.61,1.94,1.94,0,0,1,1.87,0,.68.68,0,0,1,.37.61v8.27a.76.76,0,0,1-.39.59,1.58,1.58,0,0,1-.92.27,1.61,1.61,0,0,1-.92-.26A.75.75,0,0,1,213.94,137.73Z"/><path class="cls-3" d="M218.27,134.47v-1.72a4,4,0,0,1,1.34-3,4.68,4.68,0,0,1,6.4,0,4,4,0,0,1,1.37,3v1.72a4.05,4.05,0,0,1-1.37,3,4.56,4.56,0,0,1-6.38,0A4,4,0,0,1,218.27,134.47Zm2.7,0a1.91,1.91,0,0,0,.55,1.33,1.74,1.74,0,0,0,2.59,0,1.84,1.84,0,0,0,.56-1.33v-1.71a1.8,1.8,0,0,0-.56-1.29,1.73,1.73,0,0,0-1.29-.59,1.71,1.71,0,0,0-1.3.58,1.84,1.84,0,0,0-.55,1.3Z"/><path class="cls-3" d="M229.1,137.73v-8.27a.68.68,0,0,1,.37-.61,1.75,1.75,0,0,1,1-.24,1.47,1.47,0,0,1,.85.24.7.7,0,0,1,.34.61v.64a2.93,2.93,0,0,1,1.08-1.14,3.15,3.15,0,0,1,1.74-.47,3.26,3.26,0,0,1,2.53,1.26,4.46,4.46,0,0,1,1.08,3v5a.71.71,0,0,1-.41.63,2,2,0,0,1-1,.23,1.89,1.89,0,0,1-.93-.23.7.7,0,0,1-.41-.63v-5a1.82,1.82,0,0,0-.55-1.31,1.69,1.69,0,0,0-1.28-.58,1.62,1.62,0,0,0-1.2.53,1.83,1.83,0,0,0-.52,1.36v5a.75.75,0,0,1-.41.59,1.68,1.68,0,0,1-1,.27,1.72,1.72,0,0,1-1-.26A.75.75,0,0,1,229.1,137.73Z"/><path class="cls-5" d="M291.28,464l35,28.48,35-28.48a36.73,36.73,0,0,0,13.53-28.48V129a35,35,0,0,0-35-35h-27a35,35,0,0,0-35,35V435.54A36.73,36.73,0,0,0,291.28,464Z"/><path class="cls-3" d="M286.66,137.38a1.17,1.17,0,0,1,0-.23l4.06-13.2a1,1,0,0,1,.62-.62,2.83,2.83,0,0,1,1.12-.22,2.64,2.64,0,0,1,1.14.24,1.15,1.15,0,0,1,.63.69l4.05,13.21a1,1,0,0,1,0,.21,1,1,0,0,1-.57.79,2.16,2.16,0,0,1-1.15.34c-.52,0-.83-.18-.93-.55l-.79-2.79h-4.5l-.79,2.79c-.11.37-.45.55-1,.55a2.71,2.71,0,0,1-1.31-.35A1,1,0,0,1,286.66,137.38Zm4.36-4.27h3.63l-1.83-6.45Z"/><path class="cls-3" d="M298.26,124.37a1,1,0,0,1,.56-.81,2.33,2.33,0,0,1,1.16-.32q.78,0,.93.54l3.21,11.39,3.19-11.39q.15-.54.93-.54a2.27,2.27,0,0,1,1.15.33,1,1,0,0,1,.57.8s0,.1,0,.21l-4,13.21a1.05,1.05,0,0,1-.63.68,2.57,2.57,0,0,1-1.13.24c-1,0-1.55-.3-1.76-.92l-4.06-13.21C298.28,124.47,298.26,124.4,298.26,124.37Z"/><path class="cls-3" d="M315.61,137.73V124.6a1.3,1.3,0,0,1,.39-1,1.43,1.43,0,0,1,1-.33,2.22,2.22,0,0,1,1.2.27,3.34,3.34,0,0,1,.92,1.18l2.59,4.7,2.58-4.7a3.46,3.46,0,0,1,.93-1.18,2.28,2.28,0,0,1,1.21-.27,1.47,1.47,0,0,1,1,.33,1.3,1.3,0,0,1,.39,1v13.13a.71.71,0,0,1-.41.63,2,2,0,0,1-1,.23,1.89,1.89,0,0,1-1-.23.7.7,0,0,1-.4-.63v-9l-2.46,4.37a1,1,0,0,1-1.83,0l-2.41-4.54v9.2a.71.71,0,0,1-.41.63,2,2,0,0,1-1,.23,1.89,1.89,0,0,1-1-.23A.7.7,0,0,1,315.61,137.73Z"/><path class="cls-3" d="M329.59,134.47v-1.78a3.87,3.87,0,0,1,1.35-3,4.6,4.6,0,0,1,3.25-1.24,4.47,4.47,0,0,1,3.06,1.13,3.61,3.61,0,0,1,1.27,2.84,2.73,2.73,0,0,1-.16,1,1,1,0,0,1-.48.58,1.84,1.84,0,0,1-.6.2,4.61,4.61,0,0,1-.71,0H332.3v.32a1.83,1.83,0,0,0,.67,1.46,2.74,2.74,0,0,0,1.79.56,3.45,3.45,0,0,0,1.57-.4,3.13,3.13,0,0,1,1-.4.87.87,0,0,1,.74.41,1.38,1.38,0,0,1,.29.79c0,.39-.35.78-1.06,1.16a5.39,5.39,0,0,1-2.63.58,5.54,5.54,0,0,1-3.67-1.19A3.88,3.88,0,0,1,329.59,134.47Zm2.71-1.76h3.07a.79.79,0,0,0,.47-.11.51.51,0,0,0,.14-.42,1.37,1.37,0,0,0-.54-1.12,2,2,0,0,0-1.31-.43,2,2,0,0,0-1.28.42,1.32,1.32,0,0,0-.55,1.11Z"/><path class="cls-3" d="M339.78,134.47v-1.72a4.43,4.43,0,0,1,1.1-3,3.41,3.41,0,0,1,2.64-1.26,2.8,2.8,0,0,1,1.62.47,3.38,3.38,0,0,1,1.09,1.14v-6.44a.7.7,0,0,1,.38-.61,2,2,0,0,1,1-.23,1.91,1.91,0,0,1,1,.23.69.69,0,0,1,.37.61v14.07a.74.74,0,0,1-.38.6,1.72,1.72,0,0,1-1,.26,1.36,1.36,0,0,1-.85-.28.77.77,0,0,1-.37-.59v-.61a2.89,2.89,0,0,1-1.14,1.17,3.26,3.26,0,0,1-4.34-.8A4.5,4.5,0,0,1,339.78,134.47Zm2.71,0a1.93,1.93,0,0,0,.54,1.32,1.69,1.69,0,0,0,1.28.59,1.87,1.87,0,0,0,1.33-.57,1.55,1.55,0,0,0,.59-1v-2.08a1.77,1.77,0,0,0-.58-1.36,1.94,1.94,0,0,0-1.31-.52,1.73,1.73,0,0,0-1.31.58,1.83,1.83,0,0,0-.54,1.3Z"/><path class="cls-3" d="M350.91,125.19a1,1,0,0,1,.45-.84,1.67,1.67,0,0,1,1.1-.36,1.48,1.48,0,0,1,1,.36,1.07,1.07,0,0,1,.41.84,1.1,1.1,0,0,1-.41.84,1.48,1.48,0,0,1-1,.36,1.67,1.67,0,0,1-1.1-.36A1.06,1.06,0,0,1,350.91,125.19Zm.25,12.54v-8.27a.69.69,0,0,1,.36-.61,1.94,1.94,0,0,1,1.87,0,.68.68,0,0,1,.37.61v8.27a.76.76,0,0,1-.39.59,1.58,1.58,0,0,1-.92.27,1.61,1.61,0,0,1-.92-.26A.77.77,0,0,1,351.16,137.73Z"/><path class="cls-3" d="M355.28,135.9a2.42,2.42,0,0,1,1.26-2.33,7.85,7.85,0,0,1,3.63-.67H361v-.28a2.26,2.26,0,0,0-.45-1.4,1.66,1.66,0,0,0-1.4-.59,3.33,3.33,0,0,0-1.61.36,3.27,3.27,0,0,1-.78.35.73.73,0,0,1-.67-.42,1.73,1.73,0,0,1-.26-.92c0-.41.36-.76,1.09-1.06a5.86,5.86,0,0,1,2.27-.45,4.55,4.55,0,0,1,3.41,1.16,4.1,4.1,0,0,1,1.11,2.93v5.15a.73.73,0,0,1-.38.61,1.65,1.65,0,0,1-.94.25,1.42,1.42,0,0,1-.88-.27.8.8,0,0,1-.34-.65V137a4.15,4.15,0,0,1-3.19,1.76,2.73,2.73,0,0,1-2-.74A2.82,2.82,0,0,1,355.28,135.9Zm2.71-.34a1,1,0,0,0,.3.81,1.17,1.17,0,0,0,.81.27,1.88,1.88,0,0,0,1.3-.6,1.8,1.8,0,0,0,.63-1.32v-.42h-.31a6.57,6.57,0,0,0-2,.25A1,1,0,0,0,358,135.56Z"/><path d="M53.26,67V33.88a1.65,1.65,0,0,1,1-1.53,5,5,0,0,1,2.35-.51,4.93,4.93,0,0,1,2.34.51,1.63,1.63,0,0,1,1,1.53V47.19H71.37V33.88a1.63,1.63,0,0,1,1-1.53,4.93,4.93,0,0,1,2.34-.51,5,5,0,0,1,2.35.51,1.65,1.65,0,0,1,1,1.53V67a1.71,1.71,0,0,1-1,1.53,4.66,4.66,0,0,1-2.32.56,4.61,4.61,0,0,1-2.34-.56,1.71,1.71,0,0,1-1-1.53V52.39H59.89V67a1.72,1.72,0,0,1-1,1.53,5.15,5.15,0,0,1-4.67,0A1.73,1.73,0,0,1,53.26,67Z"/><path d="M84,57.75V33.88a1.65,1.65,0,0,1,1-1.53,5.67,5.67,0,0,1,4.7,0,1.64,1.64,0,0,1,1,1.53V57.75q0,5.86,5.62,5.86t5.6-5.86V33.88a1.65,1.65,0,0,1,1-1.53,5.67,5.67,0,0,1,4.7,0,1.64,1.64,0,0,1,1,1.53V57.75q0,6-3.34,8.84a13.27,13.27,0,0,1-8.89,2.84,13.42,13.42,0,0,1-8.91-2.81Q84,63.82,84,57.75Z"/><path d="M114.41,67V35.15a3.14,3.14,0,0,1,1-2.5,3.48,3.48,0,0,1,2.37-.81,5.34,5.34,0,0,1,2.9.66,8.3,8.3,0,0,1,2.25,2.86l6.27,11.42,6.27-11.42a8.18,8.18,0,0,1,2.27-2.86,5.52,5.52,0,0,1,2.94-.66,3.51,3.51,0,0,1,2.37.81,3.14,3.14,0,0,1,.94,2.5V67a1.72,1.72,0,0,1-1,1.53,4.71,4.71,0,0,1-2.32.56,4.64,4.64,0,0,1-2.35-.56,1.71,1.71,0,0,1-1-1.53V45.1l-6,10.61A2.37,2.37,0,0,1,129.1,57a2.32,2.32,0,0,1-2.19-1.32l-5.87-11V67a1.72,1.72,0,0,1-1,1.53,5.15,5.15,0,0,1-4.67,0A1.71,1.71,0,0,1,114.41,67Z"/><path d="M146.67,66.18a4.44,4.44,0,0,1,.1-.55l9.86-32.08a2.48,2.48,0,0,1,1.5-1.49,6.75,6.75,0,0,1,2.73-.53,6.27,6.27,0,0,1,2.75.59,2.62,2.62,0,0,1,1.53,1.66L175,65.86a4,4,0,0,1,.1.51,2.31,2.31,0,0,1-1.38,1.93,5.39,5.39,0,0,1-2.8.82c-1.26,0-2-.44-2.25-1.33L166.72,61H155.8l-1.9,6.79c-.27.88-1.11,1.32-2.53,1.32a6.37,6.37,0,0,1-3.18-.85A2.44,2.44,0,0,1,146.67,66.18Zm10.58-10.37h8.82l-4.43-15.66Z"/><path d="M179.38,67V33.93a1.71,1.71,0,0,1,1-1.56,4.89,4.89,0,0,1,2.35-.53,5,5,0,0,1,2.8.66,8.32,8.32,0,0,1,2.15,2.86l9.84,19V33.88a1.63,1.63,0,0,1,1-1.53,5.65,5.65,0,0,1,4.69,0,1.63,1.63,0,0,1,1,1.53V67a1.72,1.72,0,0,1-1,1.53,4.71,4.71,0,0,1-2.32.56A4,4,0,0,1,197,67l-11-20.5V67a1.73,1.73,0,0,1-1,1.53,5.15,5.15,0,0,1-4.67,0A1.73,1.73,0,0,1,179.38,67Z"/><path d="M220.44,67V33.88a2,2,0,0,1,.61-1.43,2.07,2.07,0,0,1,1.53-.61h10.1q12.09,0,12.09,10.66A11.43,11.43,0,0,1,243,49.23a9,9,0,0,1-4.87,3.47l6.68,12.39a1.24,1.24,0,0,1,.25.82,3.1,3.1,0,0,1-1.32,2.37,4.35,4.35,0,0,1-2.81,1.09,2.49,2.49,0,0,1-2.29-1.58l-7.25-14.07h-4.28V67a1.71,1.71,0,0,1-1,1.53,4.64,4.64,0,0,1-2.35.56,4.71,4.71,0,0,1-2.32-.56A1.72,1.72,0,0,1,220.44,67Zm6.63-18.51h5.61c3.64,0,5.46-1.81,5.46-5.41s-1.82-5.46-5.46-5.46h-5.61Z"/><path d="M246.55,34.59c0-.75.49-1.39,1.45-1.94a6,6,0,0,1,2.94-.81,2.16,2.16,0,0,1,2,1.32l7.75,14.74,7.8-14.74a2.2,2.2,0,0,1,2-1.32,5.92,5.92,0,0,1,2.93.81c1,.55,1.46,1.19,1.46,1.94a1.21,1.21,0,0,1-.16.67l-10.5,18.25a1.18,1.18,0,0,0-.21.67V67a1.72,1.72,0,0,1-1,1.53,5.15,5.15,0,0,1-4.67,0,1.72,1.72,0,0,1-1-1.53V54.18a1.16,1.16,0,0,0-.16-.67L246.71,35.26A1.92,1.92,0,0,1,246.55,34.59Z"/><path d="M276,34.72a3.82,3.82,0,0,1,.53-2,1.73,1.73,0,0,1,1.56-.87h21.57a1.73,1.73,0,0,1,1.56.87,3.82,3.82,0,0,1,.53,2,3.65,3.65,0,0,1-.56,2.06,1.73,1.73,0,0,1-1.53.87H292.2V67a1.73,1.73,0,0,1-1,1.54,4.69,4.69,0,0,1-2.32.56,4.61,4.61,0,0,1-2.34-.56,1.72,1.72,0,0,1-1-1.54V37.65h-7.5a1.74,1.74,0,0,1-1.53-.84A3.74,3.74,0,0,1,276,34.72Z"/><path d="M305.35,67V33.88a1.65,1.65,0,0,1,1-1.53,5,5,0,0,1,2.35-.51,4.93,4.93,0,0,1,2.34.51,1.63,1.63,0,0,1,1,1.53V47.19h11.48V33.88a1.63,1.63,0,0,1,1-1.53,5.65,5.65,0,0,1,4.69,0,1.63,1.63,0,0,1,1,1.53V67a1.71,1.71,0,0,1-1,1.53,5.13,5.13,0,0,1-4.66,0,1.71,1.71,0,0,1-1-1.53V52.39H312V67a1.72,1.72,0,0,1-1,1.53,5.15,5.15,0,0,1-4.67,0A1.73,1.73,0,0,1,305.35,67Z"/><path d="M336.21,67V35.15a3.14,3.14,0,0,1,.94-2.5,3.51,3.51,0,0,1,2.37-.81,5.36,5.36,0,0,1,2.91.66,8.18,8.18,0,0,1,2.24,2.86L351,46.78l6.27-11.42a8.07,8.07,0,0,1,2.27-2.86,5.48,5.48,0,0,1,2.93-.66,3.51,3.51,0,0,1,2.37.81,3.14,3.14,0,0,1,.95,2.5V67a1.71,1.71,0,0,1-1,1.53,4.66,4.66,0,0,1-2.32.56,4.61,4.61,0,0,1-2.34-.56,1.71,1.71,0,0,1-1-1.53V45.1l-6,10.61A2.38,2.38,0,0,1,350.9,57a2.35,2.35,0,0,1-2.2-1.32l-5.86-11V67a1.71,1.71,0,0,1-1,1.53,5.13,5.13,0,0,1-4.66,0A1.71,1.71,0,0,1,336.21,67Z"/><rect class="cls-6" x="26.5" y="502.5" width="366" height="61" rx="30.5"/><path class="cls-3" d="M113.12,539.52v-12c0-3.39.91-5.87,2.75-7.47a10.56,10.56,0,0,1,7.18-2.38,11.6,11.6,0,0,1,7.37,2.23,7.15,7.15,0,0,1,2.86,5.94,2.87,2.87,0,0,1-.64,2.17,3.18,3.18,0,0,1-2.15.58c-1.84,0-2.77-.59-2.8-1.76,0-.38-.06-.7-.11-1a4.72,4.72,0,0,0-.34-1.08,3.65,3.65,0,0,0-.71-1.11,3.39,3.39,0,0,0-1.29-.78,5.82,5.82,0,0,0-2-.32q-4.52,0-4.51,4.95v12q0,5,4.6,5a5.59,5.59,0,0,0,2.3-.43,2.76,2.76,0,0,0,1.33-1.23,6.57,6.57,0,0,0,.56-1.42,8.36,8.36,0,0,0,.19-1.52q.14-1.77,2.76-1.77a3.33,3.33,0,0,1,2.17.58,2.84,2.84,0,0,1,.66,2.18,7.56,7.56,0,0,1-2.86,6.19,11.42,11.42,0,0,1-7.41,2.32,10.48,10.48,0,0,1-7.16-2.39Q113.12,544.6,113.12,539.52Z"/><path class="cls-3" d="M136.72,539.52v-12c0-3.42.91-5.91,2.73-7.49a12.61,12.61,0,0,1,14.69,0c1.83,1.58,2.75,4.07,2.75,7.49v12c0,3.41-.92,5.91-2.75,7.48a12.57,12.57,0,0,1-14.69,0C137.63,545.43,136.72,542.93,136.72,539.52Zm5.59,0q0,5,4.47,5t4.52-5v-12q0-4.95-4.52-4.95t-4.47,4.95Z"/><path class="cls-3" d="M161.32,539.52v-12c0-3.39.91-5.87,2.73-7.47a10.48,10.48,0,0,1,7.16-2.38,11.71,11.71,0,0,1,7.42,2.23,7.26,7.26,0,0,1,2.86,6,2.67,2.67,0,0,1-.67,2.11,3.33,3.33,0,0,1-2.13.56c-1.83,0-2.77-.59-2.79-1.76a5.44,5.44,0,0,0-1.08-3.08c-.63-.79-1.76-1.18-3.4-1.18q-4.51,0-4.51,4.95v12q0,5,4.47,5a4.38,4.38,0,0,0,3.33-1.25,5.17,5.17,0,0,0,1.19-3.7V537h-3.49a1.46,1.46,0,0,1-1.27-.64,2.65,2.65,0,0,1-.45-1.55,2.52,2.52,0,0,1,.48-1.52,1.44,1.44,0,0,1,1.24-.67h7.31a1.61,1.61,0,0,1,1.29.54,1.84,1.84,0,0,1,.48,1.26v5.12c0,3.41-.92,5.91-2.76,7.48a12.55,12.55,0,0,1-14.68,0C162.23,545.43,161.32,542.93,161.32,539.52Z"/><path class="cls-3" d="M185.91,547.35V519.44a1.44,1.44,0,0,1,.82-1.31,4.05,4.05,0,0,1,2-.45,4.18,4.18,0,0,1,2.36.56,6.84,6.84,0,0,1,1.81,2.4l8.3,16V519.4a1.36,1.36,0,0,1,.82-1.29,4.75,4.75,0,0,1,3.95,0,1.36,1.36,0,0,1,.82,1.29v28a1.45,1.45,0,0,1-.84,1.29,4,4,0,0,1-2,.47,3.36,3.36,0,0,1-3.22-1.76l-9.25-17.29v17.29a1.45,1.45,0,0,1-.83,1.29,4,4,0,0,1-2,.47,4,4,0,0,1-2-.47A1.46,1.46,0,0,1,185.91,547.35Z"/><path class="cls-3" d="M211.93,547.35v-28a1.36,1.36,0,0,1,.82-1.29,4.75,4.75,0,0,1,3.95,0,1.36,1.36,0,0,1,.82,1.29v28a1.45,1.45,0,0,1-.84,1.29,4,4,0,0,1-2,.47,3.91,3.91,0,0,1-2-.47A1.44,1.44,0,0,1,211.93,547.35Z"/><path class="cls-3" d="M220.61,520.11a3.12,3.12,0,0,1,.46-1.7,1.43,1.43,0,0,1,1.31-.73h18.19a1.44,1.44,0,0,1,1.31.73,3.45,3.45,0,0,1,0,3.44,1.47,1.47,0,0,1-1.29.73h-6.28v24.76a1.45,1.45,0,0,1-.84,1.3,4,4,0,0,1-2,.47,3.91,3.91,0,0,1-2-.47,1.45,1.45,0,0,1-.82-1.3V522.58h-6.32a1.47,1.47,0,0,1-1.29-.71A3.09,3.09,0,0,1,220.61,520.11Z"/><path class="cls-3" d="M245.38,547.35v-28a1.38,1.38,0,0,1,.82-1.29,4.14,4.14,0,0,1,2-.43,4.19,4.19,0,0,1,2,.43,1.37,1.37,0,0,1,.81,1.29v28a1.45,1.45,0,0,1-.84,1.29,4.34,4.34,0,0,1-3.93,0A1.46,1.46,0,0,1,245.38,547.35Z"/><path class="cls-3" d="M255.79,539.52v-12c0-3.42.91-5.91,2.73-7.49a12.59,12.59,0,0,1,14.68,0c1.84,1.58,2.76,4.07,2.76,7.49v12c0,3.41-.92,5.91-2.76,7.48a12.55,12.55,0,0,1-14.68,0C256.7,545.43,255.79,542.93,255.79,539.52Zm5.59,0q0,5,4.47,5t4.52-5v-12q0-4.95-4.52-4.95t-4.47,4.95Z"/><path class="cls-3" d="M280.73,547.35V519.44a1.42,1.42,0,0,1,.82-1.31,4,4,0,0,1,2-.45,4.21,4.21,0,0,1,2.37.56,7,7,0,0,1,1.8,2.4l8.3,16V519.4a1.38,1.38,0,0,1,.82-1.29,4.14,4.14,0,0,1,2-.43,4.19,4.19,0,0,1,2,.43,1.37,1.37,0,0,1,.81,1.29v28a1.45,1.45,0,0,1-.83,1.29,4,4,0,0,1-2,.47,3.37,3.37,0,0,1-3.23-1.76l-9.24-17.29v17.29a1.45,1.45,0,0,1-.84,1.29,4,4,0,0,1-2,.47,3.91,3.91,0,0,1-2-.47A1.44,1.44,0,0,1,280.73,547.35Z"/><rect class="cls-7" x="26.5" y="378.5" width="366" height="61" rx="30.5"/><path d="M101.33,421.17a3.3,3.3,0,0,1,.76-2,2.1,2.1,0,0,1,1.7-1,2.15,2.15,0,0,1,1.26.53,13.82,13.82,0,0,1,1.38,1.19,6.34,6.34,0,0,0,1.91,1.18,6.85,6.85,0,0,0,2.75.54,6,6,0,0,0,3.45-1,3.18,3.18,0,0,0,1.37-2.79,3.78,3.78,0,0,0-.75-2.31,5.92,5.92,0,0,0-2-1.67,28.18,28.18,0,0,0-2.69-1.29c-1-.42-1.95-.88-2.94-1.4a18,18,0,0,1-2.71-1.74,7,7,0,0,1-2-2.58,8.64,8.64,0,0,1-.75-3.68,8.76,8.76,0,0,1,.92-4.08,7.1,7.1,0,0,1,2.47-2.75,11.94,11.94,0,0,1,3.32-1.44,15,15,0,0,1,3.74-.46,18,18,0,0,1,2.36.16,22.57,22.57,0,0,1,2.65.5,5.66,5.66,0,0,1,2.28,1.11,2.28,2.28,0,0,1,.88,1.77,3.88,3.88,0,0,1-.61,2,1.82,1.82,0,0,1-1.63,1,8,8,0,0,1-2.11-.82,8.83,8.83,0,0,0-3.82-.81,6.2,6.2,0,0,0-3.59.88,2.77,2.77,0,0,0-1.27,2.43,2.83,2.83,0,0,0,1,2.17,8.28,8.28,0,0,0,2.56,1.5c1,.39,2.12.88,3.31,1.46a28.43,28.43,0,0,1,3.31,1.92,8,8,0,0,1,2.56,3,9.64,9.64,0,0,1,1,4.58,8.43,8.43,0,0,1-2.82,6.8,11,11,0,0,1-7.41,2.4,13.83,13.83,0,0,1-7-1.68Q101.34,423.14,101.33,421.17Z"/><path d="M123.26,397.11a3.2,3.2,0,0,1,.45-1.7,1.46,1.46,0,0,1,1.32-.73h18.18a1.45,1.45,0,0,1,1.32.73,3.2,3.2,0,0,1,.45,1.7,3.11,3.11,0,0,1-.48,1.74,1.45,1.45,0,0,1-1.29.73h-6.27v24.76a1.45,1.45,0,0,1-.84,1.3,4.36,4.36,0,0,1-3.94,0,1.45,1.45,0,0,1-.81-1.3V399.58H125a1.47,1.47,0,0,1-1.29-.71A3.09,3.09,0,0,1,123.26,397.11Z"/><path d="M148,424.35v-28a1.65,1.65,0,0,1,.52-1.21,1.75,1.75,0,0,1,1.29-.51h8.51q10.2,0,10.19,9a9.63,9.63,0,0,1-1.52,5.67,7.55,7.55,0,0,1-4.11,2.92l5.63,10.45a1,1,0,0,1,.22.69,2.62,2.62,0,0,1-1.12,2,3.65,3.65,0,0,1-2.37.93,2.12,2.12,0,0,1-1.93-1.34l-6.11-11.87h-3.61v11.23a1.44,1.44,0,0,1-.82,1.29,3.91,3.91,0,0,1-2,.47,4,4,0,0,1-2-.47A1.45,1.45,0,0,1,148,424.35Zm5.59-15.61h4.73q4.6,0,4.6-4.56t-4.6-4.6h-4.73Z"/><path d="M172.41,416.52V396.4a1.36,1.36,0,0,1,.82-1.29,4.75,4.75,0,0,1,4,0,1.36,1.36,0,0,1,.82,1.29v20.12q0,5,4.73,5t4.73-5V396.4a1.36,1.36,0,0,1,.82-1.29,4.14,4.14,0,0,1,2-.43,4.19,4.19,0,0,1,2,.43,1.37,1.37,0,0,1,.81,1.29v20.12q0,5.07-2.81,7.46a13,13,0,0,1-15,0C173.35,422.43,172.41,419.93,172.41,416.52Z"/><path d="M197.78,416.52v-12c0-3.39.92-5.87,2.75-7.47a10.58,10.58,0,0,1,7.18-2.38,11.65,11.65,0,0,1,7.38,2.23,7.15,7.15,0,0,1,2.86,5.94,2.87,2.87,0,0,1-.65,2.17,3.16,3.16,0,0,1-2.15.58c-1.83,0-2.76-.59-2.79-1.76,0-.38-.07-.7-.11-1a5.28,5.28,0,0,0-.34-1.08,3.85,3.85,0,0,0-.71-1.11,3.56,3.56,0,0,0-1.29-.78,5.91,5.91,0,0,0-2-.32q-4.51,0-4.52,4.95v12c0,3.3,1.54,5,4.6,5a5.52,5.52,0,0,0,2.3-.43,2.78,2.78,0,0,0,1.34-1.23,7.13,7.13,0,0,0,.56-1.42,8.36,8.36,0,0,0,.19-1.52c.09-1.18,1-1.77,2.75-1.77a3.31,3.31,0,0,1,2.17.58,2.8,2.8,0,0,1,.67,2.18,7.56,7.56,0,0,1-2.86,6.19,11.45,11.45,0,0,1-7.42,2.32,10.5,10.5,0,0,1-7.16-2.39Q197.78,421.6,197.78,416.52Z"/><path d="M219.67,397.11a3.2,3.2,0,0,1,.45-1.7,1.44,1.44,0,0,1,1.31-.73h18.19a1.44,1.44,0,0,1,1.31.73,3.2,3.2,0,0,1,.45,1.7,3.11,3.11,0,0,1-.47,1.74,1.46,1.46,0,0,1-1.29.73h-6.28v24.76a1.45,1.45,0,0,1-.84,1.3,4.34,4.34,0,0,1-3.93,0,1.45,1.45,0,0,1-.82-1.3V399.58h-6.32a1.49,1.49,0,0,1-1.29-.71A3.16,3.16,0,0,1,219.67,397.11Z"/><path d="M244.31,416.52V396.4a1.37,1.37,0,0,1,.81-1.29,4.19,4.19,0,0,1,2-.43,4.14,4.14,0,0,1,2,.43,1.38,1.38,0,0,1,.82,1.29v20.12c0,3.3,1.57,5,4.73,5s4.73-1.65,4.73-5V396.4a1.37,1.37,0,0,1,.81-1.29,4.19,4.19,0,0,1,2-.43,4.14,4.14,0,0,1,2,.43,1.38,1.38,0,0,1,.82,1.29v20.12q0,5.07-2.82,7.46a13,13,0,0,1-15,0C245.25,422.43,244.31,419.93,244.31,416.52Z"/><path d="M270,424.35v-28a1.68,1.68,0,0,1,.51-1.21,1.78,1.78,0,0,1,1.29-.51h8.52q10.18,0,10.19,9a9.56,9.56,0,0,1-1.53,5.67,7.49,7.49,0,0,1-4.1,2.92l5.63,10.45a1.09,1.09,0,0,1,.21.69,2.6,2.6,0,0,1-1.11,2,3.67,3.67,0,0,1-2.37.93,2.12,2.12,0,0,1-1.93-1.34l-6.11-11.87h-3.61v11.23a1.44,1.44,0,0,1-.82,1.29,3.92,3.92,0,0,1-2,.47,4,4,0,0,1-1.95-.47A1.45,1.45,0,0,1,270,424.35Zm5.59-15.61h4.73q4.6,0,4.6-4.56t-4.6-4.6h-4.73Z"/><path d="M294.49,424.35V396.44a1.47,1.47,0,0,1,.73-1.29,3.14,3.14,0,0,1,1.72-.47h15.31a1.44,1.44,0,0,1,1.31.73,3.15,3.15,0,0,1,.45,1.68,3.23,3.23,0,0,1-.47,1.76,1.47,1.47,0,0,1-1.29.73H300.08v8.6h6.53a1.48,1.48,0,0,1,1.29.67,2.73,2.73,0,0,1,0,3,1.52,1.52,0,0,1-1.32.67h-6.53v8.64h12.17a1.47,1.47,0,0,1,1.29.73,3.21,3.21,0,0,1,.47,1.76,3.15,3.15,0,0,1-.45,1.68,1.44,1.44,0,0,1-1.31.73H296.94a3.14,3.14,0,0,1-1.72-.47A1.47,1.47,0,0,1,294.49,424.35Z"/><rect class="cls-7" x="26.5" y="302.83" width="366" height="61" rx="30.5"/><path d="M90.48,348.35v-28a1.37,1.37,0,0,1,.81-1.29,4.19,4.19,0,0,1,2-.43,4.14,4.14,0,0,1,2,.43,1.38,1.38,0,0,1,.82,1.29v28a1.45,1.45,0,0,1-.84,1.29,4.36,4.36,0,0,1-3.94,0A1.45,1.45,0,0,1,90.48,348.35Z"/><path d="M101.23,348.35V320.44a1.43,1.43,0,0,1,.81-1.31,4.08,4.08,0,0,1,2-.45,4.23,4.23,0,0,1,2.37.56,7,7,0,0,1,1.8,2.4l8.3,16V320.4a1.36,1.36,0,0,1,.82-1.29,4.75,4.75,0,0,1,4,0,1.36,1.36,0,0,1,.82,1.29v28a1.45,1.45,0,0,1-.84,1.29,4,4,0,0,1-1.95.47,3.37,3.37,0,0,1-3.23-1.76l-9.24-17.29v17.29a1.45,1.45,0,0,1-.84,1.29,4.36,4.36,0,0,1-3.94,0A1.45,1.45,0,0,1,101.23,348.35Z"/><path d="M125.18,321.11a3.2,3.2,0,0,1,.45-1.7,1.44,1.44,0,0,1,1.31-.73h18.19a1.44,1.44,0,0,1,1.31.73,3.45,3.45,0,0,1,0,3.44,1.47,1.47,0,0,1-1.29.73h-6.28v24.76a1.45,1.45,0,0,1-.84,1.3,4,4,0,0,1-1.95.47,3.92,3.92,0,0,1-2-.47,1.45,1.45,0,0,1-.82-1.3V323.58h-6.32a1.48,1.48,0,0,1-1.29-.71A3.08,3.08,0,0,1,125.18,321.11Z"/><path d="M150,348.35V320.44a1.47,1.47,0,0,1,.73-1.29,3.12,3.12,0,0,1,1.72-.47h15.3a1.46,1.46,0,0,1,1.32.73,3.41,3.41,0,0,1,0,3.44,1.45,1.45,0,0,1-1.29.73H155.54v8.6h6.53a1.48,1.48,0,0,1,1.29.67,2.76,2.76,0,0,1,0,3,1.5,1.5,0,0,1-1.31.67h-6.53v8.64H167.7a1.45,1.45,0,0,1,1.29.73,3.41,3.41,0,0,1,0,3.44,1.46,1.46,0,0,1-1.32.73H152.4a3.12,3.12,0,0,1-1.72-.47A1.47,1.47,0,0,1,150,348.35Z"/><path d="M172.74,348.35v-28a1.68,1.68,0,0,1,.51-1.21,1.78,1.78,0,0,1,1.29-.51h8.52q10.19,0,10.19,9a9.56,9.56,0,0,1-1.53,5.67,7.55,7.55,0,0,1-4.11,2.92l5.64,10.45a1.09,1.09,0,0,1,.21.69,2.59,2.59,0,0,1-1.12,2,3.63,3.63,0,0,1-2.36.93A2.14,2.14,0,0,1,188,349l-6.1-11.87h-3.61v11.23a1.46,1.46,0,0,1-.82,1.29,4.36,4.36,0,0,1-3.94,0A1.44,1.44,0,0,1,172.74,348.35Zm5.59-15.61h4.73c3.06,0,4.6-1.52,4.6-4.56s-1.54-4.6-4.6-4.6h-4.73Z"/><path d="M194.39,347.63a3.6,3.6,0,0,1,.08-.46l8.31-27.05a2.09,2.09,0,0,1,1.27-1.25,5.59,5.59,0,0,1,2.3-.45,5.27,5.27,0,0,1,2.32.49,2.24,2.24,0,0,1,1.29,1.4l8.3,27.05a2.45,2.45,0,0,1,.09.43,2,2,0,0,1-1.16,1.63,4.62,4.62,0,0,1-2.37.69c-1.06,0-1.69-.37-1.89-1.12l-1.63-5.72h-9.22l-1.6,5.73q-.34,1.11-2.13,1.11a5.46,5.46,0,0,1-2.68-.71A2.06,2.06,0,0,1,194.39,347.63Zm8.92-8.74h7.44L207,325.69Z"/><path d="M221.67,340.52v-12c0-3.39.92-5.87,2.75-7.47a10.56,10.56,0,0,1,7.18-2.38,11.65,11.65,0,0,1,7.38,2.23,7.18,7.18,0,0,1,2.86,5.94,2.87,2.87,0,0,1-.65,2.17,3.18,3.18,0,0,1-2.15.58c-1.83,0-2.77-.59-2.79-1.76,0-.38-.07-.7-.11-1a5.43,5.43,0,0,0-.35-1.08,3.47,3.47,0,0,0-.71-1.11,3.39,3.39,0,0,0-1.29-.78,5.82,5.82,0,0,0-2-.32q-4.52,0-4.51,4.95v12q0,5,4.6,5a5.55,5.55,0,0,0,2.3-.43,2.72,2.72,0,0,0,1.33-1.23,6.09,6.09,0,0,0,.56-1.42,8.27,8.27,0,0,0,.2-1.52c.08-1.18,1-1.77,2.75-1.77a3.33,3.33,0,0,1,2.17.58,2.84,2.84,0,0,1,.67,2.18,7.59,7.59,0,0,1-2.86,6.19,11.45,11.45,0,0,1-7.42,2.32A10.5,10.5,0,0,1,224.4,348Q221.67,345.6,221.67,340.52Z"/><path d="M243.55,321.11a3.2,3.2,0,0,1,.46-1.7,1.43,1.43,0,0,1,1.31-.73h18.19a1.44,1.44,0,0,1,1.31.73,3.45,3.45,0,0,1,0,3.44,1.47,1.47,0,0,1-1.29.73h-6.28v24.76a1.45,1.45,0,0,1-.84,1.3,4,4,0,0,1-2,.47,3.91,3.91,0,0,1-2-.47,1.45,1.45,0,0,1-.82-1.3V323.58h-6.32a1.47,1.47,0,0,1-1.29-.71A3.09,3.09,0,0,1,243.55,321.11Z"/><path d="M268.32,348.35v-28a1.38,1.38,0,0,1,.82-1.29,4.14,4.14,0,0,1,2-.43,4.19,4.19,0,0,1,2,.43,1.37,1.37,0,0,1,.81,1.29v28a1.45,1.45,0,0,1-.84,1.29,4.34,4.34,0,0,1-3.93,0A1.46,1.46,0,0,1,268.32,348.35Z"/><path d="M278.73,340.52v-12c0-3.42.91-5.91,2.73-7.49a12.59,12.59,0,0,1,14.68,0c1.84,1.58,2.76,4.07,2.76,7.49v12c0,3.41-.92,5.91-2.76,7.48a12.55,12.55,0,0,1-14.68,0C279.64,346.43,278.73,343.93,278.73,340.52Zm5.59,0q0,5,4.47,5t4.52-5v-12q0-4.95-4.52-4.95t-4.47,4.95Z"/><path d="M303.67,348.35V320.44a1.42,1.42,0,0,1,.82-1.31,4,4,0,0,1,2-.45,4.21,4.21,0,0,1,2.37.56,7,7,0,0,1,1.8,2.4l8.3,16V320.4a1.38,1.38,0,0,1,.82-1.29,4.77,4.77,0,0,1,4,0,1.37,1.37,0,0,1,.81,1.29v28a1.45,1.45,0,0,1-.83,1.29,4,4,0,0,1-2,.47,3.37,3.37,0,0,1-3.23-1.76l-9.24-17.29v17.29a1.45,1.45,0,0,1-.84,1.29,4,4,0,0,1-2,.47,3.91,3.91,0,0,1-2-.47A1.44,1.44,0,0,1,303.67,348.35Z"/><rect class="cls-7" x="26.5" y="227.17" width="366" height="61" rx="30.5"/><path d="M116.3,272.35v-28a1.58,1.58,0,0,1,.58-1.21,2.22,2.22,0,0,1,1.52-.51h8.65a10.35,10.35,0,0,1,7.09,2.34c1.78,1.56,2.67,4,2.67,7.33v.26c0,3.35-.93,5.82-2.77,7.4a11,11,0,0,1-7.34,2.36h-4.81v10a1.45,1.45,0,0,1-.84,1.29,4,4,0,0,1-2,.47,3.91,3.91,0,0,1-2-.47A1.44,1.44,0,0,1,116.3,272.35ZM121.89,258h4.81a4.39,4.39,0,0,0,3.34-1.25,5.23,5.23,0,0,0,1.18-3.7v-.51a5.22,5.22,0,0,0-1.18-3.7,4.39,4.39,0,0,0-3.34-1.25h-4.81Z"/><path d="M140.25,272.35v-28a1.36,1.36,0,0,1,.82-1.29,4.75,4.75,0,0,1,4,0,1.36,1.36,0,0,1,.82,1.29v24.81h10.49a1.39,1.39,0,0,1,1.23.73,3.51,3.51,0,0,1,0,3.44,1.39,1.39,0,0,1-1.23.73H142.7a3.14,3.14,0,0,1-1.72-.47A1.47,1.47,0,0,1,140.25,272.35Z"/><path d="M161.06,272.35V244.44a1.47,1.47,0,0,1,.73-1.29,3.14,3.14,0,0,1,1.72-.47h15.31a1.44,1.44,0,0,1,1.31.73,3.15,3.15,0,0,1,.45,1.68,3.23,3.23,0,0,1-.47,1.76,1.47,1.47,0,0,1-1.29.73H166.65v8.6h6.54a1.5,1.5,0,0,1,1.29.67,2.65,2.65,0,0,1,.47,1.57,2.58,2.58,0,0,1-.45,1.48,1.5,1.5,0,0,1-1.31.67h-6.54v8.64h12.17a1.47,1.47,0,0,1,1.29.73,3.21,3.21,0,0,1,.47,1.76,3.15,3.15,0,0,1-.45,1.68,1.44,1.44,0,0,1-1.31.73H163.51a3.14,3.14,0,0,1-1.72-.47A1.47,1.47,0,0,1,161.06,272.35Z"/><path d="M181,271.63a2.74,2.74,0,0,1,.09-.46l8.31-27.05a2.06,2.06,0,0,1,1.27-1.25,5.59,5.59,0,0,1,2.3-.45,5.3,5.3,0,0,1,2.32.49,2.24,2.24,0,0,1,1.29,1.4l8.3,27.05a3.21,3.21,0,0,1,.08.43,1.93,1.93,0,0,1-1.16,1.63,4.56,4.56,0,0,1-2.36.69c-1.06,0-1.7-.37-1.9-1.12l-1.63-5.72h-9.21L187.08,273q-.33,1.11-2.13,1.11a5.48,5.48,0,0,1-2.68-.71A2.08,2.08,0,0,1,181,271.63Zm8.93-8.74h7.43l-3.74-13.2Z"/><path d="M207,269.17a3.35,3.35,0,0,1,.75-2,2.11,2.11,0,0,1,1.7-1,2.2,2.2,0,0,1,1.27.53,13.72,13.72,0,0,1,1.37,1.19,6.4,6.4,0,0,0,1.92,1.18,6.82,6.82,0,0,0,2.75.54,6,6,0,0,0,3.44-1,3.18,3.18,0,0,0,1.37-2.79,3.78,3.78,0,0,0-.75-2.31,5.92,5.92,0,0,0-2-1.67,28,28,0,0,0-2.68-1.29c-1-.42-2-.88-2.95-1.4a18,18,0,0,1-2.71-1.74,7,7,0,0,1-2-2.58,8.64,8.64,0,0,1-.75-3.68,8.76,8.76,0,0,1,.92-4.08,7.12,7.12,0,0,1,2.48-2.75,11.76,11.76,0,0,1,3.31-1.44,15,15,0,0,1,3.74-.46,18,18,0,0,1,2.36.16,21.83,21.83,0,0,1,2.65.5,5.66,5.66,0,0,1,2.28,1.11,2.28,2.28,0,0,1,.88,1.77,4,4,0,0,1-.6,2,1.84,1.84,0,0,1-1.64,1,7.84,7.84,0,0,1-2.1-.82,8.91,8.91,0,0,0-3.83-.81,6.2,6.2,0,0,0-3.59.88,2.77,2.77,0,0,0-1.27,2.43,2.83,2.83,0,0,0,1,2.17,8.28,8.28,0,0,0,2.56,1.5c1,.39,2.12.88,3.31,1.46a28.43,28.43,0,0,1,3.31,1.92,8,8,0,0,1,2.56,3,9.64,9.64,0,0,1,1,4.58,8.46,8.46,0,0,1-2.81,6.8,11.05,11.05,0,0,1-7.42,2.4,13.86,13.86,0,0,1-7-1.68Q207,271.14,207,269.17Z"/><path d="M230.89,264.52V244.4a1.36,1.36,0,0,1,.82-1.29,4.75,4.75,0,0,1,3.95,0,1.36,1.36,0,0,1,.82,1.29v20.12q0,5,4.73,5t4.73-5V244.4a1.36,1.36,0,0,1,.82-1.29,4.75,4.75,0,0,1,4,0,1.36,1.36,0,0,1,.82,1.29v20.12q0,5.07-2.82,7.46a13,13,0,0,1-15,0C231.83,270.43,230.89,267.93,230.89,264.52Z"/><path d="M256.56,272.35v-28a1.65,1.65,0,0,1,.52-1.21,1.75,1.75,0,0,1,1.29-.51h8.51q10.2,0,10.19,9a9.63,9.63,0,0,1-1.52,5.67,7.55,7.55,0,0,1-4.11,2.92l5.63,10.45a1,1,0,0,1,.22.69,2.59,2.59,0,0,1-1.12,2,3.65,3.65,0,0,1-2.37.93,2.12,2.12,0,0,1-1.93-1.34l-6.11-11.87h-3.61v11.23a1.44,1.44,0,0,1-.82,1.29,3.91,3.91,0,0,1-2,.47,4,4,0,0,1-2-.47A1.45,1.45,0,0,1,256.56,272.35Zm5.59-15.61h4.73q4.61,0,4.6-4.56t-4.6-4.6h-4.73Z"/><path d="M281.07,272.35V244.44a1.47,1.47,0,0,1,.73-1.29,3.14,3.14,0,0,1,1.72-.47h15.31a1.44,1.44,0,0,1,1.31.73,3.45,3.45,0,0,1,0,3.44,1.47,1.47,0,0,1-1.29.73H286.66v8.6h6.54a1.5,1.5,0,0,1,1.29.67,2.65,2.65,0,0,1,.47,1.57,2.58,2.58,0,0,1-.45,1.48,1.5,1.5,0,0,1-1.31.67h-6.54v8.64h12.17a1.47,1.47,0,0,1,1.29.73,3.45,3.45,0,0,1,0,3.44,1.44,1.44,0,0,1-1.31.73H283.52a3.14,3.14,0,0,1-1.72-.47A1.47,1.47,0,0,1,281.07,272.35Z"/><rect class="cls-7" x="26.5" y="151.5" width="366" height="61" rx="30.5"/><path d="M159.75,197.35V169.44a1.47,1.47,0,0,1,.73-1.29,3.14,3.14,0,0,1,1.72-.47h15a1.41,1.41,0,0,1,1.29.71,3.27,3.27,0,0,1,.43,1.7,3.31,3.31,0,0,1-.45,1.76,1.43,1.43,0,0,1-1.27.73H165.34v8.6h6.58a1.46,1.46,0,0,1,1.27.64,2.74,2.74,0,0,1,.45,1.6,2.56,2.56,0,0,1-.45,1.5,1.47,1.47,0,0,1-1.27.65h-6.58v11.78a1.45,1.45,0,0,1-.84,1.29,4,4,0,0,1-2,.47,3.91,3.91,0,0,1-2-.47A1.44,1.44,0,0,1,159.75,197.35Z"/><path d="M180.91,189.52v-12c0-3.42.9-5.91,2.73-7.49a12.59,12.59,0,0,1,14.68,0c1.83,1.58,2.75,4.07,2.75,7.49v12c0,3.41-.92,5.91-2.75,7.48a12.55,12.55,0,0,1-14.68,0C181.81,195.43,180.91,192.93,180.91,189.52Zm5.59,0q0,4.95,4.47,4.95t4.51-4.95v-12q0-5-4.51-4.95t-4.47,4.95Z"/><path d="M205.84,197.35V169.4a1.69,1.69,0,0,1,.52-1.21,1.76,1.76,0,0,1,1.29-.51h8.52q10.19,0,10.19,9a9.56,9.56,0,0,1-1.53,5.67,7.55,7.55,0,0,1-4.11,2.92l5.64,10.45a1.09,1.09,0,0,1,.21.69,2.59,2.59,0,0,1-1.12,2,3.63,3.63,0,0,1-2.36.93,2.14,2.14,0,0,1-1.94-1.34l-6.1-11.87h-3.62v11.23a1.45,1.45,0,0,1-.81,1.29,4.36,4.36,0,0,1-3.94,0A1.45,1.45,0,0,1,205.84,197.35Zm5.59-15.61h4.74c3.06,0,4.6-1.52,4.6-4.56s-1.54-4.6-4.6-4.6h-4.74Z"/><path d="M230.35,197.35V170.47a2.62,2.62,0,0,1,.8-2.1,3,3,0,0,1,2-.69,4.51,4.51,0,0,1,2.45.56,7,7,0,0,1,1.89,2.4l5.29,9.64,5.29-9.64a6.84,6.84,0,0,1,1.91-2.4,4.67,4.67,0,0,1,2.48-.56,3,3,0,0,1,2,.69,2.62,2.62,0,0,1,.79,2.1v26.88a1.45,1.45,0,0,1-.84,1.29,4,4,0,0,1-1.95.47,3.92,3.92,0,0,1-2-.47,1.44,1.44,0,0,1-.82-1.29V178.86l-5,8.94a2,2,0,0,1-1.89,1.12,2,2,0,0,1-1.85-1.12l-4.95-9.29v18.84a1.44,1.44,0,0,1-.83,1.29,4.36,4.36,0,0,1-3.94,0A1.46,1.46,0,0,1,230.35,197.35Z"/></g></g></svg>