<svg xmlns="http://www.w3.org/2000/svg" xmlns:xlink="http://www.w3.org/1999/xlink" width="220" height="15" viewBox="0 0 220 15">
    <defs>
        <path id="a" d="M0 14.583h219.792V0H0z"/>
    </defs>
    <g fill="none" fill-rule="evenodd">
        <path fill="#E11F26" d="M46.425 2.743c.046.22.073.455.073.69 0 1.758-1.404 3.18-3.13 3.18-1.728 0-3.13-1.422-3.13-3.18 0-1.758 1.402-3.182 3.13-3.182 1.495 0 2.743 1.067 3.057 2.492zM46.425 10.525c.046.222.073.455.073.691 0 1.757-1.404 3.183-3.13 3.183-1.728 0-3.13-1.426-3.13-3.183s1.402-3.18 3.13-3.18c1.495 0 2.743 1.065 3.057 2.49"/>
        <path fill="#FFF" d="M56.005.327v8.677c0 2.078.758 3.078 2.632 3.078 1.894 0 2.651-.981 2.651-3.078V.327h2.802v8.985c0 3.424-1.95 5.271-5.434 5.271-3.522 0-5.472-1.847-5.472-5.271V.327h2.821zM66.455 3.982h2.632v1.212c.757-.98 1.78-1.48 3.048-1.48 2.216 0 3.314 1.173 3.314 3.52v6.964h-2.69V8.023c0-1.386-.397-2.04-1.552-2.04-1.25 0-2.064.808-2.064 2.155v6.06h-2.688V3.982z"/>
        <mask id="b" fill="#fff">
            <use xlink:href="#a"/>
        </mask>
        <path fill="#FFF" d="M77.63 2.847h2.688V.365h-2.689v2.482zm0 11.352h2.688V3.982h-2.689V14.2zM81.442 3.982h2.972l2.064 7.33 2.083-7.33h2.84l-3.597 10.216h-2.746zM101.064 11.101c-.55 2.136-2.272 3.444-4.658 3.444-2.86 0-4.734-2.078-4.734-5.522 0-3.347 1.799-5.406 4.696-5.406 3.067 0 4.829 1.962 4.829 5.483 0 .231 0 .462-.02.712h-6.721c.076 1.597.776 2.424 2.083 2.424.908 0 1.495-.346 1.836-1.135h2.689zm-2.651-3.078c-.038-1.386-.738-2.117-1.988-2.117-1.155 0-1.856.731-1.97 2.117h3.958zM102.885 3.982h2.5v1.751c.7-1.404 1.609-2.04 2.896-2.04.133 0 .265 0 .398.02v2.77h-.89c-1.458 0-2.215.77-2.215 2.309v5.406h-2.689V3.982zM112.173 10.87c.038 1.04.72 1.54 2.101 1.54 1.08 0 1.648-.385 1.648-1.02 0-.885-.871-.828-2.65-1.29-2.368-.615-3.485-1.346-3.485-3.078 0-2.058 1.553-3.405 4.128-3.405 2.707 0 4.298 1.289 4.393 3.482h-2.613c-.039-.866-.663-1.366-1.761-1.366-1.023 0-1.515.308-1.515.943 0 .712.833.789 2.745 1.25 2.329.558 3.465 1.212 3.465 3.06 0 2.308-1.628 3.559-4.714 3.559-2.803 0-4.431-1.366-4.431-3.56v-.115h2.689zM120.325 2.847h2.69V.365h-2.69v2.482zm0 11.352h2.69V3.982h-2.69V14.2zM128.258 14.333c-2.216 0-2.689-.77-2.689-2.905V5.906h-1.325V3.982h1.325v-2.79h2.67v2.79h1.553v1.924h-1.553v5.657c0 .539.17.654.89.654h.663v2.059c-.739.019-1.25.057-1.534.057M139.955 11.101c-.55 2.136-2.272 3.444-4.658 3.444-2.86 0-4.734-2.078-4.734-5.522 0-3.347 1.799-5.406 4.696-5.406 3.067 0 4.828 1.962 4.828 5.483 0 .231 0 .462-.019.712h-6.722c.076 1.597.777 2.424 2.083 2.424.91 0 1.496-.346 1.837-1.135h2.689zm-2.651-3.078c-.038-1.386-.739-2.117-1.988-2.117-1.155 0-1.856.731-1.97 2.117h3.958zM144.688 14.333c-2.215 0-2.688-.77-2.688-2.905V5.906h-1.326V3.982H142v-2.79h2.67v2.79h1.552v1.924h-1.553v5.657c0 .539.17.654.89.654h.663v2.059c-.739.019-1.25.057-1.534.057M156.385 11.101c-.55 2.136-2.272 3.444-4.658 3.444-2.859 0-4.734-2.078-4.734-5.522 0-3.347 1.799-5.406 4.696-5.406 3.068 0 4.828 1.962 4.828 5.483 0 .231 0 .462-.019.712h-6.721c.075 1.597.776 2.424 2.082 2.424.91 0 1.496-.346 1.837-1.135h2.689zm-2.65-3.078c-.04-1.386-.74-2.117-1.99-2.117-1.154 0-1.855.731-1.968 2.117h3.957zM161.118 14.333c-2.216 0-2.689-.77-2.689-2.905V5.906h-1.325V3.982h1.325v-2.79h2.67v2.79h1.553v1.924h-1.553v5.657c0 .539.17.654.89.654h.663v2.059c-.739.019-1.25.057-1.534.057M169.636 2.847h2.689V.365h-2.689v2.482zm0 11.352h2.689V3.982h-2.689V14.2zM186.39 0c4.071 0 6.666 2.828 6.666 7.292 0 4.463-2.595 7.291-6.665 7.291-4.071 0-6.646-2.828-6.646-7.291 0-4.464 2.575-7.292 6.646-7.292m0 12.101c2.385 0 3.825-1.731 3.825-4.81 0-3.078-1.44-4.81-3.825-4.81-2.367 0-3.787 1.732-3.787 4.81 0 3.079 1.42 4.81 3.787 4.81M197.021 10.87c.038 1.04.72 1.54 2.103 1.54 1.079 0 1.647-.385 1.647-1.02 0-.885-.871-.828-2.651-1.29-2.367-.615-3.484-1.346-3.484-3.078 0-2.058 1.552-3.405 4.127-3.405 2.708 0 4.298 1.289 4.394 3.482h-2.613c-.038-.866-.664-1.366-1.761-1.366-1.023 0-1.515.308-1.515.943 0 .712.833.789 2.745 1.25 2.33.558 3.465 1.212 3.465 3.06 0 2.308-1.628 3.559-4.715 3.559-2.802 0-4.43-1.366-4.43-3.56v-.115h2.688zM205.192 14.199h2.689V.365h-2.69zM214.698 3.617c3.162 0 5.094 2.059 5.094 5.464 0 3.405-1.932 5.464-5.094 5.464-3.162 0-5.094-2.059-5.094-5.464 0-3.405 1.932-5.464 5.094-5.464m0 8.638c1.496 0 2.348-1.135 2.348-3.174 0-2.04-.852-3.156-2.348-3.156s-2.367 1.116-2.367 3.156.871 3.174 2.367 3.174M12.349 9.255c0 .949-.11 1.752-.33 2.41-.222.66-.558 1.193-1.012 1.602-.454.41-1.02.704-1.702.889-.68.184-1.487.275-2.42.275a8.271 8.271 0 0 1-2.17-.265 4.315 4.315 0 0 1-1.682-.86c-.467-.395-.83-.908-1.089-1.54-.259-.634-.389-1.411-.389-2.332V1.253L0 .957V.363h4.822v.594l-1.556.296v8.832c0 1.093.338 1.953 1.012 2.58.674.624 1.666.938 2.975.938 1.375 0 2.37-.324 2.985-.97.616-.644.924-1.664.924-3.061V1.253L9.607.957V.363h4.297v.594l-1.555.296v8.002zM18.208 5.698v7.608l1.556.296v.593h-4.609v-.593l1.556-.296V5.501l-1.556-.593v-.336l3.053-.494.078.04zM32.668 12.596c-1.129 1.223-2.73 1.835-4.804 1.835-1.983 0-3.53-.594-4.638-1.787-1.109-1.192-1.662-2.94-1.662-5.246 0-1.199.151-2.253.457-3.162.304-.909.735-1.667 1.293-2.272A5.338 5.338 0 0 1 25.346.59c.797-.31 1.689-.465 2.674-.465.986 0 1.87.152 2.654.454a5.163 5.163 0 0 1 1.994 1.355c.544.6.963 1.34 1.254 2.222.292.883.437 1.905.437 3.063 0 2.357-.563 4.15-1.691 5.376m-1.4-10.079c-.778-1.04-1.874-1.56-3.287-1.56-1.44 0-2.547.503-3.325 1.51-.779 1.009-1.167 2.592-1.167 4.753 0 2.187.382 3.798 1.147 4.83.765 1.036 1.866 1.553 3.306 1.553s2.548-.506 3.326-1.522c.777-1.014 1.166-2.595 1.166-4.742 0-2.174-.389-3.781-1.166-4.822M16.506 1.171c0 .29.094.53.281.72a.953.953 0 0 0 .71.287.987.987 0 0 0 1.012-1.007A1.006 1.006 0 0 0 17.497.144a.934.934 0 0 0-.71.295 1.025 1.025 0 0 0-.281.732" mask="url(#b)"/>
    </g>
</svg>
