<svg id="Layer_1" data-name="Layer 1" xmlns="http://www.w3.org/2000/svg" viewBox="0 0 2186 862"><defs><style>.cls-1,.cls-2,.cls-3,.cls-4,.cls-5,.cls-6,.cls-7{fill:none;stroke-linecap:round;stroke-miterlimit:10;}.cls-1,.cls-3,.cls-6{stroke:#ff502f;}.cls-1,.cls-7{stroke-width:96.62px;}.cls-2,.cls-5{stroke:#5bd1d7;}.cls-2,.cls-3{stroke-width:144.92px;}.cls-4,.cls-7{stroke:#004d61;}.cls-4,.cls-5,.cls-6{stroke-width:48.31px;}</style></defs><title>Artboard 1 copy 3</title><line class="cls-1" x1="148.31" y1="147.94" x2="148.31" y2="534.08"/><line class="cls-2" x1="1316.37" y1="689.54" x2="1437.24" y2="689.54"/><line class="cls-3" x1="668.98" y1="172.09" x2="975.18" y2="172.09"/><line class="cls-4" x1="386.1" y1="360.94" x2="822.08" y2="360.94"/><line class="cls-4" x1="1706.63" y1="123.79" x2="1706.63" y2="485.79"/><line class="cls-4" x1="202.08" y1="737.85" x2="346.89" y2="737.85"/><line class="cls-4" x1="1140.24" y1="507.68" x2="1285.29" y2="507.68"/><line class="cls-5" x1="2061.85" y1="592.8" x2="2061.85" y2="737.85"/><line class="cls-5" x1="975.18" y1="375.84" x2="975.18" y2="737.85"/><line class="cls-5" x1="1860.79" y1="303.44" x2="1860.79" y2="737.85"/><ellipse class="cls-6" cx="1774.4" cy="392.14" rx="217.56" ry="217.2"/><line class="cls-7" x1="2037.69" y1="148.31" x2="2037.69" y2="148.31"/><line class="cls-7" x1="738.98" y1="534.01" x2="738.98" y2="534.01"/><line class="cls-7" x1="342.39" y1="161.88" x2="342.39" y2="161.88"/><line class="cls-7" x1="738.98" y1="713.69" x2="738.98" y2="713.69"/><path class="cls-5" d="M1200.46,123.79h145c60.23,0,109.06,48.62,109.06,108.6S1405.73,341,1345.5,341h-80.58"/><line class="cls-5" x1="519.76" y1="632.64" x2="330.12" y2="495.89"/></svg>