<svg id="Layer_1" data-name="Layer 1" xmlns="http://www.w3.org/2000/svg" viewBox="0 0 862 862"><defs><style>.cls-1,.cls-2,.cls-3,.cls-4,.cls-5,.cls-6,.cls-7{fill:none;stroke-linecap:round;stroke-miterlimit:10;}.cls-1,.cls-3,.cls-6{stroke:#ff502f;}.cls-1,.cls-7{stroke-width:60px;}.cls-2,.cls-5{stroke:#5bd1d7;}.cls-2,.cls-3{stroke-width:90px;}.cls-4,.cls-7{stroke:#004d61;}.cls-4,.cls-5,.cls-6{stroke-width:30px;}</style></defs><title>Artboard 1 copy 2</title><line class="cls-1" x1="129.63" y1="129.63" x2="129.63" y2="369.63"/><line class="cls-2" x1="307.52" y1="588.95" x2="382.52" y2="588.95"/><line class="cls-3" x1="279.63" y1="144.63" x2="469.63" y2="144.63"/><line class="cls-4" x1="114.63" y1="477.36" x2="114.63" y2="747.36"/><line class="cls-4" x1="207.63" y1="462.12" x2="207.63" y2="687.12"/><line class="cls-4" x1="471.63" y1="657.36" x2="471.63" y2="747.36"/><line class="cls-4" x1="623.29" y1="316.03" x2="713.29" y2="316.03"/><line class="cls-5" x1="389.54" y1="249.58" x2="299.54" y2="249.58"/><line class="cls-5" x1="543.23" y1="262.37" x2="543.23" y2="487.37"/><line class="cls-5" x1="668.29" y1="477.36" x2="668.29" y2="747.36"/><circle class="cls-6" cx="612.37" cy="517.37" r="135"/><line class="cls-7" x1="407.31" y1="322.37" x2="407.31" y2="322.37"/><line class="cls-7" x1="407.31" y1="402.37" x2="407.31" y2="402.37"/><line class="cls-7" x1="215.18" y1="249.58" x2="215.18" y2="249.58"/><line class="cls-7" x1="320.82" y1="732.37" x2="320.82" y2="732.37"/><path class="cls-5" d="M589.69,114.63h90a67.5,67.5,0,1,1,0,135h-50"/><line class="cls-5" x1="329.63" y1="457.36" x2="211.96" y2="372.37"/></svg>